<?xml version="1.0" encoding="iso-8859-1"?>
<!-- Generator: Adobe Illustrator 19.0.0, SVG Export Plug-In . SVG Version: 6.00 Build 0)  -->
<svg version="1.1" id="Capa_1" xmlns="http://www.w3.org/2000/svg" xmlns:xlink="http://www.w3.org/1999/xlink" x="0px" y="0px"
	 viewBox="0 0 491.52 491.52" style="enable-background:new 0 0 491.52 491.52;" xml:space="preserve">
<circle style="fill:#EA8953;" cx="245.76" cy="245.76" r="245.76"/>
<path style="opacity:0.1;enable-background:new    ;" d="M234.835,106.942c-1.006-1.198-2.453-1.996-4.128-1.996H125.491
	c-3.021,0-5.478,2.458-5.478,5.53v28.006c0,1.453,0.581,2.743,1.479,3.725l-0.03,0.012l0.115,0.114
	c0.036,0.038,0.071,0.073,0.109,0.11l12.567,12.565c-0.249,5.137-2.492,9.989-6.405,13.323l-12.8,11.06
	c-6.4,5.53-10.086,13.567-10.086,22.016v177.049c0,2.382,1.033,4.486,2.649,5.96l104.788,104.788
	c10.916,1.483,22.04,2.315,33.363,2.315c101.038,0,187.796-60.994,225.566-148.15L234.87,106.914L234.835,106.942z"/>
<path style="fill:#64798A;" d="M230.69,104.96H125.512c-3.045,0-5.513,2.468-5.513,5.513v28.025c0,3.044,2.468,5.512,5.512,5.512
	h105.179c3.044,0,5.512-2.468,5.512-5.512v-28.025C236.203,107.428,233.735,104.96,230.69,104.96z"/>
<path style="fill:#FFFFFF;" d="M241.166,179.396l-12.799-11.039c-4.145-3.575-6.528-8.777-6.528-14.25V144.01h-87.475v10.096
	c0,5.473-2.383,10.675-6.527,14.25l-12.8,11.039c-6.398,5.518-10.077,13.549-10.077,21.998v177.08c0,4.466,3.62,8.086,8.086,8.086
	h130.11c4.466,0,8.086-3.62,8.086-8.086v-177.08C251.242,192.945,247.564,184.914,241.166,179.396z"/>
<path style="fill:#EBF0F3;" d="M115.27,197.643c-0.245,1.225-0.387,2.478-0.387,3.75v175.242h126.435V201.395
	c0-1.272-0.142-2.526-0.387-3.751H115.27z"/>
<path style="fill:#D5D6DB;" d="M104.96,370.339v8.135c0,4.466,3.62,8.086,8.086,8.086h130.11c4.466,0,8.086-3.62,8.086-8.086v-8.135
	C203.003,360.433,154.218,360.885,104.96,370.339z"/>
<path style="fill:#FFFFFF;" d="M175.034,232.63c-5.715,0-10.348,4.633-10.348,10.348v78.287c0,5.715,4.633,10.348,10.348,10.348
	h76.209V232.63H175.034z"/>
<path style="fill:#FCD462;" d="M175.644,311.119c0.01,6.621,7.958,13.196,23.388,17.772c27.635,8.198,68.748,6.885,91.826-2.93
	c10.193-4.335,15.145-9.604,15.137-14.841v-27.813H175.644V311.119z"/>
<path style="fill:#F6C358;" d="M282.608,265.177c-27.636-8.197-68.748-6.885-91.827,2.93c-23.079,9.815-19.385,24.417,8.25,32.614
	c27.635,8.197,68.748,6.885,91.826-2.93C313.937,287.975,310.243,273.374,282.608,265.177z"/>
<path style="fill:#FCD462;" d="M280.917,266.903c-26.517-7.401-65.967-6.217-88.112,2.646c-22.145,8.862-18.601,22.047,7.917,29.448
	c26.518,7.401,65.967,6.217,88.112-2.645C310.979,287.487,307.434,274.303,280.917,266.903z"/>
<path style="fill:#F6C358;" d="M282.607,265.177c-1.954-0.58-3.982-1.106-6.06-1.591l-83.004,35.301
	c1.713,0.64,3.534,1.254,5.488,1.834c1.954,0.58,3.982,1.106,6.06,1.591l83.004-35.301
	C286.382,266.371,284.561,265.756,282.607,265.177z"/>
<path style="fill:#44C4A1;" d="M255.997,243.552c-2.857,5.972,1.461,15.34,13.388,26.145c21.362,19.354,58.99,35.971,84.043,37.114
	c11.065,0.506,17.81-2.1,20.07-6.824l12.042-25.071L268.039,218.48L255.997,243.552z"/>
<path style="fill:#3EA69B;" d="M372.307,248.447c-21.362-19.354-58.99-35.971-84.043-37.114
	c-25.054-1.144-28.046,13.618-6.684,32.971c21.363,19.354,58.99,35.971,84.043,37.114
	C390.677,282.563,393.669,267.801,372.307,248.447z"/>
<path style="fill:#44C4A1;" d="M370.036,249.271c-20.699-18.152-56.772-34.164-80.571-35.762
	c-23.799-1.599-26.312,11.82-5.613,29.972c20.699,18.152,56.772,34.164,80.571,35.763
	C388.222,280.842,390.735,267.423,370.036,249.271z"/>
<path style="fill:#3EA69B;" d="M372.307,248.447c-1.511-1.369-3.11-2.721-4.773-4.058l-90.106-4.115
	c1.267,1.318,2.642,2.661,4.153,4.029c1.51,1.369,3.11,2.721,4.773,4.058l90.106,4.114
	C375.193,251.158,373.817,249.816,372.307,248.447z"/>
<path style="fill:#27A2DB;" d="M206.617,322.458c-17.117,0-30.992,13.876-30.992,30.992c0,17.117,13.876,30.992,30.992,30.992
	h74.476v-61.984H206.617z"/>
<path style="fill:#2D93BA;" d="M175.933,349.311c-0.182,1.358-0.308,2.732-0.308,4.139c0,17.117,13.876,30.992,30.992,30.992h74.476
	v-8.278h-74.476C190.908,376.164,177.961,364.466,175.933,349.311z"/>
<path style="fill:#E56353;" d="M355.568,322.458c17.116,0,30.992,13.876,30.992,30.992c0,17.117-13.876,30.992-30.992,30.992
	h-74.475v-61.984H355.568z"/>
<path style="fill:#D15241;" d="M386.252,349.311c0.181,1.358,0.308,2.732,0.308,4.139c0,17.117-13.876,30.992-30.992,30.992h-74.475
	v-8.278h74.475C371.277,376.164,384.224,364.466,386.252,349.311z"/>
<g>
</g>
<g>
</g>
<g>
</g>
<g>
</g>
<g>
</g>
<g>
</g>
<g>
</g>
<g>
</g>
<g>
</g>
<g>
</g>
<g>
</g>
<g>
</g>
<g>
</g>
<g>
</g>
<g>
</g>
</svg>
