<?xml version="1.0" encoding="iso-8859-1"?>
<!-- Generator: Adobe Illustrator 19.0.0, SVG Export Plug-In . SVG Version: 6.00 Build 0)  -->
<svg version="1.1" id="Layer_1" xmlns="http://www.w3.org/2000/svg" xmlns:xlink="http://www.w3.org/1999/xlink" x="0px" y="0px"
	 viewBox="0 0 512 512" style="enable-background:new 0 0 512 512;" xml:space="preserve">
<path style="fill:#F5CDB3;" d="M64.226,447.771c-26.116,0-47.684-20.441-49.102-46.533L0.074,124.265
	C-0.639,111.142,3.8,98.527,12.576,88.743c8.775-9.784,20.835-15.564,33.958-16.277l197.389-10.726
	c27.335-1.498,50.332,19.474,51.798,46.461l15.051,276.973c1.473,27.089-19.369,50.327-46.458,51.799l-197.39,10.725
	C66.022,447.747,65.119,447.771,64.226,447.771z"/>
<path style="fill:#707070;" d="M100.77,139.761c-19.015,0-34.719-14.88-35.753-33.876l-1.905-35.058
	c-1.07-19.722,14.103-36.639,33.823-37.711l92.618-5.032c19.847-1.09,36.645,14.178,37.713,33.824l1.905,35.058
	c1.072,19.721-14.101,36.638-33.824,37.71l-92.618,5.032C102.073,139.744,101.418,139.761,100.77,139.761z"/>
<path style="fill:#FF8546;" d="M168.922,477.926c-6.675,0-13.001-3.972-15.683-10.532L87.179,305.795
	c-3.54-8.658,0.611-18.546,9.269-22.086c8.658-3.537,18.545,0.611,22.086,9.269l66.061,161.599c3.54,8.658-0.61,18.546-9.269,22.086
	C173.228,477.521,171.056,477.926,168.922,477.926z"/>
<path style="fill:#F0A479;" d="M310.773,385.173L295.722,108.2c-1.244-22.893-17.985-41.452-39.721-45.642v374.866l8.313-0.452
	C291.404,435.5,312.246,412.262,310.773,385.173z"/>
<path style="fill:#CCF7F5;" d="M481.387,483.971h-243.22c-16.88,0-30.613-13.733-30.613-30.614V223.761
	c0-4.493,1.785-8.8,4.961-11.975l99.021-99.021c3.176-3.176,7.484-4.961,11.975-4.961h157.876c16.88,0,30.613,13.733,30.613,30.614
	v314.939C512,470.238,498.267,483.971,481.387,483.971z"/>
<path style="fill:#74D6D0;" d="M481.387,106.719H323.51c-4.492,0-8.8,1.784-11.975,4.961l-55.534,55.534v315.672h225.386
	c16.88,0,30.613-13.733,30.613-30.614V137.333C512,120.452,498.267,106.719,481.387,106.719z"/>
<path style="fill:#F4F4F4;" d="M334.441,110.1c-2.904-2.956-6.944-4.794-11.414-4.794c-0.025,0-0.344,0.017-0.344,0.017
	c-4.183,0.09-7.968,1.778-10.769,4.486l-0.005-0.006L211.253,210.546l0.001,0.001c-2.31,2.774-3.701,6.34-3.701,10.233
	c0,8.84,7.166,16.007,16.006,16.007c0.199,0,0.391-0.023,0.587-0.029c0.196,0.008,0.388,0.029,0.587,0.029h97.975
	c9.254,0,16.757-7.504,16.757-16.757v-97.976C339.464,117.369,337.538,113.141,334.441,110.1z"/>
<path style="fill:#E0E0E0;" d="M334.441,110.1c-2.904-2.956-6.944-4.794-11.414-4.794c-0.025,0-0.344,0.017-0.344,0.017
	c-4.183,0.09-7.968,1.778-10.769,4.486l-0.005-0.006l-55.908,55.956v71.026h66.706c9.254,0,16.757-7.504,16.757-16.757v-97.975
	C339.464,117.369,337.538,113.141,334.441,110.1z"/>
<g>
	<path style="fill:#575757;" d="M450.932,300.269H303.451c-9.353,0-16.936-7.583-16.936-16.936c0-9.353,7.583-16.936,16.936-16.936
		h147.481c9.353,0,16.936,7.583,16.936,16.936C467.868,292.686,460.287,300.269,450.932,300.269z"/>
	<path style="fill:#575757;" d="M450.932,350.653H303.451c-9.353,0-16.936-7.583-16.936-16.936c0-9.353,7.583-16.936,16.936-16.936
		h147.481c9.353,0,16.936,7.583,16.936,16.936C467.868,343.07,460.287,350.653,450.932,350.653z"/>
	<path style="fill:#575757;" d="M450.932,401.038H303.451c-9.353,0-16.936-7.583-16.936-16.936c0-9.353,7.583-16.936,16.936-16.936
		h147.481c9.353,0,16.936,7.583,16.936,16.936C467.868,393.455,460.287,401.038,450.932,401.038z"/>
</g>
<g>
</g>
<g>
</g>
<g>
</g>
<g>
</g>
<g>
</g>
<g>
</g>
<g>
</g>
<g>
</g>
<g>
</g>
<g>
</g>
<g>
</g>
<g>
</g>
<g>
</g>
<g>
</g>
<g>
</g>
</svg>
