<?xml version="1.0" encoding="iso-8859-1"?>
<!-- Generator: Adobe Illustrator 19.0.0, SVG Export Plug-In . SVG Version: 6.00 Build 0)  -->
<svg version="1.1" id="Capa_1" xmlns="http://www.w3.org/2000/svg" xmlns:xlink="http://www.w3.org/1999/xlink" x="0px" y="0px"
	 viewBox="0 0 512 512" style="enable-background:new 0 0 512 512;" xml:space="preserve">
<circle style="fill:#FFDD3B;" cx="256" cy="256" r="256"/>
<path style="fill:#F3C000;" d="M510.817,231.382l-99.631-99.631c-17.06-17.06-40.63-27.613-66.664-27.613
	c-37.964,0-70.654,22.455-85.593,54.796l-20.01-20.01c-17.28-21.22-43.593-34.785-73.094-34.785
	c-52.069,0-94.278,42.21-94.278,94.278c0,20.027,3.459,38.925,9.419,56.633H28.414v24.648l232.244,232.244
	C399.891,509.455,512,395.828,512,256C512,247.694,511.59,239.486,510.817,231.382z"/>
<path style="fill:#FF3630;" d="M344.522,104.139c-41.547,0-76.791,26.887-89.349,64.2c-12.558-37.314-47.801-64.2-89.348-64.2
	c-52.069,0-94.278,42.21-94.278,94.278c0,146.039,183.627,232.19,183.627,232.19s183.627-86.151,183.627-232.19
	C438.8,146.349,396.591,104.139,344.522,104.139z"/>
<path style="fill:#DE220E;" d="M255.174,168.339c12.558-37.314,47.801-64.2,89.349-64.2c52.069,0,94.278,42.21,94.278,94.278
	c0,146.039-183.627,232.19-183.627,232.19V168.339z"/>
<path style="fill:#FFFFFF;" d="M209.574,378.963c-5.866,0.001-10.921-4.137-12.081-9.892l-27.436-136.318l-7.563,37.084
	c-1.169,5.74-6.219,9.861-12.075,9.861H28.414v-24.648h111.943l17.708-86.824c1.17-5.74,6.219-9.861,12.075-9.861
	c0.005,0,0.011,0,0.016,0c5.863,0.008,10.908,4.145,12.065,9.892l27.091,134.609l14.043-72.889c1.11-5.761,6.127-9.941,11.993-9.992
	c5.889-0.101,10.956,4.041,12.166,9.781l5.331,25.283h20.58l26.755-79.658c1.84-5.48,7.24-8.949,12.99-8.33
	c5.748,0.614,10.297,5.139,10.94,10.884l10.145,90.683l0.591-3.376c1.03-5.898,6.152-10.203,12.141-10.203h141.109v24.648H357.345
	l-13.623,77.971c-1.034,5.913-6.17,10.202-12.136,10.203c-0.128,0-0.254-0.002-0.384-0.006c-6.128-0.188-11.186-4.854-11.869-10.948
	L305.81,236.044l-11.842,35.254c-1.685,5.018-6.388,8.4-11.682,8.4h-39.437c-1.339,0-2.636-0.216-3.854-0.617l-17.318,89.89
	c-1.114,5.781-6.162,9.968-12.05,9.992C209.609,378.963,209.592,378.963,209.574,378.963z"/>
<path style="fill:#52A9DD;" d="M334.847,265.253l-0.591,3.376l-10.145-90.683c-0.643-5.746-5.193-10.271-10.94-10.884
	c-5.75-0.619-11.15,2.851-12.99,8.33l-26.755,79.658h-18.252v24.648h27.112c5.294,0,9.997-3.382,11.682-8.4l11.842-35.254
	l13.524,120.874c0.682,6.094,5.741,10.759,11.869,10.948c0.13,0.004,0.257,0.006,0.384,0.006
	c5.967-0.001,11.103-4.289,12.136-10.203l13.623-77.971h130.751v-24.648H346.987C340.999,255.05,335.878,259.354,334.847,265.253z"
	/>
<g>
</g>
<g>
</g>
<g>
</g>
<g>
</g>
<g>
</g>
<g>
</g>
<g>
</g>
<g>
</g>
<g>
</g>
<g>
</g>
<g>
</g>
<g>
</g>
<g>
</g>
<g>
</g>
<g>
</g>
</svg>
