<?xml version="1.0" encoding="iso-8859-1"?>
<!-- Generator: Adobe Illustrator 19.0.0, SVG Export Plug-In . SVG Version: 6.00 Build 0)  -->
<svg version="1.1" id="Layer_1" xmlns="http://www.w3.org/2000/svg" xmlns:xlink="http://www.w3.org/1999/xlink" x="0px" y="0px"
	 viewBox="0 0 297 297" style="enable-background:new 0 0 297 297;" xml:space="preserve">
<g>
	<g>
		<g>
			<g>
				<circle style="fill:#FFA800;" cx="148.5" cy="148.5" r="148.5"/>
			</g>
		</g>
	</g>
	<path style="fill:#D38700;" d="M296.82,141.214l-54.007-54.027L54.764,210.363l86.47,86.458c2.408,0.116,4.83,0.179,7.266,0.179
		c82.014,0,148.5-66.486,148.5-148.5C297,146.057,296.937,143.628,296.82,141.214z"/>
	<path style="fill:#32373B;" d="M65.5,214.5h166c8.837,0,16-7.164,16-16v-100c0-8.837-7.164-16-16-16h-166c-8.837,0-16,7.164-16,16
		v100C49.5,207.336,56.664,214.5,65.5,214.5z"/>
	<path style="fill:#32373B;" d="M231.5,82.5h-87.333v132H231.5c8.837,0,16-7.164,16-16v-100C247.5,89.664,240.336,82.5,231.5,82.5z"
		/>
	<path style="fill:#D0D5D9;" d="M71.917,198h87.167c3.268,0,5.916-2.649,5.916-5.917v-87.167c0-3.268-2.649-5.917-5.916-5.917
		H71.917C68.649,99,66,101.649,66,104.917v87.167C66,195.351,68.649,198,71.917,198z"/>
	<path style="fill:#A1A5A8;" d="M159.083,99h-14.917v99h14.917c3.268,0,5.917-2.649,5.917-5.917v-87.167
		C165,101.649,162.351,99,159.083,99z"/>
	<path style="fill:#F86E51;" d="M165,143.302h-42.556c-1.969,0-3.769,1.113-4.649,2.873l-5.48,10.961l-15.61-31.22
		c-0.881-1.76-2.68-2.873-4.649-2.873s-3.769,1.113-4.649,2.873l-8.693,17.386H66v10.396h15.926c1.969,0,3.769-1.113,4.649-2.873
		l5.48-10.961l15.61,31.22c0.881,1.76,2.68,2.873,4.649,2.873s3.769-1.113,4.649-2.873l8.693-17.386H165V143.302z"/>
	<rect x="144.167" y="143.302" style="fill:#C63C22;" width="20.833" height="10.396"/>
	<circle style="fill:#F86E51;" cx="222.75" cy="107.25" r="8.25"/>
	<circle style="fill:#F86E51;" cx="189.75" cy="107.25" r="8.25"/>
	<circle style="fill:#F86E51;" cx="222.75" cy="140.25" r="8.25"/>
	<circle style="fill:#F86E51;" cx="189.75" cy="140.25" r="8.25"/>
	<rect x="181.5" y="165" style="fill:#E8D579;" width="49.5" height="16.5"/>
</g>
<g>
</g>
<g>
</g>
<g>
</g>
<g>
</g>
<g>
</g>
<g>
</g>
<g>
</g>
<g>
</g>
<g>
</g>
<g>
</g>
<g>
</g>
<g>
</g>
<g>
</g>
<g>
</g>
<g>
</g>
</svg>
