<?xml version="1.0" encoding="iso-8859-1"?>
<!-- Generator: Adobe Illustrator 19.0.0, SVG Export Plug-In . SVG Version: 6.00 Build 0)  -->
<svg version="1.1" id="Layer_1" xmlns="http://www.w3.org/2000/svg" xmlns:xlink="http://www.w3.org/1999/xlink" x="0px" y="0px"
	 viewBox="0 0 496.159 496.159" style="enable-background:new 0 0 496.159 496.159;" xml:space="preserve">
<path style="fill:#334D5C;" d="M248.083,0.003C111.071,0.003,0,111.063,0,248.085c0,137.001,111.07,248.07,248.083,248.07
	c137.006,0,248.076-111.069,248.076-248.07C496.159,111.062,385.089,0.003,248.083,0.003z"/>
<path style="fill:#EFEEE4;" d="M1.926,217.079c-1.266,10.158-1.925,20.505-1.925,31.006c0,10.497,0.659,20.84,1.925,30.994h401.466
	v-62H1.926z"/>
<rect x="106.8" y="217.079" style="fill:#9E9D86;" width="4.781" height="62"/>
<polygon style="fill:#9FA09F;" points="419.028,246.079 411.361,239.079 421.361,225.079 422.876,217.079 403.392,217.079 
	403.392,279.079 413.694,279.079 420.194,274.579 418.194,267.079 422.876,260.079 "/>
<polygon style="fill:#888988;" points="422.876,217.079 403.392,246.079 403.392,257.079 413.694,279.079 420.194,274.579 
	413.694,250.579 419.028,246.079 411.361,239.079 421.361,225.079 "/>
<path style="fill:#E79E2F;" d="M1.926,217.079c-1.266,10.158-1.925,20.505-1.925,31.006c0,10.497,0.659,20.84,1.925,30.994h76.172
	v-62H1.926z"/>
<g>
	<circle style="fill:#E5AA5C;" cx="67.47" cy="224.159" r="3.495"/>
	<circle style="fill:#E5AA5C;" cx="67.47" cy="240.409" r="3.495"/>
	<circle style="fill:#E5AA5C;" cx="67.47" cy="256.659" r="3.495"/>
	<circle style="fill:#E5AA5C;" cx="67.47" cy="272.909" r="3.495"/>
	<circle style="fill:#E5AA5C;" cx="37.37" cy="224.159" r="3.495"/>
	<circle style="fill:#E5AA5C;" cx="37.37" cy="240.409" r="3.495"/>
	<circle style="fill:#E5AA5C;" cx="37.37" cy="256.659" r="3.495"/>
	<circle style="fill:#E5AA5C;" cx="37.37" cy="272.909" r="3.495"/>
	<circle style="fill:#E5AA5C;" cx="7.262" cy="224.159" r="3.495"/>
	<circle style="fill:#E5AA5C;" cx="7.262" cy="240.409" r="3.495"/>
	<circle style="fill:#E5AA5C;" cx="7.262" cy="256.659" r="3.495"/>
	<circle style="fill:#E5AA5C;" cx="7.262" cy="272.909" r="3.495"/>
	<circle style="fill:#E5AA5C;" cx="52.62" cy="232.089" r="3.495"/>
	<circle style="fill:#E5AA5C;" cx="52.62" cy="248.339" r="3.495"/>
	<circle style="fill:#E5AA5C;" cx="52.62" cy="264.589" r="3.495"/>
	<circle style="fill:#E5AA5C;" cx="22.513" cy="232.089" r="3.495"/>
	<circle style="fill:#E5AA5C;" cx="22.513" cy="248.339" r="3.495"/>
	<circle style="fill:#E5AA5C;" cx="22.513" cy="264.589" r="3.495"/>
</g>
<g>
	<path style="fill:#60737C;" d="M421.33,158.189c0,0-44.596,0-44.592,0l-47.979-0.161c-9.345,0.604-16.704,7.079-16.704,14.989
		c0,8.306,11.106,15.046,16.639,15.046h74.256c3.92,0,7.1-1.935,7.1-4.183c0-1.956-2.792-3.742-5.621-3.979
		c-2.833-0.24-11.124,0.24-13.169-0.183c-2.968-0.522-5.127-2.105-5.127-3.978c0-2.051,2.593-3.752,6.001-4.092
		c-0.516-0.091,29.197-0.172,29.197-0.172c6.403,0,11.592-2.974,11.592-6.645C432.923,161.165,427.733,158.189,421.33,158.189z"/>
	<path style="fill:#60737C;" d="M348.592,71.981h-74.924c-6.204,0-11.241-2.882-11.241-6.44c0-3.557,5.037-6.438,11.241-6.438
		c0,0,11.618-0.097,11.618-0.147c5.128-0.597,8.988-3.194,8.988-6.313c0-3.555-5.031-6.438-11.236-6.438l-50.546,0.055
		l-53.382,0.058c-8.569,0-15.512,5.76-15.512,12.866c0,6.604,6.003,12.033,13.723,12.773h13.92c9.92,0,17.964,4.608,17.964,10.292
		c0,5.686-8.044,10.294-17.964,10.294l-28.339,0.013c-7.99,0.517-14.282,6.052-14.282,12.815c0,7.102,6.943,12.865,15.507,12.865
		h156.008c6.069,0,10.993-2.996,10.993-6.476c0-3.029-4.322-5.793-8.703-6.161c-4.386-0.371-17.222,0.372-20.389-0.283
		c-4.596-0.808-7.939-3.259-7.939-6.158c0-3.175,4.015-5.809,9.291-6.336c-0.798-0.14,45.203-0.267,45.203-0.267
		c9.914,0,17.948-4.604,17.948-10.287C366.54,76.587,358.505,71.981,348.592,71.981z"/>
</g>
<g>
</g>
<g>
</g>
<g>
</g>
<g>
</g>
<g>
</g>
<g>
</g>
<g>
</g>
<g>
</g>
<g>
</g>
<g>
</g>
<g>
</g>
<g>
</g>
<g>
</g>
<g>
</g>
<g>
</g>
</svg>
