<?xml version="1.0" encoding="iso-8859-1"?>
<!-- Generator: Adobe Illustrator 19.0.0, SVG Export Plug-In . SVG Version: 6.00 Build 0)  -->
<svg version="1.1" id="Layer_1" xmlns="http://www.w3.org/2000/svg" xmlns:xlink="http://www.w3.org/1999/xlink" x="0px" y="0px"
	 viewBox="0 0 509.287 509.287" style="enable-background:new 0 0 509.287 509.287;" xml:space="preserve">
<circle style="fill:#FBD303;" cx="254.644" cy="254.644" r="254.644"/>
<path style="fill:#414753;" d="M361.791,231.926c-13.902,0-25.091-11.189-25.091-24.752v-35.942H172.588v35.942
	c0,13.563-11.189,24.752-25.091,24.752h-25.43L85.446,362.13v70.527h338.395V362.13l-36.62-130.204L361.791,231.926L361.791,231.926
	z"/>
<circle style="fill:#FCFCFD;" cx="254.644" cy="314.999" r="95.279"/>
<path style="fill:#646B79;" d="M483.518,200.392l-2.713-16.615C471.311,122.744,370.268,76.97,254.644,76.97
	S37.637,122.744,28.143,183.777l-2.373,16.615c-1.695,10.172,6.103,19.327,16.615,19.327h107.147
	c10.172,0,18.31-9.155,16.275-19.327l-5.425-31.195c-2.713-16.615,39.332-30.856,94.262-30.856s97.314,14.241,94.262,30.856
	l-5.425,31.195c-1.695,10.172,6.103,19.327,16.276,19.327h107.147C477.415,219.38,485.213,210.564,483.518,200.392z"/>
<polygon style="fill:#F0582F;" points="331.274,292.959 276.344,292.959 276.344,238.368 232.943,238.368 232.943,292.959 
	178.013,292.959 178.013,336.699 232.943,336.699 232.943,391.629 276.344,391.629 276.344,336.699 331.274,336.699 "/>
<g>
	<path style="fill:#414753;" d="M204.8,132.577L204.8,132.577c-5.425,0-9.833,4.408-9.833,9.833v28.821h20.005v-28.821
		C214.633,136.985,210.225,132.577,204.8,132.577z"/>
	<path style="fill:#414753;" d="M304.487,132.577c-5.425,0-9.833,4.408-9.833,9.833v28.821h20.005v-28.821
		C314.66,136.985,309.913,132.577,304.487,132.577z"/>
</g>
<g>
</g>
<g>
</g>
<g>
</g>
<g>
</g>
<g>
</g>
<g>
</g>
<g>
</g>
<g>
</g>
<g>
</g>
<g>
</g>
<g>
</g>
<g>
</g>
<g>
</g>
<g>
</g>
<g>
</g>
</svg>
