<?xml version="1.0" encoding="iso-8859-1"?>
<!-- Generator: Adobe Illustrator 19.0.0, SVG Export Plug-In . SVG Version: 6.00 Build 0)  -->
<svg version="1.1" id="Layer_1" xmlns="http://www.w3.org/2000/svg" xmlns:xlink="http://www.w3.org/1999/xlink" x="0px" y="0px"
	 viewBox="0 0 460 460" style="enable-background:new 0 0 460 460;" xml:space="preserve">
<g id="XMLID_2897_">
	<path id="XMLID_851_" style="fill:#EABFA6;" d="M395,185L395,185c0,102.173-82.827,185-185,185h-10c-24.853,0-45,20.147-45,45l0,0
		c0,24.853-20.147,45-45,45l0,0c-24.853,0-45-20.147-45-45v-45V120C65,53.726,118.726,0,185,0h25C312.173,0,395,82.827,395,185z"/>
	<path id="XMLID_853_" style="fill:#F2CAB6;" d="M105,370v45c0,17.667,10.186,32.947,25,40.311c-6.026,2.996-12.814,4.689-20,4.689
		c-24.853,0-45-20.147-45-45v-45V120C65,53.726,118.726,0,185,0h25c2.766,0,5.514,0.072,8.251,0.193
		C155.117,3.693,105,55.991,105,120V370z"/>
	<path id="XMLID_917_" style="fill:#DDA997;" d="M395,185L395,185c0,102.173-82.827,185-185,185h-10
		c-24.818,0-45.048,20.092-45,44.911C155.048,439.804,134.883,460,110,460c-20.726,0-38.168-14.017-43.393-33.084
		C71.682,428.9,77.199,430,82.977,430c24.883,0,45.048-20.196,45-45.089c-0.048-24.818,20.182-44.911,45-44.911h10
		c102.173,0,185-82.827,185-185l0,0c0-1.51,0.004-2.936,0-4.307v-15.439c0-8.425,6.829-15.254,15.254-15.254l0,0
		C390.829,140.222,395,162.121,395,185z"/>
	<path id="XMLID_1251_" style="fill:#F2CAB6;" d="M331.75,157.75L331.75,157.75c0,32.811-16.644,61.723-41.938,78.791
		C272.889,262.692,243.467,280,210,280h-5c0,16.849-13.89,30.453-30.843,29.988C157.816,309.54,145,295.723,145,279.376V258.73
		c0-4.584,3.128-8.54,7.565-9.692C165.471,245.685,175,233.956,175,220l0,0c0-13.956-9.529-25.685-22.435-29.038
		c-4.437-1.153-7.565-5.109-7.565-9.692V155c0-35.843,43.272-62.288,34.23-57.52c10.889-20.648,32.554-34.73,57.52-34.73
		C289.217,62.75,331.75,105.283,331.75,157.75z"/>
	<path id="XMLID_1252_" style="fill:#D8987F;" d="M305,185L305,185c0,52.467-42.533,95-95,95h-5
		c0,16.849-13.89,30.453-30.843,29.988C157.816,309.54,145,295.723,145,279.376V258.73c0-4.584,3.128-8.54,7.565-9.692
		C165.471,245.685,175,233.956,175,220l0,0c0-13.955-9.529-25.685-22.435-29.038c-4.437-1.153-7.565-5.108-7.565-9.692V155
		c0-35.898,29.101-65,65-65l0,0C262.467,90,305,132.533,305,185z"/>
	<path id="XMLID_1261_" style="fill:#C48572;" d="M305.067,185L305.067,185c0,23.341-8.423,44.712-22.388,61.251
		c1.561-6.833,2.388-13.945,2.388-21.251l0,0c0-52.467-42.533-95-95-95l0,0c-17.265,0-32.945,6.744-44.584,17.725
		C149.101,115.253,176.629,90,210.067,90l0,0C262.534,90,305.067,132.533,305.067,185z"/>
	<path id="XMLID_1253_" style="fill:#C48572;" d="M174.936,221.511h0.023v88.479c-0.268,0-0.533,0.006-0.802-0.001
		C157.816,309.54,145,295.723,145,279.376V258.73c0-4.584,3.128-8.54,7.565-9.692C165,245.808,174.274,234.793,174.936,221.511z"/>
</g>
<g>
</g>
<g>
</g>
<g>
</g>
<g>
</g>
<g>
</g>
<g>
</g>
<g>
</g>
<g>
</g>
<g>
</g>
<g>
</g>
<g>
</g>
<g>
</g>
<g>
</g>
<g>
</g>
<g>
</g>
</svg>
