<?xml version="1.0" encoding="iso-8859-1"?>
<!-- Generator: Adobe Illustrator 19.0.0, SVG Export Plug-In . SVG Version: 6.00 Build 0)  -->
<svg version="1.1" id="Capa_1" xmlns="http://www.w3.org/2000/svg" xmlns:xlink="http://www.w3.org/1999/xlink" x="0px" y="0px"
	 viewBox="0 0 512.005 512.005" style="enable-background:new 0 0 512.005 512.005;" xml:space="preserve">
<path style="fill:#FF525D;" d="M10.822,448.927l108.743-108.743c14.429-14.429,37.824-14.429,52.254,0l0,0
	c14.429,14.429,14.429,37.824,0,52.254L63.076,501.181c-14.429,14.429-37.824,14.429-52.254,0l0,0
	C-3.607,486.751-3.607,463.356,10.822,448.927z"/>
<path style="fill:#EF4152;" d="M32.016,470.121L140.76,361.378c10.656-10.656,26.197-13.433,39.41-8.351
	c-1.799-4.68-4.577-9.07-8.351-12.844l0,0c-14.429-14.429-37.824-14.429-52.254,0L10.822,448.927
	c-14.429,14.429-14.429,37.824,0,52.253l0,0c3.774,3.774,8.164,6.551,12.844,8.351C18.584,496.319,21.361,480.777,32.016,470.121z"
	/>
<circle style="fill:#FFD15C;" cx="328.853" cy="183.155" r="183.152"/>
<circle style="fill:#34ABE0;" cx="328.853" cy="183.155" r="137.499"/>
<path style="fill:#279FC9;" d="M288.85,280.378c-53.695-53.695-53.695-140.752,0-194.449c19.528-19.528,43.469-31.945,68.612-37.269
	c-43.993-9.316-91.669,3.102-125.837,37.269c-53.695,53.695-53.695,140.752,0,194.449c34.168,34.168,81.843,46.587,125.837,37.269
	C332.319,312.323,308.377,299.905,288.85,280.378z"/>
<path style="fill:#FF525D;" d="M165.191,278.511l68.302,68.302c9.063,9.063,9.063,23.757,0,32.821l0,0
	c-9.063,9.063-23.757,9.063-32.821,0l-68.302-68.302c-9.063-9.063-9.063-23.757,0-32.821l0,0
	C141.433,269.447,156.127,269.447,165.191,278.511z"/>
<path style="fill:#EF4152;" d="M160.359,306.5L160.359,306.5c9.063-9.063,23.757-9.063,32.821,0l-27.99-27.989
	c-9.063-9.063-23.757-9.063-32.821,0l0,0c-9.063,9.063-9.063,23.757,0,32.821l27.99,27.989
	C151.297,330.258,151.297,315.564,160.359,306.5z"/>
<circle style="fill:#78CAEF;" cx="403.839" cy="162.426" r="25.433"/>
<g>
	<rect x="271.3" y="93.396" style="fill:#E8DBC4;" width="115.097" height="15.896"/>
	<rect x="291.933" y="141.38" style="fill:#E8DBC4;" width="73.831" height="15.896"/>
</g>
<path style="fill:#EF4152;" d="M365.761,83.4h-73.826c-4.389,0-7.948-3.559-7.948-7.948c0-4.389,3.559-7.948,7.948-7.948h73.826
	c4.389,0,7.948,3.559,7.948,7.948C373.709,79.841,370.151,83.4,365.761,83.4z"/>
<path style="fill:#E8DBC4;" d="M365.761,300.643h-73.826c-4.389,0-7.948-3.559-7.948-7.948s3.559-7.948,7.948-7.948h73.826
	c4.389,0,7.948,3.559,7.948,7.948S370.151,300.643,365.761,300.643z"/>
<g>
	<rect x="277.51" y="117.388" style="fill:#EF4152;" width="102.677" height="15.896"/>
	<rect x="292.696" y="210.061" style="fill:#EF4152;" width="72.305" height="15.896"/>
	<rect x="271.416" y="258.045" style="fill:#EF4152;" width="114.863" height="15.896"/>
</g>
<rect x="277.923" y="234.053" style="fill:#E8DBC4;" width="101.861" height="15.896"/>
<path style="fill:#FF525D;" d="M270.512,288.053c-4.389,0-7.948-3.559-7.948-7.948c0-51.738,31.13-77.344,61.236-102.107
	c28.51-23.45,55.437-45.6,55.437-89.831c0-4.389,3.559-7.948,7.948-7.948s7.948,3.559,7.948,7.948
	c0,51.738-31.13,77.344-61.236,102.108c-28.51,23.45-55.437,45.6-55.437,89.831C278.46,284.495,274.902,288.053,270.512,288.053z"/>
<path style="fill:#F9EED7;" d="M387.186,288.053c-4.389,0-7.948-3.559-7.948-7.948c0-44.231-26.929-66.381-55.437-89.831
	c-30.106-24.764-61.236-50.369-61.236-102.108c0-4.389,3.559-7.948,7.948-7.948c4.389,0,7.948,3.559,7.948,7.948
	c0,44.231,26.929,66.38,55.437,89.831c30.106,24.764,61.236,50.37,61.236,102.107C395.134,284.495,391.575,288.053,387.186,288.053z
	"/>
<g>
</g>
<g>
</g>
<g>
</g>
<g>
</g>
<g>
</g>
<g>
</g>
<g>
</g>
<g>
</g>
<g>
</g>
<g>
</g>
<g>
</g>
<g>
</g>
<g>
</g>
<g>
</g>
<g>
</g>
</svg>
