<?xml version="1.0" encoding="iso-8859-1"?>
<!-- Generator: Adobe Illustrator 19.0.0, SVG Export Plug-In . SVG Version: 6.00 Build 0)  -->
<svg version="1.1" id="Layer_1" xmlns="http://www.w3.org/2000/svg" xmlns:xlink="http://www.w3.org/1999/xlink" x="0px" y="0px"
	 viewBox="0 0 297 297" style="enable-background:new 0 0 297 297;" xml:space="preserve">
<g>
	<g>
		<g>
			<circle style="fill:#5E4534;" cx="148.5" cy="148.5" r="148.5"/>
		</g>
	</g>
	<path style="fill:#443124;" d="M292.116,110.616L222.75,41.25l-148.5,214.5l36.366,36.366c12.095,3.182,24.79,4.884,37.884,4.884
		c82.014,0,148.5-66.486,148.5-148.5C297,135.406,295.298,122.711,292.116,110.616z"/>
	<rect x="74.25" y="41.25" style="fill:#C3A99A;" width="148.5" height="214.5"/>
	<rect x="147.5" y="41.25" style="fill:#A89185;" width="75.25" height="214.5"/>
	<polygon style="fill:#FFFFFF;" points="116.932,235.25 210.891,235.25 210.891,53.75 86.109,53.75 86.109,204.427 	"/>
	<rect x="147.5" y="53.75" style="fill:#EDECEB;" width="63.39" height="181.5"/>
	<polygon style="fill:#DFDAD7;" points="116.932,204.427 86.109,204.427 116.932,235.25 	"/>
	<polygon style="fill:#F86E51;" points="169,129.167 155.333,129.167 155.333,115.5 141.667,115.5 141.667,129.167 128,129.167 
		128,142.833 141.667,142.833 141.667,156.5 155.333,156.5 155.333,142.833 169,142.833 	"/>
	<polygon style="fill:#DD5C47;" points="155.333,129.167 155.333,115.5 147.5,115.5 147.5,156.5 155.333,156.5 155.333,142.833 
		169,142.833 169,129.167 	"/>
	<path style="fill:#F5DB91;" d="M171.75,33H165c0-9.113-7.387-16.5-16.5-16.5S132,23.887,132,33h-6.75
		c-5.385,0-9.75,4.365-9.75,9.75v13.5c0,5.385,4.365,9.75,9.75,9.75h46.5c5.385,0,9.75-4.365,9.75-9.75v-13.5
		C181.5,37.365,177.135,33,171.75,33z"/>
	<path style="fill:#F0C082;" d="M171.75,33H165c0-9.113-7.387-16.5-16.5-16.5c-0.338,0-0.667,0.031-1,0.05V66h24.25
		c5.385,0,9.75-4.365,9.75-9.75v-13.5C181.5,37.365,177.135,33,171.75,33z"/>
</g>
<g>
</g>
<g>
</g>
<g>
</g>
<g>
</g>
<g>
</g>
<g>
</g>
<g>
</g>
<g>
</g>
<g>
</g>
<g>
</g>
<g>
</g>
<g>
</g>
<g>
</g>
<g>
</g>
<g>
</g>
</svg>
