<?xml version="1.0" encoding="iso-8859-1"?>
<!-- Generator: Adobe Illustrator 19.0.0, SVG Export Plug-In . SVG Version: 6.00 Build 0)  -->
<svg version="1.1" id="Layer_1" xmlns="http://www.w3.org/2000/svg" xmlns:xlink="http://www.w3.org/1999/xlink" x="0px" y="0px"
	 viewBox="0 0 500.8 500.8" style="enable-background:new 0 0 500.8 500.8;" xml:space="preserve">
<path style="fill:#058491;" d="M266.8,385.6c0,8.8-7.2,16-16,16l0,0c-8.8,0-16-7.2-16-16v-64c0-8.8,7.2-16,16-16l0,0
	c8.8,0,16,7.2,16,16V385.6z"/>
<path style="fill:#D8462A;" d="M437.2,308.8c15.2-32,24-62.4,24-97.6c0-116-94.4-210.4-210.4-210.4S40.4,95.2,40.4,211.2
	c0,35.2,8.8,65.6,24,97.6H437.2z"/>
<path style="fill:#B52815;" d="M66.8,308.8h370.4c15.2-32,24-62.4,24-97.6C461.2,95.2,368.4,0,251.6,0"/>
<g>
	<path style="fill:#E8BB9A;" d="M121.2,165.6c6.4,6.4,1.6,21.6-11.2,33.6C98,212,74,221.6,67.6,216c-6.4-6.4,7.2-25.6,20-38.4
		C99.6,164.8,114.8,159.2,121.2,165.6z"/>
	<path style="fill:#E8BB9A;" d="M77.2,220.8c-5.6,3.2-16-3.2-24-16c-8-12-9.6-24.8-4-28s16,3.2,24,16
		C80.4,204.8,82.8,217.6,77.2,220.8z"/>
	<path style="fill:#E8BB9A;" d="M280.4,252c-6.4,10.4-34.4,4.8-62.4-12.8s-44.8-40.8-38.4-51.2c6.4-10.4,34.4-4.8,62.4,12.8
		S286.8,241.6,280.4,252z"/>
	<path style="fill:#E8BB9A;" d="M186.8,207.2c-8-2.4-12-18.4-8-36.8s14.4-32,23.2-29.6c8.8,1.6,12,18.4,8,36.8
		S195.6,208.8,186.8,207.2z"/>
	<circle style="fill:#E8BB9A;" cx="202.8" cy="138.4" r="14.4"/>
</g>
<path style="fill:#F7DDC6;" d="M422.8,96.8c40.8,36.8,44.8,100,8,140.8s-86.4,29.6-127.2-7.2s-58.4-84.8-21.6-125.6
	C318,64,381.2,60,422.8,96.8z"/>
<path style="fill:#F4C6A6;" d="M430,237.6c-36.8,40.8-86.4,29.6-127.2-7.2"/>
<path style="fill:#F7DDC6;" d="M232.4,196c-2.4-27.2-86.4-21.6-130.4,3.2C90.8,204,82,212,76.4,225.6c-14.4,33.6,1.6,72.8,35.2,87.2
	c15.2,6.4,36,8.8,56.8,7.2c13.6,3.2,28,4.8,44,4.8c75.2,0,136-41.6,136-92S238.8,270.4,232.4,196z"/>
<g>
	<path style="fill:#F4C6A6;" d="M111.6,312.8c15.2,6.4,36,8.8,56.8,7.2c13.6,3.2,28,4.8,44,4.8c75.2,0,136-41.6,136-92"/>
	<path style="fill:#F4C6A6;" d="M86.8,268c-16-8-15.2-40.8,1.6-72c16.8-32,56.8-64.8,72.8-56.8s1.6,84-15.2,115.2
		S102.8,276,86.8,268z"/>
</g>
<g>
	<path style="fill:#F7DDC6;" d="M86.8,268c-16-8-15.2-40.8,1.6-72c16.8-32,56.8-64.8,72.8-56.8s0.8,54.4-16,86.4
		C95.6,320,102.8,276,86.8,268z"/>
	<path style="fill:#F7DDC6;" d="M165.2,144c2.4,8-9.6,19.2-26.4,24s-42.4,1.6-44.8-6.4s19.2-19.2,36-24S162.8,135.2,165.2,144z"/>
</g>
<path style="fill:#F4C6A6;" d="M321.2,249.6c-7.2,11.2-24,40-54.4,20.8c-29.6-19.2-61.6-79.2-54.4-90.4c7.2-11.2,37.6-4.8,67.2,14.4
	C310,214.4,328.4,238.4,321.2,249.6z"/>
<g>
	<path style="fill:#F7DDC6;" d="M321.2,249.6c-7.2,11.2-37.6,4.8-67.2-14.4s-48-44-40.8-55.2s37.6-4.8,67.2,14.4
		C310,214.4,328.4,238.4,321.2,249.6z"/>
	<path style="fill:#F7DDC6;" d="M220.4,201.6c-9.6-2.4-12.8-20-8.8-40c4.8-20,15.2-34.4,24.8-32c9.6,2.4,12.8,20,8.8,40
		C240.4,188.8,229.2,203.2,220.4,201.6z"/>
	<circle style="fill:#F7DDC6;" cx="237.2" cy="127.2" r="15.2"/>
	<path style="fill:#F7DDC6;" d="M98.8,167.2c-6.4,0-12-11.2-12.8-25.6c-0.8-14.4,4-26.4,10.4-26.4s12,11.2,12.8,25.6
		C110,155.2,105.2,167.2,98.8,167.2z"/>
</g>
<path style="fill:#756051;" d="M341.2,100.8c0,6.4-6.4-1.6-15.2-1.6c-8,0-15.2,7.2-15.2,0.8c0-6.4,7.2-12,15.2-12
	C334.8,88,341.2,93.6,341.2,100.8z"/>
<ellipse transform="matrix(0.0821 -0.9966 0.9966 0.0821 116.7952 414.8343)" style="fill:#B52815;" cx="283.6" cy="144.012" rx="26.399" ry="12.8"/>
<path style="fill:#77100B;" d="M270,143.2c0.8-14.4,8-25.6,15.2-24.8c7.2,0.8,12,12.8,11.2,27.2"/>
<path style="fill:#F7DDC6;" d="M298,112.8c-4,4.8-11.2,4.8-16.8,0.8c-5.6-4.8-7.2-12-4-16.8c4-4.8,11.2-4.8,16.8-0.8
	C300.4,100.8,302,108.8,298,112.8z"/>
<path style="fill:#36C9B4;" d="M16.4,292.8c0,8-0.8,4-0.8,6.4c0,18.4,15.2,33.6,33.6,33.6h402.4c18.4,0,33.6-15.2,33.6-33.6
	c0-2.4,0,1.6-0.8-6.4H16.4z"/>
<path style="fill:#22B2B2;" d="M20.4,316.8c4.8,8,14.4,16,28.8,16h402.4c14.4,0,24-8,28.8-16H20.4z"/>
<path style="fill:#36C9B4;" d="M394.8,484.8c-0.8-72-64.8-141.6-144-141.6s-142.4,69.6-144,141.6H394.8z"/>
<path style="fill:#22B2B2;" d="M106.8,484.8h288c-0.8-72-64.8-141.6-144-141.6"/>
<path style="fill:#CFE5E3;" d="M356.4,484.8c-4.8-56-50.4-96.8-105.6-96.8S150,428.8,145.2,484.8H356.4z"/>
<path style="fill:#E6FFFE;" d="M356.4,484.8c-4.8-56-50.4-84.8-105.6-84.8S150,428.8,145.2,484.8H356.4z"/>
<path style="fill:#CFE5E3;" d="M145.2,484.8h212c-0.8-7.2-0.8-7.2-2.4-16.8l-207.2,0.8C146,476.8,146,475.2,145.2,484.8z"/>
<circle style="fill:#7A9996;" cx="250.8" cy="468" r="11.2"/>
<path style="fill:#708E8C;" d="M250.8,456.8c6.4,0,11.2,4.8,11.2,11.2s-4.8,11.2-11.2,11.2"/>
<path style="fill:#CFE5E3;" d="M265.2,454.4c-1.6,1.6-4,1.6-4.8,0l0,0c-1.6-1.6-1.6-4,0-4.8l34.4-34.4c1.6-1.6,4-1.6,4.8,0l0,0
	c1.6,1.6,1.6,4,0,4.8L265.2,454.4z"/>
<path style="fill:#C4089C;" d="M265.2,452.8c-0.8,1.6-3.2,1.6-4.8,0.8l0,0c-1.6-0.8-1.6-3.2-0.8-4.8l28-40c0.8-1.6,3.2-1.6,4.8-0.8
	l0,0c1.6,0.8,1.6,3.2,0.8,4.8L265.2,452.8z"/>
<path style="fill:#36C9B4;" d="M418,492.8c0,6.4-4.8,8-11.2,8h-312c-6.4,0-11.2-1.6-11.2-8l0,0c0-6.4,4.8-8,11.2-8h312
	C413.2,484.8,418,486.4,418,492.8L418,492.8z"/>
<g>
	
		<ellipse transform="matrix(0.4741 -0.8805 0.8805 0.4741 120.2761 399.8517)" style="fill:#FFEBDC;" cx="394.852" cy="99.243" rx="13.6" ry="40.001"/>
	<circle style="fill:#FFEBDC;" cx="346" cy="83.2" r="5.6"/>
	<ellipse style="fill:#FFEBDC;" cx="237.2" cy="120.8" rx="8.8" ry="5.6"/>
	
		<ellipse transform="matrix(-0.0444 -0.999 0.999 -0.0444 7.6725 290.5722)" style="fill:#FFEBDC;" cx="142.813" cy="141.616" rx="4" ry="16"/>
</g>
<g>
</g>
<g>
</g>
<g>
</g>
<g>
</g>
<g>
</g>
<g>
</g>
<g>
</g>
<g>
</g>
<g>
</g>
<g>
</g>
<g>
</g>
<g>
</g>
<g>
</g>
<g>
</g>
<g>
</g>
</svg>
