<?xml version="1.0" encoding="iso-8859-1"?>
<!-- Generator: Adobe Illustrator 19.0.0, SVG Export Plug-In . SVG Version: 6.00 Build 0)  -->
<svg version="1.1" id="Capa_1" xmlns="http://www.w3.org/2000/svg" xmlns:xlink="http://www.w3.org/1999/xlink" x="0px" y="0px"
	 viewBox="0 0 512 512" style="enable-background:new 0 0 512 512;" xml:space="preserve">
<path style="fill:#00C1EC;" d="M334.63,410.942c-1.339-1.131-3.066-1.793-4.896-1.793c-1.991,0-3.842,0.785-5.21,2.103
	c-5.649,4.348-34.944,28.445-34.944,60.502c0,22.137,17.968,40.158,40.085,40.246c0.023,0,0.046,0,0.069,0c0.029,0,0.061,0,0.091,0
	c0.023,0,0.046,0,0.069,0c22.117-0.088,40.085-18.109,40.085-40.246C369.98,438.829,339.08,414.302,334.63,410.942z"/>
<path style="fill:#00AADE;" d="M334.63,410.942c-1.339-1.131-3.066-1.793-4.896-1.793c-1.991,0-3.842,0.785-5.21,2.103
	c-2.083,1.602-7.379,5.896-13.234,12.274c10.033,10.927,21.712,27.985,21.712,48.229c0,15.509-8.825,28.988-21.711,35.705
	c5.507,2.871,11.752,4.515,18.374,4.542c0.023,0,0.046,0,0.069,0c0.029,0,0.061,0,0.091,0c0.023,0,0.046,0,0.069,0
	c22.117-0.088,40.085-18.109,40.085-40.246C369.98,438.829,339.08,414.302,334.63,410.942z"/>
<path style="fill:#00C1EC;" d="M199.221,383.908c-1.336-1.12-3.052-1.776-4.874-1.776c-1.96,0-3.784,0.763-5.143,2.045
	c-5.115,3.94-31.458,25.635-31.458,54.563c0,20.177,16.376,36.602,36.534,36.682c0.022,0,0.044,0,0.067,0c0.027,0,0.054,0,0.081,0
	c0.023,0,0.044,0,0.067,0c20.159-0.08,36.534-16.505,36.534-36.682C231.029,409.069,203.317,387.006,199.221,383.908z"/>
<path style="fill:#00AADE;" d="M199.221,383.908c-1.336-1.12-3.052-1.776-4.874-1.776c-1.96,0-3.784,0.763-5.143,2.045
	c-2.029,1.562-7.398,5.926-13.136,12.418c8.731,9.877,18.319,24.691,18.319,42.145c0,13.539-7.379,25.38-18.32,31.735
	c5.364,3.116,11.581,4.921,18.213,4.947c0.022,0,0.044,0,0.067,0c0.027,0,0.054,0,0.081,0c0.023,0,0.044,0,0.067,0
	c20.159-0.08,36.534-16.505,36.534-36.682C231.029,409.069,203.317,387.006,199.221,383.908z"/>
<path id="SVGCleanerId_0" style="fill:#FFC89F;" d="M411.488,327.489c-5.126-15.792-16.621-39.347-42.279-61.875
	c-14.566-12.789-21.818-58.234-28.832-102.182C328.152,86.826,314.298,0,255.991,0c-58.306,0-72.16,86.826-84.385,163.431
	c-7.013,43.949-14.265,89.394-28.832,102.183c-43.781,38.441-54.699,88.393-42.743,115.876c5.251,12.073,17.374,25.334,45.29,25.333
	c4.361,0,9.113-0.324,14.281-1.027c14.252-1.939,27.319-6.193,34.544-8.854c17.829,25.436,39.117,38.835,61.844,38.835
	s44.016-13.399,61.845-38.835c7.225,2.661,20.292,6.915,34.544,8.854c5.169,0.704,9.917,1.027,14.281,1.027
	c27.913,0,40.04-13.26,45.29-25.333C418.162,367.215,417.993,347.533,411.488,327.489z"/>
<g>
	<path id="SVGCleanerId_0_1_" style="fill:#FFC89F;" d="M411.488,327.489c-5.126-15.792-16.621-39.347-42.279-61.875
		c-14.566-12.789-21.818-58.234-28.832-102.182C328.152,86.826,314.298,0,255.991,0c-58.306,0-72.16,86.826-84.385,163.431
		c-7.013,43.949-14.265,89.394-28.832,102.183c-43.781,38.441-54.699,88.393-42.743,115.876
		c5.251,12.073,17.374,25.334,45.29,25.333c4.361,0,9.113-0.324,14.281-1.027c14.252-1.939,27.319-6.193,34.544-8.854
		c17.829,25.436,39.117,38.835,61.844,38.835s44.016-13.399,61.845-38.835c7.225,2.661,20.292,6.915,34.544,8.854
		c5.169,0.704,9.917,1.027,14.281,1.027c27.913,0,40.04-13.26,45.29-25.333C418.162,367.215,417.993,347.533,411.488,327.489z"/>
</g>
<g>
	<path style="fill:#F7B081;" d="M411.488,327.489c-5.126-15.792-16.621-39.347-42.279-61.875
		c-14.566-12.789-21.818-58.234-28.832-102.182C328.152,86.826,314.298,0,255.991,0c-7.116,0-13.565,1.302-19.433,3.711
		c42.226,17.337,54.219,92.463,64.952,159.72c7.013,43.948,14.265,89.393,28.832,102.182c25.658,22.529,37.154,46.083,42.279,61.875
		c6.505,20.043,6.674,39.725,0.464,54c-3.972,9.133-11.887,18.942-27.59,23.178c2.251,0.424,4.55,0.81,6.884,1.127
		c5.169,0.704,9.917,1.027,14.281,1.027c27.913,0,40.04-13.26,45.29-25.333C418.162,367.215,417.993,347.533,411.488,327.489z"/>
	<path style="fill:#F7B081;" d="M411.952,381.489c0.897-2.062,1.644-4.247,2.275-6.519c-26.646-13.241-63.497-18.81-95.151,22.421
		c7.42,2.669,19.829,6.57,33.305,8.404c5.169,0.704,9.917,1.027,14.281,1.027C394.574,406.822,406.702,393.561,411.952,381.489z"/>
	<path style="fill:#F7B081;" d="M97.758,374.966c0.632,2.286,1.381,4.473,2.273,6.523c5.251,12.073,17.374,25.334,45.29,25.333
		c4.361,0,9.113-0.324,14.281-1.027c13.419-1.825,25.784-5.702,33.215-8.371C161.196,356.162,124.38,361.725,97.758,374.966z"/>
</g>
<g>
	<path style="fill:#F49864;" d="M194.462,397.381c-5.52-14.704-15.75-31.155-34.524-37.031c-3.956-1.238-8.166,0.966-9.404,4.921
		c-1.238,3.956,0.966,8.167,4.922,9.404c12.664,3.963,20.144,15.683,24.502,26.836c5.756-1.601,10.669-3.275,14.189-4.572
		C194.251,397.09,194.358,397.233,194.462,397.381z"/>
	<path style="fill:#F49864;" d="M352.044,360.351c-18.775,5.876-29.005,22.327-34.525,37.032c0.105-0.149,0.212-0.293,0.316-0.442
		c3.52,1.297,8.434,2.97,14.189,4.572c4.358-11.154,11.838-22.873,24.502-26.836c3.956-1.237,6.16-5.448,4.922-9.404
		C360.211,361.316,356.001,359.113,352.044,360.351z"/>
</g>
<g>
</g>
<g>
</g>
<g>
</g>
<g>
</g>
<g>
</g>
<g>
</g>
<g>
</g>
<g>
</g>
<g>
</g>
<g>
</g>
<g>
</g>
<g>
</g>
<g>
</g>
<g>
</g>
<g>
</g>
</svg>
