<?xml version="1.0" encoding="iso-8859-1"?>
<!-- Generator: Adobe Illustrator 19.0.0, SVG Export Plug-In . SVG Version: 6.00 Build 0)  -->
<svg version="1.1" id="Layer_1" xmlns="http://www.w3.org/2000/svg" xmlns:xlink="http://www.w3.org/1999/xlink" x="0px" y="0px"
	 viewBox="0 0 509.287 509.287" style="enable-background:new 0 0 509.287 509.287;" xml:space="preserve">
<circle style="fill:#886C60;" cx="254.644" cy="254.644" r="254.644"/>
<path style="fill:#F8B517;" d="M401.801,124.779H193.611c-7.46,0-14.58-3.391-18.988-9.155c0,0-11.528-24.752-31.195-24.752H45.775
	c-13.563,0-24.413,10.85-24.413,24.413v278.718c0,13.563,10.85,24.413,24.413,24.413h356.026c13.563,0,24.413-10.85,24.413-24.413
	V149.192C426.215,135.629,415.364,124.779,401.801,124.779z"/>
<path style="fill:#FBD303;" d="M463.513,156.652H109.181c-11.189,0-20.683,7.46-23.396,18.31L29.499,387.899
	c-4.069,15.597,7.46,30.517,23.396,30.517h354.67c11.189,0,20.683-7.46,23.396-18.31l55.947-213.277
	C491.317,171.571,479.449,156.652,463.513,156.652z"/>
<circle style="fill:#FFFFFF;" cx="258.374" cy="287.534" r="102.4"/>
<polygon style="fill:#F0582F;" points="327.205,270.919 274.988,270.919 274.988,218.363 241.759,218.363 241.759,270.919 
	189.203,270.919 189.203,304.148 241.759,304.148 241.759,356.366 274.988,356.366 274.988,304.148 327.205,304.148 "/>
<g>
</g>
<g>
</g>
<g>
</g>
<g>
</g>
<g>
</g>
<g>
</g>
<g>
</g>
<g>
</g>
<g>
</g>
<g>
</g>
<g>
</g>
<g>
</g>
<g>
</g>
<g>
</g>
<g>
</g>
</svg>
