<?xml version="1.0" encoding="iso-8859-1"?>
<!-- Generator: Adobe Illustrator 19.0.0, SVG Export Plug-In . SVG Version: 6.00 Build 0)  -->
<svg version="1.1" id="Layer_1" xmlns="http://www.w3.org/2000/svg" xmlns:xlink="http://www.w3.org/1999/xlink" x="0px" y="0px"
	 viewBox="0 0 509.287 509.287" style="enable-background:new 0 0 509.287 509.287;" xml:space="preserve">
<circle style="fill:#71D456;" cx="254.644" cy="254.644" r="254.644"/>
<g>
	<path style="fill:#646B79;" d="M120.71,446.22c0,8.816,7.121,15.936,15.936,15.936h235.656c8.816,0,15.936-7.121,15.936-15.936
		v-35.603H120.71V446.22z"/>
	<path style="fill:#646B79;" d="M388.577,63.068c0-8.816-7.121-15.936-15.936-15.936H136.646c-8.816,0-15.936,7.121-15.936,15.936
		v15.936h267.868V63.068z"/>
</g>
<rect x="120.71" y="79.343" style="fill:#F1F3F7;" width="267.528" height="331.274"/>
<g>
	<circle style="fill:#4F5565;" cx="254.644" cy="436.387" r="15.936"/>
	<rect x="232.943" y="60.355" style="fill:#4F5565;" width="43.401" height="6.103"/>
</g>
<polygon style="fill:#F0582F;" points="319.407,196.662 319.407,164.45 270.919,164.45 270.919,115.963 238.368,115.963 
	238.368,164.45 189.881,164.45 189.881,196.662 238.368,196.662 238.368,245.15 270.919,245.15 270.919,196.662 "/>
<g>
	<rect x="174.283" y="279.735" style="fill:#DEDEDF;" width="160.381" height="24.413"/>
	<rect x="174.283" y="337.717" style="fill:#DEDEDF;" width="160.381" height="24.413"/>
</g>
<g>
</g>
<g>
</g>
<g>
</g>
<g>
</g>
<g>
</g>
<g>
</g>
<g>
</g>
<g>
</g>
<g>
</g>
<g>
</g>
<g>
</g>
<g>
</g>
<g>
</g>
<g>
</g>
<g>
</g>
</svg>
