<?xml version="1.0" encoding="iso-8859-1"?>
<!-- Generator: Adobe Illustrator 19.0.0, SVG Export Plug-In . SVG Version: 6.00 Build 0)  -->
<svg version="1.1" id="Layer_1" xmlns="http://www.w3.org/2000/svg" xmlns:xlink="http://www.w3.org/1999/xlink" x="0px" y="0px"
	 viewBox="0 0 509.287 509.287" style="enable-background:new 0 0 509.287 509.287;" xml:space="preserve">
<circle style="fill:#886C60;" cx="254.644" cy="254.644" r="254.644"/>
<path style="fill:#DEDEDF;" d="M447.576,95.619c0-5.425-4.408-10.172-10.172-10.172H71.883c-5.425,0-10.172,4.408-10.172,10.172
	v241.759h385.865L447.576,95.619L447.576,95.619z"/>
<path style="fill:#F1F3F7;" d="M61.711,337.377v34.585c0,5.425,4.408,10.172,10.172,10.172h365.521
	c5.425,0,10.172-4.408,10.172-10.172v-34.585H61.711z"/>
<rect x="82.056" y="104.095" style="fill:#6EB1E1;" width="344.837" height="214.972"/>
<rect x="198.697" y="382.135" style="fill:#DEDEDF;" width="111.894" height="47.47"/>
<g>
	<path style="fill:#F1F3F7;" d="M320.424,429.266h-131.56c-23.057,0-42.045,18.649-42.045,42.045H362.13
		C362.469,448.254,343.481,429.266,320.424,429.266z"/>
	<path style="fill:#F1F3F7;" d="M312.286,298.045h-0.339c-3.052-0.339-5.425-2.713-5.764-5.764l-12.546-128.509l-15.936,53.574
		c-0.678,2.713-3.391,4.408-6.103,4.408h-28.143l-16.275,67.136c-0.678,3.052-3.391,4.747-6.442,4.747
		c-3.052,0-5.425-2.374-5.764-5.425l-14.58-106.13l-12.207,38.654c-0.678,2.713-3.391,4.408-6.103,4.408h-50.183
		c-3.391,0-6.442-2.713-6.442-6.442c0-3.391,2.713-6.442,6.442-6.442h45.775l19.327-60.694c1.017-2.713,3.73-4.747,6.442-4.408
		c3.052,0.339,5.425,2.374,5.764,5.425l13.563,100.366l9.833-38.993c0.678-2.713,3.052-4.747,6.103-4.747h28.143l23.735-79.682
		c1.017-2.713,3.73-4.747,6.781-4.408c3.052,0.339,5.425,2.713,5.764,5.764l12.207,124.101l11.189-44.758
		c0.678-2.713,3.052-4.747,6.103-4.747h45.097c3.391,0,6.442,2.713,6.442,6.442c0,3.391-2.713,6.442-6.442,6.442h-40.689
		l-18.649,75.274C317.711,296.011,314.999,298.045,312.286,298.045z"/>
</g>
<g>
</g>
<g>
</g>
<g>
</g>
<g>
</g>
<g>
</g>
<g>
</g>
<g>
</g>
<g>
</g>
<g>
</g>
<g>
</g>
<g>
</g>
<g>
</g>
<g>
</g>
<g>
</g>
<g>
</g>
</svg>
