<?xml version="1.0" encoding="iso-8859-1"?>
<!-- Generator: Adobe Illustrator 19.0.0, SVG Export Plug-In . SVG Version: 6.00 Build 0)  -->
<svg version="1.1" id="Layer_1" xmlns="http://www.w3.org/2000/svg" xmlns:xlink="http://www.w3.org/1999/xlink" x="0px" y="0px"
	 viewBox="0 0 512 512" style="enable-background:new 0 0 512 512;" xml:space="preserve">
<path style="fill:#D39F66;" d="M446,512h-73V60h83v442C456,507.523,451.523,512,446,512z"/>
<path style="fill:#AA7F59;" d="M456,60v80v362c0,5.523-4.477,10-10,10h-10V172.36c0-10.273-10.811-16.955-20-12.36l0,0h-20V60h40
	H456z"/>
<path style="fill:#9CDBD8;" d="M476,103.82c0,3.788-2.14,7.25-5.528,8.944L416,140l0,0h-20V10h20l0,0h50c5.523,0,10,4.477,10,10
	V103.82z"/>
<path style="fill:#F9C27A;" d="M416,20v482c0,5.523-4.477,10-10,10H46c-5.523,0-10-4.477-10-10V250c0-5.523,4.477-10,10-10h194V16
	c0-3.314,2.686-6,6-6h160C411.523,10,416,14.477,416,20z"/>
<path style="fill:#F2B770;" d="M273.172,259.233c0.447,5.808-4.145,10.767-9.971,10.767H246h-2H46c-5.523,0-10-4.477-10-10v-20h208
	L230.258,14.243c-0.14-2.3,1.688-4.243,3.993-4.243h10.489c5.225,0,9.57,4.023,9.971,9.233L273.172,259.233z"/>
<path style="fill:#D5F7F4;" d="M226,250H56c-11.046,0-20-8.954-20-20V20c0-5.523,4.477-10,10-10h190c5.523,0,10,4.477,10,10v210
	C246,241.046,237.046,250,226,250z"/>
<path style="fill:#D39F66;" d="M68.5,440c0-4.142,3.358-7.5,7.5-7.5h90c4.142,0,7.5,3.358,7.5,7.5s-3.358,7.5-7.5,7.5H76
	C71.858,447.5,68.5,444.142,68.5,440z M76,397.5h50c4.142,0,7.5-3.358,7.5-7.5s-3.358-7.5-7.5-7.5H76c-4.142,0-7.5,3.358-7.5,7.5
	S71.858,397.5,76,397.5z M196,462.5H76c-4.142,0-7.5,3.358-7.5,7.5s3.358,7.5,7.5,7.5h120c4.142,0,7.5-3.358,7.5-7.5
	S200.142,462.5,196,462.5z"/>
<path style="fill:#FC7F59;" d="M366,416.467v21.413c0,2.365-1.917,4.283-4.283,4.283h-23.554v23.554
	c0,2.365-1.917,4.283-4.283,4.283h-21.413c-2.365,0-4.283-1.917-4.283-4.283v-23.554H284.63c-2.365,0-4.283-1.917-4.283-4.283
	v-21.413c0-2.365,1.917-4.283,4.283-4.283h23.554V388.63c0-2.365,1.917-4.283,4.283-4.283h21.413c2.365,0,4.283,1.917,4.283,4.283
	v23.554h23.554C364.083,412.185,366,414.102,366,416.467z"/>
<path style="fill:#FFF8B3;" d="M126,177.859v-28.333h30v28.333L126,177.859L126,177.859z"/>
<path style="fill:#FFDB93;" d="M140.875,177.859v-28.333H156v28.333L140.875,177.859L140.875,177.859z"/>
<path style="fill:#FFF8B3;" d="M171.982,122.507v6.885c0,17.111-13.871,30.982-30.982,30.982l0,0
	c-17.111,0-30.982-13.871-30.982-30.982v-6.885c0-17.111,13.871-29.981,30.982-29.981l0,0
	C158.111,92.527,171.982,105.397,171.982,122.507z"/>
<path style="fill:#FFDB93;" d="M171.982,122.507v6.885c0,17.111-13.871,30.982-30.982,30.982l0,0c-3.127,0-6.145-0.468-8.991-1.33
	C144.734,155.191,154,143.376,154,129.392v-6.885c0-13.983-9.266-25.798-21.991-29.652c2.846-0.862,5.863-0.329,8.991-0.329l0,0
	C158.111,92.527,171.982,105.397,171.982,122.507z"/>
<path style="fill:#D6AA76;" d="M173.093,105.591l-1.02,12.76c-0.052,0.656-0.713,1.083-1.333,0.862l-13.534-4.827
	c-3.199-1.141-6.635-1.448-9.986-0.893l-36.116,5.981c-0.578,0.096-1.114-0.323-1.16-0.907l-1.038-12.976
	c-0.49-6.126,2.092-12.178,7.048-15.811c0.135-0.099,0.271-0.197,0.407-0.295c7.599-5.425,18.036-4.468,24.638,2.135l0,0l0,0
	c6.602-6.602,17.039-7.56,24.638-2.135c0.136,0.097,0.272,0.196,0.407,0.295C171.001,93.412,173.583,99.465,173.093,105.591z"/>
<path style="fill:#AA7F59;" d="M173.093,105.591l-1.021,12.76c-0.052,0.656-0.713,1.083-1.333,0.862l-13.534-4.827
	c-1.352-0.482-3.174-0.867-4.586-1.049c-1.747-8.622-5.815-15.938-11.627-21.729c6.634-6.638,17.158-7.468,24.646-2.123
	c0.136,0.097,0.272,0.196,0.407,0.294C171.001,93.412,173.583,99.465,173.093,105.591z"/>
<path style="fill:#FFFFFF;" d="M165.667,176.356v13.333c0,3.866-3.134,7-7,7H122.5c-3.866,0-7-3.134-7-7v-13.333
	c0-3.866,3.134-7,7-7h36.167C162.533,169.356,165.667,172.49,165.667,176.356z"/>
<path style="fill:#9CDBD8;" d="M205.84,239.333v-43.84c0-9.92-5.295-19.036-13.779-23.721l-0.034-0.019
	c-2.85-1.574-6.034-2.397-9.267-2.397h-24.647L141,186.993l-17.112-17.637H99.2c-3.242,0-6.433,0.828-9.289,2.409l0,0
	c-8.468,4.69-13.751,13.797-13.751,23.705v43.863L205.84,239.333L205.84,239.333z"/>
<g>
	<path style="fill:#81D3D1;" d="M205.84,195.493v43.84h-13.839v-43.84c0-9.92-5.295-19.036-13.779-23.721l-0.034-0.019
		c-2.85-1.574-6.034-2.397-9.267-2.397h13.839c3.234,0,6.417,0.823,9.267,2.397l0.034,0.019
		C200.544,176.457,205.84,185.573,205.84,195.493z"/>
	<path style="fill:#81D3D1;" d="M183.413,203.419V240.5h-15v-37.081c0-4.142,3.358-7.5,7.5-7.5S183.413,199.277,183.413,203.419z
		 M106.087,195.919c-4.142,0-7.5,3.358-7.5,7.5V240.5h15v-37.081C113.587,199.277,110.229,195.919,106.087,195.919z"/>
</g>
<path style="fill:#FCFCFC;" d="M36,20v220c0,5.523,4.477,10,10,10h190c5.523,0,10-4.477,10-10V20c0-5.523-4.477-10-10-10H46
	C40.477,10,36,14.477,36,20z M226,230H56V30h170V230z"/>
<path style="fill:#FC7F59;" d="M103.25,0h-40c-4.142,0-7.5,3.358-7.5,7.5v40c0,15.164,12.336,27.5,27.5,27.5s27.5-12.336,27.5-27.5
	v-40C110.75,3.358,107.392,0,103.25,0z M95.75,47.5c0,6.893-5.607,12.5-12.5,12.5s-12.5-5.607-12.5-12.5V15h25V47.5z"/>
<g>
</g>
<g>
</g>
<g>
</g>
<g>
</g>
<g>
</g>
<g>
</g>
<g>
</g>
<g>
</g>
<g>
</g>
<g>
</g>
<g>
</g>
<g>
</g>
<g>
</g>
<g>
</g>
<g>
</g>
</svg>
