<?xml version="1.0" encoding="iso-8859-1"?>
<!-- Generator: Adobe Illustrator 19.0.0, SVG Export Plug-In . SVG Version: 6.00 Build 0)  -->
<svg version="1.1" id="Layer_1" xmlns="http://www.w3.org/2000/svg" xmlns:xlink="http://www.w3.org/1999/xlink" x="0px" y="0px"
	 viewBox="0 0 509.287 509.287" style="enable-background:new 0 0 509.287 509.287;" xml:space="preserve">
<circle style="fill:#4B5AA7;" cx="254.644" cy="254.644" r="254.644"/>
<path style="fill:#0090FF;" d="M81.377,126.474c0-19.666,15.936-35.603,35.603-35.603h312.286V75.613H116.98
	c-28.143,0-50.861,22.718-50.861,50.861s22.718,50.861,50.861,50.861h312.286v-15.258H116.98
	C97.314,162.077,81.377,146.14,81.377,126.474z"/>
<path style="fill:#6EB1E1;" d="M66.458,126.474v299.401c46.453,51.2,113.589,83.412,188.185,83.412
	c67.815,0,129.187-26.448,174.622-69.51V177.335H116.98C89.176,177.335,66.458,154.278,66.458,126.474z"/>
<path style="fill:#F1F3F7;" d="M116.98,90.532c-20.005,0-35.942,15.936-35.603,35.603c0,19.666,15.597,35.603,35.603,35.603
	c104.095,0,208.191,0,312.286,0c-14.919-21.362-14.919-49.844,0-71.544C325.171,90.532,221.075,90.532,116.98,90.532z"/>
<circle style="fill:#FFFFFF;" cx="264.477" cy="350.601" r="94.94"/>
<polygon style="fill:#F0582F;" points="338.395,333.309 282.109,333.309 282.109,277.022 247.184,277.022 247.184,333.309 
	190.898,333.309 190.898,368.233 247.184,368.233 247.184,424.18 282.109,424.18 282.109,368.233 338.395,368.233 "/>
<g>
</g>
<g>
</g>
<g>
</g>
<g>
</g>
<g>
</g>
<g>
</g>
<g>
</g>
<g>
</g>
<g>
</g>
<g>
</g>
<g>
</g>
<g>
</g>
<g>
</g>
<g>
</g>
<g>
</g>
</svg>
