<?xml version="1.0" encoding="iso-8859-1"?>
<!-- Generator: Adobe Illustrator 19.0.0, SVG Export Plug-In . SVG Version: 6.00 Build 0)  -->
<svg version="1.1" id="Layer_1" xmlns="http://www.w3.org/2000/svg" xmlns:xlink="http://www.w3.org/1999/xlink" x="0px" y="0px"
	 viewBox="0 0 509.287 509.287" style="enable-background:new 0 0 509.287 509.287;" xml:space="preserve">
<circle style="fill:#6EB1E1;" cx="254.644" cy="254.644" r="254.644"/>
<polygon style="fill:#F8B517;" points="169.536,201.07 153.939,201.07 153.939,124.44 202.766,66.119 214.633,76.291 
	169.536,130.204 "/>
<g>
	<circle style="fill:#FBD303;" cx="205.817" cy="71.205" r="44.419"/>
	<path style="fill:#FBD303;" d="M323.475,208.869c-4.408,0-7.799-3.391-7.799-7.799v-73.918c0-2.034,0.678-3.73,2.034-5.086
		l28.482-32.551l-50.522-49.844c-3.052-3.052-3.052-8.138,0-11.189s8.138-3.052,11.189,0l55.608,55.269
		c3.052,3.052,3.052,7.46,0.339,10.85l-31.195,35.942v71.205C331.274,205.478,327.883,208.869,323.475,208.869z"/>
</g>
<g>
	<path style="fill:#4F5565;" d="M144.784,465.208c0,9.833,7.799,17.632,17.632,17.632c9.833,0,17.632-7.799,17.632-17.632v-23.396
		h-35.264V465.208z"/>
	<path style="fill:#4F5565;" d="M180.048,204.122c0-9.833-7.799-17.632-17.632-17.632c-9.833,0-17.632,7.799-17.632,17.632v216.668
		h35.603V204.122H180.048z"/>
</g>
<rect x="144.784" y="420.45" style="fill:#BDBDBE;" width="35.603" height="21.362"/>
<g>
	<path style="fill:#4F5565;" d="M340.429,204.122c0-9.833-7.799-17.632-17.632-17.632c-9.833,0-17.632,7.799-17.632,17.632v216.668
		h35.603V204.122H340.429z"/>
	<path style="fill:#4F5565;" d="M305.166,465.208c0,9.833,7.799,17.632,17.632,17.632c9.833,0,17.632-7.799,17.632-17.632v-23.396
		h-35.264V465.208z"/>
</g>
<rect x="305.166" y="420.45" style="fill:#BDBDBE;" width="35.603" height="21.362"/>
<g>
</g>
<g>
</g>
<g>
</g>
<g>
</g>
<g>
</g>
<g>
</g>
<g>
</g>
<g>
</g>
<g>
</g>
<g>
</g>
<g>
</g>
<g>
</g>
<g>
</g>
<g>
</g>
<g>
</g>
</svg>
