<?xml version="1.0" encoding="iso-8859-1"?>
<!-- Generator: Adobe Illustrator 19.0.0, SVG Export Plug-In . SVG Version: 6.00 Build 0)  -->
<svg version="1.1" id="Capa_1" xmlns="http://www.w3.org/2000/svg" xmlns:xlink="http://www.w3.org/1999/xlink" x="0px" y="0px"
	 viewBox="0 0 512 512" style="enable-background:new 0 0 512 512;" xml:space="preserve">
<circle style="fill:#008CC3;" cx="256" cy="256" r="256"/>
<path style="fill:#0074A3;" d="M262.264,511.921c138-3.315,248.933-115.833,249.717-254.446L363.309,108.803L90,285.88
	l62.082,62.082L125.667,359l71.093,71.093l-8.581,7.743L262.264,511.921z"/>
<path style="fill:#FFECB3;" d="M256.168,60.223c-78.111,0.27-140.832,64.754-140.832,142.865v9.157L90,285.88l25.337,3.744v42.113
	c0,22.739,18.433,41.172,41.172,41.172h31.671v64.926h130.643V328.511c46.891-23,79.177-71.205,79.177-126.957
	C398,123.332,334.454,59.952,256.168,60.223z"/>
<path style="fill:#FFD863;" d="M256.168,60.223c-0.056,0-0.112,0.003-0.168,0.003v377.61h62.823V328.511
	c46.891-23,79.177-71.205,79.177-126.957C398,123.332,334.454,59.952,256.168,60.223z"/>
<circle style="fill:#FFDC00;" cx="256" cy="200.33" r="118.67"/>
<path style="fill:#FFC000;" d="M256,81.667V319c65.538,0,118.667-53.129,118.667-118.667S321.538,81.667,256,81.667z"/>
<path style="fill:#6EBA3B;" d="M313.429,190.799c-20.427,0-38.257,11.072-47.85,27.534v-43.468h7.084
	c23.63,0,42.786-19.156,42.786-42.786v-14.592h-14.591c-14.645,0-27.566,7.362-35.279,18.583v-7.465H246.42v21.125
	c-6.529-8.954-17.094-14.777-29.023-14.777h-12.245v12.245c0,19.829,16.074,35.904,35.904,35.904h5.365v19.484
	c-8.854-12.621-23.504-20.88-40.091-20.88h-16.694V198.4c0,27.034,21.916,48.95,48.95,48.95h7.835v71.265
	c3.16,0.253,6.354,0.386,9.58,0.386c3.226,0,6.419-0.133,9.58-0.386v-53.579h11.371c30.573,0,55.357-24.784,55.357-55.357v-18.88
	L313.429,190.799L313.429,190.799z"/>
<path style="fill:#488057;" d="M332.308,190.799H313.43c-20.427,0-38.257,11.072-47.85,27.534v-43.468h7.084
	c23.63,0,42.786-19.156,42.786-42.786v-14.592h-14.591c-14.645,0-27.566,7.362-35.279,18.583v-7.465H256V319
	c3.225,0,6.419-0.133,9.58-0.386v-53.579h11.371c30.573,0,55.357-24.784,55.357-55.357L332.308,190.799z"/>
<g>
</g>
<g>
</g>
<g>
</g>
<g>
</g>
<g>
</g>
<g>
</g>
<g>
</g>
<g>
</g>
<g>
</g>
<g>
</g>
<g>
</g>
<g>
</g>
<g>
</g>
<g>
</g>
<g>
</g>
</svg>
