<?xml version="1.0" encoding="iso-8859-1"?>
<!-- Generator: Adobe Illustrator 19.0.0, SVG Export Plug-In . SVG Version: 6.00 Build 0)  -->
<svg version="1.1" id="Capa_1" xmlns="http://www.w3.org/2000/svg" xmlns:xlink="http://www.w3.org/1999/xlink" x="0px" y="0px"
	 viewBox="0 0 509.287 509.287" style="enable-background:new 0 0 509.287 509.287;" xml:space="preserve">
<circle style="fill:#414753;" cx="254.644" cy="254.644" r="254.644"/>
<path style="fill:#F1F3F7;" d="M430.962,124.44H78.326c-9.833,0-17.632,7.799-17.632,17.632v247.862
	c0,9.833,7.799,17.632,17.632,17.632h352.297c9.833,0,17.632-7.799,17.632-17.632V142.072
	C448.593,132.238,440.795,124.44,430.962,124.44z"/>
<path style="fill:#BDBDBE;" d="M187.168,124.44V94.94c0-4.408,3.73-8.138,8.138-8.138h118.675c4.408,0,8.138,3.73,8.138,8.138
	v29.499h14.919V94.94c0-12.885-10.511-23.057-23.057-23.057H195.306c-12.885,0-23.057,10.511-23.057,23.057v29.499H187.168z"/>
<circle style="fill:#F0582F;" cx="254.644" cy="266.172" r="97.653"/>
<g>
	<rect x="232.265" y="195.984" style="fill:#F1F3F7;" width="44.758" height="140.037"/>
	<rect x="184.456" y="243.793" style="fill:#F1F3F7;" width="140.037" height="44.758"/>
</g>
<g>
	<rect x="105.452" y="113.589" style="fill:#BDBDBE;" width="42.384" height="10.85"/>
	<rect x="361.452" y="113.589" style="fill:#BDBDBE;" width="42.384" height="10.85"/>
</g>
<g>
</g>
<g>
</g>
<g>
</g>
<g>
</g>
<g>
</g>
<g>
</g>
<g>
</g>
<g>
</g>
<g>
</g>
<g>
</g>
<g>
</g>
<g>
</g>
<g>
</g>
<g>
</g>
<g>
</g>
</svg>
