<?xml version="1.0" encoding="iso-8859-1"?>
<!-- Generator: Adobe Illustrator 19.0.0, SVG Export Plug-In . SVG Version: 6.00 Build 0)  -->
<svg version="1.1" id="Layer_1" xmlns="http://www.w3.org/2000/svg" xmlns:xlink="http://www.w3.org/1999/xlink" x="0px" y="0px"
	 viewBox="0 0 509.287 509.287" style="enable-background:new 0 0 509.287 509.287;" xml:space="preserve">
<circle style="fill:#4B5AA7;" cx="254.644" cy="254.644" r="254.644"/>
<path style="fill:#F0BA7A;" d="M450.967,145.123l-86.803-86.803c-4.069-4.069-11.528-3.73-16.615,1.356L59.677,347.55
	c-4.747,4.747-5.425,12.207-1.356,16.615l86.803,86.803c4.069,4.069,11.528,3.73,16.615-1.356l287.873-287.873
	C454.697,156.991,455.375,149.531,450.967,145.123z"/>
<g>
	<circle style="fill:#F1F3F7;" cx="355.687" cy="96.975" r="11.528"/>
	<circle style="fill:#F1F3F7;" cx="383.83" cy="125.457" r="11.528"/>
	<circle style="fill:#F1F3F7;" cx="412.313" cy="153.6" r="11.528"/>
	<circle style="fill:#F1F3F7;" cx="328.223" cy="124.44" r="11.528"/>
	<circle style="fill:#F1F3F7;" cx="356.366" cy="152.922" r="11.528"/>
	<circle style="fill:#F1F3F7;" cx="384.848" cy="181.065" r="11.528"/>
	<circle style="fill:#F1F3F7;" cx="300.758" cy="151.905" r="11.528"/>
	<circle style="fill:#F1F3F7;" cx="328.901" cy="180.387" r="11.528"/>
	<circle style="fill:#F1F3F7;" cx="357.383" cy="208.53" r="11.528"/>
	<circle style="fill:#F1F3F7;" cx="151.905" cy="300.758" r="11.528"/>
	<circle style="fill:#F1F3F7;" cx="180.387" cy="328.901" r="11.528"/>
	<circle style="fill:#F1F3F7;" cx="208.53" cy="357.383" r="11.528"/>
	<circle style="fill:#F1F3F7;" cx="124.44" cy="328.223" r="11.528"/>
	<circle style="fill:#F1F3F7;" cx="152.922" cy="356.366" r="11.528"/>
	<circle style="fill:#F1F3F7;" cx="181.065" cy="384.848" r="11.528"/>
	<circle style="fill:#F1F3F7;" cx="96.975" cy="355.687" r="11.528"/>
	<circle style="fill:#F1F3F7;" cx="125.457" cy="383.83" r="11.528"/>
	<circle style="fill:#F1F3F7;" cx="153.6" cy="412.313" r="11.528"/>
</g>
<path style="fill:#F7CFA2;" d="M145.123,58.321l-86.803,86.803c-4.069,4.069-3.73,11.528,1.356,16.615L347.55,449.611
	c4.747,4.747,12.207,5.425,16.615,1.356l86.803-86.803c4.069-4.069,3.73-11.528-1.356-16.615L161.738,59.677
	C156.991,54.591,149.531,53.913,145.123,58.321z"/>
<g>
	<circle style="fill:#F1F3F7;" cx="96.975" cy="153.6" r="11.528"/>
	<circle style="fill:#F1F3F7;" cx="125.457" cy="125.457" r="11.528"/>
	<circle style="fill:#F1F3F7;" cx="153.6" cy="96.975" r="11.528"/>
	<circle style="fill:#F1F3F7;" cx="124.44" cy="181.065" r="11.528"/>
	<circle style="fill:#F1F3F7;" cx="152.922" cy="152.922" r="11.528"/>
	<circle style="fill:#F1F3F7;" cx="181.065" cy="124.44" r="11.528"/>
	<circle style="fill:#F1F3F7;" cx="151.905" cy="208.53" r="11.528"/>
	<circle style="fill:#F1F3F7;" cx="180.387" cy="180.387" r="11.528"/>
	<circle style="fill:#F1F3F7;" cx="208.53" cy="151.905" r="11.528"/>
	<circle style="fill:#F1F3F7;" cx="300.758" cy="357.383" r="11.528"/>
	<circle style="fill:#F1F3F7;" cx="328.901" cy="328.901" r="11.528"/>
	<circle style="fill:#F1F3F7;" cx="357.383" cy="300.758" r="11.528"/>
	<circle style="fill:#F1F3F7;" cx="328.223" cy="384.848" r="11.528"/>
	<circle style="fill:#F1F3F7;" cx="356.366" cy="356.366" r="11.528"/>
	<circle style="fill:#F1F3F7;" cx="384.848" cy="328.223" r="11.528"/>
	<circle style="fill:#F1F3F7;" cx="355.687" cy="412.313" r="11.528"/>
	<circle style="fill:#F1F3F7;" cx="383.83" cy="383.83" r="11.528"/>
	<circle style="fill:#F1F3F7;" cx="412.313" cy="355.687" r="11.528"/>
</g>
<rect x="206.851" y="188.004" transform="matrix(-0.7071 0.7071 -0.7071 -0.7071 620.7452 261.6359)" style="fill:#F0BA7A;" width="98.669" height="142.748"/>
<g>
</g>
<g>
</g>
<g>
</g>
<g>
</g>
<g>
</g>
<g>
</g>
<g>
</g>
<g>
</g>
<g>
</g>
<g>
</g>
<g>
</g>
<g>
</g>
<g>
</g>
<g>
</g>
<g>
</g>
</svg>
