<?xml version="1.0" encoding="iso-8859-1"?>
<!-- Generator: Adobe Illustrator 19.0.0, SVG Export Plug-In . SVG Version: 6.00 Build 0)  -->
<svg version="1.1" id="Layer_1" xmlns="http://www.w3.org/2000/svg" xmlns:xlink="http://www.w3.org/1999/xlink" x="0px" y="0px"
	 viewBox="0 0 512.001 512.001" style="enable-background:new 0 0 512.001 512.001;" xml:space="preserve">
<path style="fill:#5AAAE7;" d="M59.517,136.394V428.6c0,45.988,37.413,83.401,83.401,83.401h226.164
	c45.988,0,83.401-37.413,83.401-83.401V136.394H59.517z"/>
<path style="fill:#3D9AE2;" d="M256.001,136.394v375.607h113.083c45.988,0,83.401-37.413,83.401-83.401V136.394H256.001z"/>
<path style="fill:#FFFFFF;" d="M371.494,438.883H140.507c-10.952,0-19.83-8.878-19.83-19.83V232.049
	c0-10.952,8.878-19.83,19.83-19.83h230.987c10.952,0,19.83,8.878,19.83,19.83v187.004
	C391.323,430.005,382.445,438.883,371.494,438.883z"/>
<path style="fill:#D8D7DA;" d="M369.897,212.219H256.001v226.662h113.897c11.833,0,21.426-9.593,21.426-21.426v-183.81
	C391.323,221.812,381.73,212.219,369.897,212.219z"/>
<g>
	<path style="fill:#D80027;" d="M460.513,0H51.488C40.905,0,32.326,8.579,32.326,19.162v99.311c0,10.583,8.579,19.162,19.162,19.162
		h409.025c10.583,0,19.162-8.579,19.162-19.162V19.162C479.675,8.579,471.096,0,460.513,0z"/>
	<path style="fill:#D80027;" d="M314.242,306.007h-38.697v-38.698c0-10.794-8.751-19.545-19.545-19.545
		c-10.794,0-19.545,8.751-19.545,19.545v38.698h-38.697c-10.794,0-19.545,8.751-19.545,19.545c0,10.794,8.751,19.545,19.545,19.545
		h38.697v38.697c0,10.794,8.751,19.545,19.545,19.545c10.794,0,19.545-8.751,19.545-19.545v-38.697h38.697
		c10.794,0,19.545-8.751,19.545-19.545C333.787,314.758,325.037,306.007,314.242,306.007z"/>
</g>
<g>
	<path style="fill:#A5001E;" d="M314.242,306.007h-38.697v-38.698c0-10.794-8.75-19.545-19.545-19.545v155.574
		c10.794,0,19.545-8.751,19.545-19.545v-38.697h38.697c10.794,0,19.545-8.751,19.545-19.545
		C333.787,314.758,325.037,306.007,314.242,306.007z"/>
	<path style="fill:#A5001E;" d="M460.513,0H256.001v137.635h204.513c10.583,0,19.162-8.579,19.162-19.162V19.162
		C479.675,8.579,471.096,0,460.513,0z"/>
</g>
<rect x="59.511" y="137.641" style="fill:#3D9AE2;" width="392.507" height="28.369"/>
<g>
	<path style="fill:#AA2300;" d="M62.588,115.216c-4.995,0-9.044-4.048-9.044-9.044V32.405c0-4.996,4.049-9.044,9.044-9.044
		s9.044,4.048,9.044,9.044v73.767C71.633,111.168,67.583,115.216,62.588,115.216z"/>
	<path style="fill:#AA2300;" d="M105.604,115.216c-4.995,0-9.044-4.048-9.044-9.044V32.405c0-4.996,4.049-9.044,9.044-9.044
		c4.995,0,9.044,4.048,9.044,9.044v73.767C114.648,111.168,110.599,115.216,105.604,115.216z"/>
	<path style="fill:#AA2300;" d="M148.619,115.216c-4.995,0-9.044-4.048-9.044-9.044V32.405c0-4.996,4.049-9.044,9.044-9.044
		s9.044,4.048,9.044,9.044v73.767C157.664,111.168,153.614,115.216,148.619,115.216z"/>
	<path style="fill:#AA2300;" d="M191.635,115.216c-4.995,0-9.044-4.048-9.044-9.044V32.405c0-4.996,4.049-9.044,9.044-9.044
		c4.995,0,9.044,4.048,9.044,9.044v73.767C200.679,111.168,196.63,115.216,191.635,115.216z"/>
	<path style="fill:#AA2300;" d="M234.65,115.216c-4.995,0-9.044-4.048-9.044-9.044V32.405c0-4.996,4.049-9.044,9.044-9.044
		s9.044,4.048,9.044,9.044v73.767C243.694,111.168,239.645,115.216,234.65,115.216z"/>
</g>
<g>
	<path style="fill:#CD2A00;" d="M277.666,115.216c-4.995,0-9.044-4.048-9.044-9.044V32.405c0-4.996,4.049-9.044,9.044-9.044
		s9.044,4.048,9.044,9.044v73.767C286.71,111.168,282.661,115.216,277.666,115.216z"/>
	<path style="fill:#CD2A00;" d="M320.681,115.216c-4.995,0-9.044-4.048-9.044-9.044V32.405c0-4.996,4.049-9.044,9.044-9.044
		s9.044,4.048,9.044,9.044v73.767C329.725,111.168,325.676,115.216,320.681,115.216z"/>
	<path style="fill:#CD2A00;" d="M363.697,115.216c-4.995,0-9.044-4.048-9.044-9.044V32.405c0-4.996,4.049-9.044,9.044-9.044
		s9.044,4.048,9.044,9.044v73.767C372.741,111.168,368.691,115.216,363.697,115.216z"/>
	<path style="fill:#CD2A00;" d="M406.712,115.216c-4.995,0-9.044-4.048-9.044-9.044V32.405c0-4.996,4.049-9.044,9.044-9.044
		s9.044,4.048,9.044,9.044v73.767C415.756,111.168,411.707,115.216,406.712,115.216z"/>
	<path style="fill:#CD2A00;" d="M449.728,115.216c-4.995,0-9.044-4.048-9.044-9.044V32.405c0-4.996,4.049-9.044,9.044-9.044
		s9.044,4.048,9.044,9.044v73.767C458.772,111.168,454.722,115.216,449.728,115.216z"/>
</g>
<g>
</g>
<g>
</g>
<g>
</g>
<g>
</g>
<g>
</g>
<g>
</g>
<g>
</g>
<g>
</g>
<g>
</g>
<g>
</g>
<g>
</g>
<g>
</g>
<g>
</g>
<g>
</g>
<g>
</g>
</svg>
