<?xml version="1.0" encoding="iso-8859-1"?>
<!-- Generator: Adobe Illustrator 19.0.0, SVG Export Plug-In . SVG Version: 6.00 Build 0)  -->
<svg version="1.1" id="Layer_1" xmlns="http://www.w3.org/2000/svg" xmlns:xlink="http://www.w3.org/1999/xlink" x="0px" y="0px"
	 viewBox="0 0 297.001 297.001" style="enable-background:new 0 0 297.001 297.001;" xml:space="preserve">
<g>
	<g>
		<g>
			<g>
				<circle style="fill:#345F41;" cx="148.501" cy="148.5" r="148.5"/>
			</g>
		</g>
	</g>
	<path style="fill:#1F4429;" d="M190.071,51.202c-10.191,7.871-22.258,13.207-33.57,19.298c-8,4-12,13-14,23c-7,37-20,69-42,100
		c-9.934,13.908-10.986,28.803-11.98,44.685l58.8,58.801c0.394,0.003,0.785,0.015,1.18,0.015c78.879,0,143.382-61.503,148.2-139.168
		L190.071,51.202z"/>
	<path style="fill:#D6F0EF;" d="M181.501,105.884V54h-66v51.884c-29.133,12.733-49.5,41.789-49.5,75.616
		c0,45.563,36.937,82.5,82.5,82.5s82.5-36.937,82.5-82.5C231.001,147.673,210.633,118.617,181.501,105.884z"/>
	<path style="fill:#BFD8D5;" d="M181.501,105.884V54h-34.333v209.966c0.445,0.007,0.886,0.034,1.333,0.034
		c45.563,0,82.5-36.937,82.5-82.5C231.001,147.673,210.633,118.617,181.501,105.884z"/>
	<path style="fill:#FFFFFF;" d="M111.501,63.5h74c3.866,0,7-3.134,7-7l0,0c0-3.866-3.134-7-7-7h-74c-3.866,0-7,3.134-7,7l0,0
		C104.501,60.366,107.635,63.5,111.501,63.5z"/>
	<path style="fill:#EDECEB;" d="M185.501,49.5h-38.333v14h38.333c3.866,0,7-3.134,7-7S189.367,49.5,185.501,49.5z"/>
	<path style="fill:#2ECC71;" d="M137.642,176.861c-10.067-10.069-24.227-13.213-35.898-9.123
		c-4.094,11.669-0.952,25.828,9.115,35.897s24.227,13.213,35.898,9.123C150.85,201.09,147.708,186.93,137.642,176.861z"/>
	<path style="fill:#17AB93;" d="M159.564,193.585c0.835-9.078-3.411-17.331-10.198-21.396c-7.416,2.768-13.098,10.116-13.933,19.194
		c-0.835,9.078,3.411,17.331,10.198,21.396C153.047,210.011,158.728,202.663,159.564,193.585z"/>
	<path style="fill:#17AB93;" d="M149.365,172.189c-0.753,0.281-1.483,0.621-2.197,0.994v38.938
		c6.652-3.16,11.619-10.097,12.396-18.536C160.398,184.507,156.152,176.254,149.365,172.189z"/>
	<path style="fill:#2ECC71;" d="M201.517,222.118c10.846-9.223,15.118-23.079,11.979-35.037c-11.302-5.016-25.668-3.023-36.514,6.2
		s-15.118,23.079-11.979,35.037C176.305,233.334,190.671,231.341,201.517,222.118z"/>
	<circle style="fill:#F4AF30;" cx="123.751" cy="140.25" r="8.25"/>
	<circle style="fill:#F4AF30;" cx="107.251" cy="222.75" r="8.25"/>
	<circle style="fill:#F4AF30;" cx="206.251" cy="173.25" r="8.25"/>
	<circle style="fill:#F4AF30;" cx="173.251" cy="156.75" r="4"/>
	<circle style="fill:#F4AF30;" cx="128.001" cy="243.5" r="4"/>
	<circle style="fill:#F4AF30;" cx="152.501" cy="119.5" r="4"/>
</g>
<g>
</g>
<g>
</g>
<g>
</g>
<g>
</g>
<g>
</g>
<g>
</g>
<g>
</g>
<g>
</g>
<g>
</g>
<g>
</g>
<g>
</g>
<g>
</g>
<g>
</g>
<g>
</g>
<g>
</g>
</svg>
