<?xml version="1.0" encoding="iso-8859-1"?>
<!-- Generator: Adobe Illustrator 19.0.0, SVG Export Plug-In . SVG Version: 6.00 Build 0)  -->
<svg version="1.1" id="Layer_1" xmlns="http://www.w3.org/2000/svg" xmlns:xlink="http://www.w3.org/1999/xlink" x="0px" y="0px"
	 viewBox="0 0 297 297" style="enable-background:new 0 0 297 297;" xml:space="preserve">
<g>
	<g>
		<g>
			<g>
				<circle style="fill:#79302A;" cx="148.5" cy="148.5" r="148.5"/>
			</g>
		</g>
	</g>
	<path style="fill:#4F1A18;" d="M292.759,113.168l-50.402-50.402C235.199,73.805,228.418,85.221,217.5,92.5c-34,25-53,57-80,86
		c-16,17-39,26-57,42c-8.889,7.844-14.992,18.473-23.527,26.527l41.23,41.23C113.911,293.912,130.844,297,148.5,297
		c82.014,0,148.5-66.486,148.5-148.5C297,136.323,295.524,124.494,292.759,113.168z"/>
	<path style="fill:#F86E51;" d="M60.154,248.346c-1.151,0-2.304-0.439-3.182-1.318c-1.758-1.757-1.758-4.606,0-6.363l43.841-43.841
		c1.756-1.758,4.607-1.758,6.363,0c1.758,1.757,1.758,4.606,0,6.363l-43.841,43.841C62.458,247.906,61.306,248.346,60.154,248.346z"
		/>
	<path style="fill:#F86E51;" d="M202.637,109.363c-2.048,0-4.095-0.781-5.657-2.343c-3.124-3.125-3.124-8.189,0-11.314l32.88-32.88
		c3.125-3.123,8.189-3.123,11.314,0c3.124,3.125,3.124,8.189,0,11.314l-32.88,32.88
		C206.731,108.582,204.685,109.363,202.637,109.363z"/>
	<path style="fill:#FFFFFF;" d="M92.675,188.685l22.64,22.64c2.828,2.828,7.413,2.828,10.241,0l93.521-93.521l-32.88-32.88
		l-93.521,93.521C89.847,181.272,89.847,185.857,92.675,188.685z"/>
	<polygon style="fill:#EDECEB;" points="186.196,84.923 148.167,122.952 148.167,188.713 219.077,117.803 	"/>
	<path style="fill:#F86E51;" d="M224.557,127.783c-1.151,0-2.304-0.439-3.182-1.318l-43.841-43.84c-1.758-1.757-1.758-4.606,0-6.363
		c1.756-1.758,4.607-1.758,6.363,0l43.841,43.84c1.758,1.757,1.758,4.606,0,6.363C226.86,127.344,225.708,127.783,224.557,127.783z"
		/>
	<path style="fill:#F86E51;" d="M248.47,85.778c-1.791,0-3.583-0.684-4.949-2.05l-23.25-23.248
		c-2.734-2.734-2.734-7.166-0.001-9.899c2.734-2.734,7.167-2.733,9.899-0.001l23.249,23.248c2.734,2.734,2.734,7.166,0.001,9.899
		C252.053,85.095,250.261,85.778,248.47,85.778z"/>
	<path style="fill:#BDC3C7;" d="M175.402,122.47c1.151,0,2.304-0.439,3.182-1.318c1.758-1.757,1.758-4.606,0-6.363l-11.126-11.126
		l-6.363,6.363l11.126,11.126C173.099,122.03,174.251,122.47,175.402,122.47z"/>
	<path style="fill:#BDC3C7;" d="M164.442,133.43c1.151,0,2.304-0.439,3.182-1.318c1.758-1.757,1.758-4.606,0-6.363l-11.127-11.126
		l-6.363,6.363l11.127,11.126C162.14,132.99,163.291,133.43,164.442,133.43z"/>
	<path style="fill:#BDC3C7;" d="M153.481,144.39c1.151,0,2.304-0.439,3.182-1.318c1.758-1.757,1.758-4.606,0-6.363l-11.126-11.126
		l-6.363,6.363l11.126,11.126C151.178,143.95,152.33,144.39,153.481,144.39z"/>
	<path style="fill:#BDC3C7;" d="M142.521,155.35c1.151,0,2.304-0.439,3.182-1.318c1.758-1.757,1.758-4.606,0-6.363l-11.126-11.126
		l-6.363,6.363l11.126,11.126C140.218,154.91,141.37,155.35,142.521,155.35z"/>
	<path style="fill:#BDC3C7;" d="M131.562,166.311c1.151,0,2.304-0.439,3.182-1.318c1.758-1.757,1.758-4.606,0-6.363l-11.126-11.127
		l-6.363,6.363l11.126,11.127C129.258,165.871,130.41,166.311,131.562,166.311z"/>
	<path style="fill:#BDC3C7;" d="M120.602,177.271c1.151,0,2.304-0.439,3.182-1.318c1.758-1.757,1.758-4.606,0-6.363l-11.126-11.126
		l-6.363,6.363l11.126,11.126C118.298,176.831,119.45,177.271,120.602,177.271z"/>
</g>
<g>
</g>
<g>
</g>
<g>
</g>
<g>
</g>
<g>
</g>
<g>
</g>
<g>
</g>
<g>
</g>
<g>
</g>
<g>
</g>
<g>
</g>
<g>
</g>
<g>
</g>
<g>
</g>
<g>
</g>
</svg>
