<?xml version="1.0" encoding="iso-8859-1"?>
<!-- Generator: Adobe Illustrator 19.0.0, SVG Export Plug-In . SVG Version: 6.00 Build 0)  -->
<svg version="1.1" id="Capa_1" xmlns="http://www.w3.org/2000/svg" xmlns:xlink="http://www.w3.org/1999/xlink" x="0px" y="0px"
	 viewBox="0 0 512 512" style="enable-background:new 0 0 512 512;" xml:space="preserve">
<circle style="fill:#A5E1EB;" cx="256" cy="256" r="256"/>
<path style="fill:#78BED2;" d="M512,256c0-5.199-0.174-10.357-0.479-15.479L370.5,99.5l-10.569,47.617l-57.512-57.512l-3.946,3.94
	l-26.358-26.358l-20.866,0.874l-14.583,18.604L141.5,412.5l99.021,99.021C245.643,511.826,250.801,512,256,512
	C397.385,512,512,397.385,512,256z"/>
<rect x="141.5" y="99.5" style="fill:#FF6838;" width="229" height="313"/>
<rect x="255.67" y="99.5" style="fill:#AE4E32;" width="114.83" height="313"/>
<rect x="161" y="119.33" style="fill:#FFFFFF;" width="190" height="273.33"/>
<rect x="255.67" y="119.33" style="fill:#E0E0E0;" width="95.33" height="273.33"/>
<path style="fill:#4B7689;" d="M277.667,81.667C277.667,69.701,267.966,60,256,60s-21.667,9.701-21.667,21.667h-9.417
	c-10.378,0-18.792,8.413-18.792,18.792V128h99.75v-27.542c0-10.378-8.413-18.792-18.792-18.792L277.667,81.667L277.667,81.667z
	 M256,71.146c5.811,0,10.521,4.71,10.521,10.521c0,5.811-4.71,10.521-10.521,10.521s-10.521-4.71-10.521-10.521
	C245.479,75.856,250.189,71.146,256,71.146z"/>
<path style="fill:#175D76;" d="M305.875,100.458c0-10.378-8.413-18.792-18.792-18.792h-9.417C277.667,69.7,267.966,60,256,60
	c-0.112,0-0.222,0.007-0.333,0.008v11.154c0.112-0.003,0.221-0.017,0.333-0.017c5.811,0,10.521,4.71,10.521,10.521
	S261.811,92.187,256,92.187c-0.113,0-0.222-0.013-0.333-0.017V128h50.208V100.458z"/>
<g>
	<circle style="fill:#6EBA3B;" cx="197.93" cy="191.95" r="24.14"/>
	<circle style="fill:#6EBA3B;" cx="197.93" cy="275.55" r="24.14"/>
</g>
<rect x="247.13" y="179.57" style="fill:#E0E0E0;" width="73.37" height="24.14"/>
<rect x="255.67" y="179.57" style="fill:#C0C0C0;" width="64.833" height="24.14"/>
<rect x="247.13" y="263.48" style="fill:#E0E0E0;" width="73.37" height="24.14"/>
<rect x="255.67" y="263.48" style="fill:#C0C0C0;" width="64.833" height="24.14"/>
<g>
	<polygon style="fill:#FFDC00;" points="201.343,206.101 177.878,187.342 185.372,177.969 199.54,189.297 225.081,157.887 
		234.392,165.458 	"/>
	<polygon style="fill:#FFDC00;" points="201.343,293.116 177.878,274.358 185.372,264.985 199.54,276.313 225.081,244.903 
		234.392,252.475 	"/>
</g>
<g>
</g>
<g>
</g>
<g>
</g>
<g>
</g>
<g>
</g>
<g>
</g>
<g>
</g>
<g>
</g>
<g>
</g>
<g>
</g>
<g>
</g>
<g>
</g>
<g>
</g>
<g>
</g>
<g>
</g>
</svg>
