<?xml version="1.0" encoding="iso-8859-1"?>
<!-- Generator: Adobe Illustrator 19.0.0, SVG Export Plug-In . SVG Version: 6.00 Build 0)  -->
<svg version="1.1" id="Layer_1" xmlns="http://www.w3.org/2000/svg" xmlns:xlink="http://www.w3.org/1999/xlink" x="0px" y="0px"
	 viewBox="0 0 297 297" style="enable-background:new 0 0 297 297;" xml:space="preserve">
<g>
	<g>
		<g>
			<g>
				<circle style="fill:#17AB93;" cx="148.5" cy="148.5" r="148.5"/>
			</g>
		</g>
	</g>
	<path style="fill:#118972;" d="M221.862,77.566L75.138,219.434l77.506,77.506c78.721-2.157,142.138-65.575,144.296-144.296
		L221.862,77.566z"/>
	<polygon style="fill:#9FE2D5;" points="246.612,120.434 221.862,77.566 173.25,105.632 173.25,49.5 123.75,49.5 123.75,105.632 
		75.138,77.566 50.388,120.434 99,148.5 50.388,176.566 75.138,219.434 123.75,191.368 123.75,247.5 173.25,247.5 173.25,191.368 
		221.862,219.434 246.612,176.566 198,148.5 	"/>
	<polygon style="fill:#86C4B8;" points="246.612,120.434 221.862,77.566 173.25,105.632 173.25,49.5 147.167,49.5 147.167,247.5 
		173.25,247.5 173.25,191.368 221.862,219.434 246.612,176.566 198,148.5 	"/>
</g>
<g>
</g>
<g>
</g>
<g>
</g>
<g>
</g>
<g>
</g>
<g>
</g>
<g>
</g>
<g>
</g>
<g>
</g>
<g>
</g>
<g>
</g>
<g>
</g>
<g>
</g>
<g>
</g>
<g>
</g>
</svg>
