<?xml version="1.0" encoding="iso-8859-1"?>
<!-- Generator: Adobe Illustrator 19.0.0, SVG Export Plug-In . SVG Version: 6.00 Build 0)  -->
<svg version="1.1" id="Layer_1" xmlns="http://www.w3.org/2000/svg" xmlns:xlink="http://www.w3.org/1999/xlink" x="0px" y="0px"
	 viewBox="0 0 485.164 485.164" style="enable-background:new 0 0 485.164 485.164;" xml:space="preserve">
<path style="fill:#FFB9A4;" d="M332.911,208.302c17.6-18.4,28.8-41.6,28.8-66.4c0-57.6-53.6-93.6-119.2-93.6s-120,36-120,92.8
	c0,25.6,12,48.8,29.6,66.4c0.8,40,10.4,75.2,34.4,99.2v92c0,36.8,23.2,36,56,36s56,0.8,56-36v-92
	C322.511,283.502,332.111,247.502,332.911,208.302z"/>
<path style="fill:#EFA28E;" d="M240.911,434.702c32.8,0,57.6,0.8,57.6-36v-92c24-24,33.6-59.2,34.4-99.2
	c17.6-18.4,28.8-41.6,28.8-66.4c0-57.6-53.6-93.6-120-93.6"/>
<g>
	<path style="fill:#FFD6CC;" d="M204.911,65.902c2.4,4.8-8.8,15.2-25.6,24s-32.8,12-35.2,7.2s8.8-15.2,25.6-24
		S202.511,61.102,204.911,65.902z"/>
	<ellipse style="fill:#FFD6CC;" cx="223.311" cy="59.502" rx="6.4" ry="5.6"/>
</g>
<path style="fill:#D8462A;" d="M274.511,254.702c0,17.6-14.4,32-32,32l0,0c-17.6,0-32-14.4-32-32v-89.6c0-17.6,14.4-32,32-32l0,0
	c17.6,0,32,14.4,32,32V254.702z"/>
<path style="fill:#D84629;" d="M227.311,158.702c-54.4,0-73.6-30.4-89.6-55.2c-12-19.2-21.6-34.4-44.8-36
	c-17.6-1.6-29.6,2.4-36,10.4c-12,15.2-7.2,44.8-4.8,54.4c1.6,6.4-1.6,13.6-8,15.2c-6.4,1.6-12.8-1.6-15.2-8
	c-0.8-1.6-13.6-48.8,8.8-76.8c12-15.2,31.2-21.6,56.8-20c36,2.4,50.4,26.4,64,47.2c16,25.6,30.4,48,80.8,43.2
	c6.4-0.8,12.8,4,12.8,11.2c0.8,6.4-4,12.8-11.2,12.8C236.111,158.702,231.311,158.702,227.311,158.702z"/>
<g>
	
		<ellipse transform="matrix(-0.4046 -0.9145 0.9145 -0.4046 -72.926 279.4811)" style="fill:#D8462A;" cx="54.518" cy="163.481" rx="40.8" ry="56.8"/>
	<path style="fill:#D8462A;" d="M252.111,173.102c0,18.4-4,52.8-22.4,52.8s-37.6-57.6-37.6-76s8.8-10.4,27.2-10.4
		S252.111,154.702,252.111,173.102z"/>
</g>
<path style="fill:#FFD6CC;" d="M106.511,140.302c8.8,20.8-7.2,48-36,60.8s-59.2,6.4-68-14.4s20.8-15.2,49.6-28
	S97.711,119.502,106.511,140.302z"/>
<path style="fill:#FFB9A4;" d="M107.311,141.902c-2.4,16.8-18.4,35.2-41.6,45.6c-24,10.4-48,9.6-62.4-0.8l-0.8,0
	c8.8,20.8,40,27.2,68.8,14.4C99.311,188.302,115.311,161.902,107.311,141.902z"/>
<g>
	<path style="fill:#FFEEEB;" d="M32.111,172.302c0,1.6-5.6,4-12.8,5.6s-13.6,0.8-13.6-0.8s5.6-4,12.8-5.6
		C25.711,170.702,32.111,170.702,32.111,172.302z"/>
	
		<ellipse transform="matrix(-0.6185 -0.7858 0.7858 -0.6185 25.6034 303.2357)" style="fill:#FFEEEB;" cx="86.413" cy="145.403" rx="3.2" ry="13.6"/>
</g>
<path style="fill:#D84629;" d="M257.711,158.702c54.4,0,73.6-30.4,89.6-55.2c12-19.2,21.6-34.4,44.8-36c17.6-1.6,29.6,2.4,36,10.4
	c12,15.2,7.2,44.8,4.8,54.4c-1.6,6.4,1.6,13.6,8,15.2c6.4,1.6,13.6-1.6,15.2-8c0.8-1.6,13.6-48.8-8.8-76.8
	c-12-15.2-31.2-21.6-56.8-20c-36,2.4-50.4,26.4-64,47.2c-16,25.6-30.4,48-80.8,43.2c-6.4-0.8-12.8,4-12.8,11.2
	c-0.8,6.4,4,12.8,11.2,12.8C248.911,158.702,253.711,158.702,257.711,158.702z"/>
<g>
	
		<ellipse transform="matrix(-0.4046 0.9145 -0.9145 -0.4046 754.3642 -164.234)" style="fill:#D8462A;" cx="430.646" cy="163.456" rx="40.8" ry="56.8"/>
	<path style="fill:#D8462A;" d="M232.911,173.102c0,18.4,4,52.8,22.4,52.8s37.6-57.6,37.6-76s-8.8-10.4-27.2-10.4
		S232.911,154.702,232.911,173.102z"/>
</g>
<path style="fill:#FFD6CC;" d="M378.511,140.302c-8.8,20.8,7.2,48,36,60.8s59.2,6.4,68.8-14.4c8.8-20.8-20.8-15.2-49.6-28
	C404.111,145.902,387.311,119.502,378.511,140.302z"/>
<path style="fill:#FFB9A4;" d="M377.711,141.902c2.4,16.8,18.4,35.2,41.6,45.6c24,10.4,48,9.6,62.4-0.8l0.8,0
	c-8.8,20.8-40,27.2-68.8,14.4C385.711,188.302,369.711,161.902,377.711,141.902z"/>
<g>
	<path style="fill:#FFEEEB;" d="M452.911,172.302c0,1.6,5.6,4,12.8,5.6c7.2,1.6,13.6,0.8,13.6-0.8s-5.6-4-12.8-5.6
		C459.311,170.702,452.911,170.702,452.911,172.302z"/>
	<path style="fill:#FFEEEB;" d="M387.311,137.102c-0.8,1.6,2.4,6.4,8.8,10.4c5.6,4.8,11.2,7.2,12.8,5.6c0.8-1.6-2.4-6.4-8.8-10.4
		C394.511,138.702,388.911,135.502,387.311,137.102z"/>
</g>
<path style="fill:#D8462A;" d="M274.511,407.502c0,19.2-12.8,35.2-32,35.2l0,0c-19.2,0-32-16-32-35.2v-38.4
	c0-19.2,12.8-18.4,32-18.4l0,0c19.2,0,32-0.8,32,18.4V407.502z"/>
<path style="fill:#B52815;" d="M242.511,349.902L242.511,349.902c19.2,0,32-0.8,32,18.4v38.4c0,19.2-12.8,35.2-32,35.2l0,0"/>
<path style="fill:#D8462A;" d="M249.711,309.902c0,23.2-3.2,73.6-7.2,73.6s-8-51.2-8-73.6c0-23.2,3.2-41.6,8-41.6
	C246.511,268.302,249.711,286.702,249.711,309.902z"/>
<g>
</g>
<g>
</g>
<g>
</g>
<g>
</g>
<g>
</g>
<g>
</g>
<g>
</g>
<g>
</g>
<g>
</g>
<g>
</g>
<g>
</g>
<g>
</g>
<g>
</g>
<g>
</g>
<g>
</g>
</svg>
