<?xml version="1.0" encoding="iso-8859-1"?>
<!-- Generator: Adobe Illustrator 19.0.0, SVG Export Plug-In . SVG Version: 6.00 Build 0)  -->
<svg version="1.1" id="Layer_1" xmlns="http://www.w3.org/2000/svg" xmlns:xlink="http://www.w3.org/1999/xlink" x="0px" y="0px"
	 viewBox="0 0 509.287 509.287" style="enable-background:new 0 0 509.287 509.287;" xml:space="preserve">
<circle style="fill:#71D456;" cx="254.644" cy="254.644" r="254.644"/>
<path style="fill:#DEDEDF;" d="M483.179,173.266L336.021,26.109c-10.511-10.511-27.126-10.172-37.298,0L26.448,298.723
	c-10.511,10.511-10.511,27.126,0,37.298L173.266,482.84c10.172,10.511,27.126,10.511,37.298,0L482.84,210.564
	C493.351,200.392,493.351,183.438,483.179,173.266z"/>
<circle style="fill:#FCFCFD;" cx="323.815" cy="105.452" r="38.315"/>
<path style="fill:#DEDEDF;" d="M320.424,67.475v76.63c1.017,0,2.374,0.339,3.391,0.339v-76.97
	C322.797,67.136,321.441,67.136,320.424,67.475z"/>
<path style="fill:#F1F3F7;" d="M327.205,143.767v-76.63c-1.017,0-2.374-0.339-3.391-0.339v76.97
	C325.171,144.106,326.188,144.106,327.205,143.767z"/>
<path style="fill:#FCFCFD;" d="M416.381,221.754c-20.005,7.46-42.045-3.052-49.166-23.057c-7.121-20.005,3.391-42.045,23.396-49.505
	c20.005-7.46,42.045,3.052,49.166,23.057C446.898,192.254,436.387,214.633,416.381,221.754z"/>
<path style="fill:#DEDEDF;" d="M438.421,169.197l-72.223,26.448c0.339,1.017,0.678,2.374,1.017,3.391l72.562-26.448
	C439.099,171.232,438.76,170.215,438.421,169.197z"/>
<path style="fill:#F1F3F7;" d="M368.233,202.087l72.223-26.448c-0.339-1.017-0.678-2.374-1.017-3.391l-72.562,26.448
	C367.555,200.053,367.894,201.07,368.233,202.087z"/>
<circle style="fill:#FCFCFD;" cx="251.253" cy="178.352" r="38.315"/>
<path style="fill:#DEDEDF;" d="M289.229,174.283l-76.63,1.356c0,1.017,0,2.374,0,3.391l76.97-1.356
	C289.568,176.657,289.568,175.301,289.229,174.283z"/>
<path style="fill:#F1F3F7;" d="M212.938,182.421l76.63-1.356c0-1.017,0-2.374,0-3.391l-76.97,1.356
	C212.599,180.048,212.599,181.404,212.938,182.421z"/>
<path style="fill:#FCFCFD;" d="M365.86,240.403c9.833,18.988,2.373,42.045-16.615,51.878c-18.988,9.833-42.384,2.373-52.217-16.615
	c-9.833-18.988-2.374-42.045,16.615-51.878C332.63,214.294,356.026,221.415,365.86,240.403z"/>
<path style="fill:#DEDEDF;" d="M310.591,225.483l35.264,68.154c1.017-0.339,2.034-1.017,3.052-1.356l-35.264-68.493
	C312.625,224.466,311.608,225.144,310.591,225.483z"/>
<path style="fill:#F1F3F7;" d="M351.958,290.585l-35.264-68.154c-1.017,0.339-2.034,1.017-3.052,1.356l35.603,68.154
	C349.923,291.603,350.94,290.924,351.958,290.585z"/>
<path style="fill:#FCFCFD;" d="M158.008,283.126c-17.632-11.528-22.718-35.264-11.528-53.234
	c11.528-17.632,35.264-22.718,52.895-11.189c17.632,11.528,22.718,35.264,11.528,53.234
	C199.714,289.907,175.64,294.654,158.008,283.126z"/>
<path style="fill:#DEDEDF;" d="M212.599,268.885l-64.085-41.706c-0.678,1.017-1.356,1.695-2.034,2.713l64.424,41.706
	C211.581,270.919,211.921,269.902,212.599,268.885z"/>
<path style="fill:#F1F3F7;" d="M144.784,232.943l64.085,41.706c0.678-1.017,1.356-1.695,2.034-2.713l-64.424-41.706
	C145.801,230.909,145.462,231.926,144.784,232.943z"/>
<circle style="fill:#FCFCFD;" cx="258.034" cy="330.935" r="38.315"/>
<path style="fill:#DEDEDF;" d="M284.821,303.47l-57.981,49.844c0.678,1.017,1.356,1.695,2.034,2.713l58.321-50.183
	C286.517,304.827,285.838,304.148,284.821,303.47z"/>
<path style="fill:#F1F3F7;" d="M231.587,358.4l57.981-49.844c-0.678-1.017-1.356-1.695-2.034-2.713l-58.321,50.183
	C229.891,357.044,230.57,357.722,231.587,358.4z"/>
<path style="fill:#FCFCFD;" d="M93.923,360.774c-20.344-6.103-31.873-27.804-25.43-48.148s27.804-31.873,48.487-25.77
	c20.344,6.103,31.873,27.804,25.43,48.148C135.968,355.348,114.268,366.877,93.923,360.774z"/>
<path style="fill:#DEDEDF;" d="M143.089,331.952l-73.579-22.04c-0.339,1.017-0.678,2.034-1.356,3.391l73.918,22.379
	C142.411,333.987,142.75,332.97,143.089,331.952z"/>
<path style="fill:#F1F3F7;" d="M67.475,316.355l73.579,22.04c0.339-1.017,0.678-2.034,1.356-3.391l-73.918-22.379
	C67.815,313.981,67.815,314.999,67.475,316.355z"/>
<path style="fill:#FCFCFD;" d="M213.277,378.066c14.241,15.597,12.885,40.011-2.713,54.252
	c-15.597,14.241-39.672,12.885-53.913-2.713s-12.885-40.011,2.713-54.252S199.036,362.13,213.277,378.066z"/>
<path style="fill:#DEDEDF;" d="M156.991,377.727l51.2,56.964c1.017-0.678,1.695-1.356,2.713-2.034l-51.539-56.964
	C158.347,376.032,157.669,377.049,156.991,377.727z"/>
<path style="fill:#F1F3F7;" d="M213.277,429.944l-51.2-56.964c-1.017,0.678-1.695,1.356-2.713,2.034l51.539,56.964
	C211.581,431.64,212.26,430.623,213.277,429.944z"/>
<g>
</g>
<g>
</g>
<g>
</g>
<g>
</g>
<g>
</g>
<g>
</g>
<g>
</g>
<g>
</g>
<g>
</g>
<g>
</g>
<g>
</g>
<g>
</g>
<g>
</g>
<g>
</g>
<g>
</g>
</svg>
