<?xml version="1.0" encoding="iso-8859-1"?>
<!-- Generator: Adobe Illustrator 19.0.0, SVG Export Plug-In . SVG Version: 6.00 Build 0)  -->
<svg version="1.1" id="Capa_1" xmlns="http://www.w3.org/2000/svg" xmlns:xlink="http://www.w3.org/1999/xlink" x="0px" y="0px"
	 viewBox="0 0 491.52 491.52" style="enable-background:new 0 0 491.52 491.52;" xml:space="preserve">
<circle style="fill:#45B39C;" cx="245.76" cy="245.76" r="245.76"/>
<path style="opacity:0.1;enable-background:new    ;" d="M216.781,113.394l-0.922-0.921c-4.864-4.659-11.418-7.526-18.688-7.526
	c-14.95,0-27.085,12.135-27.085,27.085c0,7.68,3.174,14.593,8.346,19.508l23.398,23.397h-32.205
	c-17.05,0-30.925,13.875-30.925,30.925v67.585c0,2.918,1.28,5.529,3.277,7.27l0.205,0.205l22.528,22.527v69.171
	c0,4.608,2.253,8.704,5.734,11.264l105.7,105.7c81.472-10.054,150.568-59.938,187.215-129.611L228.506,125.118L216.781,113.394z"/>
<path style="fill:#FCD462;" d="M224.725,174.942h-55.117c-17.042,0-30.906,13.864-30.906,30.906v67.591
	c0,5.422,4.396,9.818,9.818,9.818c5.423,0,9.818-4.396,9.818-9.818v-67.591c0-4.452,2.601-8.298,6.357-10.128v82.991v93.891
	c0,7.709,6.249,13.959,13.959,13.959c7.709,0,13.959-6.249,13.959-13.959V278.71h9.106v93.891c0,7.709,6.25,13.959,13.959,13.959
	l0,0c7.709,0,13.959-6.249,13.959-13.959V278.71V195.72c3.756,1.83,6.358,5.676,6.358,10.128v67.591
	c0,5.422,4.396,9.818,9.818,9.818c5.422,0,9.818-4.396,9.818-9.818v-67.591C255.631,188.806,241.767,174.942,224.725,174.942z"/>
<circle style="fill:#64798A;" cx="197.166" cy="132.04" r="27.08"/>
<circle style="fill:#E56353;" cx="284.262" cy="318.003" r="68.567"/>
<polygon style="fill:#FFFFFF;" points="331.54,300.809 301.43,300.809 301.43,270.699 267.066,270.699 267.066,300.809 
	236.957,300.809 236.957,335.172 267.066,335.172 267.066,365.282 301.43,365.282 301.43,335.172 331.54,335.172 "/>
<g>
</g>
<g>
</g>
<g>
</g>
<g>
</g>
<g>
</g>
<g>
</g>
<g>
</g>
<g>
</g>
<g>
</g>
<g>
</g>
<g>
</g>
<g>
</g>
<g>
</g>
<g>
</g>
<g>
</g>
</svg>
