<?xml version="1.0" encoding="iso-8859-1"?>
<!-- Generator: Adobe Illustrator 19.0.0, SVG Export Plug-In . SVG Version: 6.00 Build 0)  -->
<svg version="1.1" id="Layer_1" xmlns="http://www.w3.org/2000/svg" xmlns:xlink="http://www.w3.org/1999/xlink" x="0px" y="0px"
	 viewBox="0 0 509.287 509.287" style="enable-background:new 0 0 509.287 509.287;" xml:space="preserve">
<circle style="fill:#4F5565;" cx="254.644" cy="254.644" r="254.644"/>
<path style="fill:#F1F3F7;" d="M254.644,12.546c-31.195,0-56.286,25.091-56.286,56.286v244.811c0,14.58,4.408,28.482,12.885,40.35
	l9.155,12.885c8.477,11.868,12.885,25.77,12.885,40.35v68.154c0,11.868,9.494,21.701,21.701,21.701
	c11.868,0,21.701-9.494,21.701-21.701v-68.154c0-14.58,4.408-28.482,12.885-40.35l9.155-12.885
	c8.477-11.868,12.885-25.77,12.885-40.35V68.832C310.93,37.976,285.838,12.546,254.644,12.546z"/>
<path style="fill:#F0582F;" d="M209.547,168.18v145.462c0,12.207,3.73,23.735,10.85,33.568l9.155,12.885
	c9.833,13.563,14.919,29.838,14.919,46.792v68.154c0,5.764,4.747,10.172,10.172,10.172c5.764,0,10.172-4.747,10.172-10.172v-68.154
	c0-16.954,5.086-32.89,14.919-46.792l9.155-12.885c7.121-9.833,10.85-21.701,10.85-33.568V168.18L209.547,168.18L209.547,168.18z"/>
<g>
	<rect x="209.547" y="68.832" style="fill:#393D47;" width="45.097" height="11.189"/>
	<rect x="209.547" y="102.061" style="fill:#393D47;" width="27.465" height="11.189"/>
	<rect x="209.547" y="134.951" style="fill:#393D47;" width="45.097" height="11.189"/>
	<rect x="209.547" y="168.18" style="fill:#393D47;" width="27.465" height="11.189"/>
	<rect x="209.547" y="201.409" style="fill:#393D47;" width="45.097" height="11.189"/>
	<rect x="209.547" y="234.299" style="fill:#393D47;" width="27.465" height="11.189"/>
	<rect x="209.547" y="267.528" style="fill:#393D47;" width="45.097" height="11.189"/>
	<rect x="209.547" y="300.419" style="fill:#393D47;" width="27.465" height="11.189"/>
</g>
<g>
</g>
<g>
</g>
<g>
</g>
<g>
</g>
<g>
</g>
<g>
</g>
<g>
</g>
<g>
</g>
<g>
</g>
<g>
</g>
<g>
</g>
<g>
</g>
<g>
</g>
<g>
</g>
<g>
</g>
</svg>
