<?xml version="1.0" encoding="iso-8859-1"?>
<!-- Generator: Adobe Illustrator 19.0.0, SVG Export Plug-In . SVG Version: 6.00 Build 0)  -->
<svg version="1.1" id="Layer_1" xmlns="http://www.w3.org/2000/svg" xmlns:xlink="http://www.w3.org/1999/xlink" x="0px" y="0px"
	 viewBox="0 0 512 512" style="enable-background:new 0 0 512 512;" xml:space="preserve">
<g>
	<circle style="fill:#A0EBFF;" cx="256" cy="256" r="256"/>
	<rect x="129.659" y="133.222" style="fill:#FFFFFF;" width="252.672" height="283.341"/>
	<path style="fill:#71C6DE;" d="M129.659,158.848v60.268h252.677v-60.268H129.659z M129.659,297.81h252.677v-60.268H129.659V297.81z
		 M129.659,376.499h252.677v-60.268H129.659V376.499z"/>
	<path style="fill:#48AFCC;" d="M170.977,297.81h30.121v-60.268h-30.121V297.81z M170.977,376.499h30.121v-60.268h-30.121V376.499z
		 M170.977,219.116h30.121v-60.268h-30.121V219.116z M240.937,219.116h30.121v-60.268h-30.121V219.116z M240.937,376.499h30.121
		v-60.268h-30.121V376.499z M240.937,297.81h30.121v-60.268h-30.121V297.81z M310.902,158.848v60.268h30.121v-60.268H310.902z
		 M310.902,376.499h30.121v-60.268h-30.121V376.499L310.902,376.499z M310.902,297.81h30.121v-60.268h-30.121V297.81L310.902,297.81
		z"/>
	<rect x="225.382" y="345.549" style="fill:#48AFCC;" width="61.952" height="71.014"/>
	<rect x="225.382" y="345.549" style="fill:#FFFFFF;" width="61.952" height="6.523"/>
	<rect x="225.382" y="352.072" style="fill:#3194B0;" width="61.952" height="6.523"/>
	<rect x="129.659" y="158.822" style="fill:#3194B0;" width="252.672" height="7.69"/>
	<rect x="129.659" y="237.056" style="fill:#3194B0;" width="252.672" height="7.69"/>
	<rect x="129.659" y="315.29" style="fill:#3194B0;" width="252.672" height="7.69"/>
	<circle style="fill:#FFFFFF;" cx="256" cy="133.222" r="52.224"/>
	<path style="fill:#FC611F;" d="M256,81.004c-28.841,0-52.224,23.383-52.224,52.224s23.383,52.224,52.224,52.224
		c28.846,0,52.224-23.383,52.224-52.224S284.846,81.004,256,81.004z M285.548,144.425h-18.355v18.355h-22.39v-18.355h-18.355v-22.39
		h18.355V103.68h22.39v18.355h18.355V144.425z"/>
	<path style="fill:#B6F0FF;" d="M256,81.004l-1.034,0.051V185.4l1.034,0.056c28.846,0,52.224-23.383,52.224-52.224
		C308.224,104.387,284.846,81.004,256,81.004z"/>
	<path style="fill:#E34E10;" d="M256,81.004l-1.034,0.051v22.625h12.227v18.355h18.355v22.39h-18.355v18.355h-12.227v22.625
		l1.034,0.051c28.846,0,52.224-23.383,52.224-52.224C308.224,104.387,284.846,81.004,256,81.004z"/>
</g>
<g>
</g>
<g>
</g>
<g>
</g>
<g>
</g>
<g>
</g>
<g>
</g>
<g>
</g>
<g>
</g>
<g>
</g>
<g>
</g>
<g>
</g>
<g>
</g>
<g>
</g>
<g>
</g>
<g>
</g>
</svg>
