<?xml version="1.0" encoding="iso-8859-1"?>
<!-- Generator: Adobe Illustrator 19.0.0, SVG Export Plug-In . SVG Version: 6.00 Build 0)  -->
<svg version="1.1" id="Layer_1" xmlns="http://www.w3.org/2000/svg" xmlns:xlink="http://www.w3.org/1999/xlink" x="0px" y="0px"
	 viewBox="0 0 509.287 509.287" style="enable-background:new 0 0 509.287 509.287;" xml:space="preserve">
<circle style="fill:#71D456;" cx="254.644" cy="254.644" r="254.644"/>
<path style="fill:#886C60;" d="M171.91,140.715c12.885-33.229,45.097-56.964,82.734-56.964s69.849,23.735,82.734,56.964h32.212
	c-13.902-50.522-60.355-87.481-114.946-87.481S153.6,90.193,139.698,140.715H171.91z"/>
<rect x="33.568" y="136.985" style="fill:#4484C5;" width="442.151" height="75.613"/>
<rect x="55.608" y="212.599" style="fill:#4B5AA7;" width="397.732" height="209.547"/>
<circle style="fill:#FCFCFD;" cx="254.644" cy="317.372" r="78.326"/>
<polygon style="fill:#F0582F;" points="318.389,298.384 273.632,298.384 273.632,253.626 235.656,253.626 235.656,298.384 
	190.898,298.384 190.898,336.36 235.656,336.36 235.656,381.118 273.632,381.118 273.632,336.36 318.389,336.36 "/>
<g>
</g>
<g>
</g>
<g>
</g>
<g>
</g>
<g>
</g>
<g>
</g>
<g>
</g>
<g>
</g>
<g>
</g>
<g>
</g>
<g>
</g>
<g>
</g>
<g>
</g>
<g>
</g>
<g>
</g>
</svg>
