<?xml version="1.0" encoding="iso-8859-1"?>
<!-- Generator: Adobe Illustrator 19.0.0, SVG Export Plug-In . SVG Version: 6.00 Build 0)  -->
<svg version="1.1" id="Layer_1" xmlns="http://www.w3.org/2000/svg" xmlns:xlink="http://www.w3.org/1999/xlink" x="0px" y="0px"
	 viewBox="0 0 511.999 511.999" style="enable-background:new 0 0 511.999 511.999;" xml:space="preserve">
<path style="fill:#B3B3B3;" d="M137.459,213.897L115.1,124.133c-3.381-13.575,6.888-26.717,20.878-26.717l0,0
	c8.907,0,16.893,5.488,20.086,13.803l33.879,88.221"/>
<path style="fill:#FCE5C5;" d="M244.213,0c37.01,0,67.02,30.009,67.02,67.02c0,24.576-13.239,46.069-32.966,57.72
	c-9.979,5.904-21.619,9.289-34.053,9.289c-15.485,0-29.738-5.256-41.085-14.064c-15.778-12.257-25.934-31.42-25.934-52.945
	C177.193,30.009,207.202,0,244.213,0z"/>
<path style="fill:#EAD2B5;" d="M239.178,119.964c-15.778-12.257-25.934-31.42-25.934-52.945c0-30.764,20.742-56.672,48.996-64.547
	C256.503,0.874,250.463,0,244.217,0c-37.01,0-67.02,30.009-67.02,67.02c0,21.525,10.156,40.688,25.934,52.945
	c11.348,8.808,25.6,14.064,41.085,14.064c6.254,0,12.307-0.858,18.048-2.461C253.772,129.204,245.954,125.224,239.178,119.964z"/>
<path style="fill:#4D4D4D;" d="M244.795,204.267c66.79,17.857,115.983,78.796,115.983,151.217
	c0,86.444-70.081,156.515-156.525,156.515S47.738,441.928,47.738,355.484c0-81.627,62.474-148.657,142.21-155.888"/>
<path style="fill:#B3B3B3;" d="M244.795,241.35c46.937,16.677,80.541,61.482,80.541,114.134
	c0,66.873-54.209,121.083-121.083,121.083S83.17,422.357,83.17,355.484c0-62.035,46.644-113.173,106.778-120.247"/>
<path style="fill:#4D4D4D;" d="M218.458,315.764c16.447,5.843,28.221,21.543,28.221,39.991c0,23.432-18.994,42.426-42.426,42.426
	s-42.426-18.994-42.426-42.426c0-21.737,16.343-39.655,37.414-42.133"/>
<path style="fill:#B3B3B3;" d="M456.379,391.449v34.482H344.063c5.475-10.836,9.718-22.382,12.56-34.482h19.822h45.986H456.379z"/>
<path style="fill:#32A8EA;" d="M409.818,259.583c15.245,1.505,26.29,15.224,24.503,30.448L422.43,391.449h-45.986l7.837-75.724
	h-28.599c-6.416-24.534-18.651-46.717-35.15-64.993l0.01-0.01L409.818,259.583z"/>
<path style="fill:#4AD385;" d="M244.798,204.267v105.085h-54.857V199.596v-0.157c0-18.599,2.341-37.125,6.949-55.139l6.238-24.336
	c11.348,8.808,25.6,14.064,41.085,14.064c12.434,0,24.074-3.385,34.053-9.289l21.943,107.081
	C283.981,219.209,265.215,209.721,244.798,204.267z"/>
<path style="fill:#FCE5C5;" d="M244.798,309.352v22.726c0,15.141-12.278,27.429-27.429,27.429c-7.576,0-14.43-3.072-19.393-8.035
	s-8.035-11.828-8.035-19.393v-22.726H244.798z"/>
<circle style="fill:#4D4D4D;" cx="413.876" cy="461.614" r="50.385"/>
<circle style="fill:#B3B3B3;" cx="413.876" cy="461.614" r="18.085"/>
<g>
</g>
<g>
</g>
<g>
</g>
<g>
</g>
<g>
</g>
<g>
</g>
<g>
</g>
<g>
</g>
<g>
</g>
<g>
</g>
<g>
</g>
<g>
</g>
<g>
</g>
<g>
</g>
<g>
</g>
</svg>
