<?xml version="1.0" encoding="iso-8859-1"?>
<!-- Generator: Adobe Illustrator 19.0.0, SVG Export Plug-In . SVG Version: 6.00 Build 0)  -->
<svg version="1.1" id="Layer_1" xmlns="http://www.w3.org/2000/svg" xmlns:xlink="http://www.w3.org/1999/xlink" x="0px" y="0px"
	 viewBox="0 0 509.287 509.287" style="enable-background:new 0 0 509.287 509.287;" xml:space="preserve">
<circle style="fill:#6EB1E1;" cx="254.644" cy="254.644" r="254.644"/>
<path style="fill:#646B79;" d="M436.726,101.383H72.562c-8.138,0-14.58,6.442-14.58,14.58v254.983h392.985V115.963
	C451.306,107.825,444.525,101.383,436.726,101.383z"/>
<rect x="79.682" y="122.744" style="fill:#FCFCFD;" width="350.262" height="226.84"/>
<path style="fill:#414753;" d="M22.718,370.946c0,20.344,16.615,36.62,36.62,36.62h389.934c20.344,0,36.62-16.615,36.62-36.62
	H22.718z"/>
<rect x="199.714" y="370.946" style="fill:#333842;" width="109.521" height="9.155"/>
<path style="fill:#F0582F;" d="M429.605,250.236h-28.821c-2.374,0-4.069,1.695-4.408,4.069l-4.069,31.195l-9.833-139.02
	c0-2.374-2.034-4.069-4.408-4.069c-2.034,0-4.408,1.695-4.408,4.069l-12.885,103.417h-13.563c-2.034,0-4.069,1.695-4.408,3.73
	l-4.408,26.787l-12.207-66.458c-0.339-2.034-2.034-3.73-4.408-3.73c-2.034,0-4.069,1.356-4.408,3.391l-7.121,33.568h-26.448
	c-1.695,0-3.391,1.017-4.069,2.713l-6.103,15.597l-4.747-14.58c-0.678-1.695-2.374-3.052-4.408-3.052h-27.804l-18.649-106.469
	c-0.678-2.373-2.373-3.73-4.747-3.73l0,0c-2.034,0-4.069,1.695-4.408,3.73l-24.074,144.445l-12.207-98.67
	c-0.339-2.034-1.695-3.73-3.73-4.069c-2.034-0.339-4.069,1.017-4.747,2.713l-24.413,59.677H79.682v8.816h63.407
	c1.695,0,3.391-1.017,4.069-2.713l18.988-46.114l13.902,112.233c0.339,2.374,2.034,3.73,4.408,4.069c2.034,0,4.069-1.695,4.408-3.73
	l24.752-149.192l14.58,84.09c0.339,2.034,2.373,3.73,4.408,3.73h28.482l7.799,23.396c0.678,1.695,2.374,3.052,4.069,3.052
	s3.73-1.017,4.408-2.713L286.856,256h26.787c2.034,0,4.069-1.356,4.408-3.391l3.052-14.919l12.546,69.171
	c0.339,2.034,2.374,3.73,4.408,3.73l0,0c2.034,0,4.069-1.695,4.408-3.73l8.138-48.148h13.902c2.374,0,4.069-1.695,4.408-4.069
	l7.46-61.711l9.833,138.003c0,2.374,2.034,4.069,4.408,4.069l0,0c2.373,0,4.069-1.695,4.408-4.069l9.155-71.883h24.752v-8.816
	H429.605z"/>
<g>
</g>
<g>
</g>
<g>
</g>
<g>
</g>
<g>
</g>
<g>
</g>
<g>
</g>
<g>
</g>
<g>
</g>
<g>
</g>
<g>
</g>
<g>
</g>
<g>
</g>
<g>
</g>
<g>
</g>
</svg>
