<?xml version="1.0" encoding="iso-8859-1"?>
<!-- Generator: Adobe Illustrator 19.0.0, SVG Export Plug-In . SVG Version: 6.00 Build 0)  -->
<svg version="1.1" id="Layer_1" xmlns="http://www.w3.org/2000/svg" xmlns:xlink="http://www.w3.org/1999/xlink" x="0px" y="0px"
	 viewBox="0 0 509.287 509.287" style="enable-background:new 0 0 509.287 509.287;" xml:space="preserve">
<circle style="fill:#FBD303;" cx="254.644" cy="254.644" r="254.644"/>
<path style="fill:#74594E;" d="M181.743,137.325v-32.551c0-7.121,5.764-12.885,12.885-12.885H314.66
	c7.121,0,12.885,5.764,12.885,12.885v32.551h15.597v-32.551c0-15.936-12.885-28.821-28.821-28.821H194.628
	c-15.936,0-28.821,12.885-28.821,28.821v32.551H181.743z"/>
<path style="fill:#886C60;" d="M428.927,130.882H80.36c-7.46,0-13.563,6.103-13.563,13.563v234.299
	c0,7.46,6.103,13.563,13.563,13.563h348.567c7.46,0,13.563-6.103,13.563-13.563V144.445
	C442.49,136.985,436.387,130.882,428.927,130.882z"/>
<circle style="fill:#FFFFFF;" cx="254.644" cy="261.764" r="76.291"/>
<polygon style="fill:#F0582F;" points="308.556,248.201 268.207,248.201 268.207,207.852 241.081,207.852 241.081,248.201 
	200.731,248.201 200.731,275.327 241.081,275.327 241.081,315.677 268.207,315.677 268.207,275.327 308.556,275.327 "/>
<g>
</g>
<g>
</g>
<g>
</g>
<g>
</g>
<g>
</g>
<g>
</g>
<g>
</g>
<g>
</g>
<g>
</g>
<g>
</g>
<g>
</g>
<g>
</g>
<g>
</g>
<g>
</g>
<g>
</g>
</svg>
