<?xml version="1.0" encoding="iso-8859-1"?>
<!-- Generator: Adobe Illustrator 19.0.0, SVG Export Plug-In . SVG Version: 6.00 Build 0)  -->
<svg version="1.1" id="Layer_1" xmlns="http://www.w3.org/2000/svg" xmlns:xlink="http://www.w3.org/1999/xlink" x="0px" y="0px"
	 viewBox="0 0 509.287 509.287" style="enable-background:new 0 0 509.287 509.287;" xml:space="preserve">
<circle style="fill:#886C60;" cx="254.644" cy="254.644" r="254.644"/>
<g>
	<path style="fill:#F1F3F7;" d="M347.889,83.073h-186.49c-2.713,0-4.747-2.034-4.747-4.747c0-2.713,2.034-4.747,4.747-4.747h186.49
		c2.713,0,4.747,2.034,4.747,4.747C352.636,80.699,350.601,83.073,347.889,83.073z"/>
	<path style="fill:#F1F3F7;" d="M336.699,120.371H172.588c-2.713,0-4.747-2.034-4.747-4.747c0-2.713,2.034-4.747,4.747-4.747H336.36
		c2.713,0,4.747,2.034,4.747,4.747C341.446,118.336,339.073,120.371,336.699,120.371z"/>
	<path style="fill:#F1F3F7;" d="M347.889,435.709h-186.49c-2.713,0-4.747-2.034-4.747-4.747s2.034-4.747,4.747-4.747h186.49
		c2.713,0,4.747,2.034,4.747,4.747C352.636,433.674,350.601,435.709,347.889,435.709z"/>
	<path style="fill:#F1F3F7;" d="M336.699,398.411H172.588c-2.713,0-4.747-2.034-4.747-4.747s2.034-4.747,4.747-4.747H336.36
		c2.713,0,4.747,2.034,4.747,4.747C341.446,396.376,339.073,398.411,336.699,398.411z"/>
	<path style="fill:#F1F3F7;" d="M330.257,212.599H179.03c-2.713,0-4.747-2.034-4.747-4.747c0-2.713,2.034-4.747,4.747-4.747h151.227
		c2.713,0,4.747,2.034,4.747,4.747C335.004,210.564,332.97,212.599,330.257,212.599z"/>
	<path style="fill:#F1F3F7;" d="M347.889,243.793h-186.49c-2.713,0-4.747-2.034-4.747-4.747c0-2.713,2.034-4.747,4.747-4.747h186.49
		c2.713,0,4.747,2.034,4.747,4.747C352.636,241.759,350.601,243.793,347.889,243.793z"/>
	<path style="fill:#F1F3F7;" d="M347.889,274.988h-186.49c-2.713,0-4.747-2.034-4.747-4.747c0-2.713,2.034-4.747,4.747-4.747h186.49
		c2.713,0,4.747,2.034,4.747,4.747C352.636,272.954,350.601,274.988,347.889,274.988z"/>
	<path style="fill:#F1F3F7;" d="M330.257,306.183H179.03c-2.713,0-4.747-2.034-4.747-4.747c0-2.713,2.034-4.747,4.747-4.747h151.227
		c2.713,0,4.747,2.034,4.747,4.747C335.004,304.148,332.97,306.183,330.257,306.183z"/>
</g>
<path style="fill:#6EB1E1;" d="M239.385,146.819c-33.568-14.919-68.493-30.177-68.493-45.775V47.809
	c0-5.425-4.408-9.494-9.494-9.494c-5.425,0-9.494,4.408-9.494,9.494v53.574c0,27.804,36.959,44.079,80.021,63.068
	c50.183,22.04,106.808,47.131,106.808,90.193s-56.625,68.154-106.808,90.193c-43.062,18.988-80.021,35.264-80.021,63.068v53.574
	c0,5.425,4.408,9.494,9.494,9.494c5.425,0,9.494-4.408,9.494-9.494v-53.574c0-15.258,34.924-30.856,68.493-45.775
	c52.556-23.396,117.997-52.217,117.997-107.825C357.383,199.036,291.942,170.215,239.385,146.819z"/>
<path style="fill:#FBD303;" d="M277.701,164.45c43.062-18.988,80.021-35.264,80.021-63.068V47.809c0-5.425-4.408-9.494-9.494-9.494
	c-5.425,0-9.494,4.408-9.494,9.494v53.574c0,15.258-34.925,30.856-68.493,45.775c-52.556,23.396-117.997,52.217-117.997,107.825
	s65.441,84.429,117.997,107.825c33.568,14.919,68.493,30.177,68.493,45.775v53.574c0,5.425,4.408,9.494,9.494,9.494
	c5.425,0,9.494-4.408,9.494-9.494v-53.574c0-27.804-36.959-44.079-80.021-63.068c-50.183-22.04-106.808-47.131-106.808-90.193
	C170.893,211.581,227.518,186.49,277.701,164.45z"/>
<g>
</g>
<g>
</g>
<g>
</g>
<g>
</g>
<g>
</g>
<g>
</g>
<g>
</g>
<g>
</g>
<g>
</g>
<g>
</g>
<g>
</g>
<g>
</g>
<g>
</g>
<g>
</g>
<g>
</g>
</svg>
