<?xml version="1.0" encoding="iso-8859-1"?>
<!-- Generator: Adobe Illustrator 19.0.0, SVG Export Plug-In . SVG Version: 6.00 Build 0)  -->
<svg version="1.1" id="Capa_1" xmlns="http://www.w3.org/2000/svg" xmlns:xlink="http://www.w3.org/1999/xlink" x="0px" y="0px"
	 viewBox="0 0 512 512" style="enable-background:new 0 0 512 512;" xml:space="preserve">
<circle style="fill:#E0E0E2;" cx="256" cy="256" r="256"/>
<path style="fill:#AEADB3;" d="M503.976,319.832L256.069,71.925c0,0-123.325,138.193-123.325,239.44
	c0,29.756,11.94,68.012,38.832,95.061l104.887,104.76C386.68,502.468,477.253,423.953,503.976,319.832z"/>
<path style="fill:#FF3200;" d="M256.069,71.925c0,0-123.325,138.193-123.325,239.44c0,51.579,35.862,128.711,123.325,128.711
	s123.187-77.132,123.187-128.711C379.256,210.117,256.069,71.925,256.069,71.925z"/>
<path style="fill:#CA1C00;" d="M379.252,311.364c0,51.575-35.722,128.712-123.186,128.712H256V72.002
	c0.039-0.044,0.066-0.073,0.066-0.073S379.252,210.125,379.252,311.364z"/>
<g>
</g>
<g>
</g>
<g>
</g>
<g>
</g>
<g>
</g>
<g>
</g>
<g>
</g>
<g>
</g>
<g>
</g>
<g>
</g>
<g>
</g>
<g>
</g>
<g>
</g>
<g>
</g>
<g>
</g>
</svg>
