<?xml version="1.0" encoding="iso-8859-1"?>
<!-- Generator: Adobe Illustrator 19.0.0, SVG Export Plug-In . SVG Version: 6.00 Build 0)  -->
<svg version="1.1" id="Layer_1" xmlns="http://www.w3.org/2000/svg" xmlns:xlink="http://www.w3.org/1999/xlink" x="0px" y="0px"
	 viewBox="0 0 512 512" style="enable-background:new 0 0 512 512;" xml:space="preserve">
<path style="fill:#707070;" d="M230.034,453.023l-97.217-0.747c-10.937-0.085-19.735-9.018-19.65-19.955l0.593-77.007
	c0.083-10.937,9.018-19.735,19.955-19.65l97.217,0.749c10.937,0.083,19.735,9.018,19.65,19.955l-0.593,77.007
	C249.906,444.309,240.971,453.107,230.034,453.023z"/>
<path style="fill:#E03905;" d="M109.202,0C82.944,0,62.288,22.433,64.451,48.603l16.917,204.739c0,0.004,0.001,0.009,0.001,0.015
	l10.625,98.439c0.54,21.466,18.087,38.845,39.716,39.011l93.102,0.716c21.631,0.166,39.442-16.938,40.312-38.396l31.197-303.633
	C299.041,23.018,278.266,0,251.65,0H109.202z"/>
<path style="fill:#FF8546;" d="M254.102,0.066C253.29,0.022,252.473,0,251.65,0H109.202C82.944,0,62.288,22.433,64.451,48.603
	l16.917,204.739c0,0.004,0.001,0.009,0.001,0.015l10.625,98.439c0.54,21.466,18.087,38.845,39.716,39.011l93.102,0.716
	c11.5,0.088,21.921-4.705,29.289-12.439V0.066z"/>
<path style="fill:#E0E0E0;" d="M371.061,314.487H256.603c-10.937,0-19.803-8.867-19.803-19.803v-90.662
	c0-10.937,8.867-19.803,19.803-19.803h114.458c10.937,0,19.803,8.867,19.803,19.803v90.662
	C390.864,305.62,381.999,314.487,371.061,314.487z"/>
<path style="fill:#F4F4F4;" d="M254.102,184.392c-9.754,1.232-17.303,9.54-17.303,19.628v90.662
	c0,10.088,7.549,18.396,17.303,19.628V184.392z"/>
<path style="fill:#74D6D0;" d="M375.38,511.997l-126.752-0.976c-39.18-0.301-70.81-32.422-70.509-71.602l0.721-93.632
	c0.301-39.179,32.422-70.809,71.601-70.508l126.752,0.974c39.18,0.302,70.81,32.422,70.509,71.601l-0.72,93.632
	C446.681,480.668,414.561,512.298,375.38,511.997z"/>
<path style="fill:#E03905;" d="M317.589,453.023c-33.233,0-60.268-27.037-60.268-60.27s27.037-60.27,60.268-60.27
	c33.233,0,60.27,27.037,60.27,60.27S350.822,453.023,317.589,453.023z"/>
<path style="fill:#CCF7F5;" d="M254.102,275.309l-3.66-0.028c-39.18-0.302-71.3,31.328-71.601,70.508l-0.721,93.632
	c-0.301,39.18,31.329,71.3,70.509,71.602l5.474,0.042V275.309H254.102z"/>
<g>
</g>
<g>
</g>
<g>
</g>
<g>
</g>
<g>
</g>
<g>
</g>
<g>
</g>
<g>
</g>
<g>
</g>
<g>
</g>
<g>
</g>
<g>
</g>
<g>
</g>
<g>
</g>
<g>
</g>
</svg>
