<?xml version="1.0" encoding="iso-8859-1"?>
<!-- Generator: Adobe Illustrator 19.0.0, SVG Export Plug-In . SVG Version: 6.00 Build 0)  -->
<svg version="1.1" id="Layer_1" xmlns="http://www.w3.org/2000/svg" xmlns:xlink="http://www.w3.org/1999/xlink" x="0px" y="0px"
	 viewBox="0 0 509.287 509.287" style="enable-background:new 0 0 509.287 509.287;" xml:space="preserve">
<circle style="fill:#FBD303;" cx="254.644" cy="254.644" r="254.644"/>
<path style="fill:#F1F3F7;" d="M474.024,152.244c0-13.563-11.189-24.752-24.752-24.752H136.985c-8.477,0-16.615,4.408-21.023,11.528
	l-76.97,124.101c-1.356,2.374-2.374,5.086-3.052,7.799h438.421V152.244H474.024z"/>
<path style="fill:#DEDEDF;" d="M35.942,270.919c-0.339,1.695-0.678,3.391-0.678,5.086v71.205c0,13.563,11.189,24.752,24.752,24.752
	h389.595c13.563,0,24.752-11.189,24.752-24.752v-76.291H35.942z"/>
<g>
	<polygon style="fill:#6EB1E1;" points="218.363,249.558 218.363,162.416 132.577,162.416 78.326,249.558 	"/>
	<rect x="257.356" y="162.416" style="fill:#6EB1E1;" width="188.864" height="87.481"/>
</g>
<g>
	<polygon style="fill:#5EA6D1;" points="87.82,234.638 78.326,249.558 218.363,249.558 218.363,234.638 	"/>
	<rect x="257.356" y="234.638" style="fill:#5EA6D1;" width="188.864" height="14.919"/>
</g>
<path style="fill:#F0582F;" d="M196.323,127.491h-42.384V99.687c0-4.747,4.069-8.816,8.816-8.816h24.752
	c4.747,0,8.816,4.069,8.816,8.816L196.323,127.491L196.323,127.491z"/>
<circle style="fill:#414753;" cx="124.779" cy="372.302" r="46.114"/>
<circle style="fill:#BDBDBE;" cx="124.779" cy="372.302" r="29.499"/>
<circle style="fill:#F1F3F7;" cx="124.779" cy="372.302" r="22.379"/>
<circle style="fill:#414753;" cx="348.906" cy="372.302" r="46.114"/>
<circle style="fill:#BDBDBE;" cx="348.906" cy="372.302" r="29.499"/>
<circle style="fill:#F1F3F7;" cx="348.906" cy="372.302" r="22.379"/>
<g>
	<rect x="414.008" y="283.126" style="fill:#F0582F;" width="12.207" height="52.556"/>
	<rect x="393.664" y="303.47" style="fill:#F0582F;" width="52.556" height="12.207"/>
</g>
<g>
</g>
<g>
</g>
<g>
</g>
<g>
</g>
<g>
</g>
<g>
</g>
<g>
</g>
<g>
</g>
<g>
</g>
<g>
</g>
<g>
</g>
<g>
</g>
<g>
</g>
<g>
</g>
<g>
</g>
</svg>
