<?xml version="1.0" encoding="iso-8859-1"?>
<!-- Generator: Adobe Illustrator 19.0.0, SVG Export Plug-In . SVG Version: 6.00 Build 0)  -->
<svg version="1.1" id="Layer_1" xmlns="http://www.w3.org/2000/svg" xmlns:xlink="http://www.w3.org/1999/xlink" x="0px" y="0px"
	 viewBox="0 0 509.287 509.287" style="enable-background:new 0 0 509.287 509.287;" xml:space="preserve">
<circle style="fill:#886C60;" cx="254.644" cy="254.644" r="254.644"/>
<path style="fill:#F0582F;" d="M271.936,227.179v-22.718c5.086,5.086,10.85,8.816,17.293,11.868
	c10.511,4.747,21.362,6.103,30.856,6.103c16.954,0,29.838-4.408,30.856-4.747l-6.103-14.919c-0.339,0-26.448,9.155-47.809-0.678
	c-11.528-5.086-20.005-15.258-25.091-29.499V70.866h-34.585v101.722c-5.086,14.241-13.224,24.074-24.752,29.499
	c-21.362,9.833-47.809,1.017-48.148,0.678l-6.103,14.919c1.017,0.339,13.902,4.747,30.856,4.747c9.833,0,20.683-1.356,30.856-6.103
	c6.442-3.052,12.207-7.121,17.293-11.868v22.718c-43.74,6.103-77.987,43.062-79.343,44.758l13.224,10.511
	c0.339-0.339,30.177-32.551,66.119-38.654V471.65h34.246V243.454c35.942,6.103,66.119,38.315,66.458,38.654l13.224-10.511
	C349.584,270.241,315.338,233.282,271.936,227.179z"/>
<g>
	<path style="fill:#F7CFA2;" d="M478.432,235.656c0-69.171-27.126-169.536-108.842-170.554
		c-31.195-0.339-60.355,19.327-69.51,49.505c-10.85,35.942,5.086,69.51,32.89,85.107c7.121,4.069,9.833,13.224,6.442,20.683
		l-4.408,9.833c-2.374,5.086-1.695,11.189,1.356,15.597l0,0c5.086,7.799,2.713,17.971-5.425,23.057
		c-25.43,15.597-40.35,46.792-31.873,80.699c8.138,31.873,36.62,52.895,69.51,52.895
		C445.542,402.14,478.432,301.775,478.432,235.656z"/>
	<path style="fill:#F7CFA2;" d="M30.856,235.656c0-69.171,27.126-169.536,108.842-170.554c31.195-0.339,60.355,19.327,69.51,49.505
		c10.85,35.942-5.086,69.51-32.89,85.107c-7.121,4.069-9.833,13.224-6.442,20.683l4.408,9.833
		c2.374,5.086,1.695,11.189-1.356,15.597l0,0c-5.086,7.799-2.713,17.971,5.425,23.057c25.43,15.597,40.35,46.792,31.873,80.699
		c-8.138,31.534-36.959,52.556-69.51,52.556C63.746,402.14,30.856,301.775,30.856,235.656z"/>
</g>
<g>
</g>
<g>
</g>
<g>
</g>
<g>
</g>
<g>
</g>
<g>
</g>
<g>
</g>
<g>
</g>
<g>
</g>
<g>
</g>
<g>
</g>
<g>
</g>
<g>
</g>
<g>
</g>
<g>
</g>
</svg>
