<?xml version="1.0" encoding="iso-8859-1"?>
<!-- Generator: Adobe Illustrator 19.0.0, SVG Export Plug-In . SVG Version: 6.00 Build 0)  -->
<svg version="1.1" id="Layer_1" xmlns="http://www.w3.org/2000/svg" xmlns:xlink="http://www.w3.org/1999/xlink" x="0px" y="0px"
	 viewBox="0 0 512 512" style="enable-background:new 0 0 512 512;" xml:space="preserve">
<polygon style="fill:#FFE9BF;" points="298.909,134.532 319.388,171.395 356.252,191.876 383.55,164.578 363.071,127.714 
	326.207,107.234 "/>
<rect x="273.373" y="157.559" transform="matrix(0.7071 0.7071 -0.7071 0.7071 217.0036 -170.1746)" style="fill:#FFD37D;" width="81.095" height="38.601"/>
<polygon style="fill:#FFE9BF;" points="353.505,79.936 373.985,116.799 410.848,137.28 438.147,109.98 380.803,52.638 "/>
<rect x="327.989" y="102.958" transform="matrix(0.7071 0.7071 -0.7071 0.7071 194.3917 -224.7858)" style="fill:#FFD37D;" width="81.095" height="38.601"/>
<path style="fill:#3D7A94;" d="M429.954,101.789L53.818,477.926c-7.794,7.794-7.796,20.433,0,28.228
	c7.794,7.794,20.433,7.794,28.228,0l376.136-376.136c7.794-7.794,7.794-20.433,0-28.228
	C450.388,93.994,437.749,93.994,429.954,101.789z"/>
<path style="fill:#FC7576;" d="M376.092,12.171c16.237,16.237,16.237,42.56,0,58.797c-16.449,16.447-69.103,69.104-85.551,85.551
	c-10.995,10.995-14.531,26.612-10.634,40.594c-13.389,2.947-27.95-0.782-38.364-11.195c-16.237-16.237-16.237-42.56,0-58.797
	c16.447-16.449,69.104-69.103,85.551-85.551c10.995-10.995,14.531-26.612,10.634-40.594C351.118-1.972,365.678,1.757,376.092,12.171
	z"/>
<g>
</g>
<g>
</g>
<g>
</g>
<g>
</g>
<g>
</g>
<g>
</g>
<g>
</g>
<g>
</g>
<g>
</g>
<g>
</g>
<g>
</g>
<g>
</g>
<g>
</g>
<g>
</g>
<g>
</g>
</svg>
