<?xml version="1.0" encoding="iso-8859-1"?>
<!-- Generator: Adobe Illustrator 19.0.0, SVG Export Plug-In . SVG Version: 6.00 Build 0)  -->
<svg version="1.1" id="Capa_1" xmlns="http://www.w3.org/2000/svg" xmlns:xlink="http://www.w3.org/1999/xlink" x="0px" y="0px"
	 viewBox="0 0 512 512" style="enable-background:new 0 0 512 512;" xml:space="preserve">
<path style="fill:#FFA81F;" d="M473.5,60h-45c-8.401,0-15,6.599-15,15v150c0,8.401,6.599,15,15,15h45c8.401,0,15-6.599,15-15V75
	C488.5,66.599,481.901,60,473.5,60z"/>
<path style="fill:#FF9800;" d="M488.5,75v150c0,8.401-6.599,15-15,15H451V60h22.5C481.901,60,488.5,66.599,488.5,75z"/>
<path style="fill:#FFA81F;" d="M113.5,0h-45c-8.401,0-15,6.599-15,15v150c0,8.401,6.599,15,15,15h45c8.401,0,15-6.599,15-15V15
	C128.5,6.599,121.901,0,113.5,0z"/>
<path style="fill:#FF9800;" d="M128.5,15v150c0,8.401-6.599,15-15,15H91V0h22.5C121.901,0,128.5,6.599,128.5,15z"/>
<path style="fill:#C5C9F7;" d="M53.5,150v75c0,8.401,6.599,15,15,15h45c8.401,0,15-6.599,15-15v-75H53.5z"/>
<path style="fill:#A5AEF2;" d="M128.5,150v75c0,8.401-6.599,15-15,15H91v-90H128.5z"/>
<path style="fill:#FFA81F;" d="M188.5,60h-45c-8.401,0-15,6.599-15,15v150c0,8.401,6.599,15,15,15h45c8.401,0,15-6.599,15-15V75
	C203.5,66.599,196.901,60,188.5,60z"/>
<path style="fill:#FF9800;" d="M203.5,75v150c0,8.401-6.599,15-15,15H166V60h22.5C196.901,60,203.5,66.599,203.5,75z"/>
<path style="fill:#FFA81F;" d="M263.5,60h-45c-8.401,0-15,6.599-15,15v150c0,8.401,6.599,15,15,15h45c8.401,0,15-6.599,15-15V75
	C278.5,66.599,271.901,60,263.5,60z"/>
<path style="fill:#FF9800;" d="M278.5,75v150c0,8.401-6.599,15-15,15H241V60h22.5C271.901,60,278.5,66.599,278.5,75z"/>
<path style="fill:#FFA81F;" d="M338.5,60h-45c-8.401,0-15,6.599-15,15v150c0,8.401,6.599,15,15,15h45c8.401,0,15-6.599,15-15V75
	C353.5,66.599,346.901,60,338.5,60z"/>
<path style="fill:#FF9800;" d="M353.5,75v150c0,8.401-6.599,15-15,15H316V60h22.5C346.901,60,353.5,66.599,353.5,75z"/>
<path style="fill:#E1E4FB;" d="M383.5,165c0-8.401-6.599-15-15-15h-30c-8.401,0-15,6.599-15,15c0,24.901-20.099,45-45,45h-150
	c-24.901,0-45-20.099-45-45c0-8.401-6.599-15-15-15h-30c-8.401,0-15,6.599-15,15v272c0,13.019,14.919,19.204,24.3,11.7l155.7-112.5
	l155.7,112.5c10.098,7.852,24.3,0.77,24.3-11.7V165z"/>
<path style="fill:#C3C8F6;" d="M383.5,165v272c0,12.363-14.156,19.588-24.3,11.7L203.5,336.2V210h75c24.901,0,45-20.099,45-45
	c0-8.401,6.599-15,15-15h30C376.901,150,383.5,156.599,383.5,165z"/>
<path style="fill:#E55639;" d="M212.8,305.3c-2.701-2.1-6-3.3-9.3-3.3s-6.599,1.199-9.3,3.3L23.5,429.8V497c0,8.401,6.599,15,15,15
	h330c8.401,0,15-6.599,15-15v-67.2L212.8,305.3z"/>
<path style="fill:#CF4529;" d="M383.5,429.8V497c0,8.401-6.599,15-15,15h-165V302c3.3,0,6.599,1.199,9.3,3.3L383.5,429.8z"/>
<path style="fill:#E1E4FB;" d="M413.5,210v287c0,8.401,6.599,15,15,15h45c8.401,0,15-6.599,15-15V210H413.5z"/>
<path style="fill:#C3C8F6;" d="M488.5,210v287c0,8.401-6.599,15-15,15H451V210H488.5z"/>
<g>
</g>
<g>
</g>
<g>
</g>
<g>
</g>
<g>
</g>
<g>
</g>
<g>
</g>
<g>
</g>
<g>
</g>
<g>
</g>
<g>
</g>
<g>
</g>
<g>
</g>
<g>
</g>
<g>
</g>
</svg>
