<?xml version="1.0" encoding="iso-8859-1"?>
<!-- Generator: Adobe Illustrator 19.0.0, SVG Export Plug-In . SVG Version: 6.00 Build 0)  -->
<svg version="1.1" id="Layer_1" xmlns="http://www.w3.org/2000/svg" xmlns:xlink="http://www.w3.org/1999/xlink" x="0px" y="0px"
	 viewBox="0 0 509.287 509.287" style="enable-background:new 0 0 509.287 509.287;" xml:space="preserve">
<circle style="fill:#71D456;" cx="254.644" cy="254.644" r="254.644"/>
<g>
	<rect x="10.511" y="100.026" style="fill:#74594E;" width="75.274" height="342.125"/>
	<rect x="423.502" y="244.472" style="fill:#74594E;" width="75.274" height="198.019"/>
</g>
<rect x="85.785" y="290.585" style="fill:#886C60;" width="337.717" height="62.728"/>
<g>
	<path style="fill:#F1F3F7;" d="M174.962,244.472h-55.608c-9.494,0-16.954,7.799-16.954,16.954c0,9.494,7.799,16.954,16.954,16.954
		h55.608c9.494,0,16.954-7.799,16.954-16.954C192.254,251.931,184.456,244.472,174.962,244.472z"/>
	<rect x="225.144" y="244.472" style="fill:#F1F3F7;" width="173.944" height="170.215"/>
</g>
<polygon style="fill:#F0582F;" points="342.125,154.617 342.125,117.658 291.603,117.658 291.603,67.136 254.644,67.136 
	254.644,117.658 203.783,117.658 203.783,154.617 254.644,154.617 254.644,205.478 291.603,205.478 291.603,154.617 "/>
<g>
</g>
<g>
</g>
<g>
</g>
<g>
</g>
<g>
</g>
<g>
</g>
<g>
</g>
<g>
</g>
<g>
</g>
<g>
</g>
<g>
</g>
<g>
</g>
<g>
</g>
<g>
</g>
<g>
</g>
</svg>
