<?xml version="1.0" encoding="iso-8859-1"?>
<!-- Generator: Adobe Illustrator 19.0.0, SVG Export Plug-In . SVG Version: 6.00 Build 0)  -->
<svg version="1.1" id="Layer_1" xmlns="http://www.w3.org/2000/svg" xmlns:xlink="http://www.w3.org/1999/xlink" x="0px" y="0px"
	 viewBox="0 0 516.232 516.232" style="enable-background:new 0 0 516.232 516.232;" xml:space="preserve">
<g>
	<g>
		<g>
			<circle style="fill:#EDE2D9;" cx="258.116" cy="258.116" r="258.116"/>
			<path style="fill:#F2EBE7;" d="M0,258.116C0,400.67,115.57,516.232,258.125,516.232V0.004C115.57,0.004,0,115.566,0,258.116z"/>
		</g>
		<g>
			<g>
				<path style="fill:#EFA63C;" d="M159.105,447.691c0,0-48.304-190.628,78.689-229.853l14.811,27.274
					c0,0-109.859,19.483-59.215,202.579H159.105z"/>
				<path style="fill:#EFA63C;" d="M255.725,183.557c0,0-79.478,2.34-102.076-30.385c0,0-17.138,7.791-19.474,21.818
					c0,0,28.054,28.045,109.083,42.852L255.725,183.557z"/>
			</g>
			<path style="fill:#E77265;" d="M235.407,79.154c-39.524,28.165-28.071,65.711-16.034,84.482
				c12.019,18.775,15.463,42.554,16.034,60.703c-0.571,18.144-4.011,41.927-16.034,60.703
				c-12.037,18.775-23.493,56.321,16.034,84.482s146.65,6.888,146.65-145.18S274.935,50.993,235.407,79.154z"/>
		</g>
		<path style="opacity:0.2;fill:#FFFFFF;enable-background:new    ;" d="M0,258.116C0,400.67,115.57,516.232,258.125,516.232V0.004
			C115.57,0.004,0,115.566,0,258.116z"/>
	</g>
</g>
<g>
</g>
<g>
</g>
<g>
</g>
<g>
</g>
<g>
</g>
<g>
</g>
<g>
</g>
<g>
</g>
<g>
</g>
<g>
</g>
<g>
</g>
<g>
</g>
<g>
</g>
<g>
</g>
<g>
</g>
</svg>
