<?xml version="1.0" encoding="iso-8859-1"?>
<!-- Generator: Adobe Illustrator 19.0.0, SVG Export Plug-In . SVG Version: 6.00 Build 0)  -->
<svg version="1.1" id="Layer_1" xmlns="http://www.w3.org/2000/svg" xmlns:xlink="http://www.w3.org/1999/xlink" x="0px" y="0px"
	 viewBox="0 0 297 297" style="enable-background:new 0 0 297 297;" xml:space="preserve">
<g>
	<g>
		<circle style="fill:#C0392B;" cx="148.5" cy="148.5" r="148.5"/>
	</g>
	<path style="fill:#A02D27;" d="M296.983,147.172l-89.981-89.981L90.975,240.753l56.195,56.23c0.443,0.004,0.885,0.017,1.329,0.017
		c82.014,0,148.5-66.486,148.5-148.5C297,148.056,296.987,147.615,296.983,147.172z"/>
	<path style="fill:#ECF0F1;" d="M108.416,247.5h80.167c14.313,0,25.917-11.603,25.917-25.917V75.416
		c0-14.313-11.603-25.916-25.917-25.916h-80.167C94.103,49.5,82.5,61.103,82.5,75.416v146.167
		C82.5,235.897,94.103,247.5,108.416,247.5z"/>
	<path style="fill:#DDDDDD;" d="M188.583,49.5h-40.75v198h40.75c14.313,0,25.917-11.603,25.917-25.917V75.417
		C214.5,61.103,202.897,49.5,188.583,49.5z"/>
	<circle style="fill:#ECA684;" cx="112.75" cy="78.25" r="11"/>
	<circle style="fill:#ECA684;" cx="112.75" cy="113.375" r="11"/>
	<circle style="fill:#ECA684;" cx="112.75" cy="148.5" r="11"/>
	<circle style="fill:#ECA684;" cx="112.75" cy="183.625" r="11"/>
	<circle style="fill:#ECA684;" cx="112.75" cy="218.75" r="11"/>
	<circle style="fill:#ECA684;" cx="184.25" cy="78.25" r="11"/>
	<circle style="fill:#ECA684;" cx="184.25" cy="113.375" r="11"/>
	<circle style="fill:#ECA684;" cx="184.25" cy="148.5" r="11"/>
	<circle style="fill:#ECA684;" cx="184.25" cy="183.625" r="11"/>
	<circle style="fill:#ECA684;" cx="184.25" cy="218.75" r="11"/>
	<path style="fill:#BBBBBB;" d="M148.5,227.25c-2.485,0-4.5-2.015-4.5-4.5V74.25c0-2.485,2.015-4.5,4.5-4.5s4.5,2.015,4.5,4.5v148.5
		C153,225.235,150.985,227.25,148.5,227.25z"/>
	<path style="fill:#ADACAC;" d="M148.5,69.75c-0.228,0-0.447,0.034-0.666,0.067v157.366c0.219,0.033,0.438,0.067,0.666,0.067
		c2.485,0,4.5-2.015,4.5-4.5V74.25C153,71.765,150.985,69.75,148.5,69.75z"/>
</g>
<g>
</g>
<g>
</g>
<g>
</g>
<g>
</g>
<g>
</g>
<g>
</g>
<g>
</g>
<g>
</g>
<g>
</g>
<g>
</g>
<g>
</g>
<g>
</g>
<g>
</g>
<g>
</g>
<g>
</g>
</svg>
