<?xml version="1.0" encoding="iso-8859-1"?>
<!-- Generator: Adobe Illustrator 19.0.0, SVG Export Plug-In . SVG Version: 6.00 Build 0)  -->
<svg version="1.1" id="Capa_1" xmlns="http://www.w3.org/2000/svg" xmlns:xlink="http://www.w3.org/1999/xlink" x="0px" y="0px"
	 viewBox="0 0 426.667 426.667" style="enable-background:new 0 0 426.667 426.667;" xml:space="preserve">
<rect x="50.923" y="161.135" style="fill:#F6C358;" width="325.205" height="178.927"/>
<rect x="294.997" y="180.506" style="fill:#2D93BA;" width="35.362" height="27.895"/>
<polygon style="fill:#27A2DB;" points="294.986,208.39 294.986,180.493 330.346,180.493 "/>
<rect x="294.997" y="216.047" style="fill:#2D93BA;" width="35.362" height="27.895"/>
<polygon style="fill:#27A2DB;" points="294.986,243.949 294.986,216.053 330.346,216.053 "/>
<rect x="294.997" y="251.614" style="fill:#2D93BA;" width="35.362" height="27.895"/>
<polygon style="fill:#27A2DB;" points="294.986,279.508 294.986,251.612 330.346,251.612 "/>
<rect x="294.997" y="287.172" style="fill:#2D93BA;" width="35.362" height="27.895"/>
<polygon style="fill:#27A2DB;" points="294.986,315.068 294.986,287.171 330.346,287.171 "/>
<rect x="332.655" y="180.506" style="fill:#2D93BA;" width="35.362" height="27.895"/>
<polygon style="fill:#27A2DB;" points="332.655,208.39 332.655,180.493 368.015,180.493 "/>
<rect x="332.655" y="216.047" style="fill:#2D93BA;" width="35.362" height="27.895"/>
<polygon style="fill:#27A2DB;" points="332.655,243.949 332.655,216.053 368.015,216.053 "/>
<rect x="332.655" y="251.614" style="fill:#2D93BA;" width="35.362" height="27.895"/>
<polygon style="fill:#27A2DB;" points="332.655,279.508 332.655,251.612 368.015,251.612 "/>
<rect x="332.655" y="287.172" style="fill:#2D93BA;" width="35.362" height="27.895"/>
<polygon style="fill:#27A2DB;" points="332.655,315.068 332.655,287.171 368.015,287.171 "/>
<rect x="142.822" y="52.164" style="fill:#FCD462;" width="141.013" height="287.915"/>
<rect x="170.709" y="241.178" style="fill:#64798A;" width="85.632" height="98.859"/>
<g>
	<rect x="210.005" y="241.178" style="fill:#3A556A;" width="7.279" height="98.859"/>
	<rect x="202.624" y="283.759" style="fill:#3A556A;" width="3.426" height="17.284"/>
	<rect x="221.662" y="283.759" style="fill:#3A556A;" width="3.426" height="17.284"/>
</g>
<rect x="32.021" y="340.079" style="fill:#64798A;" width="362.628" height="10.799"/>
<rect x="15.044" y="350.874" style="fill:#2F4859;" width="396.587" height="11.81"/>
<rect y="362.692" style="fill:#3A556A;" width="426.667" height="11.81"/>
<rect x="57.489" y="180.506" style="fill:#2D93BA;" width="35.362" height="27.895"/>
<polygon style="fill:#27A2DB;" points="57.489,208.39 57.489,180.493 92.849,180.493 "/>
<rect x="57.489" y="216.047" style="fill:#2D93BA;" width="35.362" height="27.895"/>
<polygon style="fill:#27A2DB;" points="57.489,243.949 57.489,216.053 92.849,216.053 "/>
<rect x="57.489" y="251.614" style="fill:#2D93BA;" width="35.362" height="27.895"/>
<polygon style="fill:#27A2DB;" points="57.489,279.508 57.489,251.612 92.849,251.612 "/>
<rect x="57.489" y="287.172" style="fill:#2D93BA;" width="35.362" height="27.895"/>
<polygon style="fill:#27A2DB;" points="57.489,315.068 57.489,287.171 92.849,287.171 "/>
<rect x="95.147" y="180.506" style="fill:#2D93BA;" width="35.362" height="27.895"/>
<polygon style="fill:#27A2DB;" points="95.158,208.39 95.158,180.493 130.518,180.493 "/>
<rect x="95.147" y="216.047" style="fill:#2D93BA;" width="35.362" height="27.895"/>
<polygon style="fill:#27A2DB;" points="95.158,243.949 95.158,216.053 130.518,216.053 "/>
<rect x="95.147" y="251.614" style="fill:#2D93BA;" width="35.362" height="27.895"/>
<polygon style="fill:#27A2DB;" points="95.158,279.508 95.158,251.612 130.518,251.612 "/>
<rect x="95.147" y="287.172" style="fill:#2D93BA;" width="35.362" height="27.895"/>
<polygon style="fill:#27A2DB;" points="95.158,315.068 95.158,287.171 130.518,287.171 "/>
<g>
	<rect x="204.156" y="76.732" style="fill:#D15241;" width="18.355" height="82.671"/>
	<rect x="171.989" y="108.89" style="fill:#D15241;" width="82.671" height="18.355"/>
</g>
<g>
</g>
<g>
</g>
<g>
</g>
<g>
</g>
<g>
</g>
<g>
</g>
<g>
</g>
<g>
</g>
<g>
</g>
<g>
</g>
<g>
</g>
<g>
</g>
<g>
</g>
<g>
</g>
<g>
</g>
</svg>
