<?xml version="1.0" encoding="iso-8859-1"?>
<!-- Generator: Adobe Illustrator 19.0.0, SVG Export Plug-In . SVG Version: 6.00 Build 0)  -->
<svg version="1.1" id="Layer_1" xmlns="http://www.w3.org/2000/svg" xmlns:xlink="http://www.w3.org/1999/xlink" x="0px" y="0px"
	 viewBox="0 0 512.084 512.084" style="enable-background:new 0 0 512.084 512.084;" xml:space="preserve">
<g transform="translate(-1)">
	<path style="fill:#ECF0F1;" d="M173.163,60.781C157.945,14.463,108.06-10.74,61.741,4.479S-9.788,69.582,5.439,115.9l22.316,67.919
		l166.259-59.595L173.163,60.781z"/>
	<g>
		<path style="fill:#E64C3C;" d="M194.011,124.222l-166.25,59.604L46.776,241.7c15.466,44.897,65.871,67.143,111.422,56.302l0,0
			c48.172-13.233,77.983-58.174,56.302-111.422L194.011,124.222z"/>
		<path style="fill:#E64C3C;" d="M484.946,58.927c-31.435-31.435-82.397-31.435-113.841,0l-54.21,54.219l124.628,125.052
			l43.423-43.423C522.463,157.258,522.463,96.444,484.946,58.927"/>
	</g>
	<path style="fill:#ECF0F1;" d="M271.932,158.106c-31.682,31.682-31.682,83.041,0,114.723c37.27,37.27,97.695,37.27,134.956,0
		l34.631-34.631L316.891,113.147L271.932,158.106z"/>
	<path style="fill:#E64C3C;" d="M248.172,335.489h-70.621v176.552h70.621c48.755,0,88.276-39.521,88.276-88.276
		S296.927,335.489,248.172,335.489"/>
	<path style="fill:#ECF0F1;" d="M115.758,335.489c-48.755,0-88.276,39.521-88.276,88.276s39.521,88.276,88.276,88.276h61.793
		V335.489H115.758z"/>
</g>
<g>
</g>
<g>
</g>
<g>
</g>
<g>
</g>
<g>
</g>
<g>
</g>
<g>
</g>
<g>
</g>
<g>
</g>
<g>
</g>
<g>
</g>
<g>
</g>
<g>
</g>
<g>
</g>
<g>
</g>
</svg>
