<?xml version="1.0" encoding="iso-8859-1"?>
<!-- Generator: Adobe Illustrator 19.0.0, SVG Export Plug-In . SVG Version: 6.00 Build 0)  -->
<svg version="1.1" id="Layer_1" xmlns="http://www.w3.org/2000/svg" xmlns:xlink="http://www.w3.org/1999/xlink" x="0px" y="0px"
	 viewBox="0 0 511.998 511.998" style="enable-background:new 0 0 511.998 511.998;" xml:space="preserve">
<path style="fill:#E6E9ED;" d="M405.271,0.015c-44.169,0-49.403,31.436-106.696,30.483l0.031,231.626
	c0,8.421,6.827,15.248,15.248,15.248h91.448h91.447c8.421,0,15.249-6.827,15.249-15.248l-0.031-231.626
	C454.675,31.45,449.425,0.015,405.271,0.015z"/>
<path style="fill:#DA4453;" d="M394.632,234.001v85.994c0,22.795-8.875,44.216-24.983,60.34
	c-16.124,16.108-37.544,24.982-60.34,24.982h-81.8v21.343h81.8c58.902,0,106.665-47.763,106.665-106.665v-85.994L394.632,234.001
	L394.632,234.001z"/>
<path style="fill:#F5F7FA;" d="M458.628,64.011h-106.65c-11.733,0-21.342,9.593-21.342,21.327v111.321
	c0,11.733,4.812,27.482,10.671,34.998c5.874,7.53,20.265,13.67,31.998,13.67H437.3c11.734,0,26.14-6.14,31.998-13.67
	c5.875-7.516,10.672-23.265,10.672-34.998V85.338C479.97,73.604,470.36,64.011,458.628,64.011z"/>
<path style="fill:#E6E9ED;" d="M202.612,305.979c-28.374-13.748-58.942-7.937-79.987,16.672
	c-21.054-24.608-51.622-30.42-79.995-16.672c-36.106,19.578-53.31,64.23-35.614,111.01c22.428,62.121,103.766,91.213,115.609,94.994
	c11.835-3.781,93.174-32.873,115.602-94.994C255.921,370.21,238.726,325.558,202.612,305.979z"/>
<g>
	<path style="fill:#ED5564;" d="M238.226,416.989c4.586-12.141,6.828-24.124,7-35.561c-32.709-10.516-83.189-3.328-116.656,9.78
		c-37.334,14.64-71.848,22.358-102.854,11.343c-2.875-1.016-18.131-6.952-24.865-9.796c1.047,7.921,3.07,16.046,6.164,24.233
		c22.428,62.121,103.766,91.213,115.609,94.994C134.459,508.202,215.798,479.11,238.226,416.989z"/>
	<path style="fill:#ED5564;" d="M472.157,132.632c-18.107,1.875-36.481,7.109-54.199,13.687
		c-27.889,10.358-54.168,16.937-78.464,14.921h-8.858v35.42c0,11.733,4.812,27.482,10.671,34.998
		c5.874,7.53,20.265,13.67,31.998,13.67H437.3c11.734,0,26.14-6.14,31.998-13.67c5.875-7.516,10.672-23.265,10.672-34.998v-64.027
		h-7.813V132.632z"/>
</g>
<g style="opacity:0.2;">
	<path style="fill:#FFFFFF;" d="M202.612,305.979c-13.593-6.577-27.694-8.671-41.013-6.358c6.585,1.109,13.186,3.219,19.686,6.358
		c36.107,19.578,53.309,64.23,35.607,111.01c-18.796,52.074-78.979,80.932-104.939,91.135c5.008,1.969,8.758,3.25,10.672,3.859
		c11.835-3.781,93.174-32.873,115.602-94.994C255.921,370.21,238.726,325.558,202.612,305.979z"/>
</g>
<path style="opacity:0.2;fill:#FFFFFF;enable-background:new    ;" d="M458.628,64.011H437.3c11.734,0,21.328,9.593,21.328,21.327
	v111.321c0,11.733-4.797,27.482-10.656,34.998c-5.875,7.53-20.264,13.67-31.998,13.67H437.3c11.734,0,26.14-6.14,31.998-13.67
	c5.875-7.516,10.672-23.265,10.672-34.998V85.338C479.97,73.604,470.36,64.011,458.628,64.011z"/>
<g>
</g>
<g>
</g>
<g>
</g>
<g>
</g>
<g>
</g>
<g>
</g>
<g>
</g>
<g>
</g>
<g>
</g>
<g>
</g>
<g>
</g>
<g>
</g>
<g>
</g>
<g>
</g>
<g>
</g>
</svg>
