<?xml version="1.0" encoding="iso-8859-1"?>
<!-- Generator: Adobe Illustrator 19.0.0, SVG Export Plug-In . SVG Version: 6.00 Build 0)  -->
<svg version="1.1" id="Capa_1" xmlns="http://www.w3.org/2000/svg" xmlns:xlink="http://www.w3.org/1999/xlink" x="0px" y="0px"
	 viewBox="0 0 512 512" style="enable-background:new 0 0 512 512;" xml:space="preserve">
<path style="fill:#E3E3E1;" d="M428.736,63.265C387.939,22.468,333.697,0,276.001,0S164.063,22.468,123.266,63.265
	c-40.349,40.349-62.769,93.844-63.257,150.83l-39.164,78.327c-1.87,3.739-0.545,8.287,3.039,10.438L60,324.529V440
	c0,4.418,3.582,8,8,8h72v56c0,4.418,3.582,8,8,8h256c4.418,0,8-3.582,8-8V383.812c50.892-41.258,80-102.196,80-167.812
	C492.001,158.304,469.533,104.062,428.736,63.265z"/>
<path style="fill:#FAD55A;" d="M276.001,88c-57.346,0-104,46.654-104,104c0,42.086,25.493,79.975,64,96.021V336c0,4.418,3.582,8,8,8
	h64c4.418,0,8-3.582,8-8v-47.979c38.507-16.046,64-53.935,64-96.021C380.001,134.654,333.346,88,276.001,88z"/>
<path style="fill:#FEAD5A;" d="M260.001,280.021c-38.507-16.046-64-53.935-64-96.021c0-41.405,24.325-77.233,59.432-93.953
	C207.906,99.62,172.001,141.694,172.001,192c0,42.086,25.493,79.975,64,96.021V336c0,4.418,3.582,8,8,8h16V280.021z"/>
<path style="fill:#FF82A4;" d="M324.001,304h-96c-4.418,0-8,3.582-8,8v56c0,22.056,17.944,40,40,40h32c22.056,0,40-17.944,40-40v-56
	C332.001,307.582,328.419,304,324.001,304z"/>
<path style="fill:#F5577E;" d="M236.001,368v-56c0-4.418,3.582-8,8-8h-16c-4.418,0-8,3.582-8,8v56c0,22.056,17.944,40,40,40h16
	C253.944,408,236.001,390.056,236.001,368z"/>
<g>
	<rect x="220" y="328" style="fill:#CE384F;" width="112" height="16"/>
	<rect x="220" y="352" style="fill:#CE384F;" width="112" height="16"/>
</g>
<polygon style="fill:#F1F1F0;" points="284.001,136 228.001,200 268.001,200 268.001,248 324.001,184 284.001,184 "/>
<g>
	<path style="fill:#FF8E44;" d="M276.001,80c-4.418,0-8-3.582-8-8V56c0-4.418,3.582-8,8-8s8,3.582,8,8v16
		C284.001,76.418,280.419,80,276.001,80z"/>
	<path style="fill:#FF8E44;" d="M191.148,115.147c-2.047,0-4.095-0.781-5.657-2.343l-11.313-11.313
		c-3.125-3.124-3.125-8.189,0-11.313c3.124-3.124,8.189-3.124,11.313,0l11.313,11.313
		C201.73,106.415,198.142,115.147,191.148,115.147z"/>
	<path style="fill:#FF8E44;" d="M156.001,200h-16c-4.418,0-8-3.582-8-8s3.582-8,8-8h16c4.418,0,8,3.582,8,8S160.419,200,156.001,200
		z"/>
	<path style="fill:#FF8E44;" d="M179.834,296.167c-6.995,0-10.582-8.732-5.657-13.657l11.313-11.313
		c3.124-3.124,8.189-3.124,11.313,0c3.125,3.124,3.125,8.189,0,11.313l-11.313,11.313
		C183.929,295.385,181.881,296.167,179.834,296.167z"/>
	<path style="fill:#FF8E44;" d="M372.167,296.167c-2.047,0-4.095-0.781-5.657-2.343l-11.313-11.313
		c-3.125-3.124-3.125-8.189,0-11.313c3.124-3.124,8.189-3.124,11.313,0l11.313,11.313
		C382.75,287.435,379.162,296.167,372.167,296.167z"/>
	<path style="fill:#FF8E44;" d="M412.001,200h-16c-4.418,0-8-3.582-8-8s3.582-8,8-8h16c4.418,0,8,3.582,8,8S416.419,200,412.001,200
		z"/>
	<path style="fill:#FF8E44;" d="M360.854,115.147c-6.995,0-10.582-8.732-5.657-13.657l11.313-11.313
		c3.124-3.124,8.189-3.124,11.313,0c3.125,3.124,3.125,8.189,0,11.313l-11.313,11.313
		C364.948,114.366,362.901,115.147,360.854,115.147z"/>
</g>
<g>
</g>
<g>
</g>
<g>
</g>
<g>
</g>
<g>
</g>
<g>
</g>
<g>
</g>
<g>
</g>
<g>
</g>
<g>
</g>
<g>
</g>
<g>
</g>
<g>
</g>
<g>
</g>
<g>
</g>
</svg>
