<?xml version="1.0" encoding="iso-8859-1"?>
<!-- Generator: Adobe Illustrator 19.0.0, SVG Export Plug-In . SVG Version: 6.00 Build 0)  -->
<svg version="1.1" id="Layer_1" xmlns="http://www.w3.org/2000/svg" xmlns:xlink="http://www.w3.org/1999/xlink" x="0px" y="0px"
	 viewBox="0 0 512 512" style="enable-background:new 0 0 512 512;" xml:space="preserve">
<g transform="translate(0 -1)">
	<g>
		<path style="fill:#ECF0F1;" d="M332.8,205.801c-4.719,0-8.533-3.814-8.533-8.533v-42.667c0-4.719,3.814-8.533,8.533-8.533
			s8.533,3.814,8.533,8.533v42.667C341.333,201.987,337.519,205.801,332.8,205.801"/>
		<path style="fill:#ECF0F1;" d="M435.2,205.801c-4.719,0-8.533-3.814-8.533-8.533v-42.667c0-4.719,3.814-8.533,8.533-8.533
			c4.719,0,8.533,3.814,8.533,8.533v42.667C443.733,201.987,439.919,205.801,435.2,205.801"/>
		<polygon style="fill:#ECF0F1;" points="25.6,470.332 264.533,470.332 264.533,77.799 25.6,77.799 		"/>
	</g>
	<polygon style="fill:#B0BAC1;" points="264.533,470.332 486.4,470.332 486.4,197.265 264.533,197.265 	"/>
	<polygon style="fill:#D75A4A;" points="298.667,154.599 469.333,154.599 469.333,35.132 298.667,35.132 	"/>
	<g>
		<path style="fill:#FFFFFF;" d="M366.933,129.001c-4.719,0-8.533-3.814-8.533-8.533v-51.2c0-4.719,3.814-8.533,8.533-8.533
			c4.719,0,8.533,3.814,8.533,8.533v51.2C375.467,125.187,371.652,129.001,366.933,129.001"/>
		<path style="fill:#FFFFFF;" d="M401.067,129.001c-4.719,0-8.533-3.814-8.533-8.533v-51.2c0-4.719,3.814-8.533,8.533-8.533
			c4.719,0,8.533,3.814,8.533,8.533v51.2C409.6,125.187,405.786,129.001,401.067,129.001"/>
		<path style="fill:#FFFFFF;" d="M401.067,103.401h-34.133c-4.719,0-8.533-3.814-8.533-8.533s3.814-8.533,8.533-8.533h34.133
			c4.719,0,8.533,3.814,8.533,8.533S405.786,103.401,401.067,103.401"/>
	</g>
	<g>
		<polygon style="fill:#556080;" points="119.467,470.332 170.667,470.332 170.667,402.065 119.467,402.065 		"/>
		<polygon style="fill:#556080;" points="68.267,171.665 119.467,171.665 119.467,120.465 68.267,120.465 		"/>
		<polygon style="fill:#556080;" points="170.667,171.665 221.867,171.665 221.867,120.465 170.667,120.465 		"/>
		<polygon style="fill:#556080;" points="68.267,265.532 119.467,265.532 119.467,214.332 68.267,214.332 		"/>
		<polygon style="fill:#556080;" points="170.667,265.532 221.867,265.532 221.867,214.332 170.667,214.332 		"/>
		<polygon style="fill:#556080;" points="68.267,359.399 119.467,359.399 119.467,308.199 68.267,308.199 		"/>
		<polygon style="fill:#556080;" points="307.2,308.199 358.4,308.199 358.4,256.999 307.2,256.999 		"/>
		<polygon style="fill:#556080;" points="307.2,402.065 358.4,402.065 358.4,350.865 307.2,350.865 		"/>
		<polygon style="fill:#556080;" points="392.533,308.199 443.733,308.199 443.733,256.999 392.533,256.999 		"/>
		<polygon style="fill:#556080;" points="392.533,402.065 443.733,402.065 443.733,350.865 392.533,350.865 		"/>
		<polygon style="fill:#556080;" points="170.667,359.399 221.867,359.399 221.867,308.199 170.667,308.199 		"/>
		<path style="fill:#556080;" d="M503.467,478.868H8.533c-4.719,0-8.533-3.814-8.533-8.533c0-4.719,3.814-8.533,8.533-8.533h494.933
			c4.719,0,8.533,3.814,8.533,8.533C512,475.054,508.186,478.868,503.467,478.868"/>
	</g>
</g>
<g>
</g>
<g>
</g>
<g>
</g>
<g>
</g>
<g>
</g>
<g>
</g>
<g>
</g>
<g>
</g>
<g>
</g>
<g>
</g>
<g>
</g>
<g>
</g>
<g>
</g>
<g>
</g>
<g>
</g>
</svg>
