<?xml version="1.0" encoding="iso-8859-1"?>
<!-- Generator: Adobe Illustrator 19.1.0, SVG Export Plug-In . SVG Version: 6.00 Build 0)  -->
<svg version="1.1" id="Capa_1" xmlns="http://www.w3.org/2000/svg" xmlns:xlink="http://www.w3.org/1999/xlink" x="0px" y="0px"
	 viewBox="0 0 217.228 217.228" style="enable-background:new 0 0 217.228 217.228;" xml:space="preserve">
<g>
	<g id="group-80svg">
		<path id="path-1_139_" style="fill:#2476FF;" d="M58.274,166.208h-16.32c-3.145,0-5.696,1.93-5.696,4.311
			c0,2.382,2.551,4.312,5.696,4.312h0.76c3.147,0,5.697,1.931,5.697,4.312c0,2.382-2.55,4.312-5.697,4.312H7.634
			c-3.147,0-5.698,1.931-5.698,4.313c0,2.381,2.551,4.31,5.698,4.31h42.158h86.17c3.146,0,5.697-1.929,5.697-4.31
			c0-2.382-2.551-4.313-5.697-4.313h-9.736c-3.146,0-5.697-1.93-5.697-4.312c0-2.381,2.551-4.312,5.697-4.312h38.239
			c3.146,0,5.697-1.93,5.697-4.312c0-2.381-2.551-4.311-5.697-4.311h-2.854H58.274z"/>
		<path id="path-2_139_" style="fill:#2476FF;" d="M159.483,193.234c-2.638,0-4.776-2.069-4.776-4.621s2.138-4.622,4.776-4.622
			h14.637c2.638,0,4.776,2.07,4.776,4.622s-2.138,4.621-4.776,4.621H159.483z"/>
		<path id="path-3_139_" style="fill:#2476FF;" d="M34.22,152.841h4.654c0.898,0,1.625-0.798,1.625-1.782
			c0-0.983-0.727-1.781-1.625-1.781h-0.216c-0.898,0-1.625-0.799-1.625-1.782c0-0.984,0.727-1.782,1.625-1.782h10.005
			c0.897,0,1.625-0.798,1.625-1.782s-0.728-1.782-1.625-1.782H36.64H12.064c-0.898,0-1.626,0.798-1.626,1.782
			s0.728,1.782,1.626,1.782h2.776c0.897,0,1.625,0.798,1.625,1.782c0,0.983-0.728,1.782-1.625,1.782H1.625
			c-0.898,0-1.625,0.798-1.625,1.781c0,0.984,0.727,1.782,1.625,1.782h3.123H34.22z"/>
		<path id="path-4_139_" style="fill:#FBB713;" d="M199.139,60.141L93.8,165.477l-18.058-18.059L181.081,42.083L199.139,60.141z"/>
		<path id="path-5_138_" style="opacity:0.35;enable-background:new    ;" d="M181.081,42.083l-4.352,4.352l13.706,13.705
			L89.448,161.124l4.352,4.353L199.139,60.14L181.081,42.083z"/>
		<path id="path-6_135_" style="fill:#FBB713;" d="M101.72,157.061c-3.525-3.524-8.142-5.289-12.762-5.296
			c-0.007-4.62-1.772-9.237-5.296-12.762c-7.065-7.064-18.519-7.064-25.583,0c-7.064,7.065-7.064,18.519,0,25.583
			c3.525,3.523,8.142,5.288,12.761,5.296c0.008,4.619,1.773,9.236,5.297,12.76c7.064,7.064,18.518,7.064,25.583,0
			C108.783,175.578,108.783,164.126,101.72,157.061z"/>
		<path id="path-7_132_" style="opacity:0.35;enable-background:new    ;" d="M101.72,173.938c-7.065,7.064-18.519,7.064-25.583,0
			c-3.524-3.524-5.289-8.141-5.297-12.76c-4.619-0.007-9.236-1.772-12.761-5.297c-2.415-2.415-3.984-5.347-4.748-8.439
			c-1.47,5.948,0.099,12.494,4.748,17.144c3.525,3.523,8.142,5.288,12.761,5.296c0.008,4.619,1.773,9.236,5.297,12.76
			c7.064,7.064,18.518,7.064,25.583,0c4.648-4.648,6.217-11.194,4.748-17.142C105.704,168.591,104.135,171.523,101.72,173.938z"/>
		<path id="path-8_108_" style="fill:#FBB713;" d="M211.93,47.349c-3.525-3.524-8.142-5.289-12.761-5.296
			c-0.008-4.62-1.773-9.236-5.297-12.761c-7.065-7.064-18.518-7.064-25.582,0c-7.065,7.064-7.065,18.517,0,25.581
			c3.524,3.524,8.141,5.29,12.761,5.297c0.008,4.62,1.773,9.237,5.297,12.76c7.064,7.065,18.517,7.065,25.582,0
			C218.994,65.866,218.994,54.413,211.93,47.349z"/>
		<path id="path-9_93_" style="opacity:0.35;enable-background:new    ;" d="M211.93,67.128c-7.065,7.064-18.518,7.064-25.582,0
			c-3.524-3.524-5.289-8.141-5.297-12.759c-4.62-0.009-9.237-1.774-12.761-5.299c-2.792-2.79-4.462-6.268-5.047-9.889
			c-0.896,5.542,0.773,11.42,5.047,15.692c3.524,3.524,8.141,5.29,12.761,5.297c0.008,4.62,1.773,9.237,5.297,12.76
			c7.064,7.065,18.517,7.065,25.582,0c4.273-4.273,5.943-10.149,5.047-15.692C216.391,60.859,214.721,64.338,211.93,67.128z"/>
	</g>
</g>
<g>
</g>
<g>
</g>
<g>
</g>
<g>
</g>
<g>
</g>
<g>
</g>
<g>
</g>
<g>
</g>
<g>
</g>
<g>
</g>
<g>
</g>
<g>
</g>
<g>
</g>
<g>
</g>
<g>
</g>
</svg>
