<?xml version="1.0" encoding="iso-8859-1"?>
<!-- Generator: Adobe Illustrator 19.0.0, SVG Export Plug-In . SVG Version: 6.00 Build 0)  -->
<svg version="1.1" id="Layer_1" xmlns="http://www.w3.org/2000/svg" xmlns:xlink="http://www.w3.org/1999/xlink" x="0px" y="0px"
	 viewBox="0 0 509.287 509.287" style="enable-background:new 0 0 509.287 509.287;" xml:space="preserve">
<circle style="fill:#FBD303;" cx="254.644" cy="254.644" r="254.644"/>
<path style="fill:#F0582F;" d="M351.958,56.625c-40.35,0-76.291,20.344-97.314,51.539c-21.023-31.195-56.625-51.539-97.314-51.539
	c-64.763,0-117.319,52.556-117.319,117.319s109.181,173.266,214.633,279.057c94.94-94.94,214.633-213.955,214.633-279.057
	C469.277,109.181,416.721,56.625,351.958,56.625z"/>
<polygon style="fill:#F1F3F7;" points="99.687,393.324 86.803,238.368 79.343,281.091 40.011,281.091 40.011,270.919 
	70.866,270.919 90.532,158.008 103.078,309.913 109.521,269.902 146.14,269.902 146.14,280.074 118.336,280.074 "/>
<rect x="339.571" y="332.209" transform="matrix(0.7071 -0.7071 0.7071 0.7071 -144.0316 350.9411)" style="fill:#333842;" width="24.074" height="34.246"/>
<circle style="fill:#4F5565;" cx="256" cy="253.287" r="126.135"/>
<circle style="fill:#FCFCFD;" cx="256" cy="253.287" r="101.044"/>
<circle style="fill:#6EB1E1;" cx="256" cy="253.287" r="89.854"/>
<g>
	<path style="fill:#4F5565;" d="M381.457,348.228c-3.052-3.052-7.799-3.052-10.511,0l-20.005,20.005
		c-3.052,3.052-3.052,7.799,0,10.511l3.391,3.391l30.517-30.517L381.457,348.228z"/>
	<path style="fill:#4F5565;" d="M418.077,445.542c3.052,3.052,7.799,3.052,10.511,0l20.005-20.005c3.052-3.052,3.052-7.799,0-10.511
		l-3.391-3.391l-30.517,30.517L418.077,445.542z"/>
</g>
<rect x="356.993" y="375.538" transform="matrix(-0.7071 -0.7071 0.7071 -0.7071 401.2986 960.3602)" style="fill:#71D456;" width="85.106" height="43.062"/>
<path style="fill:#F1F3F7;" d="M243.115,311.608l-10.85-144.784c-7.799,2.034-14.919,5.086-22.04,9.494l-17.632,74.257h-26.109
	c-0.339,6.781,0.339,13.563,1.695,20.344h40.689l8.138-34.246l7.46,100.705c9.494,3.73,19.666,5.425,29.838,5.764l23.735-73.24
	h66.119c1.356-6.781,1.695-13.563,1.356-20.344h-82.395L243.115,311.608z"/>
<g>
</g>
<g>
</g>
<g>
</g>
<g>
</g>
<g>
</g>
<g>
</g>
<g>
</g>
<g>
</g>
<g>
</g>
<g>
</g>
<g>
</g>
<g>
</g>
<g>
</g>
<g>
</g>
<g>
</g>
</svg>
