<?xml version="1.0" encoding="iso-8859-1"?>
<!-- Generator: Adobe Illustrator 19.0.0, SVG Export Plug-In . SVG Version: 6.00 Build 0)  -->
<svg version="1.1" id="Capa_1" xmlns="http://www.w3.org/2000/svg" xmlns:xlink="http://www.w3.org/1999/xlink" x="0px" y="0px"
	 viewBox="0 0 409.6 409.6" style="enable-background:new 0 0 409.6 409.6;" xml:space="preserve">
<path style="fill:#64798A;" d="M249.741,63.679h-19.038V19.037H117.412v44.643H98.376V16.44c0-9.066,7.374-16.44,16.44-16.44H233.3
	c9.066,0,16.441,7.374,16.441,16.44V63.679z"/>
<path style="fill:#27A2DB;" d="M332.955,63.546h-316.9C7.188,63.546,0,70.733,0,79.599v237.511c0,8.868,7.188,16.055,16.055,16.055
	h316.9c8.866,0,16.053-7.186,16.053-16.055V79.599C349.008,70.733,341.821,63.546,332.955,63.546z"/>
<g>
	<rect x="279.142" y="63.677" style="fill:#1C75A1;" width="19.727" height="269.353"/>
	<rect x="50.12" y="63.677" style="fill:#1C75A1;" width="19.727" height="269.353"/>
</g>
<g>
	<path style="fill:#64798A;" d="M69.519,54.077H33.737c-2.143,0-3.881,1.738-3.881,3.882v5.721h43.545v-5.721
		C73.401,55.815,71.663,54.077,69.519,54.077z"/>
	<path style="fill:#64798A;" d="M315.27,54.077h-35.783c-2.143,0-3.881,1.738-3.881,3.882v5.721h43.546v-5.721
		C319.152,55.815,317.414,54.077,315.27,54.077z"/>
</g>
<path style="fill:#FFFFFF;" d="M249.584,188.513c-4.253-33.74-31.498-60.985-65.238-65.238
	c-49.518-6.241-91.162,35.401-84.921,84.921c4.252,33.74,31.498,60.986,65.239,65.238
	C214.182,279.674,255.825,238.03,249.584,188.513z"/>
<polygon style="fill:#E56353;" points="219.479,183.982 188.877,183.982 188.877,153.38 160.132,153.38 160.132,183.982 
	129.53,183.982 129.53,212.728 160.132,212.728 160.132,243.33 188.877,243.33 188.877,212.728 219.479,212.728 "/>
<path style="fill:#64798A;" d="M309.012,409.6c-18.058,0-32.748-14.69-32.748-32.748c0-16.647-13.348-29.996-29.757-29.996
	c-16.41,0-29.758,13.349-29.758,29.758c0,18.188-14.798,32.986-32.986,32.986h-3.564c-20.15,0-36.548-16.398-36.548-36.548v-56.727
	h11.073v56.727c0,14.046,11.429,25.476,25.476,25.476h3.564c12.083,0,21.913-9.829,21.913-21.913
	c0-22.513,18.317-40.831,40.83-40.831c22.513,0,40.83,18.318,40.83,40.831c0,12.192,9.722,21.913,21.676,21.913
	c11.949,0,21.67-9.721,21.67-21.676v-95.783h11.073v95.783C341.755,394.91,327.065,409.6,309.012,409.6z"/>
<path style="fill:#D5D6DB;" d="M336.218,242.967c-19.848,0-39.695-4.325-59.408-12.97l2.228-5.071
	c37.938,16.636,76.417,16.647,114.365,0l2.228,5.071C375.918,238.642,356.07,242.967,336.218,242.967z"/>
<g>
	<path style="fill:#EBF0F3;" d="M273.905,197.228v-73.525c0-2.356,1.91-4.265,4.266-4.265h11.473v-11.073h-11.473
		c-8.471,0-15.339,6.866-15.339,15.339v73.525c0,29.625,17.69,55.101,43.024,66.662l5.42-9.618
		C289.311,244.627,273.905,222.714,273.905,197.228z"/>
	<path style="fill:#EBF0F3;" d="M394.261,108.364h-11.473v11.073h11.473c2.356,0,4.266,1.91,4.266,4.265v71.703
		c0,25.684-15.098,48.779-37.406,58.808l5.455,9.676c25.334-11.561,43.023-37.037,43.023-66.662v-73.525
		C409.6,115.231,402.732,108.364,394.261,108.364z"/>
</g>
<g>
	<path style="fill:#3A556A;" d="M366.238,263.465l-4.948-9.15c-0.421-0.774-1.35-1.083-2.164-0.741
		c-5.524,2.318-11.248,3.767-17.031,4.311c-1.941,0.184-3.865,0.27-5.774,0.27c-7.945,0-15.7-1.527-23.07-4.548
		c-0.81-0.33-1.729-0.021-2.145,0.75l-4.915,9.11c-0.488,0.901-0.095,2.057,0.847,2.46c6.691,2.856,13.614,4.709,20.615,5.512
		c0.936,0.107,1.638,0.875,1.638,1.817v13.348h13.847v-13.348c0-0.944,0.702-1.71,1.639-1.817c6.997-0.797,13.92-2.654,20.611-5.511
		C366.332,265.524,366.725,264.367,366.238,263.465z"/>
	<path style="fill:#3A556A;" d="M302.726,122.063c-2.695,2.217-13.699-2.689-13.699-2.689v-11.01c0,0,11.003-4.906,13.699-2.689
		C305.889,108.279,305.889,119.46,302.726,122.063z"/>
	<path style="fill:#3A556A;" d="M369.593,105.675c2.694-2.217,13.698,2.689,13.698,2.689v11.01c0,0-11.003,4.906-13.698,2.689
		C366.43,119.46,366.43,108.279,369.593,105.675z"/>
</g>
<path style="fill:#D5D6DB;" d="M192.664,275.838c-2.998-18.27-17.734-33.005-36.005-36.004
	c-30.177-4.953-55.897,20.769-50.945,50.946c2.999,18.273,17.738,33.009,36.011,36.005
	C171.9,331.733,197.616,306.013,192.664,275.838z"/>
<path style="fill:#EBF0F3;" d="M188.781,275.41c-3.01-15.878-15.814-28.683-31.692-31.692c-28.423-5.39-52.88,19.067-47.491,47.49
	c3.011,15.88,15.817,28.685,31.697,31.694C169.717,328.287,194.169,303.831,188.781,275.41z"/>
<path style="fill:#D5D6DB;" d="M164.921,271.253c12.243,19.471-8.312,40.03-27.787,27.788c-1.478-0.929-2.749-2.2-3.678-3.678
	c-12.242-19.475,8.317-40.03,27.788-27.787C162.722,268.506,163.992,269.776,164.921,271.253z"/>
<path style="fill:#EBF0F3;" d="M162.943,272.978c10.42,16.826-7.26,34.503-24.085,24.085c-1.378-0.853-2.57-2.045-3.423-3.423
	c-10.419-16.825,7.259-34.505,24.085-24.086C160.898,270.408,162.09,271.6,162.943,272.978z"/>
<path style="fill:#64798A;" d="M152.024,281.555c1.652,3.111-1.473,6.24-4.586,4.59c-0.448-0.237-0.847-0.636-1.084-1.084
	c-1.65-3.113,1.475-6.239,4.587-4.589C151.388,280.71,151.786,281.108,152.024,281.555z"/>
<g>
</g>
<g>
</g>
<g>
</g>
<g>
</g>
<g>
</g>
<g>
</g>
<g>
</g>
<g>
</g>
<g>
</g>
<g>
</g>
<g>
</g>
<g>
</g>
<g>
</g>
<g>
</g>
<g>
</g>
</svg>
