<?xml version="1.0" encoding="iso-8859-1"?>
<!-- Generator: Adobe Illustrator 19.0.0, SVG Export Plug-In . SVG Version: 6.00 Build 0)  -->
<svg version="1.1" id="Capa_1" xmlns="http://www.w3.org/2000/svg" xmlns:xlink="http://www.w3.org/1999/xlink" x="0px" y="0px"
	 viewBox="0 0 512.001 512.001" style="enable-background:new 0 0 512.001 512.001;" xml:space="preserve">
<path style="fill:#D7DCDD;" d="M156.89,441.387H5.159c-2.849,0-5.159-2.31-5.159-5.159V232.342c0-2.849,2.31-5.159,5.159-5.159
	H156.89V441.387z"/>
<g>
	<path style="fill:#9FE0FE;" d="M58.911,296.345H33.048c-2.849,0-5.159-2.31-5.159-5.159v-25.862c0-2.849,2.31-5.159,5.159-5.159
		h25.863c2.849,0,5.159,2.31,5.159,5.159v25.863C64.07,294.035,61.76,296.345,58.911,296.345z"/>
	<path style="fill:#9FE0FE;" d="M123.842,296.345H97.979c-2.849,0-5.159-2.31-5.159-5.159v-25.862c0-2.849,2.31-5.159,5.159-5.159
		h25.863c2.849,0,5.159,2.31,5.159,5.159v25.863C129.001,294.035,126.691,296.345,123.842,296.345z"/>
	<path style="fill:#9FE0FE;" d="M58.911,359.502H33.048c-2.849,0-5.159-2.31-5.159-5.159V328.48c0-2.849,2.31-5.159,5.159-5.159
		h25.863c2.849,0,5.159,2.31,5.159,5.159v25.863C64.07,357.192,61.76,359.502,58.911,359.502z"/>
	<path style="fill:#9FE0FE;" d="M123.842,359.502H97.979c-2.849,0-5.159-2.31-5.159-5.159V328.48c0-2.849,2.31-5.159,5.159-5.159
		h25.863c2.849,0,5.159,2.31,5.159,5.159v25.863C129.001,357.192,126.691,359.502,123.842,359.502z"/>
</g>
<g>
	<path style="fill:#7ED0ED;" d="M64.066,265.327v25.859c0,2.854-2.308,5.161-5.161,5.161H48.653c2.854,0,5.161-2.308,5.161-5.161
		v-25.859c0-2.854-2.308-5.161-5.161-5.161h10.251C61.758,260.166,64.066,262.474,64.066,265.327z"/>
	<path style="fill:#7ED0ED;" d="M129.001,265.327v25.859c0,2.854-2.308,5.161-5.161,5.161h-10.251c2.843,0,5.151-2.308,5.151-5.161
		v-25.859c0-2.854-2.308-5.161-5.151-5.161h10.251C126.693,260.166,129.001,262.474,129.001,265.327z"/>
	<path style="fill:#7ED0ED;" d="M64.066,328.48v25.869c0,2.843-2.308,5.151-5.161,5.151H48.653c2.854,0,5.161-2.308,5.161-5.151
		V328.48c0-2.843-2.308-5.161-5.161-5.161h10.251C61.758,323.319,64.066,325.637,64.066,328.48z"/>
	<path style="fill:#7ED0ED;" d="M129.001,328.48v25.869c0,2.843-2.308,5.151-5.161,5.151h-10.251c2.843,0,5.151-2.308,5.151-5.151
		V328.48c0-2.843-2.308-5.161-5.151-5.161h10.251C126.693,323.319,129.001,325.637,129.001,328.48z"/>
</g>
<path style="fill:#D7DCDD;" d="M355.11,441.291H156.986V136.286c0-2.849,2.31-5.159,5.159-5.159h187.807
	c2.849,0,5.159,2.31,5.159,5.159v305.005H355.11z"/>
<path style="fill:#86B5A5;" d="M314.633,441.291H197.367v-90.083c0-2.849,2.31-5.159,5.159-5.159h106.948
	c2.849,0,5.159,2.31,5.159,5.159V441.291z"/>
<path style="fill:#4D8278;" d="M314.633,441.291h-22.522v-95.242h17.363c2.849,0,5.159,2.31,5.159,5.159V441.291z"/>
<path style="fill:#D7DCDD;" d="M506.841,441.291H355.11V227.087h151.732c2.849,0,5.159,2.31,5.159,5.159v203.887
	C512,438.981,509.69,441.291,506.841,441.291z"/>
<g>
	<path style="fill:#BDBDBD;" d="M506.841,441.291h-21.793V227.087h21.793c2.849,0,5.159,2.31,5.159,5.159v203.887
		C512,438.981,509.69,441.291,506.841,441.291z"/>
	<rect x="129.94" y="227.084" style="fill:#BDBDBD;" width="26.952" height="214.2"/>
	<path style="fill:#BDBDBD;" d="M355.11,441.291h-26.952V131.127h21.793c2.849,0,5.159,2.31,5.159,5.159V441.291z"/>
</g>
<circle style="fill:#F6E5CB;" cx="256" cy="131.124" r="60.51"/>
<path style="fill:#ECD4B2;" d="M316.502,131.129c0,33.418-27.083,60.502-60.502,60.502c-19.789,0-37.36-9.502-48.389-24.184
	c9.688,6.614,21.409,10.472,34.017,10.472c33.418,0,60.502-27.094,60.502-60.502c0-13.64-4.509-26.227-12.123-36.338
	C305.999,91.964,316.502,110.319,316.502,131.129z"/>
<path style="fill:#F27979;" d="M281.144,119.778h-8.589c-2.849,0-5.159-2.31-5.159-5.159v-8.588c0-2.849-2.31-5.159-5.159-5.159
	h-12.381c-2.849,0-5.159,2.31-5.159,5.159v8.588c0,2.849-2.31,5.159-5.159,5.159h-8.588c-2.849,0-5.159,2.31-5.159,5.159v12.381
	c0,2.849,2.31,5.159,5.159,5.159h8.588c2.849,0,5.159,2.31,5.159,5.159v8.589c0,2.849,2.31,5.159,5.159,5.159h12.381
	c2.849,0,5.159-2.31,5.159-5.159v-8.589c0-2.849,2.31-5.159,5.159-5.159h8.589c2.849,0,5.159-2.31,5.159-5.159v-12.381
	C286.303,122.088,283.993,119.778,281.144,119.778z"/>
<g>
	<path style="fill:#9FE0FE;" d="M414.958,296.345h-25.863c-2.849,0-5.159-2.31-5.159-5.159v-25.862c0-2.849,2.31-5.159,5.159-5.159
		h25.863c2.849,0,5.159,2.31,5.159,5.159v25.863C420.117,294.035,417.807,296.345,414.958,296.345z"/>
	<path style="fill:#9FE0FE;" d="M479.889,296.345h-25.863c-2.849,0-5.159-2.31-5.159-5.159v-25.862c0-2.849,2.31-5.159,5.159-5.159
		h25.863c2.849,0,5.159,2.31,5.159,5.159v25.863C485.048,294.035,482.738,296.345,479.889,296.345z"/>
	<path style="fill:#9FE0FE;" d="M414.958,359.502h-25.863c-2.849,0-5.159-2.31-5.159-5.159V328.48c0-2.849,2.31-5.159,5.159-5.159
		h25.863c2.849,0,5.159,2.31,5.159,5.159v25.863C420.117,357.192,417.807,359.502,414.958,359.502z"/>
	<path style="fill:#9FE0FE;" d="M479.889,359.502h-25.863c-2.849,0-5.159-2.31-5.159-5.159V328.48c0-2.849,2.31-5.159,5.159-5.159
		h25.863c2.849,0,5.159,2.31,5.159,5.159v25.863C485.048,357.192,482.738,359.502,479.889,359.502z"/>
</g>
<g>
	<path style="fill:#7ED0ED;" d="M420.115,265.326v25.859c0,2.854-2.308,5.161-5.161,5.161h-10.251c2.854,0,5.161-2.308,5.161-5.161
		v-25.859c0-2.854-2.308-5.161-5.161-5.161h10.251C417.807,260.165,420.115,262.472,420.115,265.326z"/>
	<path style="fill:#7ED0ED;" d="M485.05,265.326v25.859c0,2.854-2.308,5.161-5.161,5.161h-10.251c2.843,0,5.151-2.308,5.151-5.161
		v-25.859c0-2.854-2.308-5.161-5.151-5.161h10.251C482.742,260.165,485.05,262.472,485.05,265.326z"/>
	<path style="fill:#7ED0ED;" d="M420.115,328.479v25.869c0,2.843-2.308,5.151-5.161,5.151h-10.251c2.854,0,5.161-2.308,5.161-5.151
		v-25.869c0-2.843-2.308-5.161-5.161-5.161h10.251C417.807,323.317,420.115,325.635,420.115,328.479z"/>
	<path style="fill:#7ED0ED;" d="M485.05,328.479v25.869c0,2.843-2.308,5.151-5.161,5.151h-10.251c2.843,0,5.151-2.308,5.151-5.151
		v-25.869c0-2.843-2.308-5.161-5.151-5.161h10.251C482.742,323.317,485.05,325.635,485.05,328.479z"/>
</g>
<g>
	<path style="fill:#9FE0FE;" d="M236.466,254.931h-25.863c-2.849,0-5.159-2.31-5.159-5.159v-25.863c0-2.849,2.31-5.159,5.159-5.159
		h25.863c2.849,0,5.159,2.31,5.159,5.159v25.863C241.625,252.621,239.315,254.931,236.466,254.931z"/>
	<path style="fill:#9FE0FE;" d="M301.397,254.931h-25.863c-2.849,0-5.159-2.31-5.159-5.159v-25.863c0-2.849,2.31-5.159,5.159-5.159
		h25.863c2.849,0,5.159,2.31,5.159,5.159v25.863C306.556,252.621,304.246,254.931,301.397,254.931z"/>
	<path style="fill:#9FE0FE;" d="M236.466,318.087h-25.863c-2.849,0-5.159-2.31-5.159-5.159v-25.863c0-2.849,2.31-5.159,5.159-5.159
		h25.863c2.849,0,5.159,2.31,5.159,5.159v25.863C241.625,315.778,239.315,318.087,236.466,318.087z"/>
	<path style="fill:#9FE0FE;" d="M301.397,318.087h-25.863c-2.849,0-5.159-2.31-5.159-5.159v-25.863c0-2.849,2.31-5.159,5.159-5.159
		h25.863c2.849,0,5.159,2.31,5.159,5.159v25.863C306.556,315.778,304.246,318.087,301.397,318.087z"/>
</g>
<g>
	<path style="fill:#7ED0ED;" d="M241.62,223.913v25.859c0,2.854-2.308,5.161-5.161,5.161h-10.251c2.854,0,5.161-2.308,5.161-5.161
		v-25.859c0-2.854-2.308-5.161-5.161-5.161h10.251C239.313,218.752,241.62,221.059,241.62,223.913z"/>
	<path style="fill:#7ED0ED;" d="M306.556,223.913v25.859c0,2.854-2.308,5.161-5.161,5.161h-10.251c2.843,0,5.151-2.308,5.151-5.161
		v-25.859c0-2.854-2.308-5.161-5.151-5.161h10.251C304.248,218.752,306.556,221.059,306.556,223.913z"/>
	<path style="fill:#7ED0ED;" d="M241.62,287.066v25.869c0,2.843-2.308,5.151-5.161,5.151h-10.251c2.854,0,5.161-2.308,5.161-5.151
		v-25.869c0-2.843-2.308-5.161-5.161-5.161h10.251C239.313,281.904,241.62,284.222,241.62,287.066z"/>
	<path style="fill:#7ED0ED;" d="M306.556,287.066v25.869c0,2.843-2.308,5.151-5.161,5.151h-10.251c2.843,0,5.151-2.308,5.151-5.151
		v-25.869c0-2.843-2.308-5.161-5.151-5.161h10.251C304.248,281.904,306.556,284.222,306.556,287.066z"/>
</g>
<g>
</g>
<g>
</g>
<g>
</g>
<g>
</g>
<g>
</g>
<g>
</g>
<g>
</g>
<g>
</g>
<g>
</g>
<g>
</g>
<g>
</g>
<g>
</g>
<g>
</g>
<g>
</g>
<g>
</g>
</svg>
