<?xml version="1.0" encoding="iso-8859-1"?>
<!-- Generator: Adobe Illustrator 19.0.0, SVG Export Plug-In . SVG Version: 6.00 Build 0)  -->
<svg version="1.1" id="Layer_1" xmlns="http://www.w3.org/2000/svg" xmlns:xlink="http://www.w3.org/1999/xlink" x="0px" y="0px"
	 viewBox="0 0 512 512" style="enable-background:new 0 0 512 512;" xml:space="preserve">
<rect x="242.654" y="58.37" style="fill:#3D7A94;" width="38.825" height="72.796"/>
<rect x="211.109" y="119.034" style="fill:#6BADB4;" width="101.915" height="94.769"/>
<path style="fill:#3D7A94;" d="M156.802,23.12c-6.7,0-12.133,5.433-12.133,12.133s5.433,12.133,12.133,12.133h94.277V23.12H156.802z
	"/>
<rect x="226.809" style="fill:#6BADB4;" width="70.503" height="70.503"/>
<path style="fill:#9AE1D3;" d="M313.024,189.542H211.109c-32.392,17.948-54.307,52.476-54.307,92.132c0,58.136,0,218.193,0,218.193
	c0,6.673,5.46,12.133,12.133,12.133h186.264c6.673,0,12.133-5.46,12.133-12.133c0,0,0-160.057,0-218.193
	C367.331,242.018,345.416,207.49,313.024,189.542z"/>
<rect x="205.334" y="305.938" style="fill:#FFFFFF;" width="113.465" height="157.531"/>
<g>
</g>
<g>
</g>
<g>
</g>
<g>
</g>
<g>
</g>
<g>
</g>
<g>
</g>
<g>
</g>
<g>
</g>
<g>
</g>
<g>
</g>
<g>
</g>
<g>
</g>
<g>
</g>
<g>
</g>
</svg>
