<?xml version="1.0" encoding="iso-8859-1"?>
<!-- Generator: Adobe Illustrator 19.0.0, SVG Export Plug-In . SVG Version: 6.00 Build 0)  -->
<svg version="1.1" id="Layer_1" xmlns="http://www.w3.org/2000/svg" xmlns:xlink="http://www.w3.org/1999/xlink" x="0px" y="0px"
	 viewBox="0 0 509.287 509.287" style="enable-background:new 0 0 509.287 509.287;" xml:space="preserve">
<circle style="fill:#4F5565;" cx="254.644" cy="254.644" r="254.644"/>
<rect x="247.862" y="453.001" style="fill:#F1F3F7;" width="13.224" height="36.959"/>
<rect x="224.805" y="409.6" style="fill:#DEDEDF;" width="59.677" height="56.625"/>
<path style="fill:#F1F3F7;" d="M380.779,356.366c0,0-11.868-183.099-2.034-200.392c25.091-44.758-41.706-62.389-86.803-69.171
	c4.408-6.781,6.781-14.919,6.781-23.396c0-24.413-19.666-44.079-44.079-44.079s-44.079,19.666-44.079,44.079
	c0,8.477,2.374,16.615,6.781,23.396c-45.097,6.781-111.894,24.413-86.803,69.171c9.833,17.293-2.034,200.392-2.034,200.392
	l-9.155,11.189c0,56.625,135.29,62.728,135.29,62.728s135.29-6.103,135.29-62.728L380.779,356.366z M254.644,78.665
	c-12.546,0-22.718-10.172-22.718-22.718s10.172-22.718,22.718-22.718s22.718,10.172,22.718,22.718S267.189,78.665,254.644,78.665z"
	/>
<path style="fill:#F0582F;" d="M254.644,420.111c-31.873-1.695-119.693-13.902-125.118-49.166l8.816-10.85l0.339-3.391
	c0-0.339,3.052-46.453,4.747-93.923c3.73-98.67-1.356-107.825-4.069-111.894c-6.442-11.189-4.069-17.632-2.034-21.362
	c12.885-23.057,78.665-34.585,117.319-36.281c38.654,1.695,104.434,13.224,117.319,36.281c2.034,3.73,4.069,10.172-2.034,21.362
	c-2.374,4.408-7.46,13.224-4.069,111.894c1.695,47.47,4.747,93.584,4.747,93.923l0.339,3.391l8.816,10.85
	C374.336,406.209,286.517,418.416,254.644,420.111z"/>
<rect x="172.249" y="169.875" style="fill:#F1F3F7;" width="164.789" height="153.939"/>
<rect x="172.249" y="300.758" style="fill:#FBD303;" width="164.789" height="23.396"/>
<g>
	<path style="fill:#F0582F;" d="M212.599,265.494l-6.781,15.258h-12.207l29.838-67.475h12.207l29.838,67.475h-12.207l-6.781-15.258
		H212.599z M241.759,254.983l-12.207-27.804l-12.207,27.804H241.759z"/>
	<path style="fill:#F0582F;" d="M288.551,266.172v-18.31h-18.649v-9.155h18.31v-17.971h8.816v17.971h18.31v9.155h-18.31v18.31
		H288.551z"/>
</g>
<g>
</g>
<g>
</g>
<g>
</g>
<g>
</g>
<g>
</g>
<g>
</g>
<g>
</g>
<g>
</g>
<g>
</g>
<g>
</g>
<g>
</g>
<g>
</g>
<g>
</g>
<g>
</g>
<g>
</g>
</svg>
