<?xml version="1.0" encoding="iso-8859-1"?>
<!-- Generator: Adobe Illustrator 19.0.0, SVG Export Plug-In . SVG Version: 6.00 Build 0)  -->
<svg version="1.1" id="Layer_1" xmlns="http://www.w3.org/2000/svg" xmlns:xlink="http://www.w3.org/1999/xlink" x="0px" y="0px"
	 viewBox="0 0 297 297" style="enable-background:new 0 0 297 297;" xml:space="preserve">
<g>
	<g>
		<circle style="fill:#662621;" cx="148.5" cy="148.5" r="148.5"/>
	</g>
	<path style="fill:#4F1A18;" d="M196.638,51.135C191.02,69.761,177.073,83.85,173.5,103.5c-1,5-2,10-3,14c-10,21-22,40-36,60
		c-16.8,22.68-25.479,47.132-34.094,72.409l47.078,47.078c0.339,0.002,0.676,0.013,1.016,0.013
		c81.015,0,146.869-64.877,148.462-145.511L196.638,51.135z"/>
	<path style="fill:#FFFFFF;" d="M185.346,74.081h-73.691c-2.762,0-5-2.238-5-5s2.238-5,5-5h73.691c2.762,0,5,2.238,5,5
		S188.107,74.081,185.346,74.081z"/>
	<path style="fill:#FFFFFF;" d="M180.209,95.793h-63.418c-2.762,0-5-2.238-5-5s2.238-5,5-5h63.418c2.762,0,5,2.238,5,5
		S182.971,95.793,180.209,95.793z"/>
	<path style="fill:#FFFFFF;" d="M172.17,117.505h-47.34c-2.762,0-5-2.238-5-5s2.238-5,5-5h47.34c2.762,0,5,2.238,5,5
		S174.932,117.505,172.17,117.505z"/>
	<path style="fill:#FFFFFF;" d="M185.346,236.919h-73.691c-2.762,0-5-2.238-5-5s2.238-5,5-5h73.691c2.762,0,5,2.238,5,5
		S188.107,236.919,185.346,236.919z"/>
	<path style="fill:#FFFFFF;" d="M180.209,215.207h-63.418c-2.762,0-5-2.238-5-5s2.238-5,5-5h63.418c2.762,0,5,2.238,5,5
		S182.971,215.207,180.209,215.207z"/>
	<path style="fill:#FFFFFF;" d="M172.17,193.495h-47.34c-2.762,0-5-2.238-5-5s2.238-5,5-5h47.34c2.762,0,5,2.238,5,5
		S174.932,193.495,172.17,193.495z"/>
	<path style="fill:#CC503B;" d="M107.412,252.774c-5.522,0-10-4.478-10-10c0-49.944,22.175-74.845,43.62-98.925
		c19.827-22.265,38.556-43.294,38.556-85.624c0-5.522,4.478-10,10-10s10,4.478,10,10c0,49.944-22.175,74.845-43.62,98.925
		c-19.827,22.265-38.556,43.294-38.556,85.624C117.412,248.297,112.935,252.774,107.412,252.774z"/>
	<path style="fill:#F86E51;" d="M189.588,252.774c-5.522,0-10-4.478-10-10c0-42.33-18.729-63.359-38.556-85.624
		c-21.445-24.08-43.62-48.98-43.62-98.925c0-5.522,4.478-10,10-10s10,4.478,10,10c0,42.33,18.729,63.359,38.556,85.624
		c21.445,24.08,43.62,48.98,43.62,98.925C199.588,248.297,195.11,252.774,189.588,252.774z"/>
</g>
<g>
</g>
<g>
</g>
<g>
</g>
<g>
</g>
<g>
</g>
<g>
</g>
<g>
</g>
<g>
</g>
<g>
</g>
<g>
</g>
<g>
</g>
<g>
</g>
<g>
</g>
<g>
</g>
<g>
</g>
</svg>
