<?xml version="1.0" encoding="iso-8859-1"?>
<!-- Generator: Adobe Illustrator 19.0.0, SVG Export Plug-In . SVG Version: 6.00 Build 0)  -->
<svg version="1.1" id="Layer_1" xmlns="http://www.w3.org/2000/svg" xmlns:xlink="http://www.w3.org/1999/xlink" x="0px" y="0px"
	 viewBox="0 0 473.935 473.935" style="enable-background:new 0 0 473.935 473.935;" xml:space="preserve">
<circle style="fill:#4ABC96;" cx="236.967" cy="236.967" r="236.967"/>
<path style="fill:#BADDD6;" d="M255.781,271.841c0,13.089-10.6,23.7-23.693,23.7l-28.961,0.022c-13.081,0-23.7-10.604-23.7-23.701
	l-0.049-103.88c-0.004-13.085,10.608-23.697,23.689-23.697l28.965-0.015c13.089,0,23.697,10.597,23.704,23.693L255.781,271.841z"/>
<path style="fill:#5D919F;" d="M295.534,295.519c-4.318-10.735-3.929-21.003,0.883-22.948l10.642-4.292
	c4.812-1.946,12.224,5.186,16.546,15.921l29.354,72.954c1.976,4.913-1.418,14.174-7.63,17.16
	c-7.356,3.536-18.095-0.034-20.438-5.852L295.534,295.519z"/>
<path style="fill:#8B8B8C;" d="M298.524,325.943c0.067,10.137-1.792,20.295-5.586,29.904l-0.03-0.03
	c-3.551,8.89-8.748,17.306-15.648,24.752c-30.073,32.456-80.759,34.376-113.212,4.292c-32.438-30.076-34.368-80.752-4.288-113.2
	c2.975-3.203,6.151-6.125,9.497-8.73l-0.004-21.444c-8.172,4.748-15.787,10.776-22.544,18.077
	c-36.763,39.652-34.409,101.59,5.242,138.353c39.663,36.763,101.608,34.409,138.368-5.242c6.675-7.21,12.045-15.143,16.146-23.54
	l0.06,0.041c1.92-3.951,3.555-8.011,4.913-12.12L298.524,325.943z"/>
<path style="fill:#B9B9BA;" d="M298.524,325.943c0.067,10.137-1.792,20.295-5.586,29.904l-0.03-0.03
	c-3.551,8.89-8.748,17.306-15.648,24.752c-30.073,32.456-80.759,34.376-113.212,4.292c-21.074-19.532-29.081-47.341-23.996-73.627
	c2.743-14.17,9.167-28.202,19.708-39.573c2.975-3.203,6.151-6.125,9.497-8.73l-0.004-11.061c0,0-23.951,18.578-36.127,47.487
	c-11.873,28.202-0.359,69.616,23.753,92.033c35.132,32.658,77.343,24.34,101.923,13.852c37.111-15.832,46.727-62.428,46.727-62.428
	L298.524,325.943z"/>
<path style="fill:#5D919F;" d="M201.267,295.736c-11.573,0-21.826-6.563-21.826-17.313l-0.157-13.807H295.99
	c11.57,0,19.21,4.206,19.21,9.403v11.48c0,5.182-7.641,9.384-19.21,9.384L201.267,295.736z"/>
<path style="fill:#E9C29C;" d="M261.955,94.649c0,24.737-20.037,44.778-44.77,44.778c-24.722,0-44.763-20.037-44.763-44.778
	c0-24.711,20.037-44.763,44.763-44.763C241.918,49.886,261.955,69.942,261.955,94.649z"/>
<path style="fill:#A46434;" d="M226.722,98.817c-5.253,11.371-46.787,20.067-46.787,20.067c-6.14-6.455-7.514-24.236-7.514-24.236
	c0-24.711,20.037-44.763,44.763-44.763c11.484,0,23.719,3.413,35.85,17.852C253.035,67.738,234.303,82.432,226.722,98.817z"/>
<path style="fill:#343433;" d="M257.768,96.403c0,3.566-2.75,6.466-6.137,6.466c-3.386,0-6.129-2.896-6.129-6.466
	c0-3.585,2.739-6.488,6.129-6.488C255.018,89.915,257.768,92.819,257.768,96.403z"/>
<ellipse style="fill:#FFFFFF;" cx="253.551" cy="93.956" rx="2.451" ry="2.593"/>
<path style="fill:#ABD0C8;" d="M236.604,160.336c-0.58-5.007-4.962-8.932-9.972-8.932c-0.415,0-0.831,0.03-1.369,0.101
	l-96.77,17.964c-2.657,0.314-5.04,1.77-6.526,3.981c-1.5,2.215-1.953,4.965-1.254,7.536l22.915,84.029
	c1.085,3.974,4.722,6.758,8.842,6.758c0.823,0,1.635-0.108,2.417-0.329c2.365-0.636,4.333-2.167,5.549-4.292
	c1.212-2.125,1.527-4.599,0.883-6.963l-20.157-73.878l86.596-14.784c2.687-0.311,5.074-1.65,6.754-3.772
	C236.178,165.638,236.923,162.996,236.604,160.336z"/>
<g>
</g>
<g>
</g>
<g>
</g>
<g>
</g>
<g>
</g>
<g>
</g>
<g>
</g>
<g>
</g>
<g>
</g>
<g>
</g>
<g>
</g>
<g>
</g>
<g>
</g>
<g>
</g>
<g>
</g>
</svg>
