<?xml version="1.0" encoding="iso-8859-1"?>
<!-- Generator: Adobe Illustrator 19.0.0, SVG Export Plug-In . SVG Version: 6.00 Build 0)  -->
<svg version="1.1" id="Capa_1" xmlns="http://www.w3.org/2000/svg" xmlns:xlink="http://www.w3.org/1999/xlink" x="0px" y="0px"
	 viewBox="0 0 512 512" style="enable-background:new 0 0 512 512;" xml:space="preserve">
<path style="fill:#E3E3E1;" d="M428.736,63.265C387.938,22.468,333.697,0,276.001,0S164.063,22.468,123.265,63.265
	c-40.349,40.349-62.769,93.844-63.257,150.83l-39.163,78.327c-1.87,3.739-0.545,8.287,3.039,10.438L60,324.529V440
	c0,4.418,3.582,8,8,8h72v56c0,4.418,3.582,8,8,8h256c4.418,0,8-3.582,8-8V383.812c50.892-41.258,80-102.196,80-167.812
	C492.001,158.304,469.533,104.062,428.736,63.265z"/>
<path style="fill:#53AAD4;" d="M263.052,312.189c-7.333-0.905-14.112,1.505-19.052,5.927V280h-38.116
	c4.422,4.94,6.832,11.719,5.927,19.052c-1.344,10.891-10.178,19.596-21.086,20.798C176.25,321.444,164,310.153,164,296
	c0-6.148,2.314-11.754,6.116-16H132v104c0,4.418,3.582,8,8,8h104v-38.116c4.246,3.802,9.852,6.116,16,6.116
	c14.153,0,25.444-12.25,23.85-26.725C282.649,322.367,273.944,313.533,263.052,312.189z"/>
<path style="fill:#1C89B0;" d="M148.001,376v-96h-16v104c0,4.418,3.582,8,8,8h104v-16H148.001z"/>
<path style="fill:#74D0E3;" d="M211.812,299.052c0.905-7.333-1.505-14.112-5.927-19.052h38.116v-38.116
	c-4.94,4.422-11.719,6.832-19.052,5.927c-10.891-1.344-19.596-10.178-20.798-21.086C202.557,212.25,213.848,200,228.001,200
	c6.148,0,11.754,2.314,16,6.116V174c0-3.314-2.686-6-6-6h-98c-4.418,0-8,3.582-8,8v104h38.116c-3.802,4.246-6.116,9.852-6.116,16
	c0,14.153,12.25,25.444,26.725,23.85C201.634,318.648,210.468,309.943,211.812,299.052z"/>
<path style="fill:#53AAD4;" d="M156.001,168h-16c-4.418,0-8,3.582-8,8v104h16V176C148.001,171.582,151.582,168,156.001,168z"/>
<path style="fill:#F5577E;" d="M320.572,213.103c5.825-4.545,8.915-11.043,9.281-17.663l22.709,22.709
	c2.343,2.343,6.142,2.343,8.485,0l22.709-22.709c-6.62-0.366-13.118-3.456-17.663-9.281c-6.751-8.652-6.66-21.054,0.204-29.616
	c9.108-11.363,25.754-12.041,35.762-2.033c4.347,4.347,6.675,9.948,6.989,15.638l22.709-22.709c2.343-2.343,2.343-6.142,0-8.485
	l-69.296-69.296c-3.124-3.124-8.19-3.124-11.314,0l-69.296,69.296c-2.343,2.343-2.343,6.142,0,8.485l22.709,22.709
	c-5.691,0.315-11.291,2.642-15.638,6.989c-10.007,10.007-9.33,26.654,2.033,35.762C299.518,219.762,311.921,219.853,320.572,213.103
	z"/>
<path style="fill:#74D0E3;" d="M276.189,260.948c-0.905,7.333,1.505,14.112,5.927,19.052H244v38.116
	c4.94-4.422,11.719-6.832,19.052-5.927c10.891,1.344,19.596,10.178,20.798,21.086C285.444,347.75,274.154,360,260,360
	c-6.148,0-11.754-2.314-16-6.116V392h104c4.418,0,8-3.582,8-8v-98c0-3.314-2.686-6-6-6h-32.116c3.802-4.246,6.116-9.852,6.116-16
	c0-14.153-12.25-25.444-26.725-23.85C286.368,241.352,277.534,250.057,276.189,260.948z"/>
<path style="fill:#53AAD4;" d="M348.001,376h-104v16h104c4.418,0,8-3.582,8-8v-16C356.001,372.418,352.419,376,348.001,376z"/>
<g>
</g>
<g>
</g>
<g>
</g>
<g>
</g>
<g>
</g>
<g>
</g>
<g>
</g>
<g>
</g>
<g>
</g>
<g>
</g>
<g>
</g>
<g>
</g>
<g>
</g>
<g>
</g>
<g>
</g>
</svg>
