<?xml version="1.0" encoding="iso-8859-1"?>
<!-- Generator: Adobe Illustrator 19.0.0, SVG Export Plug-In . SVG Version: 6.00 Build 0)  -->
<svg version="1.1" id="Capa_1" xmlns="http://www.w3.org/2000/svg" xmlns:xlink="http://www.w3.org/1999/xlink" x="0px" y="0px"
	 viewBox="0 0 512 512" style="enable-background:new 0 0 512 512;" xml:space="preserve">
<circle style="fill:#FF6838;" cx="256" cy="256" r="256"/>
<path style="fill:#AE4E32;" d="M512,256c0-5.363-0.185-10.681-0.51-15.962l-96.253-96.253l-40.769-5.302l-255.84,260.588
	l111.647,111.647C238.737,511.563,247.317,512,256,512C397.385,512,512,397.385,512,256z"/>
<rect x="318.02" y="103.301" transform="matrix(-0.7071 -0.7071 0.7071 -0.7071 449.5115 537.8841)" style="fill:#CADBE6;" width="36.27" height="145.089"/>
<rect x="334.071" y="109.943" transform="matrix(-0.7071 -0.7071 0.7071 -0.7071 456.1633 553.924)" style="fill:#B1C9DA;" width="17.464" height="145.089"/>
<rect x="163.046" y="272.374" transform="matrix(-0.7071 -0.7071 0.7071 -0.7071 41.3218 706.9535)" style="fill:#FFFFFF;" width="8.06" height="145.089"/>
<rect x="166.629" y="313.128" transform="matrix(-0.7071 -0.7071 0.7071 -0.7071 98.6158 683.2244)" style="fill:#95F0F3;" width="48.36" height="16.12"/>
<rect x="187.84" y="321.915" transform="matrix(-0.7071 -0.7071 0.7071 -0.7071 107.4013 704.4373)" style="fill:#3BDBFF;" width="23.509" height="16.12"/>
<rect x="230.943" y="148.056" transform="matrix(-0.7071 -0.7071 0.7071 -0.7071 275.7798 609.8421)" style="fill:#FFFFFF;" width="66.499" height="199.498"/>
<rect x="259.9" y="160.048" transform="matrix(-0.7071 -0.7071 0.7071 -0.7071 287.7784 638.7966)" style="fill:#E0E0E0;" width="32.577" height="199.498"/>
<rect x="354.2" y="118.497" transform="matrix(-0.7071 -0.7071 0.7071 -0.7071 573.3545 486.5745)" style="fill:#FFFFFF;" width="66.499" height="12.09"/>
<rect x="383.151" y="130.496" transform="matrix(-0.7071 -0.7071 0.7071 -0.7071 585.3361 515.5361)" style="fill:#E0E0E0;" width="32.577" height="12.09"/>
<g>
</g>
<g>
</g>
<g>
</g>
<g>
</g>
<g>
</g>
<g>
</g>
<g>
</g>
<g>
</g>
<g>
</g>
<g>
</g>
<g>
</g>
<g>
</g>
<g>
</g>
<g>
</g>
<g>
</g>
</svg>
