<?xml version="1.0" encoding="iso-8859-1"?>
<!-- Generator: Adobe Illustrator 19.0.0, SVG Export Plug-In . SVG Version: 6.00 Build 0)  -->
<svg version="1.1" id="Layer_1" xmlns="http://www.w3.org/2000/svg" xmlns:xlink="http://www.w3.org/1999/xlink" x="0px" y="0px"
	 viewBox="0 0 512 512" style="enable-background:new 0 0 512 512;" xml:space="preserve">
<g>
	<path style="fill:#2D527C;" d="M133.57,257.343c-61.275,0-111.127-49.852-111.127-111.127V35.17C22.443,15.777,38.22,0,57.614,0
		h32.352c8.097,0,14.663,6.566,14.663,14.663s-6.566,14.663-14.663,14.663H57.614c-3.223,0-5.846,2.622-5.846,5.845v111.046
		c0,45.105,36.696,81.802,81.802,81.802s81.802-36.696,81.802-81.802V35.17c0-3.223-2.623-5.845-5.846-5.845h-32.352
		c-8.097,0-14.663-6.566-14.663-14.663S169.077,0,177.173,0h32.352c19.394,0,35.171,15.777,35.171,35.17v111.046
		C244.697,207.491,194.845,257.343,133.57,257.343z"/>
	<path style="fill:#2D527C;" d="M259.223,512c-77.372,0-140.316-62.945-140.316-140.314v-63.714c0-8.097,6.566-14.663,14.663-14.663
		c8.097,0,14.663,6.566,14.663,14.663v63.714c0,61.199,49.79,110.989,110.989,110.989c61.201,0,110.991-49.79,110.991-110.989
		v-15.022c0-8.097,6.566-14.663,14.663-14.663s14.663,6.566,14.663,14.663v15.022C399.536,449.055,336.592,512,259.223,512z"/>
</g>
<circle style="fill:#CEE8FA;" cx="384.88" cy="200.94" r="90.01"/>
<g>
	<path style="fill:#2D527C;" d="M384.875,305.614c-57.721,0-104.683-46.96-104.683-104.683s46.96-104.684,104.683-104.684
		s104.683,46.96,104.683,104.684C489.557,258.652,442.596,305.614,384.875,305.614z M384.875,125.574
		c-41.553,0-75.357,33.806-75.357,75.359s33.805,75.357,75.357,75.357s75.357-33.805,75.357-75.357S426.427,125.574,384.875,125.574
		z"/>
	<circle style="fill:#2D527C;" cx="384.88" cy="200.94" r="16.413"/>
	<path style="fill:#2D527C;" d="M384.875,232.006c-17.136,0-31.076-13.94-31.076-31.075s13.941-31.076,31.076-31.076
		s31.075,13.941,31.075,31.076S402.01,232.006,384.875,232.006z M384.875,199.181c-0.965,0-1.751,0.786-1.751,1.751
		c0,0.965,0.786,1.749,1.751,1.749s1.749-0.784,1.749-1.749C386.624,199.967,385.841,199.181,384.875,199.181z"/>
</g>
<g>
</g>
<g>
</g>
<g>
</g>
<g>
</g>
<g>
</g>
<g>
</g>
<g>
</g>
<g>
</g>
<g>
</g>
<g>
</g>
<g>
</g>
<g>
</g>
<g>
</g>
<g>
</g>
<g>
</g>
</svg>
