<?xml version="1.0" encoding="iso-8859-1"?>
<!-- Generator: Adobe Illustrator 19.0.0, SVG Export Plug-In . SVG Version: 6.00 Build 0)  -->
<svg version="1.1" id="Capa_1" xmlns="http://www.w3.org/2000/svg" xmlns:xlink="http://www.w3.org/1999/xlink" x="0px" y="0px"
	 viewBox="0 0 409.6 409.6" style="enable-background:new 0 0 409.6 409.6;" xml:space="preserve">
<path style="fill:#FCD462;" d="M174.204,101.791h-80.17c-24.788,0-44.954,20.166-44.954,44.954v98.314
	c0,7.887,6.393,14.281,14.28,14.281c7.887,0,14.281-6.394,14.281-14.281v-98.314c0-6.475,3.783-12.07,9.247-14.731v120.714v136.569
	c0,11.213,9.09,20.303,20.304,20.303c11.213,0,20.303-9.09,20.303-20.303V252.728h13.246v136.569
	c0,11.213,9.09,20.303,20.303,20.303l0,0c11.213,0,20.303-9.09,20.303-20.303V252.728V132.014c5.464,2.661,9.248,8.255,9.248,14.731
	v98.314c0,7.887,6.393,14.281,14.28,14.281c7.886,0,14.281-6.394,14.281-14.281v-98.314
	C219.158,121.957,198.992,101.791,174.204,101.791z"/>
<path style="fill:#64798A;" d="M172.774,31.673c-2.94-15.502-15.443-28.002-30.946-30.941
	c-27.749-5.259-51.624,18.616-46.364,46.366c2.938,15.504,15.442,28.007,30.946,30.945C154.16,83.303,178.038,59.423,172.774,31.673
	z"/>
<path style="fill:#E56353;" d="M250.606,210.631c-46.677,4.622-84.433,42.377-89.056,89.055
	c-6.247,63.079,46.33,115.656,109.409,109.41c46.678-4.622,84.433-42.379,89.056-89.056
	C366.262,256.961,313.685,204.383,250.606,210.631z"/>
<polygon style="fill:#FFFFFF;" points="329.571,284.872 285.775,284.872 285.775,241.075 235.791,241.075 235.791,284.872 
	191.995,284.872 191.995,334.854 235.791,334.854 235.791,378.65 285.775,378.65 285.775,334.854 329.571,334.854 "/>
<g>
</g>
<g>
</g>
<g>
</g>
<g>
</g>
<g>
</g>
<g>
</g>
<g>
</g>
<g>
</g>
<g>
</g>
<g>
</g>
<g>
</g>
<g>
</g>
<g>
</g>
<g>
</g>
<g>
</g>
</svg>
