<?xml version="1.0" encoding="iso-8859-1"?>
<!-- Generator: Adobe Illustrator 19.0.0, SVG Export Plug-In . SVG Version: 6.00 Build 0)  -->
<svg version="1.1" id="Capa_1" xmlns="http://www.w3.org/2000/svg" xmlns:xlink="http://www.w3.org/1999/xlink" x="0px" y="0px"
	 viewBox="0 0 491.52 491.52" style="enable-background:new 0 0 491.52 491.52;" xml:space="preserve">
<circle style="fill:#45B39C;" cx="245.76" cy="245.76" r="245.76"/>
<path style="opacity:0.1;enable-background:new    ;" d="M306.842,121.227c-12.237-11.366-32.307-20.275-64.768-14.439
	c-8.858,1.588-17.613,5.019-24.781,10.548c-4.813,3.79-8.55,8.705-12.8,13.108c-5.581,5.684-12.083,10.496-19.2,14.182
	c-5.53,2.816-11.674,5.171-15.565,10.035c-5.274,6.503-5.069,15.77-3.328,23.91c2.867,13.466,9.318,26.573,7.68,40.193
	c-1.126,9.37-5.939,17.715-9.83,26.265c-3.891,8.551-7.014,18.178-4.454,27.239c2.304,8.397,9.421,16.077,7.424,24.576
	c-1.024,4.455-3.123,9.473-3.84,13.977c-6.246,37.94,5.274,57.498,18.688,67.175l109.241,109.241
	c96.332-18.061,172.807-92.289,194.172-187.413L310.63,125.016L306.842,121.227z"/>
<path style="fill:#F6C358;" d="M167.22,296.859c1.971-8.498-5.097-16.209-7.442-24.611c-2.525-9.043,0.576-18.669,4.48-27.207
	c3.904-8.539,8.717-16.93,9.837-26.252c1.638-13.636-4.833-26.769-7.709-40.199c-1.745-8.152-1.909-17.451,3.319-23.943
	c3.909-4.855,10.046-7.184,15.589-10.034c7.106-3.654,13.614-8.467,19.189-14.192c4.262-4.376,8.008-9.303,12.825-13.06
	c7.132-5.561,15.888-8.968,24.791-10.565c66.5-11.931,80.955,37.968,82.955,43.791c6.008,17.497,9.303,36.255,6.707,54.573
	c-1.375,9.705-4.367,19.098-7.411,28.415c-8.472,25.931-18.047,52.679-37.449,71.856c-8.538,8.44-30.391,38.468-35.885,54.255
	c-1.7,4.887-4.522,9.373-7.718,13.442c-8.223,10.469-22.823,13.447-36.135,13.432c-14.425-0.016-54.334-11.903-43.809-75.741
	C164.095,306.327,166.192,301.294,167.22,296.859z"/>
<path style="fill:#DC8744;" d="M199.723,277.696c-2.763,6.131-7.623,11.266-8.605,18.165c-0.377,2.651,0.042,5.407,1.395,7.717
	c3.717,6.345,11.138,4.9,15.195,0.798c2.947-2.979,4.456-7.071,5.597-11.102c0.424-1.499,0.839-3.065,1.856-4.244
	c1.582-1.832,4.189-2.284,6.565-2.745c13.724-2.666,26.79-9.678,35.599-20.534c10.155-12.514,14.031-29.192,13.868-45.307
	c-0.137-13.541-2.888-26.875-6.042-40.075c-0.98-4.102,2.814-7.854,6.853-6.639c6.725,2.024,12.697,6.981,16.397,13.071
	c5.239,8.626,6.558,19.111,6.179,29.196c-1.269,33.763-19.968,64.515-42.088,90.054c21.564-12.071,36.125-34.154,43.993-57.582
	c5.753-17.131,8.34-35.319,7.593-53.374c-0.738-17.82-5.907-37.304-20.842-47.055c-10.225-6.675-23.162-7.503-35.355-6.822
	c-10.422,0.582-21.169,2.253-29.906,7.964c-2.365,1.545-4.59,3.418-6.031,5.847c-0.944,1.592-1.519,3.367-1.993,5.161
	c-1.947,7.362-3.103,14.913-3.572,22.513c-0.308,4.982-0.369,10.107,1.111,14.889c1.283,4.146,3.667,7.849,6.023,11.495
	c9.29,14.373,20.079,29.897,37.473,32.82c2.192,0.369,4.233,1.516,5.499,3.344c3.697,5.338-1.959,9.946-7.031,11.143
	c-8.993,2.123-18.583-0.686-26.409-5.599c-4.063-2.551-7.727-5.649-11.198-8.947c-2.49-2.366-5.354-7.056-8.858-7.652
	c-0.212-0.036-0.428,0.093-0.504,0.294c-2.287,6.008,0.078,15.45,0.286,21.828C203.007,263.57,202.753,270.972,199.723,277.696z"/>
<g>
</g>
<g>
</g>
<g>
</g>
<g>
</g>
<g>
</g>
<g>
</g>
<g>
</g>
<g>
</g>
<g>
</g>
<g>
</g>
<g>
</g>
<g>
</g>
<g>
</g>
<g>
</g>
<g>
</g>
</svg>
