<?xml version="1.0" encoding="iso-8859-1"?>
<!-- Generator: Adobe Illustrator 19.0.0, SVG Export Plug-In . SVG Version: 6.00 Build 0)  -->
<svg version="1.1" id="Capa_1" xmlns="http://www.w3.org/2000/svg" xmlns:xlink="http://www.w3.org/1999/xlink" x="0px" y="0px"
	 viewBox="0 0 409.6 409.6" style="enable-background:new 0 0 409.6 409.6;" xml:space="preserve">
<g>
	<path style="fill:#44C4A1;" d="M129.074,393.917l-1.396-2.269c-0.447,0.762-0.865,1.546-1.373,2.255
		C127.218,393.978,128.141,393.985,129.074,393.917z"/>
	<path style="fill:#44C4A1;" d="M113.149,315.596l13.538-35.244c-7.297,8.889-13.932,20.263-17.104,34.44
		C110.781,314.936,111.97,315.221,113.149,315.596z"/>
	<path style="fill:#44C4A1;" d="M121.139,392.639c1.449-1.656,2.702-3.516,3.691-5.618l-12.345-20.06l14.87-23.541
		c-0.095-0.596-0.18-1.115-0.266-1.606l-0.235,0.049c-0.566,0.118-1.111-0.244-1.245-0.806c-1.047-4.394-2.909-8.362-5.366-11.596
		l-14.318,4.935l4.636-12.065c-1.844-0.516-3.698-0.673-5.491-0.3c-8.542,1.775-13.47,13.155-11.258,25.633
		c0.096,0.54-0.238,1.038-0.755,1.19C95.479,357.379,104.769,386.087,121.139,392.639z"/>
	<path style="fill:#44C4A1;" d="M140.599,322.447l-13.409,4.622c1.882,2.86,3.39,6.054,4.482,9.511L140.599,322.447z"/>
	<path style="fill:#44C4A1;" d="M131.811,398.365c-1.334,0.231-2.667,0.431-3.981,0.431c-1.823,0-3.62-0.295-5.402-0.74
		c-4.394,3.824-9.905,5.829-16.571,5.829c-2.896,0-6.029-0.414-9.336-1.14c-0.14,0.472-0.531,0.826-1.026,0.869
		c-2.152,0.195-7.64,0.522-8.769-1.051c-1.301-1.817,0.044-7.647,2.01-8.709c1.704-0.918,6.492,1.78,8.343,2.899
		c0.446,0.27,0.664,0.796,0.547,1.305l-0.007,0.026c8.031,1.742,14.508,1.007,19.423-2.055
		c-17.22-9.006-26.309-37.682-28.663-46.171l-0.297,0.062c-0.584,0.12-1.165-0.262-1.272-0.849
		c-2.832-15.681,3.881-30.257,15.367-33.66c4.553-23.162,17.232-39.576,28.865-50.268c-29.444,8.7-80.323,26.106-96.339,46.527
		c-12.903,16.451-18.7,56.664-21.06,80.125c-0.961,9.555,6.546,17.804,16.148,17.804h108.933L131.811,398.365z"/>
	<path style="fill:#44C4A1;" d="M149.229,260.134l3.458-0.944c0,0-1.186,0.291-3.298,0.839
		C149.336,260.062,149.281,260.099,149.229,260.134z"/>
	<polygon style="fill:#44C4A1;" points="152.686,259.19 152.694,259.272 152.694,259.232 	"/>
	<path style="fill:#44C4A1;" d="M374.896,311.67c-16.316-20.804-68.862-38.498-98.017-47.027l1.134,2.953
		c10.468,12.518,16.895,29.357,19.299,50.234l6.363,16.566l-5.38-1.854c0.159,6.225,0.059,12.705-0.396,19.531l0.291,0.026
		c0.486,0.044,0.845,0.471,0.803,0.956l-0.613,7c6.964,3.419,11.768,10.557,11.768,18.836c0,12.384-10.722,22.262-23.391,20.858
		c-2.935-0.324-5.661-1.334-8.115-2.771l-7.767,12.622h108.933c9.604,0,17.11-8.249,16.148-17.804
		C393.597,368.334,387.8,328.121,374.896,311.67z"/>
	<path style="fill:#44C4A1;" d="M290.467,351.423l0.347,0.03c0.509-7.721,0.602-14.843,0.324-21.378l-22.137-7.629l20.303,32.147
		l0.207-2.367C289.553,351.741,289.981,351.381,290.467,351.423z"/>
	<path style="fill:#44C4A1;" d="M276.837,264.632c-0.706-0.207-1.35-0.389-2.028-0.585c0.014,0.015,0.029,0.029,0.041,0.044
		L276.837,264.632z"/>
</g>
<g>
	<polygon style="fill:#E1E6E9;" points="196.6,325.538 186.332,302.694 159.421,322.39 168.714,409.6 190.269,409.6 
		183.938,349.389 	"/>
	<polygon style="fill:#E1E6E9;" points="223.268,302.694 212.999,325.538 225.662,349.389 219.33,409.6 240.886,409.6 
		250.179,322.39 	"/>
</g>
<g>
	<path style="fill:#F6C358;" d="M280.376,155.188c0,11.182-1.794,22.566-4.929,33.531c0.82,0.491,1.693,0.862,2.627,1.056
		c7.804,1.623,16.467-8.295,19.349-22.153c2.882-13.857-1.109-26.405-8.913-28.029c-2.059-0.427-4.172-0.011-6.228,1.028
		l-2.784,1.912C280.017,146.588,280.376,150.763,280.376,155.188z"/>
	<path style="fill:#F6C358;" d="M130.074,142.741l-0.026-0.033l-3.557-2.444c-1.794-0.743-3.619-1.042-5.402-0.671
		c-7.805,1.624-11.795,14.173-8.913,28.029c2.882,13.858,11.545,23.776,19.348,22.153c0.935-0.195,1.807-0.565,2.627-1.056
		c-3.135-10.966-4.928-22.349-4.928-33.531C129.224,150.838,129.572,146.732,130.074,142.741z"/>
</g>
<path style="fill:#FCD462;" d="M204.799,258.981c19.573,0,37.35-11.98,50.772-29.744c8.757-11.589,15.618-25.618,19.876-40.518
	c3.135-10.966,4.929-22.349,4.929-33.531c0-4.425-0.359-8.6-0.878-12.655l-0.253,0.175l-5.843,7.095l-19.274-37.291h-98.962
	l-19.272,37.291l-5.818-7.062c-0.502,3.991-0.85,8.097-0.85,12.447c0,11.182,1.793,22.566,4.928,33.531
	c4.26,14.9,11.119,28.926,19.876,40.516C167.451,246.999,185.227,258.981,204.799,258.981z"/>
<g>
	<path style="fill:#64798A;" d="M130.074,142.741l5.818,7.062l19.272-37.291h-26.41c-3.439,13.796-2.446,27.627-2.446,27.627
		l0.183,0.125l3.557,2.444L130.074,142.741z"/>
	<path style="fill:#64798A;" d="M254.127,112.512l19.274,37.291l5.843-7.095l0.253-0.175l2.784-1.912l0.703-0.482
		c0,0,1.014-14.246-2.609-28.242v0.615H254.127z"/>
</g>
<path style="fill:#44C4A1;" d="M254.127,112.512h26.249v-0.615V20.643c-50.937-27.524-101.872-27.524-152.806,0l0,91.87h1.185h26.41
	H254.127z M203.973,18.623c20.784,0,37.633,16.849,37.633,37.634c0,20.784-16.849,37.634-37.633,37.634
	c-20.784,0-37.634-16.849-37.634-37.634C166.339,35.472,183.189,18.623,203.973,18.623z"/>
<path style="fill:#FFFFFF;" d="M203.973,93.89c20.784,0,37.633-16.849,37.633-37.634c0-20.785-16.849-37.634-37.633-37.634
	c-20.784,0-37.634,16.849-37.634,37.634C166.339,77.041,183.189,93.89,203.973,93.89z M178.948,48.507h17.275V31.232h7.75h7.749
	v17.275h17.275v15.498h-17.275v17.277h-7.749h-7.75V64.004h-17.275V48.507z"/>
<polygon style="fill:#E56353;" points="196.223,81.281 203.973,81.281 203.973,31.232 196.223,31.232 196.223,48.507 
	178.948,48.507 178.948,64.004 196.223,64.004 "/>
<polygon style="fill:#D15241;" points="211.721,81.281 211.721,64.004 228.997,64.004 228.997,48.507 211.721,48.507 
	211.721,31.232 203.973,31.232 203.973,81.281 "/>
<g>
	<path style="fill:#3EA69B;" d="M120.243,329.461c-0.907-1.194-1.883-2.306-2.948-3.278c-2.14-1.954-4.43-3.205-6.734-3.852
		l-4.636,12.065L120.243,329.461z"/>
	<path style="fill:#3EA69B;" d="M124.83,387.021c6.326-13.44,3.992-34.389,2.524-43.601l-14.87,23.541L124.83,387.021z"/>
	<path style="fill:#3EA69B;" d="M152.694,259.272l-0.008-0.082l-3.458,0.944c-5.971,3.908-14.622,10.568-22.542,20.218
		l-13.538,35.244c3.129,0.993,6.17,2.765,8.96,5.315c1.926,1.757,3.582,3.88,5.082,6.158l13.409-4.622l-8.927,14.133
		c0.314,0.991,0.678,1.955,0.919,2.98c0.136,0.579-0.245,1.159-0.828,1.283c1.591,8.916,5.13,35.085-4.086,50.805l1.396,2.269
		c4.772-0.338,9.793-2.534,15.008-6.583c-0.273-0.42-0.278-0.96,0.021-1.365c1.278-1.742,4.667-6.071,6.593-5.875
		c2.223,0.228,5.702,5.094,5.196,7.273c-0.439,1.886-5.631,3.687-7.694,4.333c-0.499,0.157-1.037-0.029-1.341-0.453l-0.043-0.062
		c-5.101,3.926-10.114,6.335-15.002,7.18l6.914,11.235h29.989l-9.294-87.21L152.694,259.272z"/>
	<path style="fill:#3EA69B;" d="M277.148,266.452c0.31,0.357,0.561,0.781,0.864,1.144l-1.134-2.953h0l-0.041-0.011l-1.987-0.541
		C275.618,264.879,276.385,265.578,277.148,266.452z"/>
	<path style="fill:#3EA69B;" d="M268.298,381.308c-1.413-12.629,8.393-23.323,20.716-23.404l0.29-3.311l-20.303-32.147l22.137,7.629
		c-2.002-47.076-22.48-64.591-34.234-70.786l-6.724,63.1l-9.293,87.21h29.988l7.767-12.622
		C273.06,393.71,269.043,387.985,268.298,381.308z"/>
	<path style="fill:#3EA69B;" d="M303.674,334.396l-6.363-16.566c0.54,4.693,0.853,9.611,0.983,14.711L303.674,334.396z"/>
</g>
<polygon style="fill:#E56353;" points="212.999,325.538 223.268,302.694 204.799,289.18 186.332,302.694 196.6,325.538 
	183.938,349.389 190.269,409.6 204.799,409.6 219.33,409.6 225.662,349.389 "/>
<path style="fill:#2F4859;" d="M256.905,259.277l-0.002,0.013c11.754,6.195,32.232,23.709,34.234,70.786
	c0.279,6.535,0.185,13.657-0.324,21.378l7.084,0.618c0.455-6.825,0.555-13.305,0.396-19.531c-0.13-5.1-0.443-10.018-0.983-14.711
	c-2.404-20.878-8.831-37.716-19.299-50.234c-0.303-0.363-0.553-0.787-0.864-1.144c-0.763-0.874-1.53-1.573-2.298-2.361
	c-0.012-0.015-0.027-0.029-0.041-0.044c-6.734-6.93-13.433-10.784-18.203-12.793c0.211,2.371,0.302,5.057,0.299,7.96
	L256.905,259.277z"/>
<path style="fill:#E1E6E9;" d="M127.088,341.814c0.086,0.49,0.171,1.009,0.266,1.606c1.468,9.212,3.801,30.161-2.524,43.601
	c-0.989,2.102-2.242,3.962-3.691,5.618c-16.371-6.553-25.66-35.26-28.082-43.786c-0.027,0.008-0.038,0.04-0.067,0.046l-4.611,0.958
	c2.354,8.489,11.444,37.166,28.663,46.171c-4.915,3.061-11.392,3.797-19.423,2.055l-1.062,4.598
	c-0.006,0.026-0.03,0.038-0.037,0.063c3.308,0.726,6.44,1.14,9.336,1.14c6.666,0,12.177-2.005,16.571-5.829
	c1.782,0.445,3.579,0.74,5.402,0.74c1.314,0,2.647-0.2,3.981-0.431c4.888-0.845,9.901-3.255,15.002-7.18l-2.715-3.8
	c-0.011-0.016-0.007-0.036-0.016-0.051c-5.215,4.049-10.235,6.245-15.008,6.583c-0.932,0.068-1.856,0.06-2.769-0.014
	c0.507-0.709,0.926-1.493,1.373-2.255c9.216-15.72,5.678-41.889,4.086-50.805h-0.001L127.088,341.814z"/>
<path style="fill:#2F4859;" d="M102.178,315.41c-11.486,3.403-18.199,17.98-15.367,33.66c0.106,0.587,0.688,0.969,1.272,0.849
	l0.297-0.062l4.611-0.958c0.029-0.005,0.04-0.038,0.067-0.046c0.517-0.153,0.851-0.651,0.755-1.19
	c-2.212-12.478,2.716-23.858,11.258-25.633c1.793-0.373,3.646-0.216,5.491,0.3c2.304,0.647,4.594,1.898,6.734,3.852
	c1.065,0.973,2.04,2.084,2.948,3.278c2.457,3.234,4.319,7.202,5.366,11.596c0.135,0.562,0.679,0.924,1.245,0.806l0.235-0.049
	l4.675-0.971h0.001c0.583-0.124,0.964-0.704,0.828-1.283c-0.241-1.026-0.605-1.989-0.919-2.98c-1.092-3.457-2.6-6.651-4.482-9.511
	c-1.5-2.278-3.157-4.402-5.082-6.158c-2.79-2.549-5.831-4.322-8.96-5.315c-1.179-0.374-2.367-0.659-3.565-0.803
	c3.172-14.177,9.807-25.551,17.104-34.44c7.92-9.651,16.571-16.311,22.542-20.218c0.053-0.034,0.107-0.072,0.16-0.105
	c1.228-0.801,2.369-1.517,3.327-2.084c0.027-3.147,0.184-5.982,0.49-8.42c-1.819,0.882-11.499,5.818-22.163,15.618
	C119.41,275.834,106.731,292.248,102.178,315.41z"/>
<g>
	<path style="fill:#64798A;" d="M146.813,391.185l0.043,0.062c0.304,0.424,0.842,0.609,1.341,0.453
		c2.063-0.646,7.255-2.447,7.694-4.333c0.506-2.179-2.973-7.045-5.196-7.273c-1.926-0.196-5.315,4.133-6.593,5.875
		c-0.299,0.405-0.294,0.945-0.021,1.365c0.01,0.015,0.005,0.034,0.016,0.051L146.813,391.185z"/>
	<path style="fill:#64798A;" d="M97.62,398.083l0.007-0.026c0.116-0.509-0.101-1.034-0.547-1.305
		c-1.851-1.119-6.639-3.817-8.343-2.899c-1.966,1.062-3.312,6.893-2.01,8.709c1.128,1.573,6.616,1.246,8.769,1.051
		c0.495-0.043,0.886-0.397,1.026-0.869c0.008-0.026,0.031-0.038,0.037-0.063L97.62,398.083z"/>
</g>
<path style="fill:#EBF0F3;" d="M290.467,351.423c-0.486-0.042-0.914,0.318-0.956,0.803l-0.207,2.367l-0.29,3.311
	c-12.323,0.08-22.129,10.775-20.716,23.404c0.745,6.676,4.763,12.402,10.343,15.669c2.455,1.437,5.181,2.447,8.115,2.771
	c12.669,1.404,23.391-8.474,23.391-20.858c0-8.28-4.804-15.418-11.768-18.836l0.613-7c0.042-0.485-0.317-0.913-0.803-0.956
	l-0.291-0.026l-7.084-0.618L290.467,351.423z M301.874,378.89c0,7.026-5.694,12.72-12.719,12.72c-7.025,0-12.72-5.694-12.72-12.72
	c0-7.025,5.695-12.72,12.72-12.72C296.18,366.17,301.874,371.865,301.874,378.89z"/>
<path style="fill:#D5D6DB;" d="M289.155,366.17c-7.025,0-12.72,5.694-12.72,12.72c0,7.026,5.695,12.72,12.72,12.72
	c7.025,0,12.719-5.694,12.719-12.72C301.874,371.865,296.18,366.17,289.155,366.17z M300.101,378.89
	c0,6.044-4.901,10.946-10.946,10.946c-6.046,0-10.947-4.902-10.947-10.946c0-6.046,4.901-10.945,10.947-10.945
	C295.199,367.945,300.101,372.844,300.101,378.89z"/>
<path style="fill:#EBF0F3;" d="M289.155,367.945c-6.046,0-10.947,4.899-10.947,10.945c0,6.044,4.901,10.946,10.947,10.946
	c6.044,0,10.946-4.902,10.946-10.946C300.101,372.844,295.199,367.945,289.155,367.945z M289.155,380.385
	c-0.826,0-1.495-0.669-1.495-1.495c0-0.825,0.669-1.496,1.495-1.496c0.825,0,1.496,0.671,1.496,1.496
	C290.651,379.716,289.981,380.385,289.155,380.385z"/>
<circle style="fill:#64798A;" cx="289.178" cy="378.88" r="1.495"/>
<g>
	<path style="fill:#EBF0F3;" d="M152.694,259.214c0,0,0,0.04,0,0.058l6.726,63.118l26.912-19.696l18.467-13.515l-50.77-44.045
		c-0.361,1.216-0.616,2.74-0.823,4.391c-0.306,2.438-0.463,5.273-0.49,8.42C152.711,258.376,152.694,258.774,152.694,259.214z"/>
	<path style="fill:#EBF0F3;" d="M204.799,289.18l18.469,13.515l26.911,19.696l6.724-63.1l0.002-0.013l0.001-0.063
		c0.003-2.904-0.088-5.589-0.299-7.96c-0.213-2.402-0.548-4.479-1.036-6.119L204.799,289.18z"/>
</g>
<path style="fill:#F6C358;" d="M255.571,245.134v-15.897c-13.422,17.764-31.199,29.744-50.772,29.744
	c-19.572,0-37.348-11.981-50.77-29.745v15.899l50.77,44.045L255.571,245.134z"/>
<g>
</g>
<g>
</g>
<g>
</g>
<g>
</g>
<g>
</g>
<g>
</g>
<g>
</g>
<g>
</g>
<g>
</g>
<g>
</g>
<g>
</g>
<g>
</g>
<g>
</g>
<g>
</g>
<g>
</g>
</svg>
