<?xml version="1.0" encoding="iso-8859-1"?>
<!-- Generator: Adobe Illustrator 19.0.0, SVG Export Plug-In . SVG Version: 6.00 Build 0)  -->
<svg version="1.1" id="Layer_1" xmlns="http://www.w3.org/2000/svg" xmlns:xlink="http://www.w3.org/1999/xlink" x="0px" y="0px"
	 viewBox="0 0 512 512" style="enable-background:new 0 0 512 512;" xml:space="preserve">
<path style="fill:#C1C1C1;" d="M122.435,503.652c0,4.61-3.738,8.348-8.348,8.348H47.304c-4.61,0-8.348-3.738-8.348-8.348
	s3.738-8.348,8.348-8.348h66.783C118.697,495.304,122.435,499.042,122.435,503.652z M19.478,495.304H8.348
	c-4.61,0-8.348,3.738-8.348,8.348S3.738,512,8.348,512h11.13c4.61,0,8.348-3.738,8.348-8.348S24.088,495.304,19.478,495.304z"/>
<path style="fill:#769CA5;" d="M342.261,22.261C342.261,9.966,352.227,0,364.522,0h38.957c12.295,0,22.261,9.966,22.261,22.261
	v89.043h-83.478V22.261z"/>
<path style="fill:#5B7A7F;" d="M364.522,0h22.261c-12.295,0-22.261,9.966-22.261,22.261v89.043h-22.261V22.261
	C342.261,9.966,352.227,0,364.522,0z"/>
<path style="fill:#C5EAFF;" d="M256,489.739V166.957c0-36.883,29.9-66.783,66.783-66.783h122.435
	c36.883,0,66.783,29.9,66.783,66.783v322.783c0,12.295-9.966,22.261-22.261,22.261H278.261C265.966,512,256,502.034,256,489.739z"/>
<path style="fill:#B5E1F4;" d="M256,489.739V166.957c0-36.883,29.9-66.783,66.783-66.783H352c36.883,0,66.783,29.9,66.783,66.783
	v322.783c0,12.295-9.966,22.261-22.261,22.261H278.261C265.966,512,256,502.034,256,489.739z"/>
<path style="fill:#B28D5B;" d="M230.957,189.217h22.261c12.295,0,22.261,9.966,22.261,22.261v133.565h-66.783V211.478
	C208.696,199.184,218.662,189.217,230.957,189.217z"/>
<path style="fill:#99774F;" d="M230.957,189.217h22.261c-12.295,0-22.261,9.966-22.261,22.261v133.565h-22.261V211.478
	C208.696,199.184,218.662,189.217,230.957,189.217z"/>
<path style="fill:#FFA233;" d="M331.13,367.304v122.435c0,12.295-9.966,22.261-22.261,22.261H175.304
	c-12.295,0-22.261-9.966-22.261-22.261V367.304c0-24.588,19.933-44.522,44.522-44.522h89.043
	C311.197,322.783,331.13,342.716,331.13,367.304z"/>
<path style="fill:#FFC248;" d="M242.087,489.739V367.304c0-24.588-19.933-44.522-44.522-44.522h89.043
	c24.588,0,44.522,19.934,44.522,44.522v122.435c0,12.295-9.966,22.261-22.261,22.261h-89.043
	C232.121,512,242.087,502.034,242.087,489.739z"/>
<path style="fill:#FF9CAB;" d="M208.696,422.957v66.783c0,12.295-9.966,22.261-22.261,22.261h-77.913
	c-12.295,0-22.261-9.966-22.261-22.261v-66.783c0-12.295,9.966-22.261,22.261-22.261h77.913
	C198.729,400.696,208.696,410.662,208.696,422.957z"/>
<path style="fill:#FC758E;" d="M108.522,400.696h33.391c-12.295,0-22.261,9.966-22.261,22.261v66.783
	c0,12.295,9.966,22.261,22.261,22.261h-33.391c-12.295,0-22.261-9.966-22.261-22.261v-66.783
	C86.261,410.662,96.227,400.696,108.522,400.696z"/>
<path style="fill:#FFC0CF;" d="M108.522,400.696h77.913c12.295,0,22.261,9.966,22.261,22.261v22.261H86.261v-22.261
	C86.261,410.662,96.227,400.696,108.522,400.696z"/>
<path style="fill:#FF9CAB;" d="M108.522,400.696h33.391c-12.295,0-22.261,9.966-22.261,22.261v22.261H86.261v-22.261
	C86.261,410.662,96.227,400.696,108.522,400.696z"/>
<path style="fill:#FFFFFF;" d="M475.826,178.087v267.13c0,4.61-3.738,8.348-8.348,8.348s-8.348-3.738-8.348-8.348v-267.13
	c0-4.61,3.738-8.348,8.348-8.348S475.826,173.477,475.826,178.087z M289.391,358.957c-4.61,0-8.348,3.738-8.348,8.348v100.174
	c0,4.61,3.738,8.348,8.348,8.348s8.348-3.738,8.348-8.348V367.304C297.739,362.694,294.002,358.957,289.391,358.957z"/>
<g>
</g>
<g>
</g>
<g>
</g>
<g>
</g>
<g>
</g>
<g>
</g>
<g>
</g>
<g>
</g>
<g>
</g>
<g>
</g>
<g>
</g>
<g>
</g>
<g>
</g>
<g>
</g>
<g>
</g>
</svg>
