<?xml version="1.0" encoding="iso-8859-1"?>
<!-- Generator: Adobe Illustrator 19.0.0, SVG Export Plug-In . SVG Version: 6.00 Build 0)  -->
<svg version="1.1" id="Capa_1" xmlns="http://www.w3.org/2000/svg" xmlns:xlink="http://www.w3.org/1999/xlink" x="0px" y="0px"
	 viewBox="0 0 409.6 409.6" style="enable-background:new 0 0 409.6 409.6;" xml:space="preserve">
<path style="fill:#64798A;" d="M393.701,117.054H15.9c-8.781,0-15.9,7.118-15.9,15.898V409.6h409.6V132.953
	C409.6,124.173,402.482,117.054,393.701,117.054z"/>
<g>
	<path style="fill:#EBF0F3;" d="M317.258,409.6H92.344V10.931C92.344,4.894,97.238,0,103.275,0h203.052
		c6.037,0,10.931,4.894,10.931,10.931V409.6z"/>
	<rect x="333.133" y="150.886" style="fill:#EBF0F3;" width="62.295" height="85.714"/>
</g>
<rect x="340.685" y="158.285" style="fill:#27A2DB;" width="47.124" height="70.825"/>
<rect x="333.138" y="290.125" style="fill:#EBF0F3;" width="62.295" height="85.719"/>
<rect x="340.685" y="297.523" style="fill:#27A2DB;" width="47.124" height="70.82"/>
<rect x="14.208" y="150.84" style="fill:#EBF0F3;" width="62.295" height="85.714"/>
<rect x="21.77" y="158.285" style="fill:#27A2DB;" width="47.124" height="70.825"/>
<rect x="14.162" y="290.115" style="fill:#EBF0F3;" width="62.295" height="85.719"/>
<rect x="21.77" y="297.523" style="fill:#27A2DB;" width="47.124" height="70.82"/>
<rect x="113.884" y="144.66" style="fill:#E1E6E9;" width="62.295" height="63.375"/>
<rect x="121.487" y="152.115" style="fill:#27A2DB;" width="47.124" height="48.481"/>
<rect x="233.385" y="144.66" style="fill:#E1E6E9;" width="62.295" height="63.375"/>
<rect x="240.998" y="152.115" style="fill:#27A2DB;" width="47.124" height="48.481"/>
<polygon style="fill:#E56353;" points="246.724,56.063 217.81,56.063 217.81,27.15 191.79,27.15 191.79,56.063 162.878,56.063 
	162.878,82.083 191.79,82.083 191.79,110.996 217.81,110.996 217.81,82.083 246.724,82.083 "/>
<path style="fill:#D5D6DB;" d="M260.825,242.809H148.777c-3.808,0-6.896,3.286-6.896,7.341V409.6h125.84V250.15
	C267.721,246.094,264.633,242.809,260.825,242.809z"/>
<rect x="150.221" y="251.443" style="fill:#64798A;" width="109.199" height="158.147"/>
<rect x="201.421" y="251.443" style="fill:#3A556A;" width="6.748" height="158.147"/>
<g>
</g>
<g>
</g>
<g>
</g>
<g>
</g>
<g>
</g>
<g>
</g>
<g>
</g>
<g>
</g>
<g>
</g>
<g>
</g>
<g>
</g>
<g>
</g>
<g>
</g>
<g>
</g>
<g>
</g>
</svg>
