<?xml version="1.0" encoding="iso-8859-1"?>
<!-- Generator: Adobe Illustrator 19.0.0, SVG Export Plug-In . SVG Version: 6.00 Build 0)  -->
<svg version="1.1" id="Layer_1" xmlns="http://www.w3.org/2000/svg" xmlns:xlink="http://www.w3.org/1999/xlink" x="0px" y="0px"
	 viewBox="0 0 509.287 509.287" style="enable-background:new 0 0 509.287 509.287;" xml:space="preserve">
<circle style="fill:#F0582F;" cx="254.644" cy="254.644" r="254.644"/>
<path style="fill:#F7CFA2;" d="M460.8,144.784c-54.591-74.935-117.319-27.465-117.319-27.465
	c-50.861-20.683-62.389-91.211-62.389-91.211l0,0V1.356C272.276,0.339,263.46,0,254.644,0c-7.121,0-13.902,0.339-21.023,1.017v25.43
	l0,0c0,51.2,54.252,108.842,70.188,130.543c15.936,21.701,4.408,76.97-3.391,101.722c-7.799,24.413-35.603,66.119-77.987,57.303
	c-42.045-8.816-51.878-6.442-51.878-6.442s-28.821-30.517-60.694-30.517c-38.993,0-53.234,37.637-54.252,57.303
	c-0.339,4.408-0.339,76.63-0.339,76.63c15.936,20.005,34.585,37.637,55.947,51.878v-84.768c3.391-23.057,17.971-24.752,20.683-14.58
	c3.052,11.529,18.649,31.195,28.143,38.315C365.86,554.045,564.895,287.534,460.8,144.784z"/>
<g>
</g>
<g>
</g>
<g>
</g>
<g>
</g>
<g>
</g>
<g>
</g>
<g>
</g>
<g>
</g>
<g>
</g>
<g>
</g>
<g>
</g>
<g>
</g>
<g>
</g>
<g>
</g>
<g>
</g>
</svg>
