<?xml version="1.0" encoding="iso-8859-1"?>
<!-- Generator: Adobe Illustrator 19.0.0, SVG Export Plug-In . SVG Version: 6.00 Build 0)  -->
<svg version="1.1" id="Layer_1" xmlns="http://www.w3.org/2000/svg" xmlns:xlink="http://www.w3.org/1999/xlink" x="0px" y="0px"
	 viewBox="0 0 509.287 509.287" style="enable-background:new 0 0 509.287 509.287;" xml:space="preserve">
<circle style="fill:#4F5565;" cx="254.644" cy="254.644" r="254.644"/>
<path style="fill:#F1F3F7;" d="M192.254,459.444c0,0,23.057-1.017,38.315-82.734c15.597-81.377,24.413-100.705,37.637-101.383
	c13.224-0.678,31.534,31.534,42.384,100.705c10.85,68.832,20.683,84.429,36.62,84.768c15.936,0,36.62-57.981,50.183-157.669
	c13.224-99.348,42.723-158.008,14.919-210.903c-28.143-53.574-84.768-47.47-179.03-20.344c0,0-139.02-78.326-144.784,54.591
	c-2.034,47.47,22.04,97.314,39.332,181.743C145.123,391.968,154.617,459.105,192.254,459.444z"/>
<g>
	<path style="fill:#FBD303;" d="M336.699,106.13c2.713,0,4.069,0,4.069,0C339.412,106.469,338.056,106.469,336.699,106.13z"/>
	<path style="fill:#FBD303;" d="M336.021,106.13h0.339C336.36,106.13,336.36,106.13,336.021,106.13z"/>
</g>
<path style="fill:#DEDEDF;" d="M166.146,66.458c81.717,34.585,152.244,39.332,169.875,39.672
	c-45.097-2.034-103.078-34.924-103.078-34.924S93.923-7.121,88.159,125.796c-0.339,10.172,0.339,20.005,2.034,30.856
	C90.193,108.842,100.366,38.315,166.146,66.458z"/>
<g>
</g>
<g>
</g>
<g>
</g>
<g>
</g>
<g>
</g>
<g>
</g>
<g>
</g>
<g>
</g>
<g>
</g>
<g>
</g>
<g>
</g>
<g>
</g>
<g>
</g>
<g>
</g>
<g>
</g>
</svg>
