<?xml version="1.0" encoding="iso-8859-1"?>
<!-- Generator: Adobe Illustrator 19.0.0, SVG Export Plug-In . SVG Version: 6.00 Build 0)  -->
<svg version="1.1" id="Capa_1" xmlns="http://www.w3.org/2000/svg" xmlns:xlink="http://www.w3.org/1999/xlink" x="0px" y="0px"
	 viewBox="0 0 512 512" style="enable-background:new 0 0 512 512;" xml:space="preserve">
<path style="fill:#495A79;" d="M377,362H271v-45c0-8.401-6.599-15-15-15s-15,6.599-15,15v45H75c-41.4,0-75,33.6-75,75s33.6,75,75,75
	h121c24.6,0,46.199-11.7,60-30c9.3-12.301,15-28.2,15-45v-45h106c8.401,0,15-6.601,15-15C392,368.599,385.401,362,377,362z M241,437
	c0,24.899-20.099,45-45,45H75c-24.901,0-45-20.101-45-45c0-24.901,20.099-45,45-45h166V437z"/>
<path style="fill:#42516D;" d="M392,377c0,8.399-6.599,15-15,15H271v45c0,16.8-5.7,32.699-15,45V302c8.401,0,15,6.599,15,15v45h106
	C385.401,362,392,368.599,392,377z"/>
<path style="fill:#C5C9F7;" d="M437,452c-41.353,0-75-33.647-75-75s33.647-75,75-75s75,33.647,75,75S478.353,452,437,452z"/>
<path style="fill:#E1E4FB;" d="M437,332c-24.814,0-45,20.186-45,45s20.186,45,45,45s45-20.186,45-45S461.814,332,437,332z"/>
<circle style="fill:#C5C9F7;" cx="437" cy="377" r="15"/>
<path style="fill:#495A79;" d="M107.055,204.302C111.728,241.758,143.72,270,181.469,270H196c8.291,0,15-6.709,15-15
	s-6.709-15-15-15h-14.531c-22.646,0-41.836-16.948-44.648-39.419L130.498,150h-30.231L107.055,204.302z"/>
<path style="fill:#42516D;" d="M382.502,150l-6.323,50.581C373.367,223.052,354.178,240,331.531,240H317c-8.291,0-15,6.709-15,15
	c0,8.291,6.709,15,15,15h14.531c37.749,0,69.741-28.242,74.414-65.698L412.733,150H382.502z"/>
<path style="fill:#E1E4FB;" d="M286,210h-60c-24.901,0-45,20.099-45,45c0,20.4,13.5,39.5,31.8,45.2c5.7,18.3,22.8,31.8,43.2,31.8
	s38.5-13.5,44.2-31.8c18.3-5.7,31.8-24.8,31.8-45.2C332,230.099,310.901,210,286,210z"/>
<path style="fill:#C5C9F7;" d="M332,255c0,20.4-13.5,39.5-31.8,45.2c-5.7,18.3-23.8,31.8-44.2,31.8V210h30
	C310.901,210,332,230.099,332,255z"/>
<path style="fill:#E1E4FB;" d="M174,0h-7.031c-21.504,0-42.497,9.243-56.735,25.371C96.01,41.484,89.389,62.974,92.055,84.302
	L100.267,150h30.231l-8.677-69.419c-1.597-12.803,2.373-25.693,10.913-35.361S154.063,30,166.969,30H174V0z"/>
<path style="fill:#495A79;" d="M189,0h-15v30v15c0,8.291,6.709,15,15,15s15-6.709,15-15V15C204,6.709,197.291,0,189,0z"/>
<path style="fill:#C5C9F7;" d="M402.767,25.371C388.528,9.243,368.035,0,346.531,0H339v30h7.531c12.905,0,25.195,5.552,33.735,15.22
	s12.51,22.559,10.913,35.361L382.502,150h30.231l8.212-65.698C423.611,62.974,416.99,41.484,402.767,25.371z"/>
<path style="fill:#42516D;" d="M324,0c-8.291,0-15,6.709-15,15v30c0,8.291,6.709,15,15,15s15-6.709,15-15V30V0H324z"/>
<g>
</g>
<g>
</g>
<g>
</g>
<g>
</g>
<g>
</g>
<g>
</g>
<g>
</g>
<g>
</g>
<g>
</g>
<g>
</g>
<g>
</g>
<g>
</g>
<g>
</g>
<g>
</g>
<g>
</g>
</svg>
