<?xml version="1.0" encoding="iso-8859-1"?>
<!-- Generator: Adobe Illustrator 19.0.0, SVG Export Plug-In . SVG Version: 6.00 Build 0)  -->
<svg version="1.1" id="Layer_1" xmlns="http://www.w3.org/2000/svg" xmlns:xlink="http://www.w3.org/1999/xlink" x="0px" y="0px"
	 viewBox="0 0 509.287 509.287" style="enable-background:new 0 0 509.287 509.287;" xml:space="preserve">
<circle style="fill:#F0582F;" cx="254.644" cy="254.644" r="254.644"/>
<path style="fill:#74594E;" d="M307.2,355.009H203.105c-29.16,0-52.895-23.735-52.895-52.895V129.187
	c0-18.649,14.919-33.568,33.568-33.568h142.75c18.649,0,33.568,14.919,33.568,33.568v172.927
	C360.095,331.274,336.36,355.009,307.2,355.009z"/>
<rect x="197.34" y="272.615" style="fill:#F7CFA2;" width="114.607" height="119.015"/>
<path style="fill:#FFDFC0;" d="M299.74,147.497c-41.706,54.591-97.314,60.355-123.423,59.338v28.143
	c0,44.079,35.603,79.682,79.682,79.682s79.682-35.603,79.682-79.682v-35.603C300.419,177.335,299.74,147.497,299.74,147.497z"/>
<path style="fill:#F1F3F7;" d="M365.181,129.865H145.462l0,0c0-58.999,47.809-106.469,106.469-106.469h6.442
	C317.372,23.396,365.181,71.205,365.181,129.865L365.181,129.865z"/>
<g>
	<rect x="245.15" y="45.436" style="fill:#F0582F;" width="20.344" height="62.728"/>
	<rect x="223.788" y="66.458" style="fill:#F0582F;" width="62.728" height="20.344"/>
</g>
<path style="fill:#6EB1E1;" d="M254.644,383.491l-61.033-49.505L45.097,399.089c45.775,66.458,122.744,110.199,209.547,110.199
	s163.772-43.74,209.547-110.199l-148.514-65.102L254.644,383.491z"/>
<polygon style="fill:#57A1CE;" points="353.992,350.94 315.677,333.987 254.644,383.491 193.611,333.987 155.974,350.601 
	255.322,439.777 "/>
<path style="fill:#FCFCFD;" d="M322.458,225.483H186.829c-8.477,0-14.919,7.799-12.885,16.276l12.207,51.878
	c1.356,5.764,6.781,10.172,12.885,10.172h110.538c6.103,0,11.529-4.069,12.885-10.172l12.207-51.878
	C337.038,233.282,330.935,225.483,322.458,225.483z"/>
<g>
</g>
<g>
</g>
<g>
</g>
<g>
</g>
<g>
</g>
<g>
</g>
<g>
</g>
<g>
</g>
<g>
</g>
<g>
</g>
<g>
</g>
<g>
</g>
<g>
</g>
<g>
</g>
<g>
</g>
</svg>
