<?xml version="1.0" encoding="iso-8859-1"?>
<!-- Generator: Adobe Illustrator 19.0.0, SVG Export Plug-In . SVG Version: 6.00 Build 0)  -->
<svg version="1.1" id="Layer_1" xmlns="http://www.w3.org/2000/svg" xmlns:xlink="http://www.w3.org/1999/xlink" x="0px" y="0px"
	 viewBox="0 0 509.287 509.287" style="enable-background:new 0 0 509.287 509.287;" xml:space="preserve">
<circle style="fill:#71D456;" cx="254.644" cy="254.644" r="254.644"/>
<g>
	<polygon style="fill:#F1F3F7;" points="499.793,495.046 465.547,480.127 377.049,391.968 386.882,382.135 	"/>
	<path style="fill:#F1F3F7;" d="M386.882,314.321l-77.309,77.309c-5.086,5.086-12.885,5.086-17.971,0L76.63,176.996l95.279-95.279
		L386.543,296.35C391.629,301.436,391.629,309.234,386.882,314.321z"/>
</g>
<rect x="189.981" y="228.109" transform="matrix(-0.7071 -0.7071 0.7071 -0.7071 273.3192 676.5756)" style="fill:#6EB1E1;" width="173.604" height="107.146"/>
<path style="fill:#4F5565;" d="M375.354,325.849l-54.591,54.252l8.477,8.477c5.086,5.086,12.885,5.086,17.971,0l36.62-36.62
	c5.086-5.086,5.086-12.885,0-17.971L375.354,325.849z"/>
<rect x="357.561" y="365.419" transform="matrix(0.7071 -0.7071 0.7071 0.7071 -159.7917 378.9739)" style="fill:#646B79;" width="40.01" height="33.907"/>
<path style="fill:#DEDEDF;" d="M179.37,74.257L69.51,184.456c-6.781,6.781-6.781,17.632,0,24.074c6.781,6.781,17.632,6.781,24.074,0
	l109.86-109.86c6.781-6.781,6.781-17.632,0-24.074C197.001,67.815,186.151,67.815,179.37,74.257z"/>
<rect x="49" y="62.414" transform="matrix(0.7071 -0.7071 0.7071 0.7071 -43.5203 98.0851)" style="fill:#BDBDBE;" width="95.279" height="78.325"/>
<rect x="-6.268" y="61.942" transform="matrix(0.7071 -0.7071 0.7071 0.7071 -29.9434 65.4962)" style="fill:#F1F3F7;" width="140.714" height="13.902"/>
<g>
	
		<rect x="119.126" y="183.394" transform="matrix(0.7071 -0.7071 0.7071 0.7071 -89.3932 159.4508)" style="fill:#646B79;" width="57.303" height="8.477"/>
	
		<rect x="144.51" y="213.926" transform="matrix(0.7071 -0.7071 0.7071 0.7071 -107.0236 177.9509)" style="fill:#646B79;" width="33.568" height="8.477"/>
	
		<rect x="163.318" y="228.082" transform="matrix(0.7071 -0.7071 0.7071 0.7071 -108.0483 203.7881)" style="fill:#646B79;" width="57.303" height="8.477"/>
	
		<rect x="189.245" y="258.885" transform="matrix(0.7071 -0.7071 0.7071 0.7071 -125.7116 222.7513)" style="fill:#646B79;" width="33.568" height="8.477"/>
	
		<rect x="208.051" y="272.703" transform="matrix(0.7071 -0.7071 0.7071 0.7071 -126.499 248.4881)" style="fill:#646B79;" width="57.303" height="8.477"/>
	
		<rect x="234.011" y="303.473" transform="matrix(0.7071 -0.7071 0.7071 0.7071 -144.1284 267.4654)" style="fill:#646B79;" width="33.568" height="8.477"/>
	
		<rect x="252.817" y="317.292" transform="matrix(0.7071 -0.7071 0.7071 0.7071 -144.9158 293.2023)" style="fill:#646B79;" width="57.303" height="8.477"/>
	
		<rect x="278.777" y="348.061" transform="matrix(0.7071 -0.7071 0.7071 0.7071 -162.5452 312.1795)" style="fill:#646B79;" width="33.568" height="8.477"/>
</g>
<g>
</g>
<g>
</g>
<g>
</g>
<g>
</g>
<g>
</g>
<g>
</g>
<g>
</g>
<g>
</g>
<g>
</g>
<g>
</g>
<g>
</g>
<g>
</g>
<g>
</g>
<g>
</g>
<g>
</g>
</svg>
