<?xml version="1.0" encoding="iso-8859-1"?>
<!-- Generator: Adobe Illustrator 19.0.0, SVG Export Plug-In . SVG Version: 6.00 Build 0)  -->
<svg version="1.1" id="Layer_1" xmlns="http://www.w3.org/2000/svg" xmlns:xlink="http://www.w3.org/1999/xlink" x="0px" y="0px"
	 viewBox="0 0 517.09 517.09" style="enable-background:new 0 0 517.09 517.09;" xml:space="preserve">
<g>
	<g>
		<g>
			<circle style="fill:#EDE2D9;" cx="258.545" cy="258.543" r="258.543"/>
			<path style="fill:#F2EBE7;" d="M0.002,258.543c0,142.794,115.753,258.547,258.543,258.547V0
				C115.755,0,0.002,115.753,0.002,258.543z"/>
		</g>
		<g>
			<path style="fill:#ED5145;" d="M439.075,147.166c-0.662-17.013-18.516-21.603-114.19-20.569
				c-95.662,1.029-189.278-24.693-225.285,47.316c-36.007,72.005-23.656,224.269,12.342,220.141
				c36.011-4.111,95.171-67.48,122.946-97.301c27.767-29.825,65.41-24.121,103.376-38.206
				C403.781,234.225,440.109,173.904,439.075,147.166z"/>
			<path style="fill:#F47673;" d="M223.691,133.453c0,0,26.124,39.188,23.323,75.579S142.507,362.073,101.44,341.546
				c0,0,2.796,18.657,27.994,12.125c25.193-6.523,73.713-46.663,95.179-77.453c21.466-30.794,41.062-32.207,67.186-31.964
				c26.124,0.243,105.741-29.868,117.576-71.613c0,0-24.267,34.534-75.587,46.663C282.479,231.424,259.1,143.136,223.691,133.453z"
				/>
		</g>
		<path style="opacity:0.2;fill:#FFFFFF;enable-background:new    ;" d="M0.002,258.543c0,142.794,115.753,258.547,258.543,258.547
			V0C115.755,0,0.002,115.753,0.002,258.543z"/>
	</g>
</g>
<g>
</g>
<g>
</g>
<g>
</g>
<g>
</g>
<g>
</g>
<g>
</g>
<g>
</g>
<g>
</g>
<g>
</g>
<g>
</g>
<g>
</g>
<g>
</g>
<g>
</g>
<g>
</g>
<g>
</g>
</svg>
