<?xml version="1.0" encoding="iso-8859-1"?>
<!-- Generator: Adobe Illustrator 19.0.0, SVG Export Plug-In . SVG Version: 6.00 Build 0)  -->
<svg version="1.1" id="Layer_1" xmlns="http://www.w3.org/2000/svg" xmlns:xlink="http://www.w3.org/1999/xlink" x="0px" y="0px"
	 viewBox="0 0 509.287 509.287" style="enable-background:new 0 0 509.287 509.287;" xml:space="preserve">
<circle style="fill:#FBD303;" cx="254.644" cy="254.644" r="254.644"/>
<polygon style="fill:#8E342D;" points="267.868,118.336 267.868,16.275 241.42,16.275 241.42,118.336 190.22,169.536 
	208.869,188.185 254.644,142.411 300.419,188.185 319.068,169.536 "/>
<g>
	<path style="fill:#F0582F;" d="M187.846,84.09c0,0-120.032,38.654-127.83,283.804c0,0-2.713,60.694,63.746,49.166
		s116.641-38.654,112.911-86.464c-3.73-47.809-9.833-155.634-8.477-178.352C229.213,132.577,231.587,81.717,187.846,84.09z"/>
	<path style="fill:#F0582F;" d="M321.441,84.09c0,0,120.032,38.654,127.83,283.804c0,0,2.713,60.694-63.746,49.166
		s-116.641-38.654-112.911-86.464s9.833-155.634,8.477-178.352C280.074,132.577,277.701,81.717,321.441,84.09z"/>
</g>
<g>
</g>
<g>
</g>
<g>
</g>
<g>
</g>
<g>
</g>
<g>
</g>
<g>
</g>
<g>
</g>
<g>
</g>
<g>
</g>
<g>
</g>
<g>
</g>
<g>
</g>
<g>
</g>
<g>
</g>
</svg>
