<?xml version="1.0" encoding="iso-8859-1"?>
<!-- Generator: Adobe Illustrator 19.0.0, SVG Export Plug-In . SVG Version: 6.00 Build 0)  -->
<svg version="1.1" id="Layer_1" xmlns="http://www.w3.org/2000/svg" xmlns:xlink="http://www.w3.org/1999/xlink" x="0px" y="0px"
	 viewBox="0 0 509.287 509.287" style="enable-background:new 0 0 509.287 509.287;" xml:space="preserve">
<circle style="fill:#6EB1E1;" cx="254.644" cy="254.644" r="254.644"/>
<g>
	<path style="fill:#FBD303;" d="M309.913,399.428c0-31.534-89.176-34.924-95.619-51.2h-27.126
		c5.425,30.856,100.026,38.654,102.4,52.895h20.344C309.573,400.445,309.913,399.767,309.913,399.428z"/>
	<path style="fill:#FBD303;" d="M334.326,277.022c0-42.045-163.094-41.028-163.094-65.102c0-7.46,13.902-3.391,13.902-3.391
		c29.499,15.597,43.062,0,43.062,0c-9.155-18.649-23.057-21.023-33.229-22.379c-13.902-1.695-47.809,1.356-47.809,28.482
		c0,37.976,158.686,40.689,158.686,63.068c0,1.017-0.339,2.034-1.017,3.052h28.821C334.326,279.396,334.326,278.04,334.326,277.022z
		"/>
</g>
<path style="fill:#F8B517;" d="M281.091,208.191c0,0,13.563,15.597,43.062,0c0,0,13.902-4.069,13.902,3.391
	c0,24.413-163.094,23.057-163.094,65.102c0,27.804,66.119,40.35,79.682,44.079c13.563,3.73,41.028,11.868,41.028,25.091
	c0,17.971-95.958,20.344-95.958,53.234c0,33.229,84.768,27.465,84.768,50.861c0,9.833-12.207,18.649-12.207,18.649
	s25.091-10.85,25.091-23.057c0-23.735-77.309-28.821-77.309-43.74c0-15.258,102.739-22.718,102.739-56.286
	c0-44.079-119.693-49.844-119.693-67.815c0-22.379,158.686-25.091,158.686-63.068c0-27.126-33.907-30.177-47.809-28.482
	C304.148,187.168,289.907,189.881,281.091,208.191z"/>
<path style="fill:#646B79;" d="M235.656,111.555c0,0-30.517-11.868-47.809-35.603c-16.954-23.735-69.849,1.695-86.124,12.885
	s-58.66,27.126-87.82,8.477c0,0,10.172,36.62,62.05,32.212c0,0-1.017,23.057,36.62,18.649c0,0,1.017,16.954,31.534,13.563
	c0,0,4.408,15.258,37.298,7.799c0,0,1.695,15.258,53.574,6.781v-64.763H235.656z"/>
<g>
	<path style="fill:#4F5565;" d="M84.429,127.152c0,0,16.275-4.408,38.315-18.31s40.35-16.615,59.338-1.695
		c18.988,14.919,38.993,20.344,38.993,20.344s-23.396-0.678-47.809-15.258C149.192,97.314,117.319,128.848,84.429,127.152z"/>
	<path style="fill:#4F5565;" d="M116.641,146.14c0,0,34.585-21.023,52.217-21.701C168.858,124.44,151.226,135.629,116.641,146.14z"
		/>
	<path style="fill:#4F5565;" d="M147.497,159.703c0,0,24.752-18.31,47.809-24.413C194.967,135.29,160.042,156.991,147.497,159.703z"
		/>
	<path style="fill:#4F5565;" d="M185.134,166.146c0,0,17.632-17.632,35.942-23.396C221.075,142.75,199.375,161.399,185.134,166.146z
		"/>
</g>
<path style="fill:#646B79;" d="M273.632,111.555c0,0,30.517-11.868,47.809-35.603c16.954-23.735,69.849,1.695,86.125,12.885
	s58.66,27.126,87.82,8.477c0,0-10.172,36.62-62.05,32.212c0,0,1.017,23.057-36.62,18.649c0,0-1.017,16.954-31.534,13.563
	c0,0-4.408,15.258-37.298,7.799c0,0-1.695,15.258-53.574,6.781v-64.763H273.632z"/>
<g>
	<path style="fill:#4F5565;" d="M424.858,127.152c0,0-16.276-4.408-38.315-18.31s-40.35-16.615-59.338-1.695
		c-18.988,14.919-38.993,20.344-38.993,20.344s23.396-0.678,47.809-15.258C360.095,97.314,391.968,128.848,424.858,127.152z"/>
	<path style="fill:#4F5565;" d="M392.646,146.14c0,0-34.585-21.023-52.217-21.701C340.429,124.44,358.061,135.629,392.646,146.14z"
		/>
	<path style="fill:#4F5565;" d="M361.791,159.703c0,0-24.752-18.31-47.809-24.413C314.321,135.29,349.245,156.991,361.791,159.703z"
		/>
	<path style="fill:#4F5565;" d="M324.154,166.146c0,0-17.632-17.632-35.942-23.396C288.212,142.75,309.913,161.399,324.154,166.146z
		"/>
	<circle style="fill:#4F5565;" cx="254.644" cy="57.642" r="30.517"/>
	<rect x="241.081" y="78.665" style="fill:#4F5565;" width="27.126" height="403.836"/>
</g>
<g>
	<path style="fill:#FBD303;" d="M309.573,401.123h-20.344c0,0.339,0,0.339,0,0.678c0,14.58-77.309,20.005-77.309,43.74
		c0,12.207,25.091,23.057,25.091,23.057s-12.207-8.477-12.207-18.649C225.144,427.232,306.522,432.318,309.573,401.123z"/>
	<path style="fill:#FBD303;" d="M305.166,280.413c-11.868,15.936-118.336,23.396-118.336,64.763c0,1.017,0,2.034,0.339,2.713h27.126
		c-0.339-0.678-0.339-1.356-0.339-2.034c0-13.224,27.465-21.362,41.028-25.091c12.885-3.73,74.257-15.258,79.343-40.689
		L305.166,280.413L305.166,280.413z"/>
</g>
<g>
</g>
<g>
</g>
<g>
</g>
<g>
</g>
<g>
</g>
<g>
</g>
<g>
</g>
<g>
</g>
<g>
</g>
<g>
</g>
<g>
</g>
<g>
</g>
<g>
</g>
<g>
</g>
<g>
</g>
</svg>
