<?xml version="1.0" encoding="iso-8859-1"?>
<!-- Generator: Adobe Illustrator 19.0.0, SVG Export Plug-In . SVG Version: 6.00 Build 0)  -->
<svg version="1.1" id="Layer_1" xmlns="http://www.w3.org/2000/svg" xmlns:xlink="http://www.w3.org/1999/xlink" x="0px" y="0px"
	 viewBox="0 0 509.287 509.287" style="enable-background:new 0 0 509.287 509.287;" xml:space="preserve">
<path style="fill:#6EB1E1;" d="M509.287,254.644C509.287,113.929,395.359,0,254.644,0S0,113.929,0,254.644
	c0,82.734,39.332,155.974,100.366,202.426h308.556C469.955,410.617,509.287,337.378,509.287,254.644z"/>
<path style="fill:#71D456;" d="M408.922,457.07H100.366c42.723,32.551,96.297,52.217,154.278,52.217
	C312.625,509.287,366.199,489.621,408.922,457.07z"/>
<path style="fill:#DEDEDF;" d="M490.299,201.409H18.988v149.192c17.293,42.384,45.775,79.004,81.377,106.469h308.556
	c35.942-27.465,64.085-64.085,81.378-106.469V201.409z"/>
<path style="fill:#F1F3F7;" d="M426.893,136.646H82.395v305.166c5.764,5.425,11.868,10.511,17.971,15.258h308.556
	c6.103-4.747,12.207-9.833,17.971-15.258V136.646z"/>
<rect x="164.789" y="377.727" style="fill:#646B79;" width="179.709" height="79.343"/>
<g>
	<rect x="120.032" y="175.64" style="fill:#6EB1E1;" width="42.045" height="38.315"/>
	<rect x="195.984" y="175.64" style="fill:#6EB1E1;" width="42.045" height="38.315"/>
	<rect x="271.597" y="175.64" style="fill:#6EB1E1;" width="42.045" height="38.315"/>
	<rect x="347.211" y="175.64" style="fill:#6EB1E1;" width="42.045" height="38.315"/>
	<rect x="120.032" y="239.725" style="fill:#6EB1E1;" width="42.045" height="38.315"/>
	<rect x="195.984" y="239.725" style="fill:#6EB1E1;" width="42.045" height="38.315"/>
	<rect x="271.597" y="239.725" style="fill:#6EB1E1;" width="42.045" height="38.315"/>
	<rect x="347.211" y="239.725" style="fill:#6EB1E1;" width="42.045" height="38.315"/>
	<rect x="120.032" y="303.809" style="fill:#6EB1E1;" width="42.045" height="38.315"/>
	<rect x="195.984" y="303.809" style="fill:#6EB1E1;" width="42.045" height="38.315"/>
	<rect x="271.597" y="303.809" style="fill:#6EB1E1;" width="42.045" height="38.315"/>
	<rect x="347.211" y="303.809" style="fill:#6EB1E1;" width="42.045" height="38.315"/>
</g>
<rect x="155.974" y="366.199" style="fill:#D54232;" width="197.34" height="11.528"/>
<rect x="195.984" y="52.217" style="fill:#FCFCFD;" width="117.658" height="84.429"/>
<g>
	<rect x="246.167" y="63.746" style="fill:#F0582F;" width="16.954" height="61.033"/>
	<rect x="224.127" y="85.785" style="fill:#F0582F;" width="61.033" height="16.954"/>
</g>
<g>
</g>
<g>
</g>
<g>
</g>
<g>
</g>
<g>
</g>
<g>
</g>
<g>
</g>
<g>
</g>
<g>
</g>
<g>
</g>
<g>
</g>
<g>
</g>
<g>
</g>
<g>
</g>
<g>
</g>
</svg>
