<?xml version="1.0" encoding="iso-8859-1"?>
<!-- Generator: Adobe Illustrator 19.0.0, SVG Export Plug-In . SVG Version: 6.00 Build 0)  -->
<svg version="1.1" id="Capa_1" xmlns="http://www.w3.org/2000/svg" xmlns:xlink="http://www.w3.org/1999/xlink" x="0px" y="0px"
	 viewBox="0 0 512 512" style="enable-background:new 0 0 512 512;" xml:space="preserve">
<path style="fill:#10BB67;" d="M512,131.1v309.8c0,39.3-31.8,71.1-71.1,71.1H71.1C31.8,512,0,480.2,0,440.9V131.1
	C0,91.8,31.8,60,71.1,60h369.8C480.2,60,512,91.8,512,131.1z"/>
<path style="fill:#0CA656;" d="M512,131.1v309.8c0,39.3-31.8,71.1-71.1,71.1H256V60h184.9C480.2,60,512,91.8,512,131.1z"/>
<path style="fill:#495A79;" d="M256,0c-74.399,0-135,60.601-135,135c0,8.401,6.599,15,15,15h240c8.401,0,15-6.599,15-15
	C391,60.601,330.399,0,256,0z"/>
<path style="fill:#42516D;" d="M391,135c0,8.401-6.599,15-15,15H256V0C330.399,0,391,60.601,391,135z"/>
<path style="fill:#E1E4FB;" d="M256,30c-52.8,0-96.599,39.3-103.801,90H359.8C352.599,69.3,308.8,30,256,30z"/>
<path style="fill:#C5C9F7;" d="M359.801,120H256V30C308.8,30,352.599,69.3,359.801,120z"/>
<path style="fill:#495A79;" d="M328.299,512H183.701L205.3,403.4c4.799-24,26.1-41.4,50.7-41.4s45.901,17.401,50.7,41.4L328.299,512
	z"/>
<path style="fill:#42516D;" d="M328.299,512H256V362c24.6,0,45.901,17.401,50.7,41.4L328.299,512z"/>
<path style="fill:#E1E4FB;" d="M121,452c-33.091,0-61-26.909-61-60V255c0-39.609,32.39-75,77.377-75
	c24.917,0,48.135,12.319,62.109,32.959c13.96,20.625,16.772,46.758,7.529,69.888l-12.07,31.176C184.233,340.803,181,365.056,181,392
	C181,425.091,154.091,452,121,452z"/>
<path style="fill:#C5C9F7;" d="M392.436,452c-33.091,0-60-26.909-60-60c0-26.944-3.233-51.197-13.945-77.978l-12.07-31.176
	C287.247,234.869,321.153,180,377.436,180c41.353,0,76,33.647,76,75v137C453.436,425.091,425.526,452,392.436,452z"/>
<path style="fill:#10BB67;" d="M265.3,120h-33.6l-19.2-38.401c-3.6-7.2-0.599-16.199,6.901-20.099
	c7.2-3.6,16.199-0.599,20.099,6.901L265.3,120z"/>
<polygon style="fill:#0CA656;" points="265.3,120 256,120 256,101.4 "/>
<g>
</g>
<g>
</g>
<g>
</g>
<g>
</g>
<g>
</g>
<g>
</g>
<g>
</g>
<g>
</g>
<g>
</g>
<g>
</g>
<g>
</g>
<g>
</g>
<g>
</g>
<g>
</g>
<g>
</g>
</svg>
