<?xml version="1.0" encoding="iso-8859-1"?>
<!-- Generator: Adobe Illustrator 19.0.0, SVG Export Plug-In . SVG Version: 6.00 Build 0)  -->
<svg version="1.1" id="Layer_1" xmlns="http://www.w3.org/2000/svg" xmlns:xlink="http://www.w3.org/1999/xlink" x="0px" y="0px"
	 viewBox="0 0 521.7 521.7" style="enable-background:new 0 0 521.7 521.7;" xml:space="preserve">
<g>
	<g>
		<g>
			<circle style="fill:#EDE2D9;" cx="260.85" cy="260.85" r="260.85"/>
			<path style="fill:#F2EBE7;" d="M0,260.854C0,404.914,116.794,521.7,260.854,521.7V0C116.794,0,0,116.79,0,260.854z"/>
		</g>
		<g>
			<path style="fill:#E17567;" d="M221.132,430.772c0,0-8.119-11.677-16.747-5.074c-8.632,6.595-41.118,27.412-43.66-20.305
				c0,0-28.424,12.177-28.937-14.723c0,0-28.429,3.549-23.35-27.412c0,0-26.904-13.706-12.181-32.994
				c0,0-27.925-15.735-11.173-37.056c0,0-25.431-22.342-5.354-43.655c0,0-20.025-30.97,3.321-47.213c0,0-30.449-32.994-1.521-52.287
				c0,0,3.045-49.75,40.61-39.593c0,0,23.355-27.916,53.304,2.033c0,0,36.548-16.756,48.729,22.338c0,0,25.896-22.842,47.721,2.541
				c0,0,13.706-21.322,35.028-13.198c0,0,12.181-33.249,41.114-20.934c0,0,32.486-20.688,49.746,6.216
				c0,0,35.54-5.587,35.028,30.961c0,0,32.994,12.681,11.677,51.775c0,0,20.809,26.4-4.062,56.349c0,0,17.26,24.875-14.714,56.345
				c0,0,14.714,18.276-6.095,42.135c0,0,6.595,30.961-37.061,44.667c0,0-1.008,17.768-52.279,17.26c0,0-14.223,9.644-37.573,6.095
				c0,0-21.825,14.718-20.809,51.262c0,0-13.193-6.065-28.937,0c0,0-14.219-58.378-3.558-80.712s51.779-16.243,51.779-16.243
				s3.549-23.35,31.982-25.383c0,0,8.632-17.255,26.904-15.222c0,0,4.053-25.896,22.842-25.896c0,0-8.632-28.937,5.582-34.011
				c0,0-11.669-30.453,1.525-39.593c0,0-4.574-29.441,6.599-36.04c0,0-13.71-24.362-3.554-31.47c0,0-17.255,11.669-31.982,7.103
				c0,0-9.648,29.441-37.565,27.408c0,0-18.784,14.718-39.589,8.632c0,0-16.243,11.669-44.163-9.14c0,0-33.507,7.111-39.593-15.731
				c0,0-28.433,5.587-37.061-10.661c0,0,12.681,27.916-8.128,44.163c0,0,11.677,24.871,5.083,38.577c0,0,18.784,11.018,8.124,35.712
				c0,0,20.809,13.525,11.165,38.908c0,0,23.355,9.644,22.338,35.531c0,0,25.388,8.628,24.367,29.949
				C215.045,413.512,223.673,418.59,221.132,430.772z"/>
			<g>
				<g>
					<path style="fill:#B2352B;" d="M164.593,400.822c2.972-15.489,15.399-28.614,28.058-36.931c2.05-1.344,0.138-4.639-1.917-3.291
						c-13.452,8.839-26.65,22.76-29.811,39.214C160.458,402.209,164.128,403.23,164.593,400.822L164.593,400.822z"/>
				</g>
				<g>
					<path style="fill:#B2352B;" d="M117.384,360.721c6.504-19.487,30.221-28.67,48.411-31.672c2.425-0.401,1.391-4.062-1.004-3.67
						c-19.672,3.239-44.129,13.508-51.077,34.325C112.935,362.039,116.613,363.034,117.384,360.721L117.384,360.721z"/>
				</g>
				<g>
					<path style="fill:#B2352B;" d="M91.01,294.047c13.43-16.075,39.296-15.33,57.534-11.238c2.391,0.538,3.407-3.14,1.008-3.67
						c-19.525-4.376-46.912-4.928-61.242,12.216C86.755,293.22,89.43,295.929,91.01,294.047L91.01,294.047z"/>
				</g>
				<g>
					<path style="fill:#B2352B;" d="M86.053,242.57c17.049-8.145,37.573-7.142,53.407,3.041c2.063,1.335,3.971-1.968,1.917-3.287
						c-17.04-10.967-38.956-11.776-57.254-3.05C81.913,240.334,83.847,243.621,86.053,242.57L86.053,242.57z"/>
				</g>
				<g>
					<path style="fill:#B2352B;" d="M90.623,199.927c13.809-6.017,30.363-2.718,41.351,7.818c1.77,1.701,4.458-0.986,2.688-2.692
						c-12.28-11.776-30.212-15.278-45.964-8.417C86.453,197.618,88.391,200.9,90.623,199.927L90.623,199.927z"/>
				</g>
				<g>
					<path style="fill:#B2352B;" d="M98.29,138.766c18.918-1.693,33.688,14.046,40.291,30.07c0.926,2.24,4.605,1.258,3.67-1.012
						c-7.215-17.488-23.243-34.717-43.965-32.87C95.865,135.174,95.848,138.982,98.29,138.766L98.29,138.766z"/>
				</g>
				<g>
					<path style="fill:#B2352B;" d="M170.542,118.914c11.014,12.263,11.962,34.201,12.138,49.418c0.034,2.451,3.838,2.451,3.803,0
						c-0.185-16.476-1.456-38.973-13.241-52.111C171.597,114.395,168.909,117.092,170.542,118.914L170.542,118.914z"/>
				</g>
				<g>
					<path style="fill:#B2352B;" d="M227.787,142.053c13.896,8.365,10.885,33.972,8.774,46.58c-0.409,2.404,3.265,3.429,3.666,1.012
						c2.442-14.576,5.152-41.45-10.51-50.883C227.597,137.5,225.685,140.791,227.787,142.053L227.787,142.053z"/>
				</g>
				<g>
					<path style="fill:#B2352B;" d="M273.807,143.914c7.676,14.925,6.595,33.339,0,48.333c-0.986,2.223,2.296,4.165,3.282,1.921
						c7.189-16.334,8.369-35.919,0-52.175C275.965,139.809,272.687,141.73,273.807,143.914L273.807,143.914z"/>
				</g>
				<g>
					<path style="fill:#B2352B;" d="M309.506,133.425c15.003,10.174,15.838,31.371,11.824,47.092
						c-0.612,2.382,3.063,3.386,3.674,1.008c4.484-17.561,2.942-40.188-13.568-51.396
						C309.394,128.756,307.495,132.055,309.506,133.425L309.506,133.425z"/>
				</g>
				<g>
					<path style="fill:#B2352B;" d="M350.069,110.269c19.198,3.39,26.318,25.586,27.024,42.298c0.103,2.442,3.915,2.455,3.812,0
						c-0.784-18.306-8.899-42.273-29.833-45.968C348.682,106.168,347.656,109.838,350.069,110.269L350.069,110.269z"/>
				</g>
				<g>
					<path style="fill:#B2352B;" d="M423.044,141.993c-6.931,12.216-23.044,19.568-35.411,24.255
						c-2.274,0.853-1.284,4.54,1.004,3.67c13.336-5.048,30.238-12.862,37.694-25.999
						C427.545,141.773,424.254,139.856,423.044,141.993L423.044,141.993z"/>
				</g>
				<g>
					<path style="fill:#B2352B;" d="M385.66,202.378c16.859,10.837,38.62,8.688,55.72,0c2.192-1.116,0.267-4.398-1.917-3.295
						c-15.924,8.089-36.203,10.084-51.891,0C385.505,197.76,383.597,201.055,385.66,202.378L385.66,202.378z"/>
				</g>
				<g>
					<path style="fill:#B2352B;" d="M380.918,236.156c11.027,16.747,32.447,22.734,51.391,20.37c2.408-0.297,2.429-4.109,0-3.808
						c-17.518,2.184-37.814-2.856-48.1-18.483C382.856,232.197,379.557,234.101,380.918,236.156L380.918,236.156z"/>
				</g>
				<g>
					<path style="fill:#B2352B;" d="M380.72,274.927c6.573,15.619,20.494,30.031,38.383,29.829c2.455-0.026,2.464-3.834,0-3.808
						c-16.226,0.181-29.157-13.831-34.713-27.029C383.455,271.692,379.768,272.67,380.72,274.927L380.72,274.927z"/>
				</g>
				<g>
					<path style="fill:#B2352B;" d="M374.121,309.45c4.247,17.69,18.229,32.87,36.359,36.1c2.399,0.431,3.42-3.239,1.004-3.674
						c-16.893-3.007-29.738-16.954-33.692-33.442C377.218,306.052,373.552,307.064,374.121,309.45L374.121,309.45z"/>
				</g>
				<g>
					<path style="fill:#B2352B;" d="M348.738,334.33c-5.005,19.241,4.325,38.318,20.68,48.596c2.08,1.309,3.993-1.986,1.917-3.295
						c-14.886-9.347-23.479-26.788-18.927-44.297C353.028,332.96,349.362,331.952,348.738,334.33L348.738,334.33z"/>
				</g>
				<g>
					<path style="fill:#B2352B;" d="M321.821,348.208c-12.289,14.611-3.924,38.486,3.256,53.067
						c1.081,2.205,4.363,0.271,3.295-1.917c-6.259-12.694-14.83-35.415-3.859-48.458
						C326.077,349.031,323.402,346.326,321.821,348.208L321.821,348.208z"/>
				</g>
				<g>
					<path style="fill:#B2352B;" d="M288.697,373.29c-12.659,8.615-6.552,27.068-0.681,37.629c1.193,2.149,4.484,0.228,3.291-1.921
						c-4.639-8.352-11.333-25.177-0.681-32.422C292.638,375.202,290.73,371.898,288.697,373.29L288.697,373.29z"/>
				</g>
			</g>
		</g>
		<path style="opacity:0.2;fill:#FFFFFF;enable-background:new    ;" d="M0,260.854C0,404.914,116.794,521.7,260.854,521.7V0
			C116.794,0,0,116.79,0,260.854z"/>
	</g>
</g>
<g>
</g>
<g>
</g>
<g>
</g>
<g>
</g>
<g>
</g>
<g>
</g>
<g>
</g>
<g>
</g>
<g>
</g>
<g>
</g>
<g>
</g>
<g>
</g>
<g>
</g>
<g>
</g>
<g>
</g>
</svg>
