<?xml version="1.0" encoding="iso-8859-1"?>
<!-- Generator: Adobe Illustrator 19.0.0, SVG Export Plug-In . SVG Version: 6.00 Build 0)  -->
<svg version="1.1" id="Capa_1" xmlns="http://www.w3.org/2000/svg" xmlns:xlink="http://www.w3.org/1999/xlink" x="0px" y="0px"
	 viewBox="0 0 512 512" style="enable-background:new 0 0 512 512;" xml:space="preserve">
<circle style="fill:#662E57;" cx="256" cy="256" r="256"/>
<path style="fill:#590F38;" d="M262.264,511.921C397.97,508.661,507.5,399.798,511.85,264.365L365.165,117.681l-18.868,9.06
	L281.47,61.913L90,285.88l62.031,62.031l-24.943,12.617l69.323,69.323l-8.23,7.986L262.264,511.921z"/>
<path style="fill:#35CCFF;" d="M384.913,216.296v-50.94h-27.761c-2.524-9.988-6.484-19.402-11.65-28.012l19.663-19.663l-36.02-36.02
	l-19.663,19.663c-8.611-5.165-18.025-9.126-28.013-11.65V61.913h-50.94v27.652c-10.045,2.491-19.516,6.433-28.179,11.592
	L182.853,81.66l-36.02,36.02l19.382,19.382c-5.247,8.686-9.265,18.198-11.816,28.294h-27.314v50.94h27.205
	c2.518,10.154,6.517,19.722,11.759,28.46l-19.216,19.217l36.02,36.02l19.217-19.217c8.738,5.242,18.306,9.241,28.459,11.758v27.205
	h50.94v-27.314c10.096-2.551,19.607-6.568,28.293-11.815l19.383,19.383l36.02-36.019l-19.498-19.498
	c5.16-8.663,9.102-18.134,11.593-28.179L384.913,216.296L384.913,216.296z M256,238.454c-25.811,0-46.735-20.924-46.735-46.735
	s20.924-46.735,46.735-46.735s46.735,20.924,46.735,46.735S281.811,238.454,256,238.454z"/>
<path style="fill:#00BAFF;" d="M384.913,216.295v-50.94h-27.761c-2.523-9.988-6.484-19.402-11.649-28.012l19.663-19.663
	l-36.02-36.02l-19.663,19.663c-8.611-5.165-18.025-9.126-28.013-11.65v-27.76h-25.803v83.08c0.112-0.001,0.221-0.008,0.333-0.008
	c25.811,0,46.735,20.924,46.735,46.735S281.811,238.455,256,238.455c-0.112,0-0.222-0.008-0.334-0.008v81.293h25.803v-27.314
	c10.096-2.551,19.607-6.568,28.293-11.815l19.383,19.383l36.02-36.019l-19.498-19.498c5.16-8.663,9.102-18.134,11.593-28.179h27.653
	V216.295z"/>
<path style="fill:#FFECB3;" d="M123.606,155c-5.351,15.06-8.27,31.256-8.27,48.088v9.157L90,285.88l25.337,3.744v42.113
	c0,22.739,18.433,41.172,41.172,41.172h31.671v64.926h130.643V328.511c46.891-23,79.177-71.205,79.177-126.957
	c0-16.312-2.772-31.975-7.857-46.554L123.606,155L123.606,155z"/>
<path style="fill:#FFD863;" d="M390.143,155H255.667v282.836h63.156V328.511c46.891-23,79.177-71.205,79.177-126.957
	C398,185.242,395.228,169.579,390.143,155z"/>
<path style="fill:#35CCFF;" d="M438.962,306.321v-31.86h-17.363c-1.578-6.247-4.056-12.135-7.286-17.52l12.298-12.298
	l-22.528-22.528l-12.298,12.298c-5.385-3.23-11.273-5.708-17.52-7.286v-17.363h-31.86v17.295c-6.283,1.558-12.206,4.023-17.624,7.25
	l-12.194-12.194l-22.528,22.528l12.122,12.122c-3.282,5.433-5.795,11.382-7.39,17.696h-17.083v31.86h17.015
	c1.575,6.35,4.076,12.335,7.355,17.8l-12.019,12.019l22.528,22.528l12.019-12.019c5.465,3.278,11.449,5.779,17.799,7.354v17.015
	h31.86v-17.083c6.314-1.595,12.263-4.108,17.696-7.39l12.123,12.123l22.528-22.528l-12.194-12.195
	c3.227-5.418,5.693-11.342,7.251-17.624L438.962,306.321L438.962,306.321z M358.335,320.18c-16.143,0-29.23-13.087-29.23-29.23
	s13.087-29.23,29.23-29.23s29.23,13.087,29.23,29.23C387.564,307.093,374.478,320.18,358.335,320.18z"/>
<path style="fill:#00BAFF;" d="M438.962,306.321v-31.859h-17.363c-1.578-6.247-4.056-12.135-7.286-17.52l12.298-12.298
	l-22.528-22.528l-12.298,12.298c-5.385-3.23-11.273-5.708-17.52-7.286v-17.363h-15.931v51.956h0.001
	c16.143,0,29.23,13.087,29.23,29.23s-13.086,29.23-29.229,29.23h-0.001v50.838h15.931v-17.083c6.314-1.595,12.263-4.108,17.696-7.39
	l12.123,12.123l22.528-22.528l-12.195-12.195c3.227-5.418,5.693-11.342,7.251-17.624L438.962,306.321L438.962,306.321z"/>
<g>
</g>
<g>
</g>
<g>
</g>
<g>
</g>
<g>
</g>
<g>
</g>
<g>
</g>
<g>
</g>
<g>
</g>
<g>
</g>
<g>
</g>
<g>
</g>
<g>
</g>
<g>
</g>
<g>
</g>
</svg>
