<?xml version="1.0" encoding="iso-8859-1"?>
<!-- Generator: Adobe Illustrator 19.0.0, SVG Export Plug-In . SVG Version: 6.00 Build 0)  -->
<svg version="1.1" id="Layer_1" xmlns="http://www.w3.org/2000/svg" xmlns:xlink="http://www.w3.org/1999/xlink" x="0px" y="0px"
	 viewBox="0 0 521.146 521.146" style="enable-background:new 0 0 521.146 521.146;" xml:space="preserve">
<g>
	<g>
		<g>
			<circle style="fill:#EDE2D9;" cx="260.573" cy="260.573" r="260.573"/>
			<path style="fill:#F2EBE7;" d="M0.004,260.573c0,143.911,116.662,260.573,260.573,260.573V0.004
				C116.666,0.004,0.004,116.666,0.004,260.573z"/>
		</g>
		<g>
			<path style="fill:#ED5145;" d="M382.802,258.439c-28.962-26.066-97.493-68.535-55.024-81.086
				c42.473-12.547,48.639-20.034,39.577-29.917c-12.883-14.053-68.535-7.672-75.712-15.378
				c-7.177-7.711,16.828-56.005,16.828-56.005l-27.994-4.823c0,0-2.896,54.052-14.479,54.052s-6.755-54.052-6.755-54.052
				c-8.692,6.755-27.994,0-27.994,0s20.27,57.911,6.755,57.911c-13.511,0-26.058-48.26-26.058-48.26
				c-5.796,9.651-18.394,10.615-18.394,10.615c11.532,17.375,6.811,49.409,6.811,49.409c-17.37,18.519-13.171,51.969-13.171,51.969
				l0.073,0.009c-1.704,17.943,8.154,55.282,0.551,71.655c-10.624,22.856-34.749,62.434-5.792,109.73s97.075,115.238,200.777,46.337
				C440.697,382.136,411.76,284.501,382.802,258.439z"/>
			<path style="fill:#ED5145;" d="M184.43,155.903c0,0,11.833-21.716-16.153-22.684c-27.994-0.964-20.051,47.215-25.834,68.458
				c-5.8,21.234-48.264,55.02-42.477,101.348c5.8,46.333,63.712,55.02,63.712,55.02s-15.929-40.455,2.41-73.272
				c18.343-32.822,21.721-31.94,14.961-57.034C174.293,202.636,184.43,155.903,184.43,155.903z"/>
			<path style="fill:#ED5145;" d="M349.649,177.464c9.569-0.125,18.02,19.307,38.618,15.447
				c20.589-3.864,26.755-10.297,26.755-10.297s2.203,16.092,6.712,18.661c0,0-34.758,6.437-30.894,13.515
				c3.864,7.074,24.182,15.438,24.182,15.438s-14.535,17.487-11.957,24.509c0,0-63.707-36.096-72.072-48.966
				C322.628,192.911,326.453,177.778,349.649,177.464z"/>
			<path style="fill:#DD423A;" d="M333.561,415.564c12.323,18.485-33.639-39.16-41.914-57.709
				c-8.283-18.549-24.694,22.96-24.694,34.534c0,0-4.823-18.339,8.696-48.256c0,0-5.792-43.441-16.415-61.78
				c-10.611-18.339-36.677,37.645-36.677,56.948c0,0,2.896-58.884,26.066-75.29c0,0-16.407-60.811-8.687-80.118
				c7.719-19.302,19.298-31.854,19.298-31.854s-13.511,25.098-10.611,49.228c2.896,24.13,7.724,44.358,7.724,44.358
				s43.432-0.921,57.916,15.486c0,0-43.445-9.849-52.128-6.368c0,0,6.76,21.82,15.925,47.877
				c9.169,26.062,34.267,34.749,55.502,38.613c0,0-32.671,0-41.914-8.692C291.648,332.55,325.842,403.981,333.561,415.564z"/>
		</g>
		<path style="opacity:0.2;fill:#FFFFFF;enable-background:new    ;" d="M0.004,260.573c0,143.911,116.662,260.573,260.573,260.573
			V0.004C116.666,0.004,0.004,116.666,0.004,260.573z"/>
	</g>
</g>
<g>
</g>
<g>
</g>
<g>
</g>
<g>
</g>
<g>
</g>
<g>
</g>
<g>
</g>
<g>
</g>
<g>
</g>
<g>
</g>
<g>
</g>
<g>
</g>
<g>
</g>
<g>
</g>
<g>
</g>
</svg>
