<?xml version="1.0" encoding="iso-8859-1"?>
<!-- Generator: Adobe Illustrator 19.0.0, SVG Export Plug-In . SVG Version: 6.00 Build 0)  -->
<svg version="1.1" id="Capa_1" xmlns="http://www.w3.org/2000/svg" xmlns:xlink="http://www.w3.org/1999/xlink" x="0px" y="0px"
	 viewBox="0 0 512 512" style="enable-background:new 0 0 512 512;" xml:space="preserve">
<circle style="fill:#004EB0;" cx="256" cy="256" r="256"/>
<path style="fill:#002D6B;" d="M511.939,260.846L418.34,167c-5.08-5.672-12.456-9.244-20.67-9.244h-2.701l-7.668-8.488
	c-1.154-1.312-2.843-2.143-4.718-2.143h-4.622l-60.238-60.27C312.4,81.396,304.976,78,296.769,78h-81.538
	c-16.152,0-29.293,13.141-29.293,29.293v26.1l6.677,5.124v19.239h-21.887l-7.56-8.361c-1.156-1.385-2.892-2.27-4.826-2.27h-28.925
	c-3.464,0-6.298,2.834-6.298,6.298v4.333h-8.789c-15.326,0-27.75,12.424-27.75,27.75v187.078c0,6.657,2.346,12.763,6.255,17.544
	l117.991,117.898C225.49,510.636,240.586,512,256,512C395.765,512,509.353,399.993,511.939,260.846z"/>
<path style="fill:#C8C6CC;" d="M164.64,153.422c0-3.464-2.834-6.298-6.298-6.298h-28.925c-3.464,0-6.298,2.834-6.298,6.298v7.739
	h41.521V153.422z"/>
<path style="fill:#8B8992;" d="M388.881,153.422c0-3.464-2.834-6.298-6.298-6.298h-28.925c-3.464,0-6.298,2.834-6.298,6.298v7.739
	h41.521V153.422z"/>
<rect x="192.62" y="131.56" style="fill:#C8C6CC;" width="21.4" height="29.92"/>
<rect x="297.99" y="131.56" style="fill:#8B8992;" width="21.4" height="29.92"/>
<path style="fill:#FFFFFF;" d="M397.67,400.333H114.33c-15.326,0-27.75-12.424-27.75-27.75V185.505
	c0-15.326,12.424-27.75,27.75-27.75h283.34c15.326,0,27.75,12.424,27.75,27.75v187.078
	C425.42,387.909,412.996,400.333,397.67,400.333z"/>
<path style="fill:#C8C6CC;" d="M425.42,185.51v187.07c0,15.33-12.42,27.75-27.75,27.75H256V157.76h141.67
	C413,157.76,425.42,170.18,425.42,185.51z"/>
<polygon style="fill:#E02424;" points="280.692,254.353 280.692,204.385 231.308,204.385 231.308,254.353 181.34,254.353 
	181.34,303.736 231.308,303.736 231.308,353.704 280.692,353.704 280.692,303.736 330.66,303.736 330.66,254.353 "/>
<polygon style="fill:#990011;" points="330.66,254.35 330.66,303.74 280.69,303.74 280.69,353.7 256,353.7 256,204.38 
	280.69,204.38 280.69,254.35 "/>
<path style="fill:#FFFFFF;" d="M326.062,133.393h-34.754v-20.639h-70.615v20.639h-34.754v-26.1c0-16.152,13.14-29.293,29.293-29.293
	h81.538c16.152,0,29.293,13.141,29.293,29.293v26.1H326.062z"/>
<path style="fill:#C8C6CC;" d="M326.06,107.29v26.1h-34.75v-20.64H256V78h40.77C312.92,78,326.06,91.14,326.06,107.29z"/>
<g>
</g>
<g>
</g>
<g>
</g>
<g>
</g>
<g>
</g>
<g>
</g>
<g>
</g>
<g>
</g>
<g>
</g>
<g>
</g>
<g>
</g>
<g>
</g>
<g>
</g>
<g>
</g>
<g>
</g>
</svg>
