<?xml version="1.0" encoding="iso-8859-1"?>
<!-- Generator: Adobe Illustrator 19.0.0, SVG Export Plug-In . SVG Version: 6.00 Build 0)  -->
<svg version="1.1" id="Capa_1" xmlns="http://www.w3.org/2000/svg" xmlns:xlink="http://www.w3.org/1999/xlink" x="0px" y="0px"
	 viewBox="0 0 426.675 426.675" style="enable-background:new 0 0 426.675 426.675;" xml:space="preserve">
<rect x="243.846" y="155.051" style="fill:#D5D6DB;" width="146.927" height="256.896"/>
<polygon style="fill:#E56353;" points="397.566,119.752 411.901,155.061 222.716,155.061 236.347,119.752 "/>
<rect x="36.396" y="49.911" style="fill:#E1E6E9;" width="207.68" height="363.136"/>
<rect x="87.05" y="288.341" style="fill:#64798A;" width="107.985" height="124.715"/>
<rect x="136.582" y="281.566" style="fill:#E1E6E9;" width="9.178" height="131.482"/>
<g>
	<rect x="127.272" y="342.016" style="fill:#3A556A;" width="4.318" height="21.803"/>
	<rect x="151.302" y="342.016" style="fill:#3A556A;" width="4.318" height="21.803"/>
</g>
<g>
	<rect x="11.573" y="413.056" style="fill:#CE412D;" width="408.576" height="13.619"/>
	<rect x="133.211" y="62.66" style="fill:#CE412D;" width="15.629" height="70.387"/>
	<rect x="105.845" y="90.027" style="fill:#CE412D;" width="70.387" height="15.629"/>
</g>
<rect x="65.683" y="155.78" style="fill:#2D93BA;" width="150.229" height="17.331"/>
<polygon style="fill:#27A2DB;" points="65.681,173.112 65.681,155.78 215.914,155.78 "/>
<rect x="65.683" y="181.751" style="fill:#2D93BA;" width="150.229" height="17.331"/>
<polygon style="fill:#27A2DB;" points="65.681,199.085 65.681,181.752 215.914,181.752 "/>
<rect x="65.683" y="207.723" style="fill:#2D93BA;" width="150.229" height="17.331"/>
<polygon style="fill:#27A2DB;" points="65.681,225.057 65.681,207.724 215.914,207.724 "/>
<rect x="65.683" y="233.698" style="fill:#2D93BA;" width="150.229" height="17.331"/>
<polygon style="fill:#27A2DB;" points="65.681,251.03 65.681,233.697 215.914,233.697 "/>
<polygon style="fill:#E56353;" points="253.681,0 273.944,49.911 6.526,49.911 25.795,0 "/>
<rect x="264.923" y="174.084" style="fill:#2D93BA;" width="37.683" height="32.666"/>
<polygon style="fill:#27A2DB;" points="264.934,206.751 264.934,174.086 302.618,174.086 "/>
<rect x="327.942" y="174.084" style="fill:#2D93BA;" width="37.683" height="32.666"/>
<polygon style="fill:#27A2DB;" points="327.949,206.751 327.949,174.086 365.633,174.086 "/>
<rect x="265.947" y="222.208" style="fill:#2D93BA;" width="37.683" height="32.666"/>
<polygon style="fill:#27A2DB;" points="265.947,254.859 265.947,222.194 303.631,222.194 "/>
<rect x="328.966" y="222.208" style="fill:#2D93BA;" width="37.683" height="32.666"/>
<polygon style="fill:#27A2DB;" points="328.961,254.859 328.961,222.194 366.645,222.194 "/>
<rect x="266.971" y="270.293" style="fill:#2D93BA;" width="37.683" height="32.666"/>
<polygon style="fill:#27A2DB;" points="266.959,302.967 266.959,270.302 304.643,270.302 "/>
<rect x="329.99" y="270.293" style="fill:#2D93BA;" width="37.683" height="32.666"/>
<polygon style="fill:#27A2DB;" points="329.974,302.967 329.974,270.302 367.658,270.302 "/>
<rect x="267.97" y="318.421" style="fill:#2D93BA;" width="37.683" height="32.666"/>
<polygon style="fill:#27A2DB;" points="267.972,351.075 267.972,318.41 305.656,318.41 "/>
<rect x="330.971" y="318.421" style="fill:#2D93BA;" width="37.683" height="32.666"/>
<polygon style="fill:#27A2DB;" points="330.986,351.075 330.986,318.41 368.67,318.41 "/>
<rect x="268.977" y="366.507" style="fill:#2D93BA;" width="37.683" height="32.666"/>
<polygon style="fill:#27A2DB;" points="268.984,399.183 268.984,366.518 306.668,366.518 "/>
<rect x="331.995" y="366.507" style="fill:#2D93BA;" width="37.683" height="32.666"/>
<polygon style="fill:#27A2DB;" points="331.999,399.183 331.999,366.518 369.683,366.518 "/>
<g>
</g>
<g>
</g>
<g>
</g>
<g>
</g>
<g>
</g>
<g>
</g>
<g>
</g>
<g>
</g>
<g>
</g>
<g>
</g>
<g>
</g>
<g>
</g>
<g>
</g>
<g>
</g>
<g>
</g>
</svg>
