<?xml version="1.0" encoding="iso-8859-1"?>
<!-- Generator: Adobe Illustrator 19.0.0, SVG Export Plug-In . SVG Version: 6.00 Build 0)  -->
<svg version="1.1" id="Layer_1" xmlns="http://www.w3.org/2000/svg" xmlns:xlink="http://www.w3.org/1999/xlink" x="0px" y="0px"
	 viewBox="0 0 512 512" style="enable-background:new 0 0 512 512;" xml:space="preserve">
<path style="fill:#EFC75E;" d="M256,0c141.384,0,256,114.616,256,256S397.384,512,256,512S0,397.384,0,256S114.616,0,256,0z"/>
<g>
	<path style="fill:#F2F1EF;" d="M133.12,480.609V225.28H1.9C0.691,235.361,0,245.596,0,256C0,352.85,53.791,437.12,133.12,480.609z
		 M378.88,225.28v255.329C458.204,437.12,512,352.85,512,256c0-10.404-0.696-20.639-1.9-30.72L378.88,225.28L378.88,225.28z"/>
</g>
<g>
	<path style="fill:#E2574C;" d="M504.525,194.56H378.88c-5.652,0-10.24,4.588-10.24,10.24v10.24c0,5.652,4.588,10.24,10.24,10.24
		H510.1C508.851,214.835,506.993,204.58,504.525,194.56z M133.12,194.56H7.475c-2.468,10.02-4.326,20.275-5.576,30.72h131.22
		c5.652,0,10.24-4.588,10.24-10.24V204.8C143.36,199.148,138.772,194.56,133.12,194.56z M394.24,143.36v-10.24
		c0-5.652-4.588-10.24-10.24-10.24H128c-5.652,0-10.24,4.588-10.24,10.24v10.24c0,5.652,4.588,10.24,10.24,10.24h256
		C389.652,153.6,394.24,149.012,394.24,143.36z"/>
</g>
<path style="fill:#F2F1EF;" d="M378.88,153.6H133.12v327.009C169.6,500.608,211.466,512,256,512s86.4-11.392,122.88-31.391V153.6
	L378.88,153.6z"/>
<path style="fill:#C2C1BF;" d="M184.32,501.755C207.073,508.38,231.107,512,256,512c24.888,0,48.927-3.62,71.68-10.245V409.6H184.32
	V501.755z"/>
<path style="fill:#CFCDCB;" d="M256,87.04c28.273,0,51.2,22.927,51.2,51.2c0,28.278-22.927,51.2-51.2,51.2s-51.2-22.922-51.2-51.2
	C204.8,109.967,227.727,87.04,256,87.04z"/>
<path style="fill:#CC5248;" d="M307.2,138.24c0-5.35-0.829-10.511-2.35-15.36h-97.7c-1.521,4.849-2.35,10.01-2.35,15.36
	c0,5.35,0.829,10.511,2.35,15.36h97.7C306.371,148.751,307.2,143.59,307.2,138.24z"/>
<path style="fill:#D9D8D7;" d="M133.12,153.6h245.76v15.36H133.12V153.6z"/>
<path style="fill:#BAB8B6;" d="M215.112,168.96h81.782c3.456-4.593,6.195-9.754,7.962-15.36H207.15
	C208.911,159.206,211.656,164.367,215.112,168.96z"/>
<path style="fill:#CBCAC9;" d="M184.32,501.755c13.773,4.009,28.017,6.912,42.645,8.561L327.68,409.6H184.32V501.755z"/>
<path style="fill:#AEADAC;" d="M250.88,419.84h10.24V512h-10.24V419.84z"/>
<path style="fill:#B6B5B5;" d="M194.56,419.84h122.88v15.36H194.56V419.84z"/>
<path style="fill:#D7D6D4;" d="M271.36,460.8v20.48h10.24V460.8H271.36z M230.4,481.28h10.24V460.8H230.4V481.28z"/>
<path style="fill:#FFFFFF;" d="M256,76.8c28.273,0,51.2,22.927,51.2,51.2c0,28.278-22.927,51.2-51.2,51.2s-51.2-22.922-51.2-51.2
	C204.8,99.727,227.727,76.8,256,76.8z"/>
<path style="fill:#E2574C;" d="M276.48,117.76h-10.24v-10.24c0-2.826-2.289-5.12-5.12-5.12h-10.24c-2.831,0-5.12,2.294-5.12,5.12
	v10.24h-10.24c-2.831,0-5.12,2.294-5.12,5.12v10.24c0,2.831,2.289,5.12,5.12,5.12h10.24v10.24c0,2.831,2.289,5.12,5.12,5.12h10.24
	c2.831,0,5.12-2.289,5.12-5.12v-10.24h10.24c2.831,0,5.12-2.289,5.12-5.12v-10.24C281.6,120.054,279.311,117.76,276.48,117.76z"/>
<path style="fill:#4ABEE5;" d="M163.84,271.36h40.96v-51.2h-40.96V271.36z M235.52,271.36h40.96v-51.2h-40.96V271.36z M307.2,220.16
	v51.2h40.96v-51.2H307.2z M163.84,353.28h40.96v-51.2h-40.96V353.28z M235.52,353.28h40.96v-51.2h-40.96V353.28z M307.2,353.28
	h40.96v-51.2H307.2V353.28z"/>
<path style="fill:#6ECBEA;" d="M163.84,271.36l40.96-51.2h-40.96V271.36z M163.84,353.28l40.96-51.2h-40.96V353.28z M235.52,353.28
	l40.96-51.2h-40.96V353.28z M307.2,353.28l40.96-51.2H307.2V353.28z M307.2,220.16v51.2l40.96-51.2H307.2z M235.52,271.36
	l40.96-51.2h-40.96V271.36z"/>
<path style="fill:#B6B5B5;" d="M261.12,476.16v-56.32h-10.24v66.56L261.12,476.16z"/>
<path style="fill:#D6D6D5;" d="M174.08,498.529c6.712,2.263,13.532,4.285,20.48,5.995V414.72h-20.48V498.529z"/>
<path style="fill:#A3A3A3;" d="M250.88,419.84h10.24v15.36h-10.24V419.84z"/>
<g>
	<path style="fill:#D9D8D7;" d="M378.88,480.609c2.104-1.152,4.163-2.371,6.231-3.579l14.249-251.75h-20.48V480.609z
		 M126.889,477.03c2.068,1.208,4.127,2.432,6.231,3.579V225.28h-20.48L126.889,477.03z"/>
</g>
<g>
	<path style="fill:#4ABEE5;" d="M419.84,332.8v35.84h66.068c5.642-11.489,10.465-23.455,14.356-35.84H419.84z M419.84,261.12v35.84
		h88.858c1.879-11.699,2.929-23.67,3.169-35.84H419.84z M419.84,404.48v35.84h13.722c11.372-10.962,21.719-22.948,30.915-35.84
		H419.84z M3.302,296.96H92.16v-35.84H0.128C0.369,273.29,1.418,285.261,3.302,296.96z M92.16,332.8H11.735
		c3.891,12.385,8.714,24.351,14.351,35.84H92.16V332.8z M92.16,404.48H47.524c9.196,12.892,19.543,24.878,30.92,35.84H92.16V404.48z
		"/>
</g>
<g>
	<path style="fill:#6ECBEA;" d="M419.84,261.12v35.84l92.032-35.789v-0.051L419.84,261.12z M419.84,332.8v35.84l78.643-30.587
		l1.782-5.253H419.84z M464.476,404.48H419.84v35.84l22.298-8.673C450.191,423.122,457.651,414.049,464.476,404.48z M11.735,332.8
		c2.934,9.329,6.431,18.406,10.368,27.244L92.16,332.8C92.16,332.8,11.735,332.8,11.735,332.8z M3.087,295.762L92.16,261.12H0.128
		C0.358,272.876,1.321,284.447,3.087,295.762z M92.16,404.48H47.524c3.261,4.572,6.63,9.062,10.179,13.399L92.16,404.48z"/>
</g>
<path style="fill:#FBFBFA;" d="M317.44,504.525c6.943-1.71,13.768-3.732,20.48-5.995V414.72h-20.48V504.525z"/>
<path style="fill:#D6D6D5;" d="M327.68,501.755c3.446-1.004,6.856-2.079,10.24-3.226V414.72h-10.24V501.755z"/>
<path style="fill:#FBFBFA;" d="M184.32,501.755c3.389,0.983,6.794,1.925,10.24,2.77V414.72h-10.24V501.755z"/>
<path style="fill:#E2574C;" d="M174.08,399.36h163.84c5.652,0,10.24,4.588,10.24,10.24c0,5.658-4.588,10.24-10.24,10.24H174.08
	c-5.652,0-10.24-4.582-10.24-10.24C163.84,403.948,168.428,399.36,174.08,399.36z"/>
<g>
</g>
<g>
</g>
<g>
</g>
<g>
</g>
<g>
</g>
<g>
</g>
<g>
</g>
<g>
</g>
<g>
</g>
<g>
</g>
<g>
</g>
<g>
</g>
<g>
</g>
<g>
</g>
<g>
</g>
</svg>
