<?xml version="1.0" encoding="iso-8859-1"?>
<!-- Generator: Adobe Illustrator 19.0.0, SVG Export Plug-In . SVG Version: 6.00 Build 0)  -->
<svg version="1.1" id="Layer_1" xmlns="http://www.w3.org/2000/svg" xmlns:xlink="http://www.w3.org/1999/xlink" x="0px" y="0px"
	 viewBox="0 0 509.287 509.287" style="enable-background:new 0 0 509.287 509.287;" xml:space="preserve">
<circle style="fill:#886C60;" cx="254.644" cy="254.644" r="254.644"/>
<g>
	<path style="fill:#F7CFA2;" d="M141.054,279.057v-51.878c0-10.172-8.138-18.31-18.31-18.31l0,0c-10.172,0-18.31,8.138-18.31,18.31
		v62.728H88.498v-62.728c0-15.597,10.511-28.821,24.413-32.89v-61.711c0-17.971-14.58-32.89-32.89-32.89l0,0
		c-17.971,0-32.89,14.58-32.89,32.89v159.364c0,21.362,9.833,41.367,26.787,54.252l60.355,45.775
		c7.799,6.103,12.546,15.258,12.546,25.091v34.585h93.923v-51.878c0-25.77-11.868-50.183-31.873-66.458L141.054,279.057z"/>
	<path style="fill:#F7CFA2;" d="M368.233,279.057v-51.878c0-10.172,8.138-18.31,18.31-18.31l0,0c10.172,0,18.31,8.138,18.31,18.31
		v62.728h15.936v-62.728c0-15.597-10.511-28.821-24.413-32.89v-61.711c0-17.971,14.58-32.89,32.89-32.89l0,0
		c17.971,0,32.89,14.58,32.89,32.89v159.364c0,21.362-9.833,41.367-26.787,54.252l-60.355,45.775
		c-7.799,6.103-12.546,15.258-12.546,25.091v34.585h-93.923v-51.878c0-25.77,11.868-50.183,31.873-66.458L368.233,279.057z"/>
</g>
<path style="fill:#F0582F;" d="M339.751,202.766c0,47.131-38.315,85.107-85.107,85.107c-47.131,0-85.107-38.315-85.107-85.107
	s85.107-145.462,85.107-145.462S339.751,155.634,339.751,202.766z"/>
<g>
</g>
<g>
</g>
<g>
</g>
<g>
</g>
<g>
</g>
<g>
</g>
<g>
</g>
<g>
</g>
<g>
</g>
<g>
</g>
<g>
</g>
<g>
</g>
<g>
</g>
<g>
</g>
<g>
</g>
</svg>
