<?xml version="1.0" encoding="iso-8859-1"?>
<!-- Generator: Adobe Illustrator 19.0.0, SVG Export Plug-In . SVG Version: 6.00 Build 0)  -->
<svg version="1.1" id="Layer_1" xmlns="http://www.w3.org/2000/svg" xmlns:xlink="http://www.w3.org/1999/xlink" x="0px" y="0px"
	 viewBox="0 0 512 512" style="enable-background:new 0 0 512 512;" xml:space="preserve">
<path style="fill:#BCE8F7;" d="M493.879,225.051L493.879,225.051L493.879,225.051z M18.12,225.051L18.12,225.051L18.12,225.051z
	 M493.88,224.731L493.88,224.731L493.88,224.731z M18.12,224.731L18.12,224.731L18.12,224.731z"/>
<rect x="404.569" y="78.46" transform="matrix(0.9232 0.3843 -0.3843 0.9232 93.8516 -154.5229)" style="fill:#F9D026;" width="58.01" height="158.229"/>
<rect x="432.452" y="84.037" transform="matrix(0.9232 0.3843 -0.3843 0.9232 97.0223 -159.2363)" style="fill:#E7C224;" width="29" height="158.229"/>
<circle style="fill:#F9D026;" cx="463.37" cy="86.01" r="48.619"/>
<path style="fill:#E7C224;" d="M482.05,41.119c24.79,10.318,36.521,38.779,26.204,63.568c-10.318,24.79-38.779,36.521-63.568,26.204
	L482.05,41.119z"/>
<path style="fill:#D8D9DD;" d="M31.015,202.875c-0.685,7.166-1.04,14.428-1.04,21.773c0,124.83,101.195,226.025,226.025,226.025
	s226.025-101.195,226.025-226.025c0-7.345-0.354-14.607-1.04-21.773L31.015,202.875L31.015,202.875z"/>
<g>
	<rect y="181.9" style="fill:#EDEEF0;" width="512" height="47.4"/>
	<rect x="155.7" y="427.21" style="fill:#EDEEF0;" width="200.62" height="47.4"/>
</g>
<path style="fill:#B7B9C0;" d="M256,450.672c124.83,0,226.025-101.195,226.025-226.025c0-7.345-0.354-14.607-1.04-21.773H256
	C256,202.875,256,367.049,256,450.672z"/>
<g>
	<rect x="256" y="181.9" style="fill:#D8D9DD;" width="256" height="47.4"/>
	<rect x="256" y="427.21" style="fill:#D8D9DD;" width="100.3" height="47.4"/>
</g>
<g>
</g>
<g>
</g>
<g>
</g>
<g>
</g>
<g>
</g>
<g>
</g>
<g>
</g>
<g>
</g>
<g>
</g>
<g>
</g>
<g>
</g>
<g>
</g>
<g>
</g>
<g>
</g>
<g>
</g>
</svg>
