<?xml version="1.0" encoding="iso-8859-1"?>
<!-- Generator: Adobe Illustrator 19.0.0, SVG Export Plug-In . SVG Version: 6.00 Build 0)  -->
<svg version="1.1" id="Capa_1" xmlns="http://www.w3.org/2000/svg" xmlns:xlink="http://www.w3.org/1999/xlink" x="0px" y="0px"
	 viewBox="0 0 512 512" style="enable-background:new 0 0 512 512;" xml:space="preserve">
<path style="fill:#994C0F;" d="M90,270.471v30l-30,30H30c-16.5,0-30-13.5-30-30v-30c0-16.5,13.5-30,30-30h30L90,270.471z"/>
<path style="fill:#713708;" d="M90,285.471v15l-30,30H30c-16.5,0-30-13.5-30-30v-15H90z"/>
<path style="fill:#FEA832;" d="M512,270.471v30c0,16.5-13.5,30-30,30H361l-31-30v-30l31-30h121
	C498.5,240.471,512,253.972,512,270.471z"/>
<path style="fill:#FE9923;" d="M512,285.471v15c0,16.5-13.5,30-30,30H361l-31-30v-15H512z"/>
<rect x="60" y="240.47" style="fill:#E1E4FB;" width="301" height="90"/>
<rect x="60" y="285.47" style="fill:#C5C9F7;" width="301" height="45"/>
<g>
	<path style="fill:#E1E4FB;" d="M52.427,164.021c-30.3-20.2-30.285-64.771,0-84.961c12.521-8.337,12.521-26.702,0-35.039
		c-6.885-4.585-8.76-13.901-4.16-20.801c4.556-6.899,13.857-8.774,20.801-4.16c30.3,20.2,30.285,64.771,0,84.961
		c-12.521,8.337-12.521,26.702,0,35.039c6.899,4.6,8.76,13.901,4.16,20.801C68.704,166.658,59.436,168.667,52.427,164.021z"/>
	<path style="fill:#E1E4FB;" d="M142.427,164.021c-30.3-20.2-30.285-64.771,0-84.961c12.521-8.337,12.521-26.702,0-35.039
		c-6.885-4.585-8.76-13.901-4.16-20.801c4.57-6.899,13.872-8.774,20.801-4.16c30.3,20.2,30.285,64.771,0,84.961
		c-12.521,8.337-12.521,26.702,0,35.039c6.899,4.6,8.76,13.901,4.16,20.801C158.704,166.658,149.436,168.667,142.427,164.021z"/>
</g>
<path style="fill:#FD003A;" d="M445.499,100.971L261,285.471l-205.501,205.5c-5.7,6-15.298,6-20.999,0c-6-5.7-6-15.3,0-21l390-390
	c5.7-5.999,15.298-5.999,20.999,0C451.5,85.67,451.5,95.27,445.499,100.971z"/>
<path style="fill:#E50027;" d="M261,285.471l-205.501,205.5c-5.7,6-15.298,6-20.999,0c-6-5.7-6-15.3,0-21l184.5-184.5H261z"/>
<g>
</g>
<g>
</g>
<g>
</g>
<g>
</g>
<g>
</g>
<g>
</g>
<g>
</g>
<g>
</g>
<g>
</g>
<g>
</g>
<g>
</g>
<g>
</g>
<g>
</g>
<g>
</g>
<g>
</g>
</svg>
