<?xml version="1.0" encoding="iso-8859-1"?>
<!-- Generator: Adobe Illustrator 19.0.0, SVG Export Plug-In . SVG Version: 6.00 Build 0)  -->
<svg version="1.1" id="Layer_1" xmlns="http://www.w3.org/2000/svg" xmlns:xlink="http://www.w3.org/1999/xlink" x="0px" y="0px"
	 viewBox="0 0 518.3 518.3" style="enable-background:new 0 0 518.3 518.3;" xml:space="preserve">
<g>
	<g>
		<g>
			<g>
				<circle style="fill:#EDE2D9;" cx="259.15" cy="259.15" r="259.15"/>
				<path style="fill:#F2EBE7;" d="M0,259.15C0,402.276,116.025,518.3,259.15,518.3V0.004C116.024,0.004,0,116.029,0,259.15z"/>
			</g>
			<g>
				<g>
					<path style="fill:#E06697;" d="M232.178,243.933c-2.837-28.466-4.836-92.621-33.066-94.05
						c-28.235-1.425-87.097,29.219-110.492,139.655c-23.391,110.444-4.84,147.503,29.831,135.384
						c34.684-12.115,109.691-28.504,113.727-52.73C236.209,347.971,236.5,287.363,232.178,243.933z"/>
					<path style="fill:#E06697;" d="M286.122,243.933c2.833-28.466,4.84-92.621,33.062-94.05
						c28.239-1.425,87.109,29.219,110.496,139.655c23.386,110.444,4.836,147.503-29.84,135.384
						c-34.679-12.115-109.683-28.504-113.718-52.73C282.096,347.971,281.809,287.363,286.122,243.933z"/>
				</g>
				<g>
					<path style="fill:#E06697;" d="M275.42,65.507h-15.17h-15.17c0,0,15.585,143.981-13.18,177.895v37.14
						c0,0,28.35-11.289,28.35-40.328c0,29.039,28.35,40.328,28.35,40.328v-37.14C259.843,209.489,275.42,65.507,275.42,65.507z"/>
					<path style="fill:#E06697;" d="M260.254,65.507L260.254,65.507H245.08c0,0,15.585,143.981-13.18,177.895v37.14
						c0,0,28.35-11.289,28.35-40.328c0,0.017,0.004,0.026,0.004,0.043V65.507z"/>
				</g>
			</g>
		</g>
		<path style="opacity:0.2;fill:#FFFFFF;enable-background:new    ;" d="M0,259.15C0,402.276,116.025,518.3,259.15,518.3V0.004
			C116.024,0.004,0,116.029,0,259.15z"/>
	</g>
</g>
<g>
</g>
<g>
</g>
<g>
</g>
<g>
</g>
<g>
</g>
<g>
</g>
<g>
</g>
<g>
</g>
<g>
</g>
<g>
</g>
<g>
</g>
<g>
</g>
<g>
</g>
<g>
</g>
<g>
</g>
</svg>
