<?xml version="1.0" encoding="iso-8859-1"?>
<!-- Generator: Adobe Illustrator 19.0.0, SVG Export Plug-In . SVG Version: 6.00 Build 0)  -->
<svg version="1.1" id="Capa_1" xmlns="http://www.w3.org/2000/svg" xmlns:xlink="http://www.w3.org/1999/xlink" x="0px" y="0px"
	 viewBox="0 0 512 512" style="enable-background:new 0 0 512 512;" xml:space="preserve">
<path style="fill:#FF1A56;" d="M376,31c-65.7,0-102.001,49.501-120,86.1C238.001,80.501,201.7,31,136,31C58.9,31,0,97.899,0,187
	c0,83.099,55.901,128.7,138.999,197.401c31.8,26.1,67.5,55.8,106.8,92.399C248.5,479.801,252.4,481,256,481s7.5-1.199,10.201-4.2
	c39.3-36.599,75-66.299,106.8-92.399C456.099,315.7,512,270.099,512,187C512,97.899,453.1,31,376,31z"/>
<path style="fill:#D81E46;" d="M512,187c0,83.099-55.901,128.699-138.999,197.401c-31.8,26.1-67.5,55.8-106.8,92.399
	C263.5,479.801,259.6,481,256,481V117.1C273.999,80.501,310.3,31,376,31C453.1,31,512,97.899,512,187z"/>
<path style="fill:#E1E4FB;" d="M512,286c0,8.401-6.599,15-15,15H346c-6.599,0-12.299-4.2-14.099-10.201L316,243.401L270.099,380.8
	C268.001,387.4,262,391,256,391s-12.001-3.6-14.099-10.201L196,243.401L180.099,290.8c-1.8,6-7.5,10.201-14.099,10.201H15
	c-8.401,0-15-6.599-15-15s6.599-15,15-15h140.2l26.7-79.799c3.898-12.301,24.3-12.301,28.198,0L256,328.599L301.901,191.2
	c3.898-12.301,24.3-12.301,28.198,0L356.8,271H497C505.401,271,512,277.599,512,286z"/>
<path style="fill:#C5C9F7;" d="M512,286c0,8.401-6.599,15-15,15H346c-6.599,0-12.299-4.2-14.099-10.201L316,243.401L270.099,380.8
	C268.001,387.4,262,391,256,391v-62.401L301.901,191.2c3.898-12.301,24.3-12.301,28.198,0L356.8,271H497
	C505.401,271,512,277.599,512,286z"/>
<g>
</g>
<g>
</g>
<g>
</g>
<g>
</g>
<g>
</g>
<g>
</g>
<g>
</g>
<g>
</g>
<g>
</g>
<g>
</g>
<g>
</g>
<g>
</g>
<g>
</g>
<g>
</g>
<g>
</g>
</svg>
