<?xml version="1.0" encoding="iso-8859-1"?>
<!-- Generator: Adobe Illustrator 19.0.0, SVG Export Plug-In . SVG Version: 6.00 Build 0)  -->
<svg version="1.1" id="Capa_1" xmlns="http://www.w3.org/2000/svg" xmlns:xlink="http://www.w3.org/1999/xlink" x="0px" y="0px"
	 viewBox="0 0 510.629 510.629" style="enable-background:new 0 0 510.629 510.629;" xml:space="preserve">
<path style="fill:#FF1A56;" d="M389.953,231.379c0,56.548-55.053,93.948-124.764,154.984c-2.694,2.395-6.284,3.291-9.874,3.291
	c-3.59,0-7.181-0.897-9.874-3.291c-69.711-61.036-124.764-98.436-124.764-154.984c0-42.485,31.115-80.783,74.799-80.783
	c29.62,0,48.47,17.054,59.839,33.51c11.369-16.456,30.219-33.51,59.839-33.51C358.837,150.596,389.953,188.893,389.953,231.379z"/>
<path style="fill:#D81E46;" d="M389.953,231.379c0,56.548-55.053,93.948-124.764,154.984c-2.694,2.395-6.284,3.291-9.874,3.291
	V184.106c11.369-16.456,30.219-33.51,59.839-33.51C358.837,150.596,389.953,188.893,389.953,231.379z"/>
<path id="SVGCleanerId_0" style="fill:#FEDBAB;" d="M480.709,59.839v180.515h-98.535c-26.329,0-51.162-9.574-70.61-27.525
	c-7.779-7.181-37.1-36.503-56.249-55.652c-6.881-6.881-12.565-12.565-15.259-15.257c-11.669-11.669-11.669-30.519,0-42.188
	c4.189-4.487,9.574-7.181,15.259-8.077c1.795-0.299,3.89-0.599,5.984-0.599c7.48,0,14.96,2.692,20.944,8.676l46.675,46.375
	c5.983,5.984,15.257,5.984,21.242,0c5.685-5.685,5.685-15.257,0-20.943l-59.839-60.837c-2.991-2.993-6.581-4.489-10.771-4.489
	H150.596c-16.456,0-29.92-13.464-29.92-29.92S134.14,0,150.596,0h152.292c11.668,0,23.037,4.786,31.715,13.165l46.675,46.675
	L480.709,59.839L480.709,59.839z"/>
<g>
	<path id="SVGCleanerId_0_1_" style="fill:#FEDBAB;" d="M480.709,59.839v180.515h-98.535c-26.329,0-51.162-9.574-70.61-27.525
		c-7.779-7.181-37.1-36.503-56.249-55.652c-6.881-6.881-12.565-12.565-15.259-15.257c-11.669-11.669-11.669-30.519,0-42.188
		c4.189-4.487,9.574-7.181,15.259-8.077c1.795-0.299,3.89-0.599,5.984-0.599c7.48,0,14.96,2.692,20.944,8.676l46.675,46.375
		c5.983,5.984,15.257,5.984,21.242,0c5.685-5.685,5.685-15.257,0-20.943l-59.839-60.837c-2.991-2.993-6.581-4.489-10.771-4.489
		H150.596c-16.456,0-29.92-13.464-29.92-29.92S134.14,0,150.596,0h152.292c11.668,0,23.037,4.786,31.715,13.165l46.675,46.675
		L480.709,59.839L480.709,59.839z"/>
</g>
<path style="fill:#FEC478;" d="M358.588,149.598c-3.161,0-6.193-1.256-8.429-3.492c-5.984,5.984-15.259,5.984-21.242,0
	l-46.675-46.375c-5.984-5.984-13.464-8.676-20.944-8.676c-2.094,0-4.189,0.299-5.984,0.599c-5.685,0.897-11.07,3.59-15.259,8.077
	c-11.669,11.669-11.669,30.519,0,42.188c2.694,2.692,8.378,8.377,15.259,15.257c19.149,19.149,48.47,48.472,56.249,55.652
	c19.449,17.951,44.28,27.525,70.61,27.525h98.535v-90.756H358.588V149.598z"/>
<path style="fill:#FEDBAB;" d="M389.953,480.709c0,16.456-13.464,29.92-29.92,29.92H207.741c-11.668,0-23.037-4.786-31.715-13.165
	l-46.675-46.675H29.92V270.274h98.535c26.329,0,51.162,9.574,70.61,27.525c7.779,7.181,37.1,36.503,56.249,55.652
	c6.881,6.881,12.565,12.565,15.259,15.257c11.669,11.669,11.669,30.519,0,42.188c-4.189,4.487-9.574,7.181-15.259,8.077
	c-1.795,0.299-3.89,0.599-5.984,0.599c-7.48,0-14.96-2.692-20.944-8.676l-46.675-46.375c-5.983-5.984-15.257-5.984-21.242,0
	c-5.685,5.685-5.685,15.257,0,20.943l59.839,60.837c2.991,2.993,6.581,4.489,10.771,4.489h128.953
	C376.489,450.789,389.953,464.253,389.953,480.709z"/>
<path style="fill:#FEC478;" d="M389.953,480.709c0-16.456-13.464-29.92-29.92-29.92H231.079c-4.189,0-7.779-1.496-10.771-4.489
	l-59.839-60.837c-5.614-5.614-5.673-15.012-0.199-20.72l-0.355-0.371c-2.235-2.235-5.268-3.492-8.429-3.492H29.92v89.909h99.432
	l46.675,46.675c8.678,8.379,20.047,13.165,31.715,13.165h152.292C376.489,510.629,389.953,497.164,389.953,480.709z"/>
<path style="fill:#17ACE8;" d="M29.92,480.709L29.92,480.709c-16.525,0-29.92-13.395-29.92-29.92V270.274
	c0-16.525,13.395-29.92,29.92-29.92l0,0c16.525,0,29.92,13.395,29.92,29.92v180.515C59.839,467.313,46.444,480.709,29.92,480.709z"
	/>
<path style="fill:#1689FC;" d="M480.709,29.92L480.709,29.92c16.525,0,29.92,13.395,29.92,29.92v180.515
	c0,16.525-13.395,29.92-29.92,29.92l0,0c-16.525,0-29.92-13.395-29.92-29.92V59.839C450.789,43.315,464.184,29.92,480.709,29.92z"/>
<path style="fill:#136EF1;" d="M450.789,149.598v90.756c0,16.525,13.395,29.92,29.92,29.92s29.92-13.395,29.92-29.92v-90.756
	L450.789,149.598L450.789,149.598z"/>
<path style="fill:#136EF1;" d="M0,361.03v89.759c0,16.525,13.395,29.92,29.92,29.92s29.92-13.395,29.92-29.92V361.03H0z"/>
<g>
</g>
<g>
</g>
<g>
</g>
<g>
</g>
<g>
</g>
<g>
</g>
<g>
</g>
<g>
</g>
<g>
</g>
<g>
</g>
<g>
</g>
<g>
</g>
<g>
</g>
<g>
</g>
<g>
</g>
</svg>
