<?xml version="1.0" encoding="iso-8859-1"?>
<!-- Generator: Adobe Illustrator 19.0.0, SVG Export Plug-In . SVG Version: 6.00 Build 0)  -->
<svg version="1.1" id="Capa_1" xmlns="http://www.w3.org/2000/svg" xmlns:xlink="http://www.w3.org/1999/xlink" x="0px" y="0px"
	 viewBox="0 0 384 384" style="enable-background:new 0 0 384 384;" xml:space="preserve">
<circle style="fill:#EFC84A;" cx="192" cy="192" r="192"/>
<path style="opacity:0.1;enable-background:new    ;" d="M381.482,222.952L261.48,102.95l-16.4,23.6l-30.16-30.16l-1.56,0.56
	L198.4,81.99l-7.84,28l26.96,26.96c-7.88-3.56-16.64-5.52-25.84-5.52c-5.72,0-11.28,0.76-16.56,2.24l-38.08-38.08v19h-10.92
	l16.6,23.88l8.04,8.04c-12.24,10.4-20.44,25.4-22,42.28c-0.12,1.36-0.64,2.64-1.68,3.52c-1.56,1.32-2.48,2.92-2.48,4.64
	c0,1.36,0.6,2.64,1.56,3.76c1.52,1.72,1.96,4.16,0.88,6.16l-14.8,27.8c-1.28,2.4-0.44,5.16,1.52,6.56l13.6,13.6
	c-0.56,1.28-1.44,2.48-2.76,3.52c0,0-1.12,1.48-0.16,2.84l0.48,0.52l0.12,0.08l2.04,2.04c-1.64,1-3.96,2.76-2.48,4.24l4.48,4.479
	l-1.2,4.24c-0.833,2.953,0.198,5.767,2.173,7.622l-0.013,0.017l0.32,0.32l96.105,96.105
	C306.029,366.425,368.502,303.011,381.482,222.952z"/>
<path style="fill:#EBF0F3;" d="M243.118,254.923c-0.871-3.404-0.542-6.994,0.912-10.193c7.18-15.793,10.834-34.436,10.834-50.104
	c0-34.892-28.285-63.176-63.176-63.176c-32.928,0-59.969,25.192-62.908,57.353c-0.123,1.336-0.658,2.635-1.681,3.505
	c-1.562,1.33-2.479,2.928-2.479,4.653c0,1.351,0.562,2.626,1.557,3.754c1.518,1.721,1.931,4.147,0.853,6.173l-14.784,27.786
	c-1.823,3.427,0.66,7.561,4.542,7.561h5.788c2.264,0,4.272,1.47,4.923,3.638c1.06,3.527,1.606,8.86-2.878,12.481
	c0,0-2.779,3.612,3.892,4.725c0,0-6.114,2.779-3.892,5.002c0,0,3.058,0.278,5.003,2.501l-1.744,6.201
	c-1.516,5.391,3.09,10.528,8.614,9.607l19.99-3.332c8.252-1.375,16.097,4.073,17.692,12.285l1.292,6.658l72.772-27.045
	L243.118,254.923z"/>
<path style="fill:#3A556A;" d="M175.744,191.593c0.691,0.874,1.405,1.77,2.37,2.327c1.106,0.64,2.425,0.77,3.698,0.885
	c5.059,0.46,10.118,0.92,15.176,1.38c3.475,0.316,7.044,0.658,10.162,2.226c3.538,1.779,6.244,5.135,7.235,8.968
	c0.448,1.734,0.564,3.558,1.222,5.223c0.657,1.665,2.061,3.22,3.849,3.318c0.032-3.533,0.064-7.067,0.096-10.6
	c4.438,0.453,8.956,0.116,13.278-0.992c3.141-0.805,6.544-2.384,7.518-5.477c0.4-1.269,0.337-2.676,0.928-3.868
	c0.866-1.745,2.899-2.592,4.049-4.164c1.082-1.48,1.26-3.414,1.4-5.242c0.346-4.517,0.482-9.647-2.694-12.877
	c-1.716-1.746-4.154-2.625-5.915-4.325c-2.359-2.277-3.177-5.662-4.584-8.624c-3.188-6.712-9.65-11.435-16.62-14.007
	c-6.971-2.572-14.485-3.23-21.904-3.647c-4.799-0.269-9.65-0.444-14.378,0.425c-4.798,0.882-9.332,2.814-13.773,4.834
	c-5.651,2.57-11.341,5.386-15.728,9.778c-4.387,4.392-7.32,10.678-6.239,16.792c0.245,1.384,0.71,2.771,1.635,3.83
	c1.286,1.472,3.266,2.108,5.17,2.548c2.608,0.602,5.273,0.956,7.947,1.059c2.001,0.077,4.569-0.632,6.494-0.227
	C170.012,181.951,173.384,188.606,175.744,191.593z"/>
<g>
	<polygon style="fill:#E56353;" points="244.884,126.828 261.464,102.941 261.464,121.958 272.364,121.958 255.783,145.844 
		255.783,126.828 	"/>
	<polygon style="fill:#E56353;" points="153.602,119.458 137.021,95.571 137.021,114.588 126.121,114.588 142.702,138.474 
		142.702,119.458 	"/>
	<polygon style="fill:#E56353;" points="190.573,110.005 198.399,82 204.638,99.964 214.935,96.388 207.108,124.393 
		200.869,106.429 	"/>
</g>
<g>
</g>
<g>
</g>
<g>
</g>
<g>
</g>
<g>
</g>
<g>
</g>
<g>
</g>
<g>
</g>
<g>
</g>
<g>
</g>
<g>
</g>
<g>
</g>
<g>
</g>
<g>
</g>
<g>
</g>
</svg>
