<?xml version="1.0" encoding="iso-8859-1"?>
<!-- Generator: Adobe Illustrator 19.0.0, SVG Export Plug-In . SVG Version: 6.00 Build 0)  -->
<svg version="1.1" id="Capa_1" xmlns="http://www.w3.org/2000/svg" xmlns:xlink="http://www.w3.org/1999/xlink" x="0px" y="0px"
	 viewBox="0 0 512 512" style="enable-background:new 0 0 512 512;" xml:space="preserve">
<circle style="fill:#FFDC00;" cx="256" cy="256" r="256"/>
<path style="fill:#FFC000;" d="M512,256c0-7.711-0.361-15.336-1.029-22.873L407.708,129.863l-8.018,9.441l-44.367-44.368
	L98.54,370.063l141.423,141.423C245.268,511.813,250.612,512,256,512C397.385,512,512,397.385,512,256z"/>
<path style="fill:#00BAFF;" d="M258.827,376.138c0,27.064,21.94,49.004,49.004,49.004c23.784,0,43.603-16.946,48.06-39.42
	c31.081-4.458,54.973-31.181,54.973-63.495c0-4.547-0.48-8.981-1.38-13.261c19.565-10.99,32.792-31.927,32.792-55.965
	c0-20.305-9.443-38.395-24.165-50.151c1.874-6.026,2.883-12.432,2.883-19.075c0-35.435-28.725-64.16-64.16-64.16
	c-0.361,0-0.716,0.021-1.075,0.027c-4.702-22.157-24.371-38.782-47.928-38.782c-27.064,0-49.004,21.94-49.004,49.004
	L258.827,376.138L258.827,376.138z"/>
<path style="fill:#005C83;" d="M365.826,302.58c-27.339,0-49.58-22.241-49.58-49.58s22.241-49.58,49.58-49.58v20
	c-16.311,0-29.58,13.27-29.58,29.58s13.27,29.58,29.58,29.58V302.58z"/>
<path style="fill:#35CCFF;" d="M253.172,129.863c0-27.064-21.94-49.004-49.003-49.004c-23.783,0-43.603,16.946-48.06,39.42
	c-31.08,4.458-54.973,31.181-54.973,63.495c0,4.547,0.48,8.981,1.38,13.261C82.95,208.026,69.723,228.963,69.723,253
	c0,20.305,9.443,38.395,24.165,50.151c-1.874,6.026-2.883,12.432-2.883,19.075c0,35.435,28.725,64.16,64.16,64.16
	c0.361,0,0.716-0.021,1.075-0.027c4.702,22.157,24.371,38.782,47.928,38.782c27.064,0,49.003-21.94,49.003-49.004L253.172,129.863z"
	/>
<path style="fill:#0074A3;" d="M452.276,253c0-20.447-8.281-39.641-22.932-53.607c1.097-5.111,1.65-10.342,1.65-15.619
	c0-38.696-29.788-70.564-67.639-73.876c-8.308-23.028-30.521-39.039-55.525-39.039c-22.339,0-41.816,12.479-51.831,30.832
	c-10.015-18.352-29.492-30.832-51.831-30.832c-25.748,0-48.351,16.789-56.13,40.79c-14.893,3.558-28.414,11.698-38.601,23.35
	c-11.803,13.501-18.303,30.823-18.303,48.775c0,2.771,0.156,5.549,0.467,8.31C71.777,205.865,59.724,228.609,59.724,253
	c0,20.448,8.281,39.641,22.932,53.607c-1.097,5.111-1.65,10.342-1.65,15.619c0,38.696,29.787,70.564,67.638,73.876
	c8.308,23.028,30.521,39.04,55.526,39.039c22.338,0,41.815-12.479,51.831-30.831c10.015,18.352,29.492,30.832,51.832,30.832
	c25.748,0,48.351-16.789,56.13-40.79c14.893-3.558,28.414-11.698,38.601-23.35c11.803-13.501,18.303-30.823,18.303-48.775
	c0-2.771-0.156-5.549-0.467-8.31C440.223,300.135,452.276,277.392,452.276,253z M164.739,376.182
	c-1.688-21.44,17.923-39.048,39.43-39.048v-20c-32.304,0-58.614,26.097-58.986,58.314c-25.11-4.7-44.178-26.77-44.178-53.222
	c0-5.496,0.818-10.915,2.433-16.105l2.028-6.522l-5.337-4.262C87.161,284.982,79.724,269.551,79.724,253
	c0-19.549,10.61-37.653,27.689-47.246l6.398-3.594l-1.51-7.181c-0.773-3.682-1.166-7.451-1.166-11.204
	c0-22.44,14.027-42.258,34.149-50.312c0.862,14.405,6.871,27.831,17.161,38.122c11.145,11.144,25.962,17.282,41.723,17.281v-20
	c-10.419,0-20.213-4.057-27.58-11.424c-7.367-7.367-12.491-17.534-11.737-27.925c0.133-1.838,1.065-7.293,1.065-7.293
	c3.604-18.175,19.691-31.366,38.252-31.366c21.506,0,39.003,17.497,39.003,39.003v246.275c0,21.507-17.497,39.003-39.003,39.003
	c-18.309,0-34.352-12.978-38.146-30.858C166.022,384.283,164.9,378.226,164.739,376.182z M347.258,130.25
	c-0.069,21.506-17.921,38.617-39.426,38.617v20c32.303,0,58.613-26.098,58.985-58.314c25.11,4.7,44.179,26.769,44.179,53.222
	c0,5.496-0.818,10.915-2.433,16.105l-2.028,6.522l5.337,4.262c12.968,10.355,20.405,25.786,20.405,42.337
	c0,19.549-10.61,37.653-27.689,47.246l-6.398,3.594l1.51,7.181c0.773,3.682,1.166,7.451,1.166,11.204
	c0,22.44-14.027,42.258-34.15,50.312c-1.868-30.863-27.558-55.404-58.883-55.404v20c21.506,0,39.316,17.484,39.316,38.991v0.358
	l-1.064,7.293c-3.604,18.175-19.691,31.366-38.252,31.366c-21.507,0-39.004-17.497-39.004-39.004V129.863
	c0-21.507,17.497-39.004,39.004-39.004c18.309,0,34.351,12.978,38.146,30.858c0,0,1.129,6.056,1.284,8.101
	C347.268,129.926,347.258,130.142,347.258,130.25z"/>
<path style="fill:#005C83;" d="M256,404.31c10.015,18.352,29.492,30.832,51.832,30.832c25.748,0,48.351-16.789,56.13-40.79
	c14.893-3.558,28.414-11.698,38.601-23.35c11.803-13.501,18.303-30.823,18.303-48.775c0-2.771-0.156-5.549-0.467-8.31
	c19.825-13.78,31.879-36.524,31.879-60.915c0-20.447-8.281-39.641-22.932-53.607c1.097-5.111,1.65-10.342,1.65-15.619
	c0-38.696-29.788-70.564-67.639-73.876c-8.308-23.028-30.521-39.039-55.525-39.039c-22.339,0-41.816,12.479-51.831,30.832
	L256,404.31z M347.258,130.25c-0.069,21.506-17.921,38.617-39.426,38.617v20c32.303,0,58.613-26.098,58.985-58.314
	c25.11,4.7,44.179,26.769,44.179,53.222c0,5.496-0.818,10.915-2.433,16.105l-2.028,6.522l5.337,4.262
	c12.968,10.355,20.405,25.786,20.405,42.337c0,19.549-10.61,37.653-27.689,47.246l-6.398,3.594l1.51,7.181
	c0.773,3.682,1.166,7.451,1.166,11.204c0,22.44-14.027,42.258-34.15,50.312c-1.868-30.863-27.558-55.404-58.883-55.404v20
	c21.506,0,39.316,17.484,39.316,38.991v0.358l-1.064,7.293c-3.604,18.175-19.691,31.366-38.252,31.366
	c-21.507,0-39.004-17.497-39.004-39.004V129.863c0-21.507,17.497-39.004,39.004-39.004c18.309,0,34.351,12.978,38.146,30.858
	c0,0,1.129,6.056,1.284,8.101C347.268,129.926,347.258,130.142,347.258,130.25z"/>
<path style="fill:#0074A3;" d="M146.173,302.58v-20c16.311,0,29.58-13.27,29.58-29.58s-13.27-29.58-29.58-29.58v-20
	c27.339,0,49.58,22.241,49.58,49.58S173.512,302.58,146.173,302.58z"/>
<g>
</g>
<g>
</g>
<g>
</g>
<g>
</g>
<g>
</g>
<g>
</g>
<g>
</g>
<g>
</g>
<g>
</g>
<g>
</g>
<g>
</g>
<g>
</g>
<g>
</g>
<g>
</g>
<g>
</g>
</svg>
