<?xml version="1.0" encoding="iso-8859-1"?>
<!-- Generator: Adobe Illustrator 19.0.0, SVG Export Plug-In . SVG Version: 6.00 Build 0)  -->
<svg version="1.1" id="Layer_1" xmlns="http://www.w3.org/2000/svg" xmlns:xlink="http://www.w3.org/1999/xlink" x="0px" y="0px"
	 viewBox="0 0 297 297" style="enable-background:new 0 0 297 297;" xml:space="preserve">
<g>
	<g>
		<circle style="fill:#17AB93;" cx="148.5" cy="148.5" r="148.5"/>
	</g>
	<path style="fill:#118972;" d="M296.729,139.625l-73.396-73.396l-70.041,102.695l-22.448,4.754l-21.805,45.806l6.088,5.396
		l-14.769,21.655l50.49,50.435C231.778,295.714,297,229.729,297,148.5C297,145.52,296.902,142.563,296.729,139.625z"/>
	<path style="fill:#FFFFFF;" d="M148.5,182.929c21.75,0,26.245,37.492,30.24,59.816c1.125,6.285,14.643,8.191,18.52,3.118
		c48.336-63.25,43.98-132.524,39.929-151.622c-4.479-21.116-17.017-38.009-38.009-38.009c-20.99,0-35.839,7.135-50.679,21.976
		c-14.84-14.841-29.689-21.976-50.679-21.976c-20.992,0-33.53,16.893-38.009,38.009c-4.051,19.098-8.408,88.372,39.929,151.622
		c3.877,5.073,17.395,3.168,18.52-3.118C122.255,220.421,126.75,182.929,148.5,182.929z"/>
	<path style="fill:#EDECEB;" d="M237.188,94.241c-4.479-21.116-17.017-38.009-38.009-38.009c-20.99,0-35.839,7.135-50.679,21.976
		c-0.111-0.111-0.222-0.212-0.333-0.322v105.062c0.113-0.002,0.219-0.018,0.333-0.018c21.75,0,26.245,37.492,30.24,59.816
		c1.125,6.285,14.643,8.191,18.52,3.117C245.596,182.613,241.24,113.339,237.188,94.241z"/>
</g>
<g>
</g>
<g>
</g>
<g>
</g>
<g>
</g>
<g>
</g>
<g>
</g>
<g>
</g>
<g>
</g>
<g>
</g>
<g>
</g>
<g>
</g>
<g>
</g>
<g>
</g>
<g>
</g>
<g>
</g>
</svg>
