<?xml version="1.0" encoding="iso-8859-1"?>
<!-- Generator: Adobe Illustrator 19.0.0, SVG Export Plug-In . SVG Version: 6.00 Build 0)  -->
<svg version="1.1" id="Layer_1" xmlns="http://www.w3.org/2000/svg" xmlns:xlink="http://www.w3.org/1999/xlink" x="0px" y="0px"
	 viewBox="0 0 508 508" style="enable-background:new 0 0 508 508;" xml:space="preserve">
<circle style="fill:#4CDBC4;" cx="254" cy="254" r="254"/>
<rect x="167.6" y="135.6" style="fill:#FFFFFF;" width="172.4" height="28.4"/>
<path style="fill:#324A5E;" d="M350,135.6H158V92c0-7.6,6-13.6,13.6-13.6h164.8c7.6,0,13.6,6,13.6,13.6L350,135.6L350,135.6z"/>
<path style="fill:#FFFFFF;" d="M348,429.6H160c-14.8,0-26.4-12-26.4-26.4V182c0-14.8,12-26.4,26.4-26.4h188
	c14.8,0,26.4,12,26.4,26.4v221.2C374.4,418,362.8,429.6,348,429.6z"/>
<rect x="133.6" y="220" style="fill:#FF7058;" width="240.8" height="148.4"/>
<polygon style="fill:#FFFFFF;" points="303.6,280 268.4,280 268.4,244.8 239.6,244.8 239.6,280 204.4,280 204.4,308.8 239.6,308.8 
	239.6,343.6 268.4,343.6 268.4,308.8 303.6,308.8 "/>
<g>
	<path style="fill:#2B3B4E;" d="M184.8,127.6L184.8,127.6c-2.8,0-4.8-2-4.8-4.8v-32c0-2.8,2-4.8,4.8-4.8l0,0c2.8,0,4.8,2,4.8,4.8v32
		C189.6,125.2,187.2,127.6,184.8,127.6z"/>
	<path style="fill:#2B3B4E;" d="M207.6,127.6L207.6,127.6c-2.8,0-4.8-2-4.8-4.8v-32c0-2.8,2-4.8,4.8-4.8l0,0c2.8,0,4.8,2,4.8,4.8v32
		C212.4,125.2,210.4,127.6,207.6,127.6z"/>
	<path style="fill:#2B3B4E;" d="M230.8,127.6L230.8,127.6c-2.8,0-4.8-2-4.8-4.8v-32c0-2.8,2-4.8,4.8-4.8l0,0c2.8,0,4.8,2,4.8,4.8v32
		C235.6,125.2,233.6,127.6,230.8,127.6z"/>
	<path style="fill:#2B3B4E;" d="M254,127.6L254,127.6c-2.8,0-4.8-2-4.8-4.8v-32c0-2.8,2-4.8,4.8-4.8l0,0c2.8,0,4.8,2,4.8,4.8v32
		C258.8,125.2,256.8,127.6,254,127.6z"/>
	<path style="fill:#2B3B4E;" d="M277.2,127.6L277.2,127.6c-2.8,0-4.8-2-4.8-4.8v-32c0-2.8,2-4.8,4.8-4.8l0,0c2.8,0,4.8,2,4.8,4.8v32
		C282,125.2,279.6,127.6,277.2,127.6z"/>
	<path style="fill:#2B3B4E;" d="M300.4,127.6L300.4,127.6c-2.8,0-4.8-2-4.8-4.8v-32c0-2.8,2-4.8,4.8-4.8l0,0c2.8,0,4.8,2,4.8,4.8v32
		C304.8,125.2,302.8,127.6,300.4,127.6z"/>
	<path style="fill:#2B3B4E;" d="M323.2,127.6L323.2,127.6c-2.8,0-4.8-2-4.8-4.8v-32c0-2.8,2-4.8,4.8-4.8l0,0c2.8,0,4.8,2,4.8,4.8v32
		C328,125.2,326,127.6,323.2,127.6z"/>
</g>
<g>
</g>
<g>
</g>
<g>
</g>
<g>
</g>
<g>
</g>
<g>
</g>
<g>
</g>
<g>
</g>
<g>
</g>
<g>
</g>
<g>
</g>
<g>
</g>
<g>
</g>
<g>
</g>
<g>
</g>
</svg>
