<?xml version="1.0" encoding="iso-8859-1"?>
<!-- Generator: Adobe Illustrator 19.0.0, SVG Export Plug-In . SVG Version: 6.00 Build 0)  -->
<svg version="1.1" id="Capa_1" xmlns="http://www.w3.org/2000/svg" xmlns:xlink="http://www.w3.org/1999/xlink" x="0px" y="0px"
	 viewBox="0 0 512 512" style="enable-background:new 0 0 512 512;" xml:space="preserve">
<g transform="matrix(1.25 0 0 -1.25 0 45)">
	<g>
		<g>
			<path style="fill:#E75A70;" d="M329.956-100.533c-53.328,39.993-68.267,68.267-91.022,68.267S216.178-43.644,204.8-43.644
				s-11.378,11.378-34.133,11.378s-37.695-28.274-91.022-68.267C34.133-134.667,0-134.667,0-157.422s56.889-68.267,91.022-102.4
				c22.756-22.756,56.889-45.511,113.778-45.511s91.022,22.756,113.778,45.511c34.133,34.133,91.022,79.644,91.022,102.4
				S375.467-134.667,329.956-100.533"/>
			<path style="fill:#662113;" d="M323.004-140.356c-50.358,16.668-84.07,23.7-118.204,23.7s-67.834-7.031-118.192-23.7
				c-42.985-14.222-75.23-7.589-75.23-17.067c0-9.489,102.4-56.889,193.422-56.889s193.422,47.4,193.422,56.889
				C398.222-147.945,365.978-154.578,323.004-140.356"/>
			<path style="fill:#FFFFFF;" d="M323.004-140.356c-50.358,16.668-84.07,23.7-118.204,23.7s-67.834-7.031-118.192-23.7
				c-41.233-13.642-72.488-8.135-74.98-16.02c27.921-4.38,103.754,7.327,193.172,7.327c89.429,0,165.262-11.708,193.183-7.327
				C395.492-148.491,364.225-153.998,323.004-140.356"/>
		</g>
	</g>
</g>
<g>
</g>
<g>
</g>
<g>
</g>
<g>
</g>
<g>
</g>
<g>
</g>
<g>
</g>
<g>
</g>
<g>
</g>
<g>
</g>
<g>
</g>
<g>
</g>
<g>
</g>
<g>
</g>
<g>
</g>
</svg>
