<?xml version="1.0" encoding="iso-8859-1"?>
<!-- Generator: Adobe Illustrator 19.0.0, SVG Export Plug-In . SVG Version: 6.00 Build 0)  -->
<svg version="1.1" id="Capa_1" xmlns="http://www.w3.org/2000/svg" xmlns:xlink="http://www.w3.org/1999/xlink" x="0px" y="0px"
	 viewBox="0 0 409.6 409.6" style="enable-background:new 0 0 409.6 409.6;" xml:space="preserve">
<g>
	<path style="fill:#44C4A1;" d="M151.272,239.66L43.028,315.579c-12.229,8.577-19.154,22.868-18.307,37.783l3.193,56.239h194.066
		V239.66H151.272z"/>
	<path style="fill:#44C4A1;" d="M367.418,320.423L257.997,239.66h-36.016v103.819l-10.848,21.894l10.848,26.911V409.6h159.373
		l3.494-51.533C385.845,343.366,379.273,329.172,367.418,320.423z"/>
</g>
<path style="fill:#F6C358;" d="M256.745,298.303H152.524v-90.747h104.221C261.214,237.688,261.097,267.94,256.745,298.303z"/>
<path style="fill:#64798A;" d="M149.216,271.413c35.26,24.946,72.125,26.139,110.837,0l-28.394,60.208l-22.806,19.446
	l-31.016-21.271L149.216,271.413z"/>
<linearGradient id="SVGID_1_" gradientUnits="userSpaceOnUse" x1="-21.8819" y1="498.0486" x2="-21.8819" y2="489.8821" gradientTransform="matrix(5.12 0 0 -5.12 412.8243 2891.0154)">
	<stop  offset="0" style="stop-color:#FFFFFF"/>
	<stop  offset="1" style="stop-color:#A6A6A6"/>
</linearGradient>
<path style="fill:url(#SVGID_1_);" d="M321.441,358.607c2.164,14.129-9.83,26.123-23.959,23.959
	c-8.803-1.349-15.997-8.543-17.346-17.346c-2.164-14.128,9.829-26.122,23.958-23.959
	C312.897,342.608,320.093,349.803,321.441,358.607z"/>
<linearGradient id="SVGID_2_" gradientUnits="userSpaceOnUse" x1="-21.8818" y1="490.1727" x2="-21.8818" y2="497.7581" gradientTransform="matrix(5.12 0 0 -5.12 412.8243 2891.0154)">
	<stop  offset="0" style="stop-color:#FFFFFF"/>
	<stop  offset="1" style="stop-color:#D1D1D1"/>
</linearGradient>
<path style="fill:url(#SVGID_2_);" d="M281.607,364.985c-2.011-13.124,9.131-24.266,22.255-22.255
	c8.177,1.254,14.859,7.938,16.111,16.114c2.009,13.122-9.13,24.261-22.253,22.252C289.543,379.844,282.86,373.161,281.607,364.985z"
	/>
<path style="fill:#3A556A;" d="M117.066,317.924c11.209,0,22.852,3.75,34.853,11.253l-1.707,2.734
	c-23.138-14.457-43.922-14.48-63.552-0.068l-1.909-2.598C95.031,321.698,105.83,317.924,117.066,317.924z"/>
<path style="fill:#EBF0F3;" d="M78.022,386.68c2.994,3.625,7.799,6.291,13.416,8.195v-6.872c-3.783-1.507-6.717-3.343-8.44-5.431
	c-5.864-7.101-2.696-29.285,8.689-60.857c4.027-11.172,14.757-18.679,26.699-18.679c11.942,0,22.671,7.507,26.703,18.677
	c11.381,31.579,14.546,53.761,8.686,60.859c-1.722,2.087-4.657,3.924-8.44,5.431v6.87c5.617-1.903,10.422-4.569,13.415-8.194
	c7.671-9.293,5.118-31.886-7.596-67.153c-4.947-13.722-18.118-22.939-32.768-22.939c-14.653,0-27.821,9.22-32.765,22.939
	C72.905,354.789,70.35,377.382,78.022,386.68z"/>
<g>
	<path style="fill:#3A556A;" d="M134.609,387.546c1.521-1.629,7.455-0.673,9.84-0.208c0.591,0.115,1.001,0.585,1.001,1.127v6.346
		c0,0.542-0.41,1.013-1.001,1.127c-2.385,0.464-8.319,1.421-9.84-0.208C133.258,394.284,133.258,388.993,134.609,387.546z"/>
	<path style="fill:#3A556A;" d="M101.614,395.731c-1.521,1.63-7.455,0.673-9.84,0.208c-0.591-0.115-1-0.586-1-1.127v-6.346
		c0-0.542,0.41-1.013,1-1.127c2.385-0.465,8.319-1.421,9.84,0.208C102.965,388.993,102.965,394.284,101.614,395.731z"/>
	<path style="fill:#3A556A;" d="M136.694,299.679c-4.47-2.585-9.501-4.195-14.786-4.717c-0.32-6.944-0.427-24.801,5.723-38.721
		l-10.343,7.256c-3.209,12.588-3.137,25.378-2.854,31.495c-5.128,0.568-10.006,2.173-14.355,4.687
		c-1.169,0.675-1.558,2.201-0.938,3.402l2.685,5.202c0.532,1.015,1.559,1.283,2.607,0.612c4.068-2.603,8.905-3.998,13.952-3.998
		h0.002h0.002c5.047,0,9.884,1.395,13.952,3.998c1.048,0.671,2.075,0.403,2.607-0.612l2.685-5.202
		C138.252,301.88,137.864,300.354,136.694,299.679z"/>
	<path style="fill:#3A556A;" d="M297.895,351.902c-4.363,1.262-7.574,5.241-7.574,10.011c0,5.781,4.686,10.467,10.467,10.467
		c5.781,0,10.467-4.687,10.467-10.467c0-4.15-2.435-7.704-5.937-9.397c1.183-29.895-8.844-70.192-13.841-88.144l-9.565-7.059
		l-0.223,0.072C281.885,258,299.247,314.553,297.895,351.902z"/>
</g>
<path style="fill:#2F4859;" d="M298.879,362.978c-0.969-1.989,0.987-3.944,2.975-2.975c0.354,0.173,0.672,0.49,0.844,0.844
	c0.968,1.989-0.987,3.943-2.975,2.975C299.37,363.65,299.052,363.332,298.879,362.978z"/>
<path style="fill:#31978C;" d="M256.423,218.515l-7.095,6.828c0,0,27.055,32.016-15.684,74.136c-3.169,3.123-5.956,6.6-8.424,10.302
	c-6.043,9.068-16.952,26.306-25.365,44.438c0.417,0.261,0.827,0.545,1.22,0.884c4.213,3.64,7.315,8.332,9.708,13.404l58.528-67.034
	c0.658-0.755,1.005-1.732,0.969-2.733l-0.63-17.424l10.792,4.786c2.552,1.132,5.433-0.669,5.535-3.459
	C286.453,269.503,284.553,236.882,256.423,218.515z"/>
<path style="fill:#3EA69B;" d="M221.981,394.351c-0.379-26.862-26.241-68.414-36.96-84.506c-2.489-3.737-5.304-7.246-8.501-10.4
	c-42.691-42.103-15.649-74.102-15.649-74.102l-7.096-6.828c-28.131,18.366-30.03,50.988-29.552,64.128
	c0.101,2.79,2.982,4.591,5.534,3.459l10.792-4.786l-0.63,17.424c-0.035,1.001,0.311,1.978,0.97,2.733L221.981,394.351z"/>
<path style="fill:#64798A;" d="M156.249,59.274c2.34,0,4.611,0.5,6.78,1.435c13.521,6.442,27.405,9.305,41.605,9.033
	c14.2,0.272,28.083-2.591,41.604-9.033c2.17-0.935,4.441-1.435,6.78-1.435c10.847,0,20.231,10.669,24.734,26.184
	c1.58,5.444,5.581,33.858,6.608,47.983h0.003l6.518-78.719c0,0-18.055-61.921-83.456-54.025c-1.853,0.223-3.73,0.223-5.583,0
	c-65.402-7.896-83.457,54.025-83.457,54.025l6.518,78.719h0.003c1.028-14.126,5.029-42.539,6.609-47.983
	C136.019,69.943,145.403,59.274,156.249,59.274z"/>
<path style="fill:#FCD462;" d="M277.753,85.457c-4.504-15.515-13.887-26.184-24.734-26.184c-2.34,0-4.611,0.5-6.78,1.435
	c-13.521,6.442-27.404,9.305-41.604,9.033c-14.2,0.272-28.083-2.591-41.605-9.033c-2.169-0.935-4.441-1.435-6.78-1.435
	c-10.846,0-20.23,10.669-24.733,26.184c-1.581,5.444-5.581,33.858-6.609,47.983c-0.156,2.145-0.245,3.97-0.245,5.325
	c0,55.613,35.805,111.668,79.973,111.668c44.168,0,79.973-56.055,79.973-111.668c0-1.355-0.089-3.18-0.246-5.325
	C283.334,119.315,279.333,90.901,277.753,85.457z"/>
<g>
</g>
<g>
</g>
<g>
</g>
<g>
</g>
<g>
</g>
<g>
</g>
<g>
</g>
<g>
</g>
<g>
</g>
<g>
</g>
<g>
</g>
<g>
</g>
<g>
</g>
<g>
</g>
<g>
</g>
</svg>
