<?xml version="1.0" encoding="iso-8859-1"?>
<!-- Generator: Adobe Illustrator 19.0.0, SVG Export Plug-In . SVG Version: 6.00 Build 0)  -->
<svg version="1.1" id="Capa_1" xmlns="http://www.w3.org/2000/svg" xmlns:xlink="http://www.w3.org/1999/xlink" x="0px" y="0px"
	 viewBox="0 0 409.615 409.615" style="enable-background:new 0 0 409.615 409.615;" xml:space="preserve">
<rect x="0.008" y="156.401" style="fill:#D5D6DB;" width="409.6" height="253.184"/>
<rect x="53.629" y="99.277" style="fill:#EBF0F3;" width="302.336" height="310.323"/>
<rect x="282.417" y="202.409" style="fill:#E1E6E9;" width="54.589" height="54.589"/>
<rect x="286.497" y="206.49" style="fill:#27A2DB;" width="46.387" height="46.387"/>
<rect x="48.023" y="99.277" style="fill:#E1E6E9;" width="313.549" height="17.229"/>
<rect x="135.462" y="279.859" style="fill:#D5D6DB;" width="138.701" height="129.756"/>
<rect x="142.518" y="286.131" style="fill:#64798A;" width="124.58" height="123.443"/>
<rect x="202.299" y="286.131" style="fill:#2F4859;" width="4.982" height="123.443"/>
<rect x="126.682" style="fill:#EBF0F3;" width="156.247" height="99.277"/>
<polygon style="fill:#E56353;" points="235.022,40.136 214.309,40.136 214.309,19.423 195.304,19.423 195.304,40.136 
	174.593,40.136 174.593,59.142 195.304,59.142 195.304,79.853 214.309,79.853 214.309,59.142 235.022,59.142 "/>
<rect x="72.599" y="134.195" style="fill:#E1E6E9;" width="54.589" height="54.589"/>
<rect x="76.71" y="138.291" style="fill:#27A2DB;" width="46.387" height="46.387"/>
<rect x="142.538" y="134.226" style="fill:#E1E6E9;" width="54.589" height="54.589"/>
<rect x="146.639" y="138.291" style="fill:#27A2DB;" width="46.387" height="46.387"/>
<rect x="212.477" y="134.231" style="fill:#E1E6E9;" width="54.589" height="54.589"/>
<rect x="216.584" y="138.291" style="fill:#27A2DB;" width="46.387" height="46.387"/>
<rect x="282.365" y="134.241" style="fill:#E1E6E9;" width="54.589" height="54.589"/>
<rect x="286.497" y="138.291" style="fill:#27A2DB;" width="46.387" height="46.387"/>
<rect x="72.599" y="202.378" style="fill:#E1E6E9;" width="54.589" height="54.589"/>
<rect x="76.71" y="206.49" style="fill:#27A2DB;" width="46.387" height="46.387"/>
<g>
	<polygon style="fill:#6ECAEA;" points="94.21,184.72 83.191,184.72 96.95,138.311 107.969,138.311 	"/>
	<polygon style="fill:#6ECAEA;" points="102.875,184.72 99.303,184.72 113.062,138.311 116.634,138.311 	"/>
	<polygon style="fill:#6ECAEA;" points="164.139,184.72 153.121,184.72 166.879,138.311 177.899,138.311 	"/>
	<polygon style="fill:#6ECAEA;" points="172.805,184.72 169.233,184.72 182.992,138.311 186.563,138.311 	"/>
	<polygon style="fill:#6ECAEA;" points="234.068,184.72 223.05,184.72 236.809,138.311 247.827,138.311 	"/>
	<polygon style="fill:#6ECAEA;" points="242.734,184.72 239.162,184.72 252.921,138.311 256.493,138.311 	"/>
	<polygon style="fill:#6ECAEA;" points="303.998,184.72 292.98,184.72 306.739,138.311 317.757,138.311 	"/>
	<polygon style="fill:#6ECAEA;" points="312.664,184.72 309.092,184.72 322.851,138.311 326.423,138.311 	"/>
	<polygon style="fill:#6ECAEA;" points="94.21,252.887 83.191,252.887 96.95,206.478 107.969,206.478 	"/>
	<polygon style="fill:#6ECAEA;" points="102.875,252.887 99.303,252.887 113.062,206.478 116.634,206.478 	"/>
	<polygon style="fill:#6ECAEA;" points="303.998,252.887 292.98,252.887 306.739,206.478 317.757,206.478 	"/>
	<polygon style="fill:#6ECAEA;" points="312.664,252.887 309.092,252.887 322.851,206.478 326.423,206.478 	"/>
</g>
<rect x="142.538" y="202.388" style="fill:#E1E6E9;" width="54.589" height="54.589"/>
<rect x="146.639" y="206.49" style="fill:#27A2DB;" width="46.387" height="46.387"/>
<rect x="212.477" y="202.399" style="fill:#E1E6E9;" width="54.589" height="54.589"/>
<rect x="216.584" y="206.49" style="fill:#27A2DB;" width="46.387" height="46.387"/>
<g>
	<polygon style="fill:#6ECAEA;" points="164.139,252.887 153.121,252.887 166.879,206.478 177.899,206.478 	"/>
	<polygon style="fill:#6ECAEA;" points="172.805,252.887 169.233,252.887 182.992,206.478 186.563,206.478 	"/>
	<polygon style="fill:#6ECAEA;" points="234.068,252.887 223.05,252.887 236.809,206.478 247.827,206.478 	"/>
	<polygon style="fill:#6ECAEA;" points="242.734,252.887 239.162,252.887 252.921,206.478 256.493,206.478 	"/>
</g>
<g>
</g>
<g>
</g>
<g>
</g>
<g>
</g>
<g>
</g>
<g>
</g>
<g>
</g>
<g>
</g>
<g>
</g>
<g>
</g>
<g>
</g>
<g>
</g>
<g>
</g>
<g>
</g>
<g>
</g>
</svg>
