<?xml version="1.0" encoding="iso-8859-1"?>
<!-- Generator: Adobe Illustrator 19.0.0, SVG Export Plug-In . SVG Version: 6.00 Build 0)  -->
<svg version="1.1" id="Capa_1" xmlns="http://www.w3.org/2000/svg" xmlns:xlink="http://www.w3.org/1999/xlink" x="0px" y="0px"
	 viewBox="0 0 512 512" style="enable-background:new 0 0 512 512;" xml:space="preserve">
<circle style="fill:#FF6838;" cx="256" cy="256" r="256"/>
<path style="fill:#AE4E32;" d="M512,256c0-8.746-0.442-17.388-1.298-25.908l-84.077-84.077l-23.315,30.971l-79.81-79.81L193.667,107
	v151.772L85.375,374L220.98,509.605C232.432,511.172,244.118,512,256,512C397.385,512,512,397.385,512,256z"/>
<path style="fill:#005C83;" d="M323.5,146.015V97.176h-135v48.839H85.375V374h341.25V146.015H323.5z M208.5,117.176h95v28.839h-95
	V117.176z"/>
<polygon style="fill:#00263F;" points="426.625,146.015 323.5,146.015 323.5,97.176 255.667,97.176 255.667,117.176 303.5,117.176 
	303.5,146.015 255.667,146.015 255.667,374 426.625,374 "/>
<circle style="fill:#FFFFFF;" cx="256" cy="261" r="82"/>
<path style="fill:#E0E0E0;" d="M256,179c-0.112,0-0.222,0.008-0.333,0.008v163.983c0.112,0,0.221,0.008,0.333,0.008
	c45.287,0,82-36.713,82-82S301.287,179,256,179z"/>
<polygon style="fill:#F1333F;" points="312.272,242.243 274.757,242.243 274.757,204.728 237.243,204.728 237.243,242.243 
	199.728,242.243 199.728,279.757 237.243,279.757 237.243,317.272 274.757,317.272 274.757,279.757 312.272,279.757 "/>
<polygon style="fill:#AE283F;" points="274.757,242.243 274.757,204.728 255.667,204.728 255.667,317.272 274.757,317.272 
	274.757,279.757 312.272,279.757 312.272,242.243 "/>
<g>
</g>
<g>
</g>
<g>
</g>
<g>
</g>
<g>
</g>
<g>
</g>
<g>
</g>
<g>
</g>
<g>
</g>
<g>
</g>
<g>
</g>
<g>
</g>
<g>
</g>
<g>
</g>
<g>
</g>
</svg>
