<?xml version="1.0" encoding="iso-8859-1"?>
<!-- Generator: Adobe Illustrator 19.0.0, SVG Export Plug-In . SVG Version: 6.00 Build 0)  -->
<svg version="1.1" id="Capa_1" xmlns="http://www.w3.org/2000/svg" xmlns:xlink="http://www.w3.org/1999/xlink" x="0px" y="0px"
	 viewBox="0 0 512 512" style="enable-background:new 0 0 512 512;" xml:space="preserve">
<circle style="fill:#0074A3;" cx="256" cy="256" r="256"/>
<path style="fill:#005C83;" d="M512,256c0-8.756-0.442-17.408-1.301-25.938L409.637,129l-63.815,94.055L218.859,96.092l-67.359,21
	l66.312,66.312L105.667,383h-3.304l127.699,127.699C238.592,511.558,247.244,512,256,512C397.385,512,512,397.385,512,256z"/>
<path style="fill:#FFFFFF;" d="M143.945,367.754c74.703,8.984,149.406,8.984,224.11,0c6.666,9.23,17.511,15.244,29.767,15.245
	L409.637,383v-11.818c0-11.749-5.527-22.201-14.116-28.919c10.202-57.508,10.202-115.017,0-172.525
	c8.589-6.718,14.116-17.17,14.116-28.919V129l-11.815,0.001c-12.256,0.001-23.101,6.014-29.767,15.245
	c-74.703-8.984-149.406-8.984-224.11,0c-6.666-9.23-17.511-15.244-29.767-15.245L102.363,129v11.818
	c0,11.749,5.527,22.201,14.116,28.919c-10.202,57.508-10.202,115.017,0,172.525c-8.589,6.718-14.116,17.17-14.116,28.919V383
	l11.815-0.001C126.434,382.998,137.279,376.985,143.945,367.754z"/>
<path style="fill:#E0E0E0;" d="M409.637,140.818V129l-11.815,0.001c-12.256,0.001-23.101,6.014-29.767,15.245
	c-37.463-4.505-74.926-6.749-112.388-6.735V374.49c37.463,0.014,74.925-2.23,112.388-6.735c6.666,9.23,17.511,15.244,29.767,15.245
	h11.816v-11.818c0-11.749-5.527-22.201-14.116-28.919c10.202-57.508,10.202-115.017,0-172.525
	C404.11,163.019,409.637,152.568,409.637,140.818z"/>
<g>
	<polygon style="fill:#FF3F84;" points="218.859,182.736 153.215,182.736 145.79,164.812 193.51,117.092 151.5,117.092 
		151.5,96.092 218.859,96.092 226.284,114.017 178.564,161.736 218.859,161.736 	"/>
	<polygon style="fill:#FF3F84;" points="282,269.4 231.323,269.4 223.898,251.475 256.65,218.724 230,218.724 230,197.724 
		282,197.724 289.425,215.648 256.673,248.4 282,248.4 	"/>
</g>
<g>
	<polygon style="fill:#983262;" points="289.425,215.648 282,197.724 255.667,197.724 255.667,218.724 256.65,218.724 
		255.667,219.708 255.667,269.4 282,269.4 282,248.4 256.673,248.4 	"/>
	<polygon style="fill:#983262;" points="357.5,341.503 319.493,341.503 313.482,326.993 336.979,303.497 318.5,303.497 
		318.5,286.497 357.5,286.497 363.511,301.007 340.014,324.503 357.5,324.503 	"/>
</g>
<g>
</g>
<g>
</g>
<g>
</g>
<g>
</g>
<g>
</g>
<g>
</g>
<g>
</g>
<g>
</g>
<g>
</g>
<g>
</g>
<g>
</g>
<g>
</g>
<g>
</g>
<g>
</g>
<g>
</g>
</svg>
