<?xml version="1.0" encoding="iso-8859-1"?>
<!-- Generator: Adobe Illustrator 19.0.0, SVG Export Plug-In . SVG Version: 6.00 Build 0)  -->
<svg version="1.1" id="Capa_1" xmlns="http://www.w3.org/2000/svg" xmlns:xlink="http://www.w3.org/1999/xlink" x="0px" y="0px"
	 viewBox="0 0 512 512" style="enable-background:new 0 0 512 512;" xml:space="preserve">
<path style="fill:#495A79;" d="M482,375H32.518L0,407v60c0,24.814,21.186,45,46,45h421c24.814,0,45-20.186,45-45v-60L482,375z"/>
<path style="fill:#42516D;" d="M286,375v137h181c24.814,0,45-20.186,45-45v-60l-30-32H286z"/>
<path style="fill:#B758CE;" d="M497,330c-158.011,0-271.278,0-421,0c-41.514,0-76,35.832-76,77v15h512c0-26.042,0-50.958,0-77
	C512,336.709,505.291,330,497,330z"/>
<path style="fill:#FEDBAB;" d="M91,360c-33.091,0-60-26.909-60-60s26.909-60,60-60s60,26.909,60,60S124.091,360,91,360z"/>
<path style="fill:#E1E4FB;" d="M286,0c-57.9,0-105,47.1-105,105c0,15.899,3.6,31.5,10.499,45.599l-35.7,33.301
	c-4.499,4.199-5.999,10.8-3.898,16.5c2.399,5.7,7.798,9.6,14.099,9.6h120c57.9,0,105-47.1,105-105S343.9,0,286,0z"/>
<path style="fill:#C5C9F7;" d="M391,105c0,57.9-47.1,105-105,105V0C343.9,0,391,47.1,391,105z"/>
<path style="fill:#6F7D96;" d="M331,135c0,8.399-6.599,15-15,15h-60c-6,0-11.4-3.6-13.801-9.3C239.8,135,241,128.699,245.5,124.499
	L279.699,90H256c-8.401,0-15-6.601-15-15c0-8.401,6.599-15,15-15h60c6,0,11.4,3.6,13.801,9.3C332.2,75,331,81.299,326.5,85.499
	L292.301,120H316C324.401,120,331,126.599,331,135z"/>
<path style="fill:#66728B;" d="M331,135c0,8.399-6.599,15-15,15h-30V60h30c6,0,11.4,3.6,13.801,9.3
	C332.2,75,331,81.299,326.5,85.499L292.301,120H316C324.401,120,331,126.599,331,135z"/>
<path style="fill:#B758CE;" d="M437,240H211l-30,31.512V422l30,30h301V315C512,273.578,478.422,240,437,240z"/>
<path style="fill:#E1E4FB;" d="M196,240c-41.206,0-75,33.393-75,75v122c0,8.284,6.716,15,15,15c26.042,0,48.958,0,75,0V240H196z"/>
<path style="fill:#AA3DC8;" d="M437,240H286v212h226V315C512,273.578,478.422,240,437,240z"/>
<g>
</g>
<g>
</g>
<g>
</g>
<g>
</g>
<g>
</g>
<g>
</g>
<g>
</g>
<g>
</g>
<g>
</g>
<g>
</g>
<g>
</g>
<g>
</g>
<g>
</g>
<g>
</g>
<g>
</g>
</svg>
