<?xml version="1.0" encoding="iso-8859-1"?>
<!-- Generator: Adobe Illustrator 19.0.0, SVG Export Plug-In . SVG Version: 6.00 Build 0)  -->
<svg version="1.1" id="Capa_1" xmlns="http://www.w3.org/2000/svg" xmlns:xlink="http://www.w3.org/1999/xlink" x="0px" y="0px"
	 viewBox="0 0 426.667 426.667" style="enable-background:new 0 0 426.667 426.667;" xml:space="preserve">
<rect y="131.987" style="fill:#44C4A1;" width="293.333" height="152.303"/>
<rect y="193.316" style="fill:#3EA69B;" width="293.333" height="90.982"/>
<path style="fill:#D5D6DB;" d="M424.469,191.645l-33.341-53.266c-2.056-3.285-5.658-5.28-9.534-5.28h-88.278v151.211h128.336
	c2.769,0,5.014-2.245,5.014-5.014v-79.998C426.667,196.591,425.905,193.939,424.469,191.645z"/>
<polygon style="fill:#2D93BA;" points="328.695,149.114 370.509,149.114 394.737,185.421 394.737,216.923 328.695,216.923 "/>
<polygon style="fill:#27A2DB;" points="394.737,185.421 370.509,149.114 328.695,149.114 328.695,170.396 "/>
<g>
	<rect y="251.812" style="fill:#F6C358;" width="293.333" height="32.474"/>
	<path style="fill:#F6C358;" d="M322.981,250.121v34.168h98.781c2.709,0,4.905-2.196,4.905-4.904v-29.264H322.981z"/>
</g>
<circle style="fill:#2F4859;" cx="335.659" cy="284.324" r="37.973"/>
<circle style="fill:#D5D6DB;" cx="335.659" cy="284.324" r="24.674"/>
<circle style="fill:#2F4859;" cx="82.133" cy="284.324" r="37.973"/>
<g>
	<circle style="fill:#D5D6DB;" cx="82.133" cy="284.324" r="24.674"/>
	<path style="fill:#D5D6DB;" d="M415.211,241.64h11.456v-18.659h-11.456c-2.679,0-4.851,2.172-4.851,4.851v8.956
		C410.359,239.468,412.531,241.64,415.211,241.64z"/>
</g>
<g>
	<path style="fill:#E56353;" d="M9.839,222.981H0v18.659h9.839c3.572,0,6.468-2.896,6.468-6.468v-5.722
		C16.307,225.877,13.411,222.981,9.839,222.981z"/>
	<path style="fill:#E56353;" d="M416.828,222.981c-3.573,0-6.468,2.896-6.468,6.468v5.722c0,3.572,2.896,6.468,6.468,6.468h9.839
		v-18.659H416.828z"/>
	<rect x="331.52" y="127.319" style="fill:#E56353;" width="24.102" height="5.781"/>
</g>
<path style="fill:#27A2DB;" d="M348.135,104.369h-9.347c-2.659,0-4.814,2.155-4.814,4.814v18.135h18.974v-18.135
	C352.949,106.524,350.793,104.369,348.135,104.369z"/>
<path style="fill:#D15241;" d="M345.591,107.446h-4.258c-2.659,0-4.814,2.155-4.814,4.814v11.981h13.886V112.26
	C350.405,109.602,348.249,107.446,345.591,107.446z"/>
<g>
	<rect x="24.614" y="152.446" style="fill:#EBF0F3;" width="59.989" height="32.973"/>
	<rect x="203.093" y="152.446" style="fill:#EBF0F3;" width="59.989" height="32.973"/>
	<circle style="fill:#EBF0F3;" cx="142.677" cy="193.316" r="41.28"/>
</g>
<rect x="137.173" y="159.396" style="fill:#D15241;" width="10.961" height="67.831"/>
<rect x="108.757" y="187.812" style="fill:#D15241;" width="67.831" height="10.961"/>
<g>
</g>
<g>
</g>
<g>
</g>
<g>
</g>
<g>
</g>
<g>
</g>
<g>
</g>
<g>
</g>
<g>
</g>
<g>
</g>
<g>
</g>
<g>
</g>
<g>
</g>
<g>
</g>
<g>
</g>
</svg>
