<?xml version="1.0" encoding="iso-8859-1"?>
<!-- Generator: Adobe Illustrator 19.0.0, SVG Export Plug-In . SVG Version: 6.00 Build 0)  -->
<svg version="1.1" id="Capa_1" xmlns="http://www.w3.org/2000/svg" xmlns:xlink="http://www.w3.org/1999/xlink" x="0px" y="0px"
	 viewBox="0 0 426.667 426.667" style="enable-background:new 0 0 426.667 426.667;" xml:space="preserve">
<rect x="19.132" style="fill:#D5D6DB;" width="390.656" height="304.597"/>
<path style="fill:#44C4A1;" d="M330.219,91.988H97.041L19.132,240.124v86.413c0,22.726,18.423,41.149,41.149,41.149h308.343
	c22.726,0,41.149-18.423,41.149-41.149v-86.413L330.219,91.988z"/>
<g>
	<path style="fill:#3A556A;" d="M301.415,308.706v96.153c0,12.044,9.764,21.808,21.807,21.808h19.481
		c12.044,0,21.807-9.764,21.807-21.808v-96.153H301.415z"/>
	<path style="fill:#3A556A;" d="M72.351,308.706v96.153c0,12.044,9.764,21.808,21.808,21.808h19.48
		c12.044,0,21.808-9.764,21.808-21.808v-96.153H72.351z"/>
</g>
<path style="fill:#64798A;" d="M19.132,304.591v34.651c0,15.71,12.735,28.444,28.444,28.444H381.33
	c15.709,0,28.444-12.735,28.444-28.444v-34.651H19.132z"/>
<polygon style="fill:#2D93BA;" points="108.014,107.076 318.56,107.076 362.59,214.406 66.316,214.406 "/>
<polygon style="fill:#27A2DB;" points="66.316,214.406 108.014,107.076 318.56,107.076 "/>
<g>
	<polygon style="fill:#44C4A1;" points="383.782,195.348 387.462,186.146 424.269,186.146 424.269,165.903 372.74,165.903 
		372.74,195.348 	"/>
	<polygon style="fill:#44C4A1;" points="42.885,195.348 39.204,186.146 2.398,186.146 2.398,165.903 53.927,165.903 53.927,195.348 
			"/>
</g>
<circle style="fill:#DC8744;" cx="68.237" cy="263.211" r="26.061"/>
<circle style="fill:#EBF0F3;" cx="68.237" cy="263.211" r="19.725"/>
<circle style="fill:#DC8744;" cx="359.04" cy="263.211" r="26.061"/>
<circle style="fill:#EBF0F3;" cx="359.04" cy="263.211" r="19.725"/>
<path style="fill:#FCD462;" d="M306.248,51.008H122.658c-7.822,0-14.164,6.342-14.164,14.164v12.651
	c0,7.823,6.341,14.164,14.164,14.164h183.591c7.822,0,14.164-6.341,14.164-14.164V65.172
	C320.412,57.35,314.071,51.008,306.248,51.008z"/>
<circle style="fill:#44C4A1;" cx="136.431" cy="71.497" r="16.986"/>
<circle style="fill:#E56353;" cx="292.779" cy="71.497" r="16.986"/>
<rect x="176.896" y="51.008" style="fill:#DC8744;" width="76.126" height="40.977"/>
<circle style="fill:#E1E6E9;" cx="214.443" cy="261.333" r="43.277"/>
<g>
	<rect x="208.282" y="230.741" style="fill:#E56353;" width="12.343" height="61.175"/>
	<rect x="183.851" y="255.138" style="fill:#E56353;" width="61.175" height="12.343"/>
</g>
<g>
</g>
<g>
</g>
<g>
</g>
<g>
</g>
<g>
</g>
<g>
</g>
<g>
</g>
<g>
</g>
<g>
</g>
<g>
</g>
<g>
</g>
<g>
</g>
<g>
</g>
<g>
</g>
<g>
</g>
</svg>
