<?xml version="1.0" encoding="iso-8859-1"?>
<!-- Generator: Adobe Illustrator 19.0.0, SVG Export Plug-In . SVG Version: 6.00 Build 0)  -->
<svg version="1.1" id="Layer_1" xmlns="http://www.w3.org/2000/svg" xmlns:xlink="http://www.w3.org/1999/xlink" x="0px" y="0px"
	 viewBox="0 0 512 512" style="enable-background:new 0 0 512 512;" xml:space="preserve">
<path style="fill:#D80027;" d="M445.429,48.376C401.306,6.939,331.946,9.115,290.507,53.237L256,89.979l-34.507-36.742
	C180.054,9.115,110.694,6.938,66.571,48.376c-44.125,41.437-46.299,110.798-4.862,154.922L256,392l194.291-188.704
	C491.728,159.174,489.554,89.813,445.429,48.376z"/>
<path style="fill:#A2001D;" d="M445.429,48.376C401.306,6.939,331.946,9.115,290.507,53.237L256,89.979V392l194.291-188.704
	C491.728,159.174,489.554,89.813,445.429,48.376z"/>
<path style="fill:#FFD6A0;" d="M506.834,331.922c-10.256-17.032-32.379-22.525-49.413-12.269l-116.224,59.381
	c6.664-6.533,10.802-15.632,10.802-25.701c0-19.883-16.118-36-36-36H206.861c-45.262,0-66.595-32-142.864-32
	c-10.398,0-15.998,0-15.998,0v144c0,0,36.8,30.4,64,48c24.27,15.704,35.664,16,54.139,16l119.195-0.043
	c14.931,0,29.866-6.357,46.4-14.357c16.533-8,162.83-97.6,162.83-97.6C511.6,371.077,517.091,348.955,506.834,331.922z"/>
<path style="fill:#FFC170;" d="M506.834,331.936c-10.256-17.034-32.379-22.525-49.413-12.269l-116.224,59.381
	c6.664-6.533,10.802-15.632,10.802-25.702c0-19.883-16.118-36-36-36h-61.216c-0.518,0,1.65-0.026,1.138-0.034v176.019l29.413-0.03
	c14.931,0,29.866-6.357,46.4-14.357c16.533-8,162.83-97.6,162.83-97.6C511.6,371.09,517.091,348.97,506.834,331.936z"/>
<rect y="285.328" style="fill:#78B9EB;" width="63.998" height="208"/>
<g>
</g>
<g>
</g>
<g>
</g>
<g>
</g>
<g>
</g>
<g>
</g>
<g>
</g>
<g>
</g>
<g>
</g>
<g>
</g>
<g>
</g>
<g>
</g>
<g>
</g>
<g>
</g>
<g>
</g>
</svg>
