<?xml version="1.0" encoding="iso-8859-1"?>
<!-- Generator: Adobe Illustrator 19.0.0, SVG Export Plug-In . SVG Version: 6.00 Build 0)  -->
<svg version="1.1" id="Capa_1" xmlns="http://www.w3.org/2000/svg" xmlns:xlink="http://www.w3.org/1999/xlink" x="0px" y="0px"
	 viewBox="0 0 409.6 409.6" style="enable-background:new 0 0 409.6 409.6;" xml:space="preserve">
<path style="fill:#64798A;" d="M182.88,0H29.894c-4.429,0-8.019,3.59-8.019,8.018v40.764c0,4.428,3.59,8.018,8.018,8.018h152.988
	c4.428,0,8.018-3.59,8.018-8.018V8.018C190.899,3.59,187.309,0,182.88,0z"/>
<path style="fill:#EBF0F3;" d="M198.117,108.27l-18.617-16.057c-6.028-5.2-9.495-12.766-9.495-20.727V56.8H42.769v14.685
	c0,7.961-3.466,15.527-9.494,20.727L14.657,108.27C5.351,116.297,0,127.977,0,140.267v257.571c0,6.496,5.266,11.762,11.761,11.762
	h189.252c6.496,0,11.762-5.266,11.762-11.762v-257.57C212.774,127.977,207.423,116.297,198.117,108.27z"/>
<path style="fill:#E1E6E9;" d="M14.996,134.812c-0.356,1.782-0.562,3.604-0.562,5.455v254.898H198.34V140.269
	c0-1.851-0.206-3.674-0.562-5.456H14.996z"/>
<path style="fill:#D5D6DB;" d="M0,386.006v11.832c0,6.496,5.266,11.762,11.761,11.762h189.252c6.496,0,11.762-5.266,11.762-11.762
	v-11.832C142.608,371.597,71.649,372.255,0,386.006z"/>
<path style="fill:#FFFFFF;" d="M101.925,185.701c-8.313,0-15.051,6.739-15.051,15.052v113.872c0,8.312,6.738,15.051,15.051,15.051
	h110.849V185.701H101.925z"/>
<path style="fill:#FCD462;" d="M102.812,299.868c0.014,9.631,11.575,19.194,34.019,25.849
	c40.197,11.924,99.997,10.015,133.565-4.262c14.827-6.305,22.03-13.969,22.018-21.587v-40.455H102.812
	C102.812,259.413,102.812,299.868,102.812,299.868z"/>
<path style="fill:#F6C358;" d="M258.396,233.043c-40.197-11.923-99.997-10.015-133.566,4.262
	c-33.569,14.277-28.197,35.516,12.001,47.438c40.197,11.923,99.997,10.015,133.565-4.262
	C303.966,266.204,298.593,244.965,258.396,233.043z"/>
<path style="fill:#FCD462;" d="M255.937,235.553c-38.571-10.766-95.952-9.042-128.162,3.848
	c-32.211,12.891-27.056,32.068,11.515,42.833c38.57,10.766,95.951,9.042,128.162-3.848
	C299.664,265.495,294.508,246.318,255.937,235.553z"/>
<path style="fill:#F6C358;" d="M258.396,233.042c-2.842-0.843-5.792-1.609-8.814-2.314l-120.734,51.347
	c2.492,0.931,5.141,1.825,7.983,2.668c2.843,0.843,5.792,1.61,8.814,2.315l120.734-51.347
	C263.886,234.78,261.238,233.885,258.396,233.042z"/>
<path style="fill:#44C4A1;" d="M219.69,201.588c-4.156,8.688,2.125,22.313,19.473,38.03c31.072,28.151,85.804,52.321,122.245,53.984
	c16.095,0.736,25.905-3.054,29.193-9.927l17.515-36.467L237.205,165.12L219.69,201.588z"/>
<path style="fill:#3EA69B;" d="M388.868,208.709c-31.072-28.151-85.803-52.321-122.244-53.985
	c-36.442-1.665-40.794,19.808-9.721,47.958c31.073,28.151,85.804,52.321,122.245,53.985
	C415.589,258.331,419.94,236.859,388.868,208.709z"/>
<path style="fill:#44C4A1;" d="M385.565,209.907c-30.108-26.403-82.578-49.693-117.194-52.018
	c-34.617-2.326-38.272,17.192-8.164,43.595c30.108,26.403,82.577,49.693,117.194,52.019
	C412.018,255.828,415.672,236.31,385.565,209.907z"/>
<path style="fill:#3EA69B;" d="M388.868,208.709c-2.198-1.991-4.524-3.958-6.943-5.902l-131.063-5.985
	c1.843,1.918,3.844,3.871,6.041,5.861c2.197,1.991,4.524,3.957,6.942,5.902l131.063,5.985
	C393.065,212.652,391.065,210.699,388.868,208.709z"/>
<path style="fill:#27A2DB;" d="M147.865,316.361c-24.897,0-45.08,20.183-45.08,45.079c0,24.897,20.183,45.08,45.08,45.08h108.328
	v-90.159H147.865z"/>
<path style="fill:#2D93BA;" d="M103.233,355.42c-0.264,1.976-0.448,3.974-0.448,6.02c0,24.897,20.183,45.08,45.08,45.08h108.328
	v-12.041H147.865C125.015,394.479,106.183,377.463,103.233,355.42z"/>
<path style="fill:#E56353;" d="M364.521,316.361c24.896,0,45.079,20.183,45.079,45.079c0,24.897-20.183,45.08-45.079,45.08H256.193
	v-90.159H364.521z"/>
<path style="fill:#D15241;" d="M409.152,355.42c0.264,1.976,0.448,3.974,0.448,6.02c0,24.897-20.183,45.08-45.079,45.08H256.193
	v-12.041h108.328C387.37,394.479,406.202,377.463,409.152,355.42z"/>
<g>
</g>
<g>
</g>
<g>
</g>
<g>
</g>
<g>
</g>
<g>
</g>
<g>
</g>
<g>
</g>
<g>
</g>
<g>
</g>
<g>
</g>
<g>
</g>
<g>
</g>
<g>
</g>
<g>
</g>
</svg>
