<?xml version="1.0" encoding="iso-8859-1"?>
<!-- Generator: Adobe Illustrator 19.0.0, SVG Export Plug-In . SVG Version: 6.00 Build 0)  -->
<svg version="1.1" id="Capa_1" xmlns="http://www.w3.org/2000/svg" xmlns:xlink="http://www.w3.org/1999/xlink" x="0px" y="0px"
	 viewBox="0 0 512 512" style="enable-background:new 0 0 512 512;" xml:space="preserve">
<circle style="fill:#B9EAFF;" cx="256" cy="256" r="256"/>
<path style="fill:#35CCFF;" d="M259.95,511.95c131.658-1.994,239.204-103.362,250.964-232.43L339.178,107.784l-9.643,16.083
	L265.667,60L248.99,160.543l-56.525-56.525l20.961,270.936l-27.093,63.38L259.95,511.95z"/>
<rect x="245.67" y="60" style="fill:#333333;" width="20" height="287"/>
<rect x="256" y="60" style="fill:#1A1A1A;" width="9.667" height="287"/>
<rect x="66.171" y="236.83" transform="matrix(-0.1883 -0.9821 0.9821 -0.1883 6.7358 499.227)" style="fill:#333333;" width="286.997" height="20"/>
<rect x="292.335" y="103.322" transform="matrix(-0.9821 -0.1883 0.1883 -0.9821 552.7852 546.156)" style="fill:#1A1A1A;" width="20" height="286.997"/>
<rect x="186.33" y="232.33" style="fill:#662E57;" width="141.33" height="206"/>
<rect x="256" y="232.33" style="fill:#590F38;" width="71.67" height="206"/>
<path style="fill:#FF7900;" d="M377.748,404.116c-4.796-20.103-24.396-21.331-41.227-15.602c-5.314,1.809-12.649,3.55-20.048,5.717
	c-7.399-2.168-14.734-3.909-20.048-5.717c-16.832-5.728-36.431-4.5-41.227,15.603s9.929,31.606,26.76,37.335
	c8.035,2.734,21.8,2.409,34.515-0.862c12.715,3.271,26.48,3.596,34.515,0.862C367.819,435.723,382.544,424.219,377.748,404.116z"/>
<path style="fill:#D86100;" d="M377.748,404.116c-4.796-20.103-24.396-21.331-41.227-15.603c-5.308,1.807-12.631,3.545-20.021,5.709
	v46.373c12.708,3.265,26.458,3.588,34.488,0.855C367.819,435.723,382.544,424.219,377.748,404.116z"/>
<path style="fill:#FF7900;" d="M316.471,437.185c-15.426,0-24.063-25.633-24.063-46.637s8.637-22.371,24.063-22.371
	s24.063,1.367,24.063,22.371S331.897,437.185,316.471,437.185z"/>
<path style="fill:#D86100;" d="M340.534,390.548c0-20.99-8.626-22.369-24.034-22.37v69.006
	C331.908,437.151,340.534,411.539,340.534,390.548z"/>
<path style="fill:#FFAA00;" d="M337.44,375.857c-8.448,0-15.993,4.614-20.967,11.846c-4.974-7.232-12.519-11.846-20.967-11.846
	c-14.979,0-27.122,14.503-27.122,32.393s32.683,34.34,47.662,34.34c0.455,0,2.148,0,2.603,0c14.979,0,45.913-16.45,45.913-34.34
	C364.561,390.359,352.419,375.857,337.44,375.857z"/>
<path style="fill:#D18600;" d="M337.44,375.856c-8.433,0-15.965,4.599-20.94,11.809v54.923c0.686,0,1.793,0,2.149,0
	c14.979,0,45.913-16.45,45.913-34.339C364.562,390.359,352.418,375.856,337.44,375.856z"/>
<path style="fill:#FFCE00;" d="M316.469,441.829c-13.344,0-20.814-23.012-20.814-41.868c0-18.856,7.471-20.083,20.814-20.083
	s20.814,1.227,20.814,20.083C337.283,418.817,329.813,441.829,316.469,441.829z"/>
<path style="fill:#FFC000;" d="M337.283,399.961c0-18.841-7.459-20.081-20.783-20.083v61.95
	C329.824,441.792,337.283,418.802,337.283,399.961z"/>
<g>
</g>
<g>
</g>
<g>
</g>
<g>
</g>
<g>
</g>
<g>
</g>
<g>
</g>
<g>
</g>
<g>
</g>
<g>
</g>
<g>
</g>
<g>
</g>
<g>
</g>
<g>
</g>
<g>
</g>
</svg>
