<?xml version="1.0" encoding="iso-8859-1"?>
<!-- Generator: Adobe Illustrator 19.0.0, SVG Export Plug-In . SVG Version: 6.00 Build 0)  -->
<svg version="1.1" id="Capa_1" xmlns="http://www.w3.org/2000/svg" xmlns:xlink="http://www.w3.org/1999/xlink" x="0px" y="0px"
	 viewBox="0 0 512 512" style="enable-background:new 0 0 512 512;" xml:space="preserve">
<path style="fill:#CC7400;" d="M104.221,498.394c-19.368-19.368-16.868-44.217,0-61.086l212.695-212.695
	c8.814-8.814,23.105-8.814,31.919,0l29.167,29.166c8.814,8.814,8.814,23.105,0,31.919L165.307,498.395
	C148.439,515.264,123.59,517.764,104.221,498.394z"/>
<path style="fill:#AA6100;" d="M137.735,468.285l212.695-212.696c6.598-6.598,16.266-8.255,24.407-4.974l-26.003-26.003
	c-8.814-8.814-23.105-8.814-31.919,0L104.221,437.309c-16.868,16.868-19.368,41.717,0,61.086
	c6.806,6.806,14.291,10.902,21.867,12.632C121.131,495.954,125.874,480.147,137.735,468.285z"/>
<path style="fill:#9A4C00;" d="M372.516,262.64L339.976,230.1c-7.85-7.85-7.85-20.696,0-28.547l0,0c7.85-7.85,20.696-7.85,28.547,0
	l32.539,32.539c7.85,7.85,7.85,20.696,0,28.546l0,0C393.212,270.49,380.367,270.49,372.516,262.64z"/>
<path style="fill:#663A00;" d="M363.881,225.457L363.881,225.457c7.85-7.85,20.696-7.85,28.547,0l-23.904-23.904
	c-7.85-7.85-20.696-7.85-28.547,0l0,0c-7.85,7.851-7.85,20.696,0,28.546l23.903,23.903
	C356.031,246.152,356.031,233.307,363.881,225.457z"/>
<rect x="115.491" y="428.078" transform="matrix(-0.7071 -0.7071 0.7071 -0.7071 -43.0105 870.0406)" style="fill:#91DC5A;" width="86.39" height="31.7"/>
<rect x="137.904" y="405.669" transform="matrix(-0.7071 -0.7071 0.7071 -0.7071 11.0953 847.6351)" style="fill:#FF728B;" width="86.39" height="31.7"/>
<polygon style="fill:#6DC82A;" points="139.345,402.185 139.345,402.185 116.929,424.6 149.175,456.846 171.59,434.43 "/>
<rect x="143.877" y="391.25" transform="matrix(-0.7071 -0.7071 0.7071 -0.7071 -3.3231 812.8234)" style="fill:#FF3F62;" width="45.606" height="31.7"/>
<circle style="fill:#FFFFFF;" cx="234.263" cy="369.104" r="26.867"/>
<path style="fill:#D1E7F8;" d="M234.265,342.235c-14.841,0-26.871,12.03-26.871,26.871c0,8.095,3.584,15.348,9.247,20.274
	l37.899-37.899C249.613,345.819,242.36,342.235,234.265,342.235z"/>
<g>
	<path style="fill:#D9CCBC;" d="M354.455,161.586L354.455,161.586c-8.217,0-14.94-6.723-14.94-14.94V14.94
		c0-8.217,6.723-14.94,14.94-14.94l0,0c8.217,0,14.94,6.723,14.94,14.94v131.708C369.394,154.864,362.671,161.586,354.455,161.586z"
		/>
	<path style="fill:#D9CCBC;" d="M406.445,189.164L406.445,189.164c-8.217,0-14.94-6.723-14.94-14.94v-35.569
		c0-8.217,6.723-14.94,14.94-14.94l0,0c8.217,0,14.94,6.723,14.94,14.94v35.569C421.384,182.441,414.661,189.164,406.445,189.164z"
		/>
	<path style="fill:#D9CCBC;" d="M406.445,109.252L406.445,109.252c-8.217,0-14.94-6.723-14.94-14.94V84.005
		c0-8.217,6.723-14.94,14.94-14.94l0,0c8.217,0,14.94,6.723,14.94,14.94v10.307C421.384,102.529,414.661,109.252,406.445,109.252z"
		/>
	<circle style="fill:#D9CCBC;" cx="410.404" cy="349.963" r="7.726"/>
	<circle style="fill:#D9CCBC;" cx="369.392" cy="391.211" r="7.726"/>
	<circle style="fill:#D9CCBC;" cx="410.404" cy="429.441" r="7.726"/>
</g>
<g>
</g>
<g>
</g>
<g>
</g>
<g>
</g>
<g>
</g>
<g>
</g>
<g>
</g>
<g>
</g>
<g>
</g>
<g>
</g>
<g>
</g>
<g>
</g>
<g>
</g>
<g>
</g>
<g>
</g>
</svg>
