<?xml version="1.0" encoding="iso-8859-1"?>
<!-- Generator: Adobe Illustrator 19.0.0, SVG Export Plug-In . SVG Version: 6.00 Build 0)  -->
<svg version="1.1" id="Capa_1" xmlns="http://www.w3.org/2000/svg" xmlns:xlink="http://www.w3.org/1999/xlink" x="0px" y="0px"
	 viewBox="0 0 512 512" style="enable-background:new 0 0 512 512;" xml:space="preserve">
<path style="fill:#FFAA20;" d="M170.256,487.678c-15.669,15.683-36.526,24.323-58.699,24.322
	c-22.166-0.007-43.009-8.633-58.685-24.308c0,0-0.007-0.007-0.014-0.014l-14.311-14.325l-14.169-14.169
	c-32.333-32.347-32.326-84.987,0.007-117.335L341.744,24.322C357.412,8.64,378.269,0,400.443,0
	c22.166,0.007,43.009,8.633,58.685,24.308c0,0,0.007,0.007,0.014,0.014l14.219,14.219l14.261,14.276
	c32.333,32.347,32.326,84.987-0.007,117.334L170.256,487.678z"/>
<path style="fill:#FF8E00;" d="M170.256,487.678c-15.669,15.683-36.526,24.323-58.699,24.322
	c-22.166-0.007-43.009-8.633-58.685-24.308c0,0-0.007-0.007-0.014-0.014l-14.311-14.325L473.36,38.541l14.261,14.276
	c32.333,32.347,32.326,84.987-0.007,117.334L170.256,487.678z"/>
<polygon style="fill:#FFC473;" points="266.62,391.272 120.764,245.416 247.396,118.713 393.252,264.569 "/>
<polygon style="fill:#FFAA20;" points="266.62,391.272 193.624,318.277 320.291,191.61 393.252,264.569 "/>
<g>
	
		<rect x="248.412" y="290.768" transform="matrix(0.7071 0.7071 -0.7071 0.7071 293.2776 -96.6678)" style="fill:#FF8E00;" width="29.83" height="29.83"/>
	
		<rect x="232.673" y="186.193" transform="matrix(0.7071 0.7071 -0.7071 0.7071 214.7216 -116.1685)" style="fill:#FF8E00;" width="29.83" height="29.83"/>
	
		<rect x="285.904" y="237.382" transform="matrix(0.7071 0.7071 -0.7071 0.7071 266.5085 -138.8148)" style="fill:#FF8E00;" width="29.83" height="29.83"/>
	
		<rect x="177.762" y="241.098" transform="matrix(0.7071 0.7071 -0.7071 0.7071 237.4623 -61.2587)" style="fill:#FF8E00;" width="29.83" height="29.83"/>
</g>
<g>
	
		<rect x="56.798" y="391.126" transform="matrix(0.7071 0.7071 -0.7071 0.7071 308.1189 68.2177)" style="fill:#E67500;" width="29.83" height="29.83"/>
	
		<rect x="112.087" y="412.232" transform="matrix(0.7071 0.7071 -0.7071 0.7071 339.237 35.3045)" style="fill:#E67500;" width="29.83" height="29.83"/>
	
		<rect x="160.439" y="357.625" transform="matrix(0.7071 0.7071 -0.7071 0.7071 314.7859 -14.8795)" style="fill:#E67500;" width="29.83" height="29.83"/>
	
		<rect x="98.984" y="336.545" transform="matrix(0.7071 0.7071 -0.7071 0.7071 281.8802 22.4017)" style="fill:#E67500;" width="29.83" height="29.83"/>
	
		<rect x="321.67" y="122.53" transform="matrix(0.7071 0.7071 -0.7071 0.7071 195.772 -197.7448)" style="fill:#E67500;" width="29.83" height="29.83"/>
	
		<rect x="379.295" y="143.618" transform="matrix(0.7071 0.7071 -0.7071 0.7071 227.5615 -232.315)" style="fill:#E67500;" width="29.83" height="29.83"/>
	
		<rect x="363.856" y="71.55" transform="matrix(0.7071 0.7071 -0.7071 0.7071 172.0795 -242.5064)" style="fill:#E67500;" width="29.83" height="29.83"/>
	
		<rect x="421.488" y="86.992" transform="matrix(0.7071 0.7071 -0.7071 0.7071 199.8783 -278.7355)" style="fill:#E67500;" width="29.83" height="29.83"/>
</g>
<g>
</g>
<g>
</g>
<g>
</g>
<g>
</g>
<g>
</g>
<g>
</g>
<g>
</g>
<g>
</g>
<g>
</g>
<g>
</g>
<g>
</g>
<g>
</g>
<g>
</g>
<g>
</g>
<g>
</g>
</svg>
