<?xml version="1.0" encoding="iso-8859-1"?>
<!-- Generator: Adobe Illustrator 19.0.0, SVG Export Plug-In . SVG Version: 6.00 Build 0)  -->
<svg version="1.1" id="Capa_1" xmlns="http://www.w3.org/2000/svg" xmlns:xlink="http://www.w3.org/1999/xlink" x="0px" y="0px"
	 viewBox="0 0 512 512" style="enable-background:new 0 0 512 512;" xml:space="preserve">
<path style="fill:#E50027;" d="M361,75v76h-60V75c0-8.401-6.599-15-15-15h-60c-8.401,0-15,6.599-15,15v76h-60V75
	c0-41.4,33.6-75,75-75h60C327.4,0,361,33.6,361,75z"/>
<path style="fill:#C1001F;" d="M361,75v76h-60V75c0-8.401-6.599-15-15-15h-30V0h30C327.4,0,361,33.6,361,75z"/>
<path style="fill:#E50027;" d="M512,317v150c0,24.899-20.099,45-45,45H45c-24.901,0-45-20.101-45-45V317c0-8.401,6.599-15,15-15h482
	C505.401,302,512,308.599,512,317z"/>
<path style="fill:#C1001F;" d="M512,317v150c0,24.899-20.099,45-45,45H256V302h241C505.401,302,512,308.599,512,317z"/>
<path style="fill:#FD003A;" d="M512,166v151c0,41.4-33.6,75-75,75H75c-41.4,0-75-33.6-75-75V166c0-24.901,20.099-45,45-45h422
	C491.901,121,512,141.099,512,166z"/>
<path style="fill:#E50027;" d="M512,166v151c0,41.4-33.6,75-75,75H256V121h211C491.901,121,512,141.099,512,166z"/>
<g>
	<polygon style="fill:#095C92;" points="452,121 452,302 437,317 376,317 361,302 361,121 	"/>
	<path style="fill:#095C92;" d="M452,392v15c0,24.899-21.099,45-46,45s-45-20.101-45-45v-15l15-15h61L452,392z"/>
</g>
<rect x="361" y="302" style="fill:#A8AFF1;" width="91" height="90"/>
<g>
	<polygon style="fill:#0D70B2;" points="151,121 151,302 136,317 75,317 60,302 60,121 	"/>
	<path style="fill:#0D70B2;" d="M151,392v15c0,24.899-21.099,45-46,45s-45-20.101-45-45v-15l15-15h61L151,392z"/>
</g>
<rect x="60" y="302" style="fill:#C5C9F7;" width="91" height="90"/>
<path style="fill:#E1E4FB;" d="M301,257c0,8.401-6.599,15-15,15h-15v15c0,8.401-6.599,15-15,15s-15-6.599-15-15v-15h-15
	c-8.401,0-15-6.599-15-15s6.599-15,15-15h15v-15c0-8.401,6.599-15,15-15s15,6.599,15,15v15h15C294.401,242,301,248.599,301,257z"/>
<path style="fill:#C5C9F7;" d="M301,257c0,8.401-6.599,15-15,15h-15v15c0,8.401-6.599,15-15,15v-90c8.401,0,15,6.599,15,15v15h15
	C294.401,242,301,248.599,301,257z"/>
<g>
</g>
<g>
</g>
<g>
</g>
<g>
</g>
<g>
</g>
<g>
</g>
<g>
</g>
<g>
</g>
<g>
</g>
<g>
</g>
<g>
</g>
<g>
</g>
<g>
</g>
<g>
</g>
<g>
</g>
</svg>
