<?xml version="1.0" encoding="iso-8859-1"?>
<!-- Generator: Adobe Illustrator 19.0.0, SVG Export Plug-In . SVG Version: 6.00 Build 0)  -->
<svg version="1.1" id="Capa_1" xmlns="http://www.w3.org/2000/svg" xmlns:xlink="http://www.w3.org/1999/xlink" x="0px" y="0px"
	 viewBox="0 0 426.667 426.667" style="enable-background:new 0 0 426.667 426.667;" xml:space="preserve">
<g>
	<rect x="366.08" y="292.267" style="fill:#D15241;" width="12.113" height="32.307"/>
	<rect x="293.419" y="292.267" style="fill:#D15241;" width="12.113" height="32.307"/>
</g>
<path style="fill:#D5D6DB;" d="M404.821,247.953l-0.378-0.189c0,0-39.123-47.46-54.699-60.664
	c-10.787-9.145-25.757-11.675-39.898-11.675H16.153v30.394h144.666l57.353,63.287c18.339,20.237,44.377,31.78,71.688,31.78h102.466
	c15.432,0,27.942-12.51,27.942-27.942C420.267,264.79,415.199,258.982,404.821,247.953z"/>
<rect x="55.808" y="104.888" style="fill:#D15241;" width="368.811" height="8.077"/>
<rect x="239.659" y="96.056" style="fill:#E56353;" width="10.854" height="25.728"/>
<path style="fill:#2D93BA;" d="M263.137,142.832h-36.378c-4.451,0-8.059,3.608-8.059,8.059v24.534h52.497v-24.534
	C271.196,146.441,267.588,142.832,263.137,142.832z"/>
<path style="fill:#1C75A1;" d="M252.585,121.295H237.31c-4.058,0-7.348,3.29-7.348,7.349v14.189h29.972v-14.189
	C259.934,124.585,256.644,121.295,252.585,121.295z"/>
<polygon style="fill:#D15241;" points="426.667,330.611 230.814,330.611 230.814,308.401 242.928,308.401 242.928,318.496 
	414.552,318.496 414.552,308.401 426.667,308.401 "/>
<polygon style="fill:#CE412D;" points="0,135.84 0,221.988 16.153,221.988 32.306,191.701 12.788,135.84 "/>
<path style="fill:#2D93BA;" d="M363.277,235.212l-21.46-28.742c-5.707-7.644-14.114-12.055-22.972-12.055h-45
	c-4.597,0-7.454,5.633-5.126,10.103l14.302,27.466c4.507,8.657,12.741,13.973,21.641,13.973h54.183
	C363.771,245.958,366.45,239.463,363.277,235.212z"/>
<path style="fill:#27A2DB;" d="M363.277,235.212l-21.46-28.742c-5.707-7.644-14.114-12.055-22.972-12.055h-45
	c-2.294,0-4.155,1.403-5.154,3.364l95.092,45.063C364.997,240.597,365.03,237.561,363.277,235.212z"/>
<g>
	<rect x="222.891" y="192.854" style="fill:#CE412D;" width="15.859" height="58.978"/>
	<rect x="201.344" y="214.4" style="fill:#CE412D;" width="58.978" height="15.859"/>
</g>
<polygon style="fill:#D15241;" points="0,135.84 12.788,135.84 32.306,191.701 0,191.701 "/>
<g>
</g>
<g>
</g>
<g>
</g>
<g>
</g>
<g>
</g>
<g>
</g>
<g>
</g>
<g>
</g>
<g>
</g>
<g>
</g>
<g>
</g>
<g>
</g>
<g>
</g>
<g>
</g>
<g>
</g>
</svg>
