<?xml version="1.0" encoding="iso-8859-1"?>
<!-- Generator: Adobe Illustrator 19.0.0, SVG Export Plug-In . SVG Version: 6.00 Build 0)  -->
<svg version="1.1" id="Capa_1" xmlns="http://www.w3.org/2000/svg" xmlns:xlink="http://www.w3.org/1999/xlink" x="0px" y="0px"
	 viewBox="0 0 512 512" style="enable-background:new 0 0 512 512;" xml:space="preserve">
<path style="fill:#FE9923;" d="M500.114,311.4c-1.498-6.601-7.5-11.4-14.399-11.4h-187.5c-6.899,0-12.601,4.501-14.399,11.1
	c-4.2,15.3-7.5,31.5-9.598,46.5c-22.2-5.7-42.803-21-51.504-41.1c-24.598-92.401-17.996-72.9-30.897-102.9
	c-11.4-26.1-32.999-46.8-59.403-56.7c-8.097-2.999-17.098,1.501-19.797,9.901l-18.3,60.601c-1.798,6,0.297,12.299,5.402,16.199
	c2.395,1.8,3.896,4.2,4.797,7.2l36.899,121.201C166.616,454.501,243.616,512,330.013,512h63.003
	c65.098,0,118.499-55.101,118.799-120.2C511.815,364.501,507.017,337.5,500.114,311.4z"/>
<path style="fill:#FE8821;" d="M511.815,391.8c-0.3,65.099-53.701,120.2-118.799,120.2h-16.201V300h108.9
	c6.899,0,12.902,4.799,14.399,11.4C507.017,337.5,511.815,364.501,511.815,391.8z"/>
<g>
	<path style="fill:#994C0F;" d="M95.213,150H44.815c-59.501,0-59.511,90,0,90h45.3c3.3,0,6.299,1.199,9.302,3.3c0,0,0.3,0,0.3,0.3
		l32.695-86.4C120.716,152.401,108.114,150,95.213,150z"/>
	<path style="fill:#994C0F;" d="M488.414,271.199c-5.999-18.6-23.101-31.199-42.898-31.199H338.113
		c-19.797,0-36.899,12.599-42.598,30.901c-4.801,13.499-8.701,27.299-12.001,40.8h216.599
		C496.815,298.2,492.914,284.399,488.414,271.199z"/>
</g>
<path style="fill:#FEDBAB;" d="M478.515,61.5c2.098-5.099,3.3-10.8,3.3-16.5c0-24.901-20.098-45-45-45h-150
	c-24.902,0-47,20.099-47,45c0,5.4,0.901,10.201,2.703,15h-17.703c-24.902,0-45,20.099-45,45s20.098,45,45,45h112.698l25.803,51.599
	c2.699,5.101,7.8,8.401,13.499,8.401s10.8-3.3,13.499-8.401L416.116,150h50.698c24.902,0,45-20.099,45-45
	C511.815,84.3,497.716,66.899,478.515,61.5z"/>
<path style="fill:#FEC478;" d="M511.815,105c0,24.901-20.098,45-45,45h-50.698l-25.803,51.599c-2.699,5.101-7.8,8.401-13.499,8.401
	V0h60c24.902,0,45,20.099,45,45c0,5.7-1.201,11.4-3.3,16.5C497.716,66.899,511.815,84.3,511.815,105z"/>
<path style="fill:#713708;" d="M500.114,311.7h-123.3V240h68.701c19.797,0,36.899,12.599,42.898,31.199
	C492.914,284.399,496.815,298.2,500.114,311.7z"/>
<g>
</g>
<g>
</g>
<g>
</g>
<g>
</g>
<g>
</g>
<g>
</g>
<g>
</g>
<g>
</g>
<g>
</g>
<g>
</g>
<g>
</g>
<g>
</g>
<g>
</g>
<g>
</g>
<g>
</g>
</svg>
