<?xml version="1.0" encoding="iso-8859-1"?>
<!-- Generator: Adobe Illustrator 19.0.0, SVG Export Plug-In . SVG Version: 6.00 Build 0)  -->
<svg version="1.1" id="Capa_1" xmlns="http://www.w3.org/2000/svg" xmlns:xlink="http://www.w3.org/1999/xlink" x="0px" y="0px"
	 viewBox="0 0 512 512" style="enable-background:new 0 0 512 512;" xml:space="preserve">
<g>
	<path style="fill:#C5C9F7;" d="M389.991,202.892l-40.503-40.499l-40.496-40.501c-13.802-14.099,7.2-35.4,21.299-21.299
		l40.499,40.499l40.499,40.499C425.389,195.693,403.79,216.693,389.991,202.892z"/>
	<path style="fill:#C5C9F7;" d="M432.588,160.293l-80.999-81c-14.099-13.801,6.899-35.099,20.999-21l40.503,40.501l40.499,40.499
		C467.99,153.392,446.091,174.092,432.588,160.293z"/>
	<path style="fill:#C5C9F7;" d="M347.69,245.191l-40.499-40.499l-40.503-40.499c-14.099-13.801,7.2-35.101,21.002-21.301
		l81.302,81.301C383.091,238.292,361.492,258.992,347.69,245.191z"/>
	<path style="fill:#C5C9F7;" d="M224.037,369.07l-40.499-40.499l-40.803-40.8c-13.799-13.801,7.2-35.1,21.302-21l81.002,81
		C259.439,361.87,237.539,382.57,224.037,369.07z"/>
	<path style="fill:#C5C9F7;" d="M181.436,411.371l-40.499-40.499l-40.499-40.501c-13.799-14.099,7.2-35.4,21.299-21.301l80.999,81
		C216.838,404.471,195.235,425.171,181.436,411.371z"/>
	<path style="fill:#C5C9F7;" d="M139.139,453.67l-40.503-40.499l-40.499-40.499c-14.099-13.801,7.203-35.101,21.002-21
		l40.499,40.499l40.499,40.501C174.536,446.77,152.637,467.471,139.139,453.67z"/>
</g>
<g>
	<path style="fill:#A8AFF1;" d="M160.137,432.671c14.399,14.099-7.5,34.799-20.999,20.999l-40.503-40.499l21.002-21L160.137,432.671
		z"/>
	<path style="fill:#A8AFF1;" d="M202.735,390.07c14.103,14.401-7.5,35.101-21.299,21.301l-40.499-40.499l21.302-21.301
		L202.735,390.07z"/>
	<path style="fill:#A8AFF1;" d="M245.039,347.771c14.399,14.099-7.5,34.799-21.002,21.299l-40.499-40.499l20.999-21.301
		L245.039,347.771z"/>
	<path style="fill:#A8AFF1;" d="M368.992,224.193c14.099,14.099-7.5,34.799-21.302,20.999l-40.499-40.499l21.299-21L368.992,224.193
		z"/>
	<path style="fill:#A8AFF1;" d="M411.29,181.592c14.099,14.101-7.5,35.101-21.299,21.301l-40.503-40.499l21.302-21.301
		L411.29,181.592z"/>
	<path style="fill:#A8AFF1;" d="M432.588,160.293l-40.499-40.501l21.002-20.999l40.499,40.499
		C467.99,153.392,446.091,174.092,432.588,160.293z"/>
</g>
<path style="fill:#FD003A;" d="M13.623,307.169l84.902-84.902c27.305-27.363,65.215-41.646,103.945-39.17
	c7.529,0.469,13.564,6.489,14.033,14.019c1.641,25.693,12.451,49.746,30.439,67.749c13.945,13.945-7.151,35.271-21.211,21.211
	c-17.578-17.549-46.113-17.549-63.691,0l-84.58,84.888C34.98,413.518-27.952,348.71,13.623,307.169z"/>
<path style="fill:#E50027;" d="M317.781,329.131c-11.428,0-21.758-1.43-22.559-14.282c-1.641-25.693-12.451-49.746-30.439-67.749
	c-5.859-5.859-5.859-15.352,0-21.211s15.352-5.859,21.211,0c17.578,17.549,46.113,17.549,63.691,0l84.58-84.888
	c41.486-41.558,106.383,21.248,63.838,63.794l-84.902,84.902C387.889,315.024,353.494,329.131,317.781,329.131z"/>
<path style="fill:#17ACE8;" d="M370.79,77.493c42.301-42.001-21.603-105.901-63.6-63.6l-84.902,84.901
	c-27.297,27.299-38.15,61.478-35.751,100.177c2.098,33.001,15.897,63.9,39.298,87.001c8.401,8.699,13.202,19.799,13.202,31.8
	c0,12.299-4.801,23.399-13.202,32.1l-84.899,84.6c-42.301,42.299,21.603,105.899,63.6,63.6l84.902-84.901
	c27.297-27.299,38.15-61.478,35.751-100.179c-2.098-32.999-15.897-63.9-39.298-86.999c-8.401-8.701-13.202-19.801-13.202-31.8
	c0-12.301,4.801-23.401,13.202-32.1L370.79,77.493z"/>
<path style="fill:#1689FC;" d="M325.19,312.992c2.399,38.701-8.454,72.88-35.751,100.179l-84.902,84.901
	c-41.997,42.299-105.901-21.301-63.6-63.6l84.899-84.6c8.401-8.701,13.202-19.801,13.202-32.1c0-12.001-4.801-23.101-13.202-31.8
	l60.056-59.978C309.293,249.092,323.091,279.993,325.19,312.992z"/>
<g>
</g>
<g>
</g>
<g>
</g>
<g>
</g>
<g>
</g>
<g>
</g>
<g>
</g>
<g>
</g>
<g>
</g>
<g>
</g>
<g>
</g>
<g>
</g>
<g>
</g>
<g>
</g>
<g>
</g>
</svg>
