<?xml version="1.0" encoding="iso-8859-1"?>
<!-- Generator: Adobe Illustrator 19.0.0, SVG Export Plug-In . SVG Version: 6.00 Build 0)  -->
<svg version="1.1" id="Capa_1" xmlns="http://www.w3.org/2000/svg" xmlns:xlink="http://www.w3.org/1999/xlink" x="0px" y="0px"
	 viewBox="0 0 512 512" style="enable-background:new 0 0 512 512;" xml:space="preserve">
<path style="fill:#C5C9F7;" d="M422.076,407v90c0,8.399-6.599,15-15,15s-15-6.601-15-15v-90c0-8.401,6.599-15,15-15
	S422.076,398.599,422.076,407z"/>
<path style="fill:#E1E4FB;" d="M479.974,279.2c-2.996-4.501-7.8-7.2-12.898-7.2h-120c-5.098,0-9.902,2.699-12.898,7.2
	c-2.703,4.2-2.703,9.901-0.601,14.399l57.898,115.8h31.201l57.898-115.8C482.677,289.1,482.677,283.4,479.974,279.2z"/>
<path style="fill:#A8AFF1;" d="M422.076,407v90c0,8.399-6.599,15-15,15V392C415.477,392,422.076,398.599,422.076,407z"/>
<g>
	<path style="fill:#C5C9F7;" d="M479.974,279.2c2.703,4.2,2.703,9.901,0.601,14.399l-57.898,115.8h-15.601V272h60
		C472.174,272,476.978,274.699,479.974,279.2z"/>
	<path style="fill:#C5C9F7;" d="M362.076,15v92c0,8.399,6.599,15,15,15h60c8.401,0,15-6.601,15-15V15H362.076z"/>
</g>
<path style="fill:#A8AFF1;" d="M452.076,15v92c0,8.399-6.599,15-15,15h-30V15H452.076z"/>
<path style="fill:#32D736;" d="M300.076,332c0,82.8-67.2,150-150,150s-150-67.2-150-150c0-7.5,0.601-15,1.802-22.5
	c5.698-3.6,11.396-36.901,17.399-39.6c23.097-10.501,48.3-14.101,72.902-11.1c14.7,2.1,29.399,6.299,42.898,13.2
	c4.797,2.399,9.902,4.499,15,6.299c11.4,4.2,23.101,6.601,35.098,7.5c13.802,0.901,27.902,0,41.404-3.3
	c9.899-2.401,19.197-6,28.499-10.499l16.501-8.101l20.098,19.801C297.077,298.999,300.076,315.2,300.076,332z"/>
<path style="fill:#10BB67;" d="M300.076,332c0,82.8-67.2,150-150,150V278.299c11.4,4.2,23.101,6.601,35.098,7.5
	c13.802,0.901,27.902,0,41.404-3.3c9.899-2.401,19.197-6,28.499-10.499l16.501-8.101l20.098,19.801
	C297.077,298.999,300.076,315.2,300.076,332z"/>
<path style="fill:#32D736;" d="M332.076,107v180h150V107H332.076z"/>
<g>
	<path style="fill:#E1E4FB;" d="M497.076,122h-180c-19.797,0-19.797-30,0-30h180C516.873,92,516.873,122,497.076,122z"/>
	<path style="fill:#E1E4FB;" d="M362.076,167c0,8.399-6.599,15-15,15h-15v-30h15C355.477,152,362.076,158.599,362.076,167z"/>
	<path style="fill:#E1E4FB;" d="M362.076,227c0,8.399-6.599,15-15,15h-15v-30h15C355.477,212,362.076,218.599,362.076,227z"/>
</g>
<path style="fill:#FEA832;" d="M195.076,32h-90c-8.401,0-15,6.599-15,15v60c0,8.399,6.599,15,15,15h90c8.401,0,15-6.601,15-15V47
	C210.076,38.599,203.477,32,195.076,32z"/>
<path style="fill:#E1E4FB;" d="M291.675,283.7L255.076,302c-32.999,16.5-70.8,18.6-105,6.599c-5.098-2.1-10.203-4.2-15-6.599
	c-42.297-21.301-92.999-18.6-133.198,7.5c7.5-50.101,40.796-93.6,88.198-114.3v-15.901c-17.402-6-30-22.8-30-42.299
	c0-24.901,20.098-45,45-45h90c24.902,0,45,20.099,45,45c0,19.499-12.598,36.299-30,42.299V195.2
	C249.077,212,278.177,244.699,291.675,283.7z"/>
<g>
	<circle style="fill:#10BB67;" cx="105.08" cy="347" r="15"/>
	<circle style="fill:#10BB67;" cx="135.08" cy="407" r="15"/>
</g>
<circle style="fill:#0CA656;" cx="195.08" cy="377" r="15"/>
<rect x="407.08" y="107" style="fill:#10BB67;" width="75" height="180"/>
<path style="fill:#C5C9F7;" d="M497.076,122h-90V92h90C516.873,92,516.873,122,497.076,122z"/>
<path style="fill:#FE9923;" d="M195.076,122h-45V32h45c8.401,0,15,6.599,15,15v60C210.076,115.399,203.477,122,195.076,122z"/>
<path style="fill:#C5C9F7;" d="M291.675,283.7L255.076,302c-32.999,16.5-70.8,18.6-105,6.599V92h45c24.902,0,45,20.099,45,45
	c0,19.499-12.598,36.299-30,42.299V195.2C249.077,212,278.177,244.699,291.675,283.7z"/>
<path style="fill:#E1E4FB;" d="M482.076,15c0,8.399-6.599,15-15,15h-120c-8.401,0-15-6.601-15-15c0-8.401,6.599-15,15-15h120
	C475.477,0,482.076,6.599,482.076,15z"/>
<path style="fill:#C5C9F7;" d="M467.076,30h-60V0h60c8.401,0,15,6.599,15,15C482.076,23.399,475.477,30,467.076,30z"/>
<g>
</g>
<g>
</g>
<g>
</g>
<g>
</g>
<g>
</g>
<g>
</g>
<g>
</g>
<g>
</g>
<g>
</g>
<g>
</g>
<g>
</g>
<g>
</g>
<g>
</g>
<g>
</g>
<g>
</g>
</svg>
