<?xml version="1.0" encoding="iso-8859-1"?>
<!-- Generator: Adobe Illustrator 19.0.0, SVG Export Plug-In . SVG Version: 6.00 Build 0)  -->
<svg version="1.1" id="Capa_1" xmlns="http://www.w3.org/2000/svg" xmlns:xlink="http://www.w3.org/1999/xlink" x="0px" y="0px"
	 viewBox="0 0 512 512" style="enable-background:new 0 0 512 512;" xml:space="preserve">
<g transform="matrix(1.25 0 0 -1.25 0 45)">
	<g>
		<g>
			<path style="fill:#9266CC;" d="M409.6-328.089c0-25.134-20.378-45.511-45.511-45.511H45.511C20.378-373.6,0-353.222,0-328.089
				V-9.511C0,15.622,20.378,36,45.511,36h318.578C389.222,36,409.6,15.622,409.6-9.511V-328.089z"/>
			<g>
				<path style="fill:#FFFFFF;" d="M233.244-15.2c0-15.713-12.732-28.444-28.444-28.444S176.356-30.913,176.356-15.2
					s12.732,28.444,28.444,28.444S233.244,0.513,233.244-15.2"/>
				<path style="fill:#FFFFFF;" d="M198.793-171.872c35.419,2.469,109.147,7.6,109.147,40.937c0,34.042-72.158,36.58-102.969,37.649
					l-3.47,0.125c-117.35,4.949-97.2,33.03-86.107,33.03c3.106-2.799,13.528-10.809,30.834-10.809
					c5.939,0,12.129,0.967,18.432,2.867c1.104,0.33,1.877,1.263,1.923,2.332c0.046,1.07-0.626,2.059-1.695,2.492l-16.623,6.554
					l25.85,5.109c0.91,0.182,1.661,0.762,2.014,1.57c0.341,0.808,0.228,1.707-0.296,2.412c-0.592,0.774-14.438,20.514-38.172,20.514
					c-32.415,0-58.482-16.862-58.482-45.955c0-35.146,83.297-45.01,120.57-45.01c71.361,0,74.98-9.546,74.98-11.457
					c0-10.081-25.338-16.134-75.321-18.034c-53.385-2.014-87.893-17.067-87.893-38.354c0-20.048,25.85-31.983,86.448-39.913
					c27.58-3.607,60.462-9.671,60.462-18.057c-0.011-0.114-2.901-11.184-59.517-18.273c-52.895-6.633-59.676-19.081-59.676-29.173
					c0-13.676,19.308-23.006,60.757-29.389c31.619-4.858,40.482-16.122,44.737-21.538c1.798-2.276,3.22-4.085,5.678-4.085
					c0.228,0,0.796,0.068,1.013,0.125c2.355,0.535,3.652,3.049,3.482,6.702c-0.114,2.731-2.606,26.817-51.428,34.19
					c-30.458,4.597-32.825,11.924-32.825,14.063c0,1.081,1.365,6.599,27.944,10.32c3.686,0.273,90.556,7.134,90.556,37.774
					c0,25.213-50.768,34.395-95.539,42.473c-22.574,4.085-50.665,9.159-50.665,14.495
					C142.939-181.429,152.633-175.081,198.793-171.872"/>
			</g>
			<g>
				<path style="fill:#9266CC;" d="M148.708-42.507c0-2.776-3.868-5.029-8.647-5.029c-4.767,0-8.636,2.253-8.636,5.029
					s3.868,5.029,8.636,5.029C144.839-37.478,148.708-39.73,148.708-42.507"/>
				<path style="fill:#9266CC;" d="M182.044-243.962h11.378v-44.055h-11.378V-243.962z"/>
				<path style="fill:#9266CC;" d="M216.178-243.962h11.378v-44.055h-11.378V-243.962z"/>
				<path style="fill:#9266CC;" d="M182.044-135.52h11.378v-44.055h-11.378V-135.52z"/>
				<path style="fill:#9266CC;" d="M216.178-135.52h11.378v-44.055h-11.378V-135.52z"/>
			</g>
			<g>
				<path style="fill:#FFFFFF;" d="M193.422-189.394l22.756-4.312v97.189c-4.346,0.171-14.347,0.58-22.756,0.956V-189.394z"/>
				<path style="fill:#FFFFFF;" d="M216.178-211.91l-22.756,4.198v-84.844c6.121-0.751,16.361-3.152,22.756-4.756V-211.91z"/>
				<path style="fill:#FFFFFF;" d="M193.422-309.145v-30.322c0-6.281,5.086-11.378,11.378-11.378s11.378,5.097,11.378,11.378v25.68
					C206.302-311.523,199.999-310.613,193.422-309.145"/>
				<path style="fill:#FFFFFF;" d="M216.178-82.761v58.118c0,6.292-5.086,11.378-11.378,11.378s-11.378-5.086-11.378-11.378v-57.071
					L216.178-82.761z"/>
			</g>
		</g>
	</g>
</g>
<g>
</g>
<g>
</g>
<g>
</g>
<g>
</g>
<g>
</g>
<g>
</g>
<g>
</g>
<g>
</g>
<g>
</g>
<g>
</g>
<g>
</g>
<g>
</g>
<g>
</g>
<g>
</g>
<g>
</g>
</svg>
