<?xml version="1.0" encoding="iso-8859-1"?>
<!-- Generator: Adobe Illustrator 19.0.0, SVG Export Plug-In . SVG Version: 6.00 Build 0)  -->
<svg version="1.1" id="Capa_1" xmlns="http://www.w3.org/2000/svg" xmlns:xlink="http://www.w3.org/1999/xlink" x="0px" y="0px"
	 viewBox="0 0 511.997 511.997" style="enable-background:new 0 0 511.997 511.997;" xml:space="preserve">
<path style="fill:#66757F;" d="M368.72,151.643c-3.801,0-7.601-1.455-10.497-4.35c-5.806-5.806-5.806-15.189,0-20.993
	l115.479-115.48c5.806-5.79,15.203-5.79,20.993,0c5.806,5.806,5.806,15.203,0,20.993l-115.479,115.48
	C376.322,150.188,372.52,151.643,368.72,151.643"/>
<path style="fill:#CCD6DD;" d="M95.76,472.751c-11.596,11.581-30.407,11.581-42.002,0l-20.993-20.993
	c-11.596-11.596-11.596-30.407,0-42.002l73.492-73.477c11.596-11.61,30.392-11.61,41.987,0l21.008,20.993
	c11.581,11.596,11.581,30.391,0,41.987L95.76,472.751z"/>
<path style="fill:#99AAB5;" d="M394.962,173.543c-8.701,8.701-22.805,8.701-31.491,0l-31.491-31.491
	c-8.701-8.701-8.701-22.805,0-31.505c8.685-8.701,22.79-8.701,31.491,0l31.491,31.505
	C403.663,150.738,403.663,164.843,394.962,173.543"/>
<path style="fill:#E1E8ED;" d="M211.239,399.256c-11.596,11.596-30.392,11.596-41.987,0l-62.996-62.981
	c-11.596-11.596-11.596-30.407,0-42.002l178.476-178.477c11.596-11.596,30.392-11.596,41.987,0l62.996,62.996
	c11.596,11.596,11.596,30.392,0,41.987L211.239,399.256z"/>
<path style="fill:#DD2E44;" d="M274.228,336.277c-11.596,11.581-19.895,1.084-31.491-10.497l-62.996-62.996
	c-11.596-11.596-22.092-19.91-10.497-31.491L284.726,115.8c11.596-11.581,30.407-11.581,41.987,0l62.996,62.996
	c11.61,11.596,11.61,30.392,0,42.002L274.228,336.277z"/>
<g>
	<path style="fill:#99AAB5;" d="M216.487,435.997c-8.685,8.701-22.805,8.701-31.491,0L69.516,320.533
		c-8.701-8.701-8.701-22.82,0-31.52c8.685-8.685,22.79-8.685,31.491,0l115.48,115.494
		C225.187,413.207,225.187,427.312,216.487,435.997"/>
	<path style="fill:#99AAB5;" d="M111.508,498.994c-8.685,8.701-22.805,8.701-31.505,0L6.526,425.502
		c-8.701-8.701-8.701-22.79,0-31.491c8.685-8.701,22.79-8.701,31.491,0l73.492,73.492
		C120.193,476.189,120.193,490.294,111.508,498.994"/>
</g>
<g>
	<path style="fill:#DD2E44;" d="M499.54,234.388c-5.552-8.641-13.169-20.489-22.79-39.731c-1.945-3.905-8.389-3.905-10.319,0
		c-9.635,19.242-17.252,31.089-22.805,39.731c-7.765,12.085-12.442,19.391-12.442,32.144c0,22.286,18.113,40.413,40.399,40.413
		c22.286,0,40.413-18.129,40.413-40.413C511.997,253.779,507.305,246.474,499.54,234.388"/>
	<path style="fill:#DD2E44;" d="M440.153,368.012c-5.552-8.641-13.169-20.489-22.79-39.731c-1.945-3.905-8.389-3.905-10.319,0
		c-9.635,19.242-17.252,31.089-22.805,39.731c-7.765,12.085-12.442,19.405-12.442,32.128c0,22.286,18.113,40.428,40.399,40.428
		c22.286,0,40.413-18.143,40.413-40.428C452.609,387.417,447.917,380.098,440.153,368.012"/>
</g>
<g>
</g>
<g>
</g>
<g>
</g>
<g>
</g>
<g>
</g>
<g>
</g>
<g>
</g>
<g>
</g>
<g>
</g>
<g>
</g>
<g>
</g>
<g>
</g>
<g>
</g>
<g>
</g>
<g>
</g>
</svg>
