<?xml version="1.0" encoding="iso-8859-1"?>
<!-- Generator: Adobe Illustrator 19.0.0, SVG Export Plug-In . SVG Version: 6.00 Build 0)  -->
<svg version="1.1" id="Capa_1" xmlns="http://www.w3.org/2000/svg" xmlns:xlink="http://www.w3.org/1999/xlink" x="0px" y="0px"
	 viewBox="0 0 491.52 491.52" style="enable-background:new 0 0 491.52 491.52;" xml:space="preserve">
<circle style="fill:#E05B49;" cx="245.76" cy="245.76" r="245.76"/>
<path style="fill:#DC8744;" d="M374.379,175.397H117.142c-6.728,0-12.182,5.454-12.182,12.182v168.239
	c0,6.728,5.455,12.182,12.182,12.182h257.236c6.727,0,12.181-5.454,12.181-12.182V187.578
	C386.56,180.851,381.106,175.397,374.379,175.397z"/>
<path style="fill:#FCD462;" d="M374.379,170.277H117.142c-6.728,0-12.182,5.454-12.182,12.182v168.239
	c0,6.728,5.455,12.182,12.182,12.182h257.236c6.727,0,12.181-5.454,12.181-12.182V182.458
	C386.56,175.731,381.106,170.277,374.379,170.277z"/>
<path style="fill:#3A556A;" d="M191.809,170.277v-29.721c0-0.925,0.75-1.675,1.675-1.675h104.55c0.925,0,1.675,0.75,1.675,1.675
	v29.721h15.36v-29.721c0-9.395-7.64-17.035-17.035-17.035h-104.55c-9.395,0-17.035,7.64-17.035,17.035v29.721H191.809z"/>
<path style="fill:#E56353;" d="M197.312,266.578c0,26.757,21.691,48.447,48.448,48.447V218.13
	C219.003,218.13,197.312,239.821,197.312,266.578z"/>
<path style="fill:#D15241;" d="M245.76,218.13v96.895c26.757,0,48.448-21.69,48.448-48.447S272.517,218.13,245.76,218.13z"/>
<polygon style="fill:#CE412D;" points="274.961,259.131 254.969,259.131 254.969,239.139 236.551,239.139 236.551,259.131 
	216.559,259.131 216.559,277.55 236.551,277.55 236.551,297.541 254.969,297.541 254.969,277.55 274.961,277.55 "/>
<polygon style="fill:#FFFFFF;" points="274.961,255.607 254.969,255.607 254.969,235.616 236.551,235.616 236.551,255.607 
	216.559,255.607 216.559,274.026 236.551,274.026 236.551,294.017 254.969,294.017 254.969,274.026 274.961,274.026 "/>
<g>
	<path style="fill:#64798A;" d="M150.771,166.775h-17.428c-1.419,0-2.57,1.151-2.57,2.57v25.769c0,1.419,1.151,2.57,2.57,2.57
		h17.428c1.419,0,2.57-1.151,2.57-2.57v-25.769C153.341,167.926,152.19,166.775,150.771,166.775z"/>
	<path style="fill:#64798A;" d="M358.694,166.775h-17.429c-1.419,0-2.57,1.151-2.57,2.57v25.769c0,1.419,1.151,2.57,2.57,2.57
		h17.429c1.419,0,2.57-1.151,2.57-2.57v-25.769C361.264,167.926,360.113,166.775,358.694,166.775z"/>
</g>
<g>
	<rect x="135.895" y="182.231" style="fill:#3A556A;" width="12.324" height="10.342"/>
	<rect x="343.808" y="182.231" style="fill:#3A556A;" width="12.324" height="10.342"/>
</g>
<g>
</g>
<g>
</g>
<g>
</g>
<g>
</g>
<g>
</g>
<g>
</g>
<g>
</g>
<g>
</g>
<g>
</g>
<g>
</g>
<g>
</g>
<g>
</g>
<g>
</g>
<g>
</g>
<g>
</g>
</svg>
