<?xml version="1.0" encoding="iso-8859-1"?>
<!-- Generator: Adobe Illustrator 18.0.0, SVG Export Plug-In . SVG Version: 6.00 Build 0)  -->
<!DOCTYPE svg PUBLIC "-//W3C//DTD SVG 1.1//EN" "http://www.w3.org/Graphics/SVG/1.1/DTD/svg11.dtd">
<svg version="1.1" id="Capa_1" xmlns="http://www.w3.org/2000/svg" xmlns:xlink="http://www.w3.org/1999/xlink" x="0px" y="0px"
	 viewBox="0 0 58 58" style="enable-background:new 0 0 58 58;" xml:space="preserve">
<g>
	<path style="fill:#FBCE9D;" d="M31.08,26.92c-1.015-1.015-1.49-2.357-1.45-3.687c-0.064,0.051-0.135,0.091-0.193,0.149
		L1.073,51.746c-1.431,1.431-1.431,3.75,0,5.181v0c1.431,1.431,3.75,1.431,5.181,0l28.561-28.561
		C33.469,28.419,32.107,27.948,31.08,26.92z"/>
	<path style="fill:#556080;" d="M8.197,55.985c-0.38,0-0.743-0.218-0.911-0.587l-3.238-7.124c-0.229-0.502-0.006-1.095,0.497-1.324
		c0.5-0.229,1.095-0.007,1.324,0.497l3.238,7.124c0.229,0.502,0.006,1.095-0.497,1.324C8.476,55.956,8.335,55.985,8.197,55.985z"/>
	<path style="fill:#556080;" d="M12.083,52.099c-0.38,0-0.743-0.218-0.911-0.586L7.934,44.39c-0.229-0.503-0.006-1.096,0.496-1.324
		c0.502-0.229,1.095-0.007,1.324,0.496l3.238,7.123c0.229,0.503,0.006,1.096-0.496,1.324C12.362,52.07,12.221,52.099,12.083,52.099z
		"/>
	<path style="fill:#556080;" d="M15.968,48.214c-0.38,0-0.743-0.218-0.911-0.587l-3.238-7.124c-0.229-0.502-0.006-1.095,0.497-1.324
		c0.5-0.229,1.094-0.007,1.324,0.497l3.238,7.124c0.229,0.502,0.006,1.095-0.497,1.324C16.247,48.185,16.106,48.214,15.968,48.214z"
		/>
	<path style="fill:#F7B563;" d="M31.08,26.92L31.08,26.92c-1.953-1.953-1.953-5.118,0-7.071L49.464,1.464
		c1.953-1.953,5.118-1.953,7.071,0l0,0c1.953,1.953,1.953,5.118,0,7.071L38.151,26.92C36.198,28.873,33.032,28.873,31.08,26.92z"/>
</g>
<g>
</g>
<g>
</g>
<g>
</g>
<g>
</g>
<g>
</g>
<g>
</g>
<g>
</g>
<g>
</g>
<g>
</g>
<g>
</g>
<g>
</g>
<g>
</g>
<g>
</g>
<g>
</g>
<g>
</g>
</svg>
