<?xml version="1.0" encoding="iso-8859-1"?>
<!-- Generator: Adobe Illustrator 19.0.0, SVG Export Plug-In . SVG Version: 6.00 Build 0)  -->
<svg version="1.1" id="Capa_1" xmlns="http://www.w3.org/2000/svg" xmlns:xlink="http://www.w3.org/1999/xlink" x="0px" y="0px"
	 viewBox="0 0 512 512" style="enable-background:new 0 0 512 512;" xml:space="preserve">
<g transform="matrix(1.25 0 0 -1.25 0 45)">
	<path style="fill:#CCD6DD;" d="M398.222-77.778c0,11.378-11.378,45.511-45.511,45.511H199.18h-28.513h-63.704
		c-15.667,0-37.421-20.378-48.947-45.511l-35.26-56.889C6.223-141.482,0-161.189,0-180.178v-68.267
		c0-25.133,20.378-45.511,45.511-45.511h318.578c25.133,0,45.511,20.378,45.511,45.511v91.011
		C409.6-145.737,398.222-77.778,398.222-77.778"/>
	<g>
		<path style="fill:#E1E8ED;" d="M102.405-225.689c-37.171,0-67.334-29.719-68.187-66.686c3.629-0.922,7.373-1.581,11.298-1.581
			h125.156C170.672-256.25,140.111-225.689,102.405-225.689"/>
		<path style="fill:#E1E8ED;" d="M375.389-292.367c-0.853,36.955-31.016,66.674-68.187,66.674
			c-37.695,0-68.267-30.561-68.267-68.267h125.156C368.017-293.96,371.76-293.3,375.389-292.367"/>
	</g>
	<path style="fill:#292F33;" d="M147.911-293.956c0-25.133-20.378-45.511-45.511-45.511s-45.511,20.378-45.511,45.511
		s20.378,45.511,45.511,45.511S147.911-268.822,147.911-293.956"/>
	<path style="fill:#99AAB5;" d="M125.156-293.956c0-12.572-10.183-22.756-22.756-22.756c-12.561,0-22.756,10.183-22.756,22.756
		S89.839-271.2,102.4-271.2C114.972-271.2,125.156-281.383,125.156-293.956"/>
	<path style="fill:#292F33;" d="M352.711-293.956c0-25.133-20.378-45.511-45.511-45.511s-45.511,20.378-45.511,45.511
		s20.378,45.511,45.511,45.511S352.711-268.822,352.711-293.956"/>
	<path style="fill:#99AAB5;" d="M329.956-293.956c0-12.572-10.183-22.756-22.756-22.756c-12.561,0-22.756,10.183-22.756,22.756
		S294.639-271.2,307.2-271.2C319.772-271.2,329.956-281.383,329.956-293.956"/>
	<g>
		<path style="fill:#DD2E44;" d="M409.6-214.311H0v34.133h409.6V-214.311z"/>
		<path style="fill:#DD2E44;" d="M352.711-89.156h-34.133v34.133h-22.756v-34.133h-34.133v-22.756h34.133v-34.133h22.756v34.133
			h34.133V-89.156z"/>
	</g>
	<path style="fill:#55ACEE;" d="M91.022-55.022h56.889v-79.644h-102.4L91.022-55.022z"/>
	<path style="fill:#DD2E44;" d="M170.667-15.2c0-9.432-7.635-17.067-17.067-17.067h-22.756c-9.432,0-17.067,7.635-17.067,17.067
		s7.635,17.067,17.067,17.067H153.6C163.032,1.867,170.667-5.768,170.667-15.2"/>
	<path style="fill:#55ACEE;" d="M204.8-15.2c0-9.432-7.635-17.067-17.067-17.067h-22.756c-9.432,0-17.067,7.635-17.067,17.067
		s7.635,17.067,17.067,17.067h22.756C197.165,1.867,204.8-5.768,204.8-15.2"/>
</g>
<g>
</g>
<g>
</g>
<g>
</g>
<g>
</g>
<g>
</g>
<g>
</g>
<g>
</g>
<g>
</g>
<g>
</g>
<g>
</g>
<g>
</g>
<g>
</g>
<g>
</g>
<g>
</g>
<g>
</g>
</svg>
