<?xml version="1.0" encoding="iso-8859-1"?>
<!-- Generator: Adobe Illustrator 18.0.0, SVG Export Plug-In . SVG Version: 6.00 Build 0)  -->
<!DOCTYPE svg PUBLIC "-//W3C//DTD SVG 1.1//EN" "http://www.w3.org/Graphics/SVG/1.1/DTD/svg11.dtd">
<svg version="1.1" id="Capa_1" xmlns="http://www.w3.org/2000/svg" xmlns:xlink="http://www.w3.org/1999/xlink" x="0px" y="0px"
	 viewBox="0 0 58 58" style="enable-background:new 0 0 58 58;" xml:space="preserve">
<g>
	<path style="fill:#EAE2D6;" d="M40.415,58h-22.83C16.157,58,15,56.843,15,55.415V35.246c0-3.087,1.222-5.777,3.48-7.806
		c0.321-0.289,0.52-0.69,0.52-1.122V21h20v5.319c0,0.432,0.199,0.833,0.52,1.122C41.778,29.469,43,32.16,43,35.246v20.169
		C43,56.843,41.843,58,40.415,58z"/>
	<path style="fill:#F9F5EF;" d="M23,55.415V35.246c0-3.087,1.222-5.777,3.48-7.805c0.321-0.289,0.52-0.69,0.52-1.122V21h-4v5.319
		c0,0.432-0.199,0.833-0.52,1.122C20.222,29.469,19,32.16,19,35.246v20.169C19,56.843,20.157,58,21.585,58h4
		C24.157,58,23,56.843,23,55.415z"/>
	<rect x="20" y="15" style="fill:#7383BF;" width="18" height="6"/>
	<path style="fill:#3E465B;" d="M33,12V4c0-2.2-1.8-4-4-4s-4,1.8-4,4v8c0,1.658-1.342,3-3,3h14C34.342,15,33,13.658,33,12z"/>
	<rect x="15" y="37" style="fill:#D3CCBC;" width="8" height="14"/>
	<rect x="28" y="37" style="fill:#D3CCBC;" width="15" height="14"/>
	<g>
		<rect x="34" y="40" style="fill:#F4EBE6;" width="9" height="2"/>
		<rect x="34" y="43" style="fill:#F4EBE6;" width="9" height="2"/>
		<rect x="34" y="46" style="fill:#F4EBE6;" width="9" height="2"/>
	</g>
	<path style="fill:#A7B5D6;" d="M36,21v2c0,0.552-0.447,1-1,1s-1-0.448-1-1v-2h-2v2c0,0.552-0.447,1-1,1s-1-0.448-1-1v-2h-2v2
		c0,0.552-0.447,1-1,1s-1-0.448-1-1v-2h-2v2c0,0.552-0.447,1-1,1s-1-0.448-1-1v-2h-3v5h20v-5H36z"/>
	<g>
		<path style="fill:#D8DFEF;" d="M22,23c0,0.552,0.447,1,1,1s1-0.448,1-1v-2h-2V23z"/>
		<path style="fill:#D8DFEF;" d="M26,23c0,0.552,0.447,1,1,1s1-0.448,1-1v-2h-2V23z"/>
		<path style="fill:#D8DFEF;" d="M30,23c0,0.552,0.447,1,1,1s1-0.448,1-1v-2h-2V23z"/>
		<path style="fill:#D8DFEF;" d="M34,21v2c0,0.552,0.447,1,1,1s1-0.448,1-1v-2H34z"/>
	</g>
	<rect x="19" y="37" style="fill:#DDD6C7;" width="4" height="14"/>
</g>
<g>
</g>
<g>
</g>
<g>
</g>
<g>
</g>
<g>
</g>
<g>
</g>
<g>
</g>
<g>
</g>
<g>
</g>
<g>
</g>
<g>
</g>
<g>
</g>
<g>
</g>
<g>
</g>
<g>
</g>
</svg>
