<?xml version="1.0" encoding="iso-8859-1"?>
<!-- Generator: Adobe Illustrator 18.0.0, SVG Export Plug-In . SVG Version: 6.00 Build 0)  -->
<!DOCTYPE svg PUBLIC "-//W3C//DTD SVG 1.1//EN" "http://www.w3.org/Graphics/SVG/1.1/DTD/svg11.dtd">
<svg version="1.1" id="Capa_1" xmlns="http://www.w3.org/2000/svg" xmlns:xlink="http://www.w3.org/1999/xlink" x="0px" y="0px"
	 viewBox="0 0 57 57" style="enable-background:new 0 0 57 57;" xml:space="preserve">
<g>
	<path style="fill:#6B5B4B;" d="M35.503,10h-14V0.498C21.503,0.223,21.726,0,22.001,0h13.004c0.275,0,0.498,0.223,0.498,0.498V10z"
		/>
	<path style="fill:#937A60;" d="M27.503,4c2.209,0,4-1.791,4-4h-8C23.503,2.209,25.294,4,27.503,4z"/>
	<path style="fill:#937A60;" d="M28.453,10c0.024-0.165,0.05-0.329,0.05-0.5c0-1.933-1.567-3.5-3.5-3.5s-3.5,1.567-3.5,3.5
		c0,0.171,0.027,0.335,0.05,0.5H28.453z"/>
	<path style="fill:#937A60;" d="M35.503,5.511C35.084,5.195,34.569,5,34.003,5c-1.381,0-2.5,1.119-2.5,2.5
		c0,1.381,1.119,2.5,2.5,2.5c0.565,0,1.081-0.195,1.5-0.511V5.511z"/>
	<path style="fill:#F7E6A1;" d="M24.503,46h20.623l1.475-10c0.246-1.763,0.22-3.429-0.022-5H24.503V46z"/>
	<path style="fill:#6C4127;" d="M37.978,14h-18.95c-0.29,0-0.525-0.235-0.525-0.525v-2.95c0-0.29,0.235-0.525,0.525-0.525h18.95
		c0.29,0,0.525,0.235,0.525,0.525v2.95C38.503,13.765,38.268,14,37.978,14z"/>
	<g>
		<path style="fill:#6C4127;" d="M24.503,46V31h22.076c-0.925-6.022-5.191-10.558-11.076-13v-4h-14v4
			c-7.419,3.078-12.287,9.478-11.098,18l2.736,18.547C13.349,55.956,14.558,57,15.983,57h25.04c1.424,0,2.634-1.044,2.842-2.453
			L45.126,46H24.503z"/>
	</g>
	<rect x="21.503" y="14" style="fill:#472A1A;" width="14" height="4"/>
	<path style="fill:#87563A;" d="M21.065,54.547L18.329,36c-1.189-8.522,3.678-14.922,11.098-18v-4h-4v4
		c-7.419,3.078-12.287,9.478-11.098,18l2.736,18.547C17.273,55.956,18.482,57,19.907,57h4C22.482,57,21.273,55.956,21.065,54.547z"
		/>
	<rect x="25.427" y="14" style="fill:#6C4127;" width="4" height="4"/>
	<rect x="25.503" y="10" style="fill:#BA8263;" width="4" height="4"/>
</g>
<g>
</g>
<g>
</g>
<g>
</g>
<g>
</g>
<g>
</g>
<g>
</g>
<g>
</g>
<g>
</g>
<g>
</g>
<g>
</g>
<g>
</g>
<g>
</g>
<g>
</g>
<g>
</g>
<g>
</g>
</svg>
