<?xml version="1.0" encoding="iso-8859-1"?>
<!-- Generator: Adobe Illustrator 18.0.0, SVG Export Plug-In . SVG Version: 6.00 Build 0)  -->
<!DOCTYPE svg PUBLIC "-//W3C//DTD SVG 1.1//EN" "http://www.w3.org/Graphics/SVG/1.1/DTD/svg11.dtd">
<svg version="1.1" id="Capa_1" xmlns="http://www.w3.org/2000/svg" xmlns:xlink="http://www.w3.org/1999/xlink" x="0px" y="0px"
	 viewBox="0 0 58 58" style="enable-background:new 0 0 58 58;" xml:space="preserve">
<g>
	<circle style="fill:#C7CAC7;" cx="49" cy="50.451" r="1"/>
	<circle style="fill:#C7CAC7;" cx="53" cy="50.451" r="1"/>
	<circle style="fill:#C7CAC7;" cx="57" cy="50.451" r="1"/>
	<circle style="fill:#C7CAC7;" cx="49" cy="46.451" r="1"/>
	<circle style="fill:#C7CAC7;" cx="53" cy="46.451" r="1"/>
	<circle style="fill:#C7CAC7;" cx="57" cy="46.451" r="1"/>
	<circle style="fill:#C7CAC7;" cx="49" cy="54.451" r="1"/>
	<circle style="fill:#C7CAC7;" cx="53" cy="54.451" r="1"/>
	<circle style="fill:#C7CAC7;" cx="57" cy="54.451" r="1"/>
	<path style="fill:#E7ECED;" d="M17.783,11.183l-2.184-8.76c-0.33-1.325-1.672-2.131-2.997-1.801L1.875,3.297
		C0.55,3.628-0.256,4.969,0.074,6.294l3.152,12.641L17.783,11.183z"/>
	<path style="fill:#A9CEC7;" d="M3.354,8.051c-0.448,0-0.856-0.303-0.97-0.758C2.251,6.757,2.577,6.214,3.112,6.081l5.822-1.452
		c0.535-0.136,1.079,0.192,1.213,0.729c0.133,0.536-0.193,1.079-0.729,1.212L3.597,8.021C3.516,8.042,3.434,8.051,3.354,8.051z"/>
	<path style="fill:#A9CEC7;" d="M12.086,5.874c-0.448,0-0.856-0.304-0.97-0.758c-0.133-0.536,0.193-1.079,0.729-1.212l0.971-0.242
		c0.535-0.136,1.078,0.193,1.212,0.729c0.133,0.536-0.193,1.079-0.729,1.212l-0.971,0.242C12.247,5.864,12.166,5.874,12.086,5.874z"
		/>
	<path style="fill:#72A6BF;" d="M27.597,40.673l-7.994-30.459l-18.196,9.69l9.776,36.772c0.121,0.457,0.535,0.775,1.008,0.775
		h15.009H32h13v-16H28.605C28.131,41.451,27.717,41.131,27.597,40.673z"/>
	<path style="fill:#90C9E0;" d="M27.596,40.673l-7.994-30.459L9.156,15.777l6.619,24.899c0.121,0.457,0.535,0.775,1.008,0.775
		h11.822C28.131,41.451,27.717,41.131,27.596,40.673z"/>
</g>
<g>
</g>
<g>
</g>
<g>
</g>
<g>
</g>
<g>
</g>
<g>
</g>
<g>
</g>
<g>
</g>
<g>
</g>
<g>
</g>
<g>
</g>
<g>
</g>
<g>
</g>
<g>
</g>
<g>
</g>
</svg>
