<?xml version="1.0" encoding="iso-8859-1"?>
<!-- Generator: Adobe Illustrator 18.0.0, SVG Export Plug-In . SVG Version: 6.00 Build 0)  -->
<!DOCTYPE svg PUBLIC "-//W3C//DTD SVG 1.1//EN" "http://www.w3.org/Graphics/SVG/1.1/DTD/svg11.dtd">
<svg version="1.1" id="Capa_1" xmlns="http://www.w3.org/2000/svg" xmlns:xlink="http://www.w3.org/1999/xlink" x="0px" y="0px"
	 viewBox="0 0 57.996 57.996" style="enable-background:new 0 0 57.996 57.996;" xml:space="preserve">
<g>
	<path style="fill:#813F32;" d="M4.667,30.702c-6.223,6.223-6.223,16.405,0,22.627h0c6.223,6.223,16.405,6.223,22.627,0
		l13.111-13.111L17.778,17.591L4.667,30.702z"/>
	<path style="fill:#D6BB66;" d="M53.329,4.667L53.329,4.667c-6.223-6.223-16.405-6.223-22.627,0L17.778,17.591l22.627,22.627
		l12.924-12.924C59.552,21.072,59.552,10.889,53.329,4.667z"/>
	<path style="fill:#F9E19B;" d="M42.556,31.996c-0.256,0-0.512-0.098-0.707-0.293c-0.391-0.391-0.391-1.023,0-1.414l7.238-7.238
		c1.876-1.876,2.91-4.387,2.91-7.071s-1.033-5.195-2.91-7.071c-0.391-0.391-0.391-1.023,0-1.414s1.023-0.391,1.414,0
		c2.254,2.254,3.496,5.268,3.496,8.485s-1.241,6.231-3.496,8.485l-7.238,7.238C43.067,31.899,42.812,31.996,42.556,31.996z"/>
	<path style="fill:#BE6E41;" d="M5.636,46.738c-0.412,0-0.797-0.256-0.942-0.666c-2.821-7.955,3.663-13.944,8.873-18.757
		c0.975-0.9,1.895-1.75,2.727-2.582c0.391-0.391,1.023-0.391,1.414,0s0.391,1.023,0,1.414c-0.859,0.859-1.794,1.723-2.783,2.637
		c-5.027,4.644-10.726,9.908-8.346,16.619c0.185,0.521-0.087,1.092-0.608,1.277C5.859,46.719,5.747,46.738,5.636,46.738z"/>
	<path style="fill:#F9E19B;" d="M25,18.441c-0.256,0-0.512-0.098-0.707-0.293c-0.391-0.391-0.391-1.023,0-1.414l9.238-9.238
		l0.764,0.651l0.65,0.763l-9.238,9.238C25.512,18.343,25.256,18.441,25,18.441z"/>
</g>
<g>
</g>
<g>
</g>
<g>
</g>
<g>
</g>
<g>
</g>
<g>
</g>
<g>
</g>
<g>
</g>
<g>
</g>
<g>
</g>
<g>
</g>
<g>
</g>
<g>
</g>
<g>
</g>
<g>
</g>
</svg>
