<?xml version="1.0" encoding="iso-8859-1"?>
<!-- Generator: Adobe Illustrator 18.0.0, SVG Export Plug-In . SVG Version: 6.00 Build 0)  -->
<!DOCTYPE svg PUBLIC "-//W3C//DTD SVG 1.1//EN" "http://www.w3.org/Graphics/SVG/1.1/DTD/svg11.dtd">
<svg version="1.1" id="Capa_1" xmlns="http://www.w3.org/2000/svg" xmlns:xlink="http://www.w3.org/1999/xlink" x="0px" y="0px"
	 viewBox="0 0 58 58" style="enable-background:new 0 0 58 58;" xml:space="preserve">
<g>
	<path style="fill:#E7ECED;" d="M18,24.304v32.393C18,57.416,18.584,58,19.304,58h19.393C39.416,58,40,57.416,40,56.696V24.304
		C40,23.584,39.416,23,38.696,23H19.304C18.584,23,18,23.584,18,24.304z"/>
	<rect x="18" y="30" style="fill:#F7B563;" width="5" height="22"/>
	<rect x="28" y="30" style="fill:#F7B563;" width="12" height="22"/>
	<g>
		<rect x="32" y="38" style="fill:#F7E6A1;" width="8" height="2"/>
		<rect x="32" y="34" style="fill:#F7E6A1;" width="8" height="2"/>
		<rect x="32" y="42" style="fill:#F7E6A1;" width="8" height="2"/>
		<rect x="32" y="46" style="fill:#F7E6A1;" width="8" height="2"/>
	</g>
	<path style="fill:#25AE88;" d="M32.103,3.31L31,0h-4l-1.103,3.31C25.361,4.916,23.858,6,22.164,6h0C22.074,6,22,6.074,22,6.164V17
		h14V6.164C36,6.074,35.926,6,35.836,6h0C34.142,6,32.639,4.916,32.103,3.31z"/>
	<path style="fill:#57D8AB;" d="M25,18c-0.553,0-1-0.448-1-1V8c0-0.552,0.447-1,1-1s1,0.448,1,1v9C26,17.552,25.553,18,25,18z"/>
	<path style="fill:#57D8AB;" d="M29,18c-0.553,0-1-0.448-1-1V8c0-0.552,0.447-1,1-1s1,0.448,1,1v9C30,17.552,29.553,18,29,18z"/>
	<path style="fill:#57D8AB;" d="M33,18c-0.553,0-1-0.448-1-1V8c0-0.552,0.447-1,1-1s1,0.448,1,1v9C34,17.552,33.553,18,33,18z"/>
	<rect x="23" y="17" style="fill:#C7CAC7;" width="12" height="6"/>
	<path style="fill:#E7ECED;" d="M37,21H21c-0.553,0-1-0.448-1-1s0.447-1,1-1h16c0.553,0,1,0.448,1,1S37.553,21,37,21z"/>
	<rect x="23" y="23" style="fill:#F2F9F9;" width="5" height="35"/>
</g>
<g>
</g>
<g>
</g>
<g>
</g>
<g>
</g>
<g>
</g>
<g>
</g>
<g>
</g>
<g>
</g>
<g>
</g>
<g>
</g>
<g>
</g>
<g>
</g>
<g>
</g>
<g>
</g>
<g>
</g>
</svg>
