<?xml version="1.0" encoding="iso-8859-1"?>
<!-- Generator: Adobe Illustrator 18.0.0, SVG Export Plug-In . SVG Version: 6.00 Build 0)  -->
<!DOCTYPE svg PUBLIC "-//W3C//DTD SVG 1.1//EN" "http://www.w3.org/Graphics/SVG/1.1/DTD/svg11.dtd">
<svg version="1.1" id="Capa_1" xmlns="http://www.w3.org/2000/svg" xmlns:xlink="http://www.w3.org/1999/xlink" x="0px" y="0px"
	 viewBox="0 0 58 58" style="enable-background:new 0 0 58 58;" xml:space="preserve">
<g>
	<rect x="6" style="fill:#D6D6EA;" width="46" height="58"/>
	<rect x="8" y="2" style="fill:#E7ECED;" width="42" height="54"/>
	<path style="fill:#FFFFFF;" d="M29,53c-0.552,0-1-0.448-1-1v-2c0-0.552,0.448-1,1-1s1,0.448,1,1v2C30,52.552,29.552,53,29,53z
		 M29,44c-0.552,0-1-0.448-1-1v-2c0-0.552,0.448-1,1-1s1,0.448,1,1v2C30,43.552,29.552,44,29,44z M29,35c-0.552,0-1-0.448-1-1v-2
		c0-0.552,0.448-1,1-1s1,0.448,1,1v2C30,34.552,29.552,35,29,35z M29,26c-0.552,0-1-0.448-1-1v-2c0-0.552,0.448-1,1-1s1,0.448,1,1v2
		C30,25.552,29.552,26,29,26z M29,17c-0.552,0-1-0.448-1-1v-2c0-0.552,0.448-1,1-1s1,0.448,1,1v2C30,16.552,29.552,17,29,17z M29,8
		c-0.552,0-1-0.448-1-1V5c0-0.552,0.448-1,1-1s1,0.448,1,1v2C30,7.552,29.552,8,29,8z"/>
	<path style="fill:#57ABC1;" d="M17,4l-3,0c-2.183-0.022-3.977,1.746-4,3.929c-0.022,2.184,1.816,4.049,4,4.071l3,0V4z"/>
	<path style="fill:#57ABC1;" d="M17,18l-3,0c-2.183-0.022-3.977,1.746-4,3.929c-0.022,2.184,1.816,4.049,4,4.071l3,0V18z"/>
	<path style="fill:#57ABC1;" d="M17,32l-3,0c-2.183-0.022-3.977,1.746-4,3.929c-0.022,2.184,1.816,4.049,4,4.071l3,0V32z"/>
	<path style="fill:#57ABC1;" d="M17,46l-3,0c-2.183-0.022-3.977,1.746-4,3.929c-0.022,2.184,1.816,4.049,4,4.071l3,0V46z"/>
	<path style="fill:#57ABC1;" d="M41,4l-3,0c-2.183-0.022-3.977,1.746-4,3.929c-0.022,2.184,1.816,4.049,4,4.071l3,0V4z"/>
	<path style="fill:#57ABC1;" d="M41,18l-3,0c-2.183-0.022-3.977,1.746-4,3.929c-0.022,2.184,1.816,4.049,4,4.071l3,0V18z"/>
	<path style="fill:#57ABC1;" d="M41,32l-3,0c-2.183-0.022-3.977,1.746-4,3.929c-0.022,2.184,1.816,4.049,4,4.071l3,0V32z"/>
	<path style="fill:#57ABC1;" d="M41,46l-3,0c-2.183-0.022-3.977,1.746-4,3.929c-0.022,2.184,1.816,4.049,4,4.071l3,0V46z"/>
	<path style="fill:#EBBA16;" d="M20,4l-3,0v8l3,0c2.183,0.022,3.977-1.746,4-3.929C24.022,5.887,22.184,4.022,20,4z"/>
	<path style="fill:#EBBA16;" d="M20,18l-3,0v8l3,0c2.183,0.022,3.977-1.746,4-3.929C24.022,19.887,22.184,18.022,20,18z"/>
	<path style="fill:#EBBA16;" d="M20,32l-3,0v8l3,0c2.183,0.022,3.977-1.746,4-3.929C24.022,33.887,22.184,32.022,20,32z"/>
	<path style="fill:#EBBA16;" d="M20,46l-3,0v8l3,0c2.183,0.022,3.977-1.746,4-3.929C24.022,47.887,22.184,46.022,20,46z"/>
	<path style="fill:#EBBA16;" d="M44,4l-3,0v8l3,0c2.183,0.022,3.977-1.746,4-3.929C48.022,5.887,46.184,4.022,44,4z"/>
	<path style="fill:#EBBA16;" d="M44,18l-3,0v8l3,0c2.183,0.022,3.977-1.746,4-3.929C48.022,19.887,46.184,18.022,44,18z"/>
	<path style="fill:#EBBA16;" d="M44,32l-3,0v8l3,0c2.183,0.022,3.977-1.746,4-3.929C48.022,33.887,46.184,32.022,44,32z"/>
	<path style="fill:#EBBA16;" d="M44,46l-3,0v8l3,0c2.183,0.022,3.977-1.746,4-3.929C48.022,47.887,46.184,46.022,44,46z"/>
	<path style="fill:#EFCE4A;" d="M21,48h-4v2h4c0.55,0,1-0.45,1-1S21.55,48,21,48z"/>
	<path style="fill:#9CF7D4;" d="M13,50h4v-2h-4c-0.55,0-1,0.45-1,1S12.45,50,13,50z"/>
	<path style="fill:#EFCE4A;" d="M21,34h-4v2h4c0.55,0,1-0.45,1-1S21.55,34,21,34z"/>
	<path style="fill:#9CF7D4;" d="M13,36h4v-2h-4c-0.55,0-1,0.45-1,1S12.45,36,13,36z"/>
	<path style="fill:#EFCE4A;" d="M21,20h-4v2h4c0.55,0,1-0.45,1-1S21.55,20,21,20z"/>
	<path style="fill:#9CF7D4;" d="M13,22h4v-2h-4c-0.55,0-1,0.45-1,1S12.45,22,13,22z"/>
	<path style="fill:#EFCE4A;" d="M21,6h-4v2h4c0.55,0,1-0.45,1-1S21.55,6,21,6z"/>
	<path style="fill:#9CF7D4;" d="M13,8h4V6h-4c-0.55,0-1,0.45-1,1S12.45,8,13,8z"/>
	<path style="fill:#EFCE4A;" d="M45,48h-4v2h4c0.55,0,1-0.45,1-1S45.55,48,45,48z"/>
	<path style="fill:#9CF7D4;" d="M37,50h4v-2h-4c-0.55,0-1,0.45-1,1S36.45,50,37,50z"/>
	<path style="fill:#EFCE4A;" d="M45,34h-4v2h4c0.55,0,1-0.45,1-1S45.55,34,45,34z"/>
	<path style="fill:#9CF7D4;" d="M37,36h4v-2h-4c-0.55,0-1,0.45-1,1S36.45,36,37,36z"/>
	<path style="fill:#EFCE4A;" d="M45,20h-4v2h4c0.55,0,1-0.45,1-1S45.55,20,45,20z"/>
	<path style="fill:#9CF7D4;" d="M37,22h4v-2h-4c-0.55,0-1,0.45-1,1S36.45,22,37,22z"/>
	<path style="fill:#EFCE4A;" d="M45,6h-4v2h4c0.55,0,1-0.45,1-1S45.55,6,45,6z"/>
	<path style="fill:#9CF7D4;" d="M37,8h4V6h-4c-0.55,0-1,0.45-1,1S36.45,8,37,8z"/>
</g>
<g>
</g>
<g>
</g>
<g>
</g>
<g>
</g>
<g>
</g>
<g>
</g>
<g>
</g>
<g>
</g>
<g>
</g>
<g>
</g>
<g>
</g>
<g>
</g>
<g>
</g>
<g>
</g>
<g>
</g>
</svg>
