<?xml version="1.0" encoding="iso-8859-1"?>
<!-- Generator: Adobe Illustrator 18.0.0, SVG Export Plug-In . SVG Version: 6.00 Build 0)  -->
<!DOCTYPE svg PUBLIC "-//W3C//DTD SVG 1.1//EN" "http://www.w3.org/Graphics/SVG/1.1/DTD/svg11.dtd">
<svg version="1.1" id="Capa_1" xmlns="http://www.w3.org/2000/svg" xmlns:xlink="http://www.w3.org/1999/xlink" x="0px" y="0px"
	 viewBox="0 0 58 58" style="enable-background:new 0 0 58 58;" xml:space="preserve">
<g>
	<path style="fill:#6C4127;" d="M47.448,19.587l-2.511-4.018C44.324,14.59,44,13.459,44,12.305V9H14v3.305
		c0,1.154-0.324,2.286-0.936,3.264l-2.511,4.018C9.538,21.21,9,23.086,9,25v28.564C9,56.014,10.986,58,13.436,58h31.128
		C47.014,58,49,56.014,49,53.564V25C49,23.086,48.462,21.21,47.448,19.587z"/>
	<path style="fill:#966347;" d="M24,53.564V25c0-1.914,0.538-3.79,1.552-5.413l2.511-4.018C28.676,14.59,29,13.459,29,12.305V9h-9
		v3.305c0,1.154-0.324,2.286-0.936,3.264l-2.511,4.018C15.538,21.21,15,23.086,15,25v28.564C15,56.014,16.986,58,19.436,58h9
		C25.986,58,24,56.014,24,53.564z"/>
	<path style="fill:#F2ECBF;" d="M48.708,53H33V25h15.708C48.869,25,49,25.131,49,25.292v27.416C49,52.869,48.869,53,48.708,53z"/>
	<path style="fill:#F2ECBF;" d="M9.292,53H16V25H9.292C9.131,25,9,25.131,9,25.292v27.416C9,52.869,9.131,53,9.292,53z"/>
	<rect x="38" y="38" style="fill:#C9BE7D;" width="11" height="2"/>
	<rect x="38" y="42" style="fill:#C9BE7D;" width="11" height="2"/>
	<rect x="38" y="30" style="fill:#C9BE7D;" width="11" height="2"/>
	<rect x="38" y="34" style="fill:#C9BE7D;" width="11" height="2"/>
	<rect x="38" y="46" style="fill:#C9BE7D;" width="11" height="2"/>
	<rect x="26" style="fill:#E7ECED;" width="2" height="9"/>
	<rect x="30" style="fill:#E7ECED;" width="2" height="9"/>
	<rect x="22" style="fill:#E7ECED;" width="2" height="9"/>
	<rect x="13" style="fill:#E7ECED;" width="3" height="9"/>
	<rect x="18" style="fill:#E7ECED;" width="2" height="9"/>
	<rect x="34" style="fill:#E7ECED;" width="2" height="9"/>
	<rect x="38" style="fill:#E7ECED;" width="2" height="9"/>
	<rect x="42" style="fill:#E7ECED;" width="3" height="9"/>
	<g>
		<rect x="16" style="fill:#C1C4C9;" width="2" height="9"/>
		<rect x="20" style="fill:#C1C4C9;" width="2" height="9"/>
		<rect x="24" style="fill:#C1C4C9;" width="2" height="9"/>
		<rect x="28" style="fill:#C1C4C9;" width="2" height="9"/>
		<rect x="32" style="fill:#C1C4C9;" width="2" height="9"/>
		<rect x="36" style="fill:#C1C4C9;" width="2" height="9"/>
		<rect x="40" style="fill:#C1C4C9;" width="2" height="9"/>
	</g>
	<rect x="14" y="9" style="fill:#492C1B;" width="30" height="2"/>
</g>
<g>
</g>
<g>
</g>
<g>
</g>
<g>
</g>
<g>
</g>
<g>
</g>
<g>
</g>
<g>
</g>
<g>
</g>
<g>
</g>
<g>
</g>
<g>
</g>
<g>
</g>
<g>
</g>
<g>
</g>
</svg>
