<?xml version="1.0" encoding="iso-8859-1"?>
<!-- Generator: Adobe Illustrator 18.0.0, SVG Export Plug-In . SVG Version: 6.00 Build 0)  -->
<!DOCTYPE svg PUBLIC "-//W3C//DTD SVG 1.1//EN" "http://www.w3.org/Graphics/SVG/1.1/DTD/svg11.dtd">
<svg version="1.1" id="Capa_1" xmlns="http://www.w3.org/2000/svg" xmlns:xlink="http://www.w3.org/1999/xlink" x="0px" y="0px"
	 viewBox="0 0 58 58" style="enable-background:new 0 0 58 58;" xml:space="preserve">
<g>
	<rect x="13" style="fill:#E7ECED;" width="32" height="12"/>
	<rect x="14" y="12" style="fill:#F77400;" width="30" height="46"/>
	<rect x="14" y="21.917" style="fill:#F2ECBF;" width="4" height="28"/>
	<path style="fill:#F2ECBF;" d="M43.708,50H28V22h15.708C43.869,22,44,22.131,44,22.292v27.416C44,49.869,43.869,50,43.708,50z"/>
	<g>
		<rect x="33" y="35" style="fill:#C9BE7D;" width="11" height="2"/>
		<rect x="33" y="39" style="fill:#C9BE7D;" width="11" height="2"/>
		<rect x="33" y="27" style="fill:#C9BE7D;" width="11" height="2"/>
		<rect x="33" y="31" style="fill:#C9BE7D;" width="11" height="2"/>
		<rect x="33" y="43" style="fill:#C9BE7D;" width="11" height="2"/>
	</g>
	<g>
		<rect x="16" style="fill:#C1C4C9;" width="2" height="12"/>
		<rect x="20" style="fill:#C1C4C9;" width="2" height="12"/>
		<rect x="24" style="fill:#C1C4C9;" width="2" height="12"/>
		<rect x="28" style="fill:#C1C4C9;" width="2" height="12"/>
		<rect x="32" style="fill:#C1C4C9;" width="2" height="12"/>
		<rect x="36" style="fill:#C1C4C9;" width="2" height="12"/>
		<rect x="40" style="fill:#C1C4C9;" width="2" height="12"/>
	</g>
	<rect x="14" y="12" style="fill:#C15505;" width="30" height="4"/>
	<rect x="14" y="54" style="fill:#C15505;" width="30" height="4"/>
	<rect x="21" y="12" style="fill:#D36318;" width="4" height="4"/>
	<rect x="21" y="16" style="fill:#F98630;" width="4" height="38"/>
	<rect x="21" y="54" style="fill:#D36318;" width="4" height="4"/>
</g>
<g>
</g>
<g>
</g>
<g>
</g>
<g>
</g>
<g>
</g>
<g>
</g>
<g>
</g>
<g>
</g>
<g>
</g>
<g>
</g>
<g>
</g>
<g>
</g>
<g>
</g>
<g>
</g>
<g>
</g>
</svg>
