<?xml version="1.0" encoding="iso-8859-1"?>
<!-- Generator: Adobe Illustrator 19.0.0, SVG Export Plug-In . SVG Version: 6.00 Build 0)  -->
<svg version="1.1" id="Capa_1" xmlns="http://www.w3.org/2000/svg" xmlns:xlink="http://www.w3.org/1999/xlink" x="0px" y="0px"
	 viewBox="0 0 483.556 483.556" style="enable-background:new 0 0 483.556 483.556;" xml:space="preserve">
<g transform="matrix(1.25 0 0 -1.25 0 45)">
	<g>
		<g>
			<path style="fill:#4289C1;" d="M364.089-168.8c13.505,0,22.756-8.943,22.756-22.756c0-12.208-11.184-22.756-22.756-22.756
				H238.933c-17.021,0-22.756,9.262-22.756,22.756c0,6.428,7.191,16.976,11.378,22.756l91.022,136.533h-79.644
				c-12.834,0-22.756,9.591-22.756,22.756c0,12.208,10.57,22.756,22.756,22.756h125.156c18.648,0,22.756-11.514,22.756-22.756
				c0-7.066-7.225-17.294-11.378-22.756L284.444-168.8H364.089z"/>
			<path style="fill:#4289C1;" d="M182.044-225.689c7.202,0,11.378-4.005,11.378-11.378c0-6.519-5.211-11.378-11.378-11.378h-68.267
				c-9.079,0-11.378,4.176-11.378,11.378c0,3.425,3.834,8.306,6.064,11.378l50.825,68.267h-45.511
				c-6.849,0-11.378,4.369-11.378,11.378c0,6.519,4.87,11.378,11.378,11.378h68.267c9.944,0,11.378-5.382,11.378-11.378
				c0-3.766-3.846-9.978-6.064-12.891l-50.825-66.753H182.044z"/>
			<path style="fill:#4289C1;" d="M79.644-305.333c7.202,0,11.378-4.016,11.378-11.378c0-6.519-5.211-11.378-11.378-11.378H11.378
				C2.298-328.089,0-323.913,0-316.711c0,3.425,3.834,8.294,6.064,11.378l50.825,68.267H11.378C4.528-237.067,0-232.698,0-225.689
				c0,6.508,4.87,11.378,11.378,11.378h68.267c9.944,0,11.378-5.382,11.378-11.378c0-3.766-3.846-9.978-6.064-12.891l-50.825-66.753
				H79.644z"/>
		</g>
	</g>
</g>
<g>
</g>
<g>
</g>
<g>
</g>
<g>
</g>
<g>
</g>
<g>
</g>
<g>
</g>
<g>
</g>
<g>
</g>
<g>
</g>
<g>
</g>
<g>
</g>
<g>
</g>
<g>
</g>
<g>
</g>
</svg>
