<?xml version="1.0" encoding="iso-8859-1"?>
<!-- Generator: Adobe Illustrator 19.0.0, SVG Export Plug-In . SVG Version: 6.00 Build 0)  -->
<svg version="1.1" id="Capa_1" xmlns="http://www.w3.org/2000/svg" xmlns:xlink="http://www.w3.org/1999/xlink" x="0px" y="0px"
	 viewBox="0 0 512 512" style="enable-background:new 0 0 512 512;" xml:space="preserve">
<g transform="matrix(1.25 0 0 -1.25 0 45)">
	<g>
		<path style="fill:#CCD6DD;" d="M273.067-77.778c0-12.561-10.183-22.756-22.756-22.756h-91.022
			c-12.561,0-22.756,10.195-22.756,22.756v91.022c0,12.561,10.195,22.756,22.756,22.756h91.022
			c12.572,0,22.756-10.195,22.756-22.756L273.067-77.778L273.067-77.778z"/>
		<path style="fill:#CCD6DD;" d="M0-123.289v-227.556C0-363.417,10.195-373.6,22.756-373.6h364.089
			c12.572,0,22.756,10.183,22.756,22.756v227.556H0z"/>
	</g>
	<g>
		<path style="fill:#99AAB5;" d="M204.8-100.533H22.756C10.195-100.533,0-110.716,0-123.289h227.556
			C227.556-110.716,217.372-100.533,204.8-100.533"/>
		<path style="fill:#99AAB5;" d="M386.844-100.533H204.8c-12.561,0-22.756-10.183-22.756-22.756H409.6
			C409.6-110.716,399.417-100.533,386.844-100.533"/>
	</g>
	<g>
		<path style="fill:#55ACEE;" d="M386.844-259.822H22.756v45.511h364.089L386.844-259.822L386.844-259.822z"/>
		<path style="fill:#55ACEE;" d="M386.844-191.556H22.756v45.511h364.089L386.844-191.556L386.844-191.556z"/>
		<path style="fill:#55ACEE;" d="M386.844-328.089H22.756v45.511h364.089L386.844-328.089L386.844-328.089z"/>
	</g>
	<path style="fill:#E1E8ED;" d="M318.578-373.6H91.022v273.067h227.556V-373.6z"/>
	<g>
		<path style="fill:#55ACEE;" d="M295.822-237.067H113.778v45.511h182.044V-237.067z"/>
		<path style="fill:#55ACEE;" d="M295.822-168.8H113.778v45.511h182.044V-168.8z"/>
		<path style="fill:#55ACEE;" d="M295.822-305.333H113.778v45.511h182.044V-305.333z"/>
	</g>
	<path style="fill:#3B88C3;" d="M261.689-373.6H147.911v45.511h113.778V-373.6z"/>
	<path style="fill:#DD2E44;" d="M250.311-9.511h-34.133v34.133h-22.756V-9.511h-34.133v-22.756h34.133V-66.4h22.756v34.133h34.133
		V-9.511z"/>
	<path style="fill:#99AAB5;" d="M295.822-77.778H113.778c-12.561,0-22.756-10.183-22.756-22.756h227.556
		C318.578-87.961,308.395-77.778,295.822-77.778"/>
</g>
<g>
</g>
<g>
</g>
<g>
</g>
<g>
</g>
<g>
</g>
<g>
</g>
<g>
</g>
<g>
</g>
<g>
</g>
<g>
</g>
<g>
</g>
<g>
</g>
<g>
</g>
<g>
</g>
<g>
</g>
</svg>
